<?xml version="1.0" encoding="UTF-8"?>
<svg xmlns="http://www.w3.org/2000/svg" id="Layer_2" data-name="Layer 2" viewBox="0 0 50 50">
  <defs>
    <style>
      .cls-1 {
        fill: #9a0212;
      }

      .cls-2 {
        fill: none;
      }
    </style>
  </defs>
  <g id="Layer_1-2" data-name="Layer 1">
    <g>
      <path class="cls-1" d="m24.94,25.99h-9.73c-.52,0-.92-.15-1.14-.64-.26-.58.05-1.26.67-1.43.22-.06.45-.07.67-.07h19.41c.68.04,1.15.49,1.15,1.08,0,.62-.48,1.06-1.2,1.06-3.27,0-6.55,0-9.83,0Z"></path>
      <path d="m24.95,20.05h-9.45c-.19,0-.39,0-.58-.02-.5-.05-.87-.42-.93-.91-.06-.52.23-.98.71-1.14.22-.07.45-.07.67-.07h19.19c.23,0,.46,0,.67.08.46.16.78.63.73,1.09-.05.51-.43.91-.94.96-.19.02-.39.02-.58.02-3.16-.01-6.33-.01-9.49-.01Z"></path>
      <path class="cls-1" d="m18.59,14.11h-3.55c-.49,0-.84-.26-1-.71-.15-.42-.05-.8.27-1.12.23-.23.53-.3.85-.3,2.29,0,4.58,0,6.87,0,.7,0,1.14.43,1.15,1.05,0,.65-.43,1.07-1.17,1.08-1.15,0-2.28,0-3.42,0h0Z"></path>
      <path d="m18.57,8.17h-3.35c-.79,0-1.24-.4-1.24-1.06s.47-1.08,1.23-1.08c2.25-.01,4.5-.01,6.76,0,.61,0,1.04.3,1.17.76.2.72-.26,1.36-1.02,1.37-1.18.02-2.36,0-3.55,0t0,0Z"></path>
      <path class="cls-1" d="m24.97,43.92h-4.38c-.61,0-.98-.24-1.15-.71-.21-.59.11-1.22.72-1.37.2-.05.42-.06.63-.06h8.42c.13,0,.26-.01.39.01.61.06,1.05.53,1.03,1.09-.02.57-.45,1.03-1.08,1.03-1.53.01-3.05,0-4.58.01t0,0Z"></path>
      <g>
        <path d="m45.36,5.74h-3.55c-.49,0-.84-.26-1-.71-.15-.42-.05-.8.27-1.12.23-.23.53-.3.85-.3,2.29,0,4.58-.01,6.87,0,.7,0,1.14.43,1.15,1.05.01.65-.43,1.07-1.17,1.08-1.14.02-2.28.01-3.42,0t0,0Z"></path>
        <path d="m44.28,4.7V1.15c0-.49.26-.84.71-1,.42-.15.8-.05,1.12.27.23.23.3.53.3.85,0,2.29.01,4.58,0,6.87,0,.7-.43,1.14-1.05,1.15-.65,0-1.07-.43-1.08-1.17-.02-1.15-.01-2.28,0-3.42-.01,0,0,0,0,0Z"></path>
      </g>
      <path class="cls-1" d="m49.93,31.45c0-1.11-.35-1.46-1.44-1.46-2.03,0-4.06,0-6.09,0-.42,0-.49-.12-.49-.51.01-5.69,0-11.39.01-17.09,0-.54-.17-.96-.55-1.34-3.48-3.45-6.94-6.92-10.4-10.4-.41-.41-.85-.58-1.43-.58-6.65.01-13.31.01-19.96.01-1.17,0-1.51.34-1.51,1.5,0,9.3,0,18.6,0,27.9,0,.4-.08.51-.5.51-2.01-.03-4.03,0-6.04-.02-.65,0-1.16.16-1.48.76v18.31c.12.42.46.63.78.88h48.21c.69-.28.89-.79.89-1.52-.02-5.66-.01-11.31-.01-16.96ZM31.03,3.83c2.39,2.39,4.74,4.74,7.1,7.1-.05.11-.18.04-.28.04h-6.42c-.2,0-.41.07-.41-.29.01-2.26.01-4.53.01-6.85Zm-20.81,12.3c0-4.46,0-8.92,0-13.39,0-.39.08-.52.5-.52,5.89.01,11.79.01,17.68,0,.39,0,.51.09.51.5-.02,3.02,0,6.04,0,9.06,0,1,.35,1.34,1.35,1.34,3.02,0,6.04,0,9.06,0,.42,0,.5.12.5.51-.01,5.29-.01,10.58,0,15.87,0,.41-.12.5-.51.5-1.64-.02-3.28,0-4.92,0-1.08,0-1.42.35-1.42,1.44,0,1.32,0,2.63,0,3.95,0,.4-.13.47-.49.47-4.98,0-9.97,0-14.95,0-.36,0-.47-.07-.46-.45.02-1.35,0-2.7,0-4.04,0-.98-.37-1.36-1.35-1.36-1.67,0-3.34,0-5.01,0-.38,0-.49-.09-.49-.48v-13.39ZM2.19,32.62c0-.4.09-.5.5-.5,3.91.02,7.82.02,11.73,0,.37,0,.5.08.49.48-.02,1.35,0,2.69,0,4.04,0,.96.37,1.33,1.32,1.33h17.53c.95,0,1.32-.37,1.32-1.33,0-1.35,0-2.69,0-4.04,0-.34.05-.48.44-.48,3.96,0,7.92,0,11.88,0,.32,0,.4.08.4.4-.01,4.94-.01,9.87,0,14.8,0,.41-.16.43-.48.43-7.45-.01-14.9,0-22.35,0s-14.83,0-22.25.01c-.43,0-.53-.09-.53-.53.04-4.87.04-9.73.02-14.61Z"></path>
      <path class="cls-2" d="m31.02,10.69c0-2.27,0-4.53,0-6.85,2.39,2.39,4.74,4.74,7.1,7.1-.05.11-.18.04-.28.04h-6.42c-.21,0-.41.06-.41-.29Z"></path>
      <path class="cls-2" d="m10.21,29.52c0-4.46,0-8.92,0-13.38s0-8.92,0-13.39c0-.39.08-.52.5-.52,5.89.01,11.79.01,17.68,0,.39,0,.51.09.51.5-.02,3.02,0,6.04,0,9.06,0,1,.35,1.34,1.35,1.34,3.02,0,6.04,0,9.06,0,.42,0,.5.12.5.51-.01,5.29-.01,10.58,0,15.87,0,.41-.12.5-.51.5-1.64-.02-3.28,0-4.92,0-1.08,0-1.42.35-1.42,1.44,0,1.32,0,2.63,0,3.95,0,.4-.13.47-.49.47-4.98,0-9.97,0-14.95,0-.36,0-.47-.07-.46-.45.02-1.35,0-2.7,0-4.04,0-.98-.37-1.36-1.35-1.36-1.67,0-3.34,0-5.01,0-.4,0-.5-.11-.5-.49Z"></path>
      <path class="cls-2" d="m47.8,47.33c0,.41-.16.43-.48.43-7.45-.01-14.9,0-22.35,0s-14.83,0-22.25.01c-.43,0-.53-.09-.53-.53.01-4.87.01-9.73,0-14.6,0-.4.09-.5.5-.5,3.91.02,7.82.02,11.73,0,.37,0,.5.08.49.48-.02,1.35,0,2.69,0,4.04,0,.96.37,1.33,1.32,1.33h17.53c.95,0,1.32-.37,1.32-1.33,0-1.35,0-2.69,0-4.04,0-.34.05-.48.44-.48,3.96,0,7.92,0,11.88,0,.32,0,.4.08.4.4,0,4.92,0,9.85.02,14.79Z"></path>
      <path class="cls-2" d="m0,0v50h50V0S0,0,0,0Zm49.05,49.92H.84c-.31-.25-.66-.46-.78-.88v-18.3c.32-.59.83-.77,1.48-.76,2.01.03,4.03,0,6.04.02.41,0,.5-.11.5-.51,0-9.3,0-18.6,0-27.9,0-1.16.34-1.5,1.51-1.5,6.65,0,13.31,0,19.96-.01.58,0,1.02.17,1.43.58,3.46,3.48,6.92,6.94,10.4,10.4.38.38.55.8.55,1.34-.01,5.69,0,11.39-.01,17.09,0,.39.07.52.49.51,2.03-.03,4.06,0,6.09,0,1.1,0,1.44.35,1.44,1.46,0,5.65-.01,11.3.01,16.95.01.73-.2,1.24-.89,1.52Z"></path>
    </g>
  </g>
</svg>
