<?xml version="1.0" encoding="UTF-8"?>
<svg xmlns="http://www.w3.org/2000/svg" id="Layer_2" data-name="Layer 2" viewBox="0 0 50 50">
  <defs>
    <style>
      .cls-1 {
        fill: #9a0212;
      }

      .cls-2 {
        fill: none;
      }
    </style>
  </defs>
  <g id="Layer_1-2" data-name="Layer 1">
    <g>
      <g>
        <path class="cls-1" d="m.06,25.88v-15.1c.34-.57.85-.72,1.5-.72,2.97.03,5.94,0,8.91.02.41,0,.51-.12.5-.51-.03-.97-.02-1.95,0-2.92,0-.76-.08-1.53.05-2.28C11.45,1.79,13.48.08,16.11.07c3.1-.01,6.2,0,9.3,0s6.23-.02,9.35.01c2.71.02,4.88,2.17,4.95,4.87.04,1.51.03,3.02,0,4.53-.01.47.08.63.6.62,2.79-.03,5.58-.02,8.38,0,.86,0,1.25.39,1.25,1.25v13.98c0,.76-.24,1.07-.99,1.28-.45.13-.9.27-1.36.36-.39.08-.53.24-.53.67.02,6.95.01,13.89.02,20.84,0,.65-.16,1.16-.74,1.49H3.27c-.59-.32-.76-.83-.75-1.49.01-6.98,0-13.95.02-20.93,0-.44-.13-.6-.56-.7-.7-.18-1.49-.23-1.92-.96Zm18.01,5.37c-.09-.02-.19-.04-.28-.07-4.2-1.15-8.4-2.3-12.59-3.47-.44-.12-.53-.06-.53.4.02,6.38.01,12.76,0,19.14,0,.44.11.55.55.55,7.47-.01,14.94-.01,22.4-.01h16.85c.27,0,.47.04.47-.37-.01-6.44-.01-12.89,0-19.33,0-.4-.13-.4-.45-.31-1.59.44-3.19.87-4.78,1.29-2.72.73-5.44,1.45-8.16,2.17v-2.21c.08,0,.16-.02.24-.05,5.24-1.41,10.47-2.82,15.71-4.22.25-.07.32-.18.32-.43-.01-3.93-.01-7.86,0-11.79,0-.29-.09-.35-.36-.34-1.02.02-2.05,0-3.07,0-13.9,0-27.8,0-41.7,0-.34,0-.5.03-.5.45.02,3.88.02,7.76,0,11.64,0,.3.09.41.37.49,1.77.47,3.53.97,5.29,1.45,3.4.93,6.81,1.86,10.21,2.79,0,.75,0,1.49,0,2.23Zm7.24-21.18c3.95,0,7.89,0,11.84,0,.31,0,.46-.04.45-.41-.02-1.51,0-3.02,0-4.53-.02-1.71-1.26-2.93-2.97-2.93-6.17-.01-12.34-.01-18.51,0-1.76,0-2.99,1.24-3,3.01,0,1.46,0,2.92,0,4.38,0,.38.09.48.48.48,3.9,0,7.82,0,11.73,0Z"></path>
        <path d="m31.54,31.25c0,1.57,0,3.15,0,4.72,0,.89-.41,1.3-1.32,1.3h-10.81c-.9,0-1.31-.41-1.31-1.3,0-1.57,0-3.15,0-4.72v-2.22c0-.53,0-1.07,0-1.6,0-.76.41-1.21,1.15-1.21,3.7,0,7.4,0,11.09,0,.78,0,1.18.45,1.19,1.23,0,.53,0,1.07.02,1.6v2.2Zm-6.74-2.91c-1.36,0-2.72,0-4.09,0-.36,0-.5.07-.5.47.02,1.96.02,3.92,0,5.89,0,.33.07.45.42.44,2.77,0,5.55,0,8.32,0,.35,0,.43-.12.42-.44,0-1.96-.02-3.92,0-5.89,0-.41-.14-.48-.5-.47-1.34.02-2.71,0-4.07,0Z"></path>
      </g>
      <rect class="cls-2" width="50" height="50"></rect>
    </g>
  </g>
</svg>
