<?xml version="1.0" encoding="UTF-8"?>
<svg xmlns="http://www.w3.org/2000/svg" id="Layer_2" data-name="Layer 2" viewBox="0 0 50 50">
  <defs>
    <style>
      .cls-1 {
        fill: #9a0212;
      }

      .cls-2 {
        fill: none;
      }
    </style>
  </defs>
  <g id="Layer_1-2" data-name="Layer 1">
    <g>
      <g>
        <path class="cls-1" d="m.75,49.95c-.58-.38-.69-.92-.69-1.58.02-11.19.01-22.38.01-33.56,0-1.14.34-1.48,1.47-1.48,5.52,0,11.04,0,16.56,0,.42,0,.49-.11.49-.51-.02-3.8,0-7.6,0-11.4,0-1,.37-1.37,1.38-1.37h10.13c.94,0,1.33.39,1.33,1.32,0,3.82,0,7.63,0,11.45,0,.4.08.51.49.5,5.52-.02,11.04,0,16.56-.02.66,0,1.17.17,1.47.78v35.18c-.22.28-.47.52-.78.68-16.12,0-32.26,0-48.4,0Zm24.21-2.15c7.45,0,14.9,0,22.36.01.41,0,.5-.1.5-.5-.01-10.44-.01-20.88,0-31.33,0-.41-.06-.54-.51-.54-4.24.02-8.48,0-12.71,0-.94,0-1.88,0-2.83,0-.25,0-.34.05-.34.32,0,1.07,0,2.14,0,3.22,0,.21.06.28.27.28.42-.02.84,0,1.27,0,.96,0,1.92,0,2.87,0,.62,0,1.04.39,1.13.94.07.48-.24,1-.72,1.14-.21.06-.45.06-.67.06H14.44c-.13,0-.26,0-.39,0-.47-.03-.78-.28-.94-.72-.26-.73.27-1.4,1.12-1.41,1.32,0,2.63-.02,3.95,0,.35,0,.42-.1.42-.43-.02-.96-.03-1.92,0-2.87,0-.39-.07-.51-.49-.51-5.13.02-10.26.02-15.39,0-.39,0-.51.07-.51.49.01,10.46.01,20.92,0,31.37,0,.41.11.49.5.49,7.41-.02,14.83-.02,22.25-.02Zm-4.23-37.12c0,2.71,0,5.42,0,8.13,0,.35.07.46.44.46,2.56-.02,5.13-.02,7.69,0,.38,0,.44-.11.44-.46,0-5.39,0-10.78,0-16.17,0-.35-.07-.46-.44-.46-2.56.02-5.13.02-7.69,0-.38,0-.44.11-.44.46,0,2.69,0,5.36,0,8.04Z"></path>
        <path class="cls-1" d="m17.33,35.86c1.79.93,3.09,2.32,3.85,4.2.1.25.18.52.26.78.23.79-.04,1.37-.71,1.55-.6.17-1.13-.2-1.35-.94-.6-2.02-1.89-3.37-3.89-4.01-3.03-.97-6.3.75-7.25,3.79-.05.15-.09.31-.15.46-.23.58-.76.85-1.32.67-.57-.19-.87-.71-.71-1.31.58-2.19,1.84-3.87,3.82-4.99.38-.21.34-.3.07-.58-1.65-1.68-1.98-4.26-.83-6.29,1.17-2.08,3.54-3.15,5.83-2.63,2.29.52,3.98,2.47,4.15,4.81.12,1.61-.4,2.99-1.52,4.16-.1.11-.23.17-.25.33Zm-6.75-4.08c0,1.76,1.4,3.19,3.16,3.22,1.75.03,3.24-1.45,3.23-3.21,0-1.76-1.44-3.19-3.19-3.19-1.77,0-3.19,1.42-3.2,3.18Z"></path>
        <path class="cls-1" d="m35.54,34.14h7.35c.52,0,.92.17,1.13.67.24.58-.06,1.21-.66,1.41-.22.07-.45.07-.67.07h-14.26c-.15,0-.29,0-.44,0-.61-.08-1.02-.56-.99-1.12.03-.58.47-1,1.1-1,1.23,0,2.47,0,3.7,0,1.24-.02,2.49-.02,3.74-.02Z"></path>
        <path d="m35.55,28.2h7.4c.47,0,.82.18,1.04.59.19.36.15.72-.07,1.06-.26.4-.66.5-1.1.5h-14.5c-.77,0-1.23-.36-1.28-.98-.06-.71.39-1.16,1.16-1.17,2.21,0,4.41,0,6.62,0,.25,0,.49,0,.73,0Z"></path>
        <path class="cls-1" d="m31.63,40.09h3.36c.72,0,1.2.43,1.2,1.06s-.48,1.08-1.19,1.08c-2.27.01-4.54.01-6.81,0-.71,0-1.17-.47-1.16-1.1,0-.64.47-1.03,1.21-1.04,1.12-.01,2.25,0,3.39,0Z"></path>
      </g>
      <rect class="cls-2" width="50" height="50"></rect>
    </g>
  </g>
</svg>
