<?xml version="1.0" encoding="UTF-8"?>
<svg xmlns="http://www.w3.org/2000/svg" id="Layer_2" data-name="Layer 2" viewBox="0 0 50 50">
  <defs>
    <style>
      .cls-1 {
        fill: #9a0212;
      }

      .cls-2 {
        fill: none;
      }
    </style>
  </defs>
  <g id="Layer_1-2" data-name="Layer 1">
    <g>
      <path class="cls-1" d="m49.94,42.47V5.6c0-1.16-.31-1.48-1.47-1.48-1.59,0-3.18,0-4.77.01v2.13c1.23,0,2.47.01,3.7,0,.31,0,.4.07.4.4-.02,1.91-.02,3.83,0,5.74.01.4-.1.5-.5.5-12.9,0-25.8,0-38.7,0-1.98,0-3.96,0-5.94,0-.39,0-.47-.11-.47-.48.02-1.9.02-3.8,0-5.7-.01-.4.13-.47.49-.46,1.17.02,2.34.01,3.51.01v-2.14c-1.54,0-3.08.02-4.62-.01-.65-.01-1.16.15-1.5.72v44.33c.4.59.97.69,1.64.68,15.6-.01,31.2-.01,46.81-.01.43,0,.85-.02,1.16-.37.23-.26.28-.57.28-.9-.02-2.04-.02-4.07-.02-6.1Zm-2.66,5.23c-14.85-.01-29.71-.01-44.56,0-.42,0-.53-.09-.53-.52.01-10.55.01-21.11,0-31.66,0-.41.1-.5.5-.5,7.43,0,14.87,0,22.3,0s14.87,0,22.3,0c.4,0,.5.08.5.49-.01,10.55-.01,21.11,0,31.66.02.44-.08.53-.51.53Z"></path>
      <path d="m43.7,6.26c-.01.66,0,1.33-.02,1.99-.01.49-.22.87-.7,1.06-.43.17-.79.05-1.12-.24-.23-.21-.32-.48-.32-.79,0-.68-.01-1.36-.01-2.04v-2.12c0-.92,0-1.85.01-2.77.01-.72.43-1.2,1.06-1.2.62-.01,1.07.48,1.08,1.19.02.92.01,1.85.02,2.77v2.15Z"></path>
      <path d="m8.36,6.27c0,.65,0,1.3-.02,1.94,0,.75-.44,1.22-1.1,1.2-.63,0-1.04-.48-1.05-1.21-.01-.65-.01-1.3-.01-1.94v-2.14c0-.91.01-1.82.01-2.72.01-.72.42-1.18,1.07-1.18s1.06.45,1.07,1.18c0,.91,0,1.82,0,2.72.02.72.02,1.43.02,2.15Z"></path>
      <path class="cls-1" d="m41.54,4.14v2.12c-2.68,0-5.35.01-8.03.01-2.51,0-5.03,0-7.54-.01v-2.13c5.19,0,10.38,0,15.57.01Z"></path>
      <path class="cls-1" d="m8.36,6.27v-2.14h14.86c.18,0,.36.01.53.01,0,.71,0,1.41,0,2.12-4.51,0-9.02.01-13.53.01-.62,0-1.24,0-1.85,0Z"></path>
      <path d="m23.74,6.25c0-.71,0-1.41,0-2.12,0-.89,0-1.78.03-2.67,0-.65.26-1.05.72-1.2.73-.25,1.41.25,1.45,1.1.02.63,0,1.26,0,1.89,0,.29,0,.58,0,.87v2.13c0,.68,0,1.36-.02,2.04-.02.47-.2.85-.66,1.04-.41.16-.79.1-1.13-.19-.27-.23-.33-.53-.35-.87-.04-.66.07-1.34-.07-2.02Z"></path>
      <path class="cls-1" d="m40.43,20.42H9.45c-1.01,0-1.39.37-1.39,1.36v18.76c0,1,.38,1.38,1.39,1.38h30.98c.99,0,1.35-.37,1.35-1.35v-18.8c0-1-.36-1.35-1.35-1.35Zm-6.22,2.13c.84,0,1.69,0,2.53,0s1.69,0,2.53,0c.25,0,.37.02.37.33-.02,1.22-.01,2.43,0,3.65,0,.25-.06.33-.32.33-1.7,0-3.41,0-5.11,0-.26,0-.33-.08-.33-.33,0-1.22,0-2.43,0-3.65,0-.26.08-.33.33-.33Zm-8.23.35c0-.28.08-.36.35-.35.84.02,1.69,0,2.53,0s1.69,0,2.53,0c.28,0,.35.08.34.35,0,1.2,0,2.4,0,3.6,0,.27-.07.35-.35.35-1.69,0-3.38,0-5.06,0-.28,0-.35-.08-.35-.36.03-1.18.03-2.38.01-3.59Zm-10.02,16.55c0,.26-.08.33-.33.33-1.69-.01-3.38-.01-5.07,0-.27,0-.37-.07-.36-.35.02-1.22,0-2.44,0-3.65,0-.26.09-.33.34-.32.86,0,4.24,0,5.07,0,.27,0,.36.07.36.35-.03,1.21-.03,2.42,0,3.64Zm0-6.46c0,.26-.08.32-.33.32-1.69,0-3.38,0-5.06,0-.32,0-.37-.11-.37-.39,0-1.18.02-2.37,0-3.55,0-.31.1-.38.39-.37.84.02,1.69,0,2.53,0s1.65,0,2.48,0c.27,0,.36.06.36.35-.02,1.21-.02,2.43,0,3.64Zm0-6.48c0,.28-.08.35-.35.35-1.69,0-3.38,0-5.07,0-.29,0-.35-.09-.35-.36,0-1.2.02-2.4,0-3.6,0-.28.09-.35.36-.35.84.02,1.69,0,2.53,0s1.66,0,2.48,0c.27,0,.4.02.39.36-.01,1.2-.01,2.4,0,3.6Zm7.89,12.94c0,.26-.08.33-.33.33-1.69-.01-3.38-.01-5.06,0-.27,0-.37-.06-.37-.35.02-1.22,0-2.43,0-3.65,0-.26.08-.33.33-.33.84,0,4.22,0,5.06,0,.27,0,.37.06.36.35,0,1.21,0,2.43,0,3.65Zm-.36-6.14c-.84,0-4.22,0-5.06,0-.24,0-.34-.06-.34-.32,0-1.22,0-2.43,0-3.65,0-.24.05-.34.32-.34,1.7,0,3.41,0,5.11,0,.26,0,.33.07.33.33,0,1.22-.02,2.43,0,3.65.01.29-.1.34-.36.33Zm-.03-6.45c-.85,0-1.69,0-2.53,0s-1.66,0-2.48,0c-.28,0-.36-.08-.35-.35,0-1.2,0-2.4,0-3.6,0-.27.07-.35.35-.35,1.69,0,3.38,0,5.07,0,.28,0,.35.08.35.35,0,1.2-.02,2.4,0,3.6,0,.33-.14.36-.41.35Zm16.18,12.6c-.01.23-.09.32-.34.32h-13.32v-10.43c0-.27.09-.35.35-.35h13.31s0,10.44,0,10.46Z"></path>
      <path d="m30.44,38.82c-.16,0-.32-.05-.46-.15-.24-.17-.36-.47-.31-.76l.38-2.23-1.62-1.58c-.21-.21-.29-.52-.2-.8s.34-.49.63-.53l2.24-.33,1-2.03c.13-.27.4-.44.7-.44s.57.17.7.44l1,2.03,2.24.33c.29.04.54.25.63.53s.02.59-.2.8l-1.62,1.58.38,2.23c.05.29-.07.59-.31.76s-.56.2-.82.06l-2.01-1.06-2.01,1.06c-.09.06-.22.09-.34.09Zm2.37-2.81c.12,0,.25.03.36.09l.97.51-.19-1.08c-.04-.25.04-.51.22-.69l.78-.76-1.08-.16c-.25-.04-.47-.2-.59-.43l-.48-.98-.48.98c-.11.23-.33.39-.59.43l-1.08.16.78.76c.18.18.27.44.22.69l-.17,1.08.97-.51c.11-.06.23-.09.36-.09Z"></path>
      <rect class="cls-2" width="50" height="50"></rect>
    </g>
  </g>
</svg>
