<?xml version="1.0" encoding="UTF-8"?>
<svg xmlns="http://www.w3.org/2000/svg" id="Layer_2" data-name="Layer 2" viewBox="0 0 50 50">
  <defs>
    <style>
      .cls-1 {
        fill: #9a0212;
      }

      .cls-2 {
        fill: none;
      }
    </style>
  </defs>
  <g id="Layer_1-2" data-name="Layer 1">
    <g>
      <g>
        <path class="cls-1" d="m26.07.07c.55.2,1.13.17,1.69.27,6.44,1.13,11.68,6.03,12.99,12.4,1.37,6.66-.8,12.06-6.21,16.16-.37.28-.55.54-.49.99.03.21.02.42,0,.63-.06.77.08,1.4.65,2.05,1.18,1.36,1.06,3.5-.14,4.88-.19.22-.19.31,0,.54,1.04,1.27,1.26,2.7.58,4.18-.68,1.48-1.91,2.21-3.52,2.25-.32.01-.44.07-.49.41-.49,2.9-3.15,5.11-6.13,5.11s-5.64-2.21-6.13-5.11c-.06-.34-.18-.4-.5-.4-1.62-.04-2.85-.78-3.52-2.25-.68-1.49-.46-2.92.59-4.18.19-.23.17-.32,0-.54-1.37-1.59-1.23-3.97.3-5.4.16-.15.22-.29.21-.5,0-.63-.02-1.27,0-1.9,0-.3-.1-.46-.34-.63-3.23-2.29-5.42-5.31-6.37-9.18-1.7-6.96,1.82-14.58,8.23-17.87,1.94-1,3.98-1.62,6.16-1.8.08-.01.17.01.19-.09.77-.02,1.52-.02,2.27-.02Zm-4.86,30.93c.71.05,1.41.05,2.12,0h3.33c.71.05,1.41.05,2.12,0,.94,0,1.88,0,2.82.03.28,0,.32-.12.31-.35,0-.49.04-.98,0-1.46-.09-.81.26-1.3.92-1.76,4.69-3.23,6.79-7.66,6.02-13.35-.83-6.14-6.17-11.27-12.36-11.79-5.75-.48-10.35,1.7-13.37,6.6-2.93,4.75-2.96,9.69,0,14.52,1.03,1.67,2.44,2.99,4.09,4.04.63.4.96.86.89,1.63-.05.53,0,1.07,0,1.61,0,.24.07.31.31.3.93-.01,1.87-.01,2.81-.02Zm3.77,11.26h6.62c.83,0,1.46-.47,1.68-1.22.35-1.21-.47-2.26-1.79-2.27-3.02,0-6.04,0-9.06,0-1.32,0-2.63,0-3.95,0-.92,0-1.53.43-1.76,1.18-.37,1.21.41,2.29,1.68,2.3,2.2.02,4.39.01,6.58.01Zm0-9.1h-1.85c-1.57,0-3.15,0-4.72,0-.9,0-1.5.45-1.7,1.23-.32,1.24.44,2.23,1.76,2.24,3.15,0,6.3,0,9.45,0,1.23,0,2.47,0,3.7,0,.85,0,1.45-.47,1.66-1.23.33-1.19-.45-2.23-1.71-2.23-2.2-.02-4.39-.01-6.59-.01Zm.02,11.25c-1.22,0-2.43.01-3.65-.01-.36-.01-.4.09-.31.41.5,1.73,2.15,2.97,3.96,2.96,1.81-.01,3.46-1.27,3.94-2.99.08-.29.05-.39-.29-.39-1.22.03-2.44.02-3.65.02Z"></path>
        <path d="m.06,15.07c.34-.55.82-.75,1.46-.71.87.05,1.75,0,2.62,0,.68,0,1.16.45,1.16,1.05s-.45,1.07-1.09,1.09c-1.02.03-2.04,0-3.06,0-.53,0-.85-.33-1.1-.75.01-.24.01-.47.01-.7Z"></path>
        <path d="m2.4,24.06c-.52,0-.91-.29-1.05-.75-.13-.44.03-.98.44-1.19,1.03-.51,2.07-.99,3.13-1.43.44-.19.96.07,1.2.49.24.44.19,1.06-.23,1.31-1.06.63-2.18,1.12-3.33,1.55-.06.02-.13.02-.16.02Z"></path>
        <path d="m2.43,6.78c.18-.02.36.05.53.13.87.4,1.73.79,2.59,1.2.66.32.9.89.64,1.46-.27.59-.88.78-1.56.47-.9-.41-1.79-.82-2.68-1.25-.49-.24-.7-.73-.57-1.21.15-.49.53-.79,1.05-.8Z"></path>
        <path d="m44.82,10.21c-.53,0-.9-.29-1.04-.77-.14-.45.01-.95.44-1.17,1.01-.51,2.04-.99,3.08-1.43.48-.2,1.03.08,1.27.54.23.47.12,1.08-.34,1.33-1.02.56-2.09,1.02-3.16,1.47-.09.04-.19.02-.25.03Z"></path>
        <path d="m47.35,24.05c-1.02-.47-2.29-.88-3.37-1.65-.39-.28-.38-.88-.11-1.29s.78-.61,1.23-.41c1.01.44,2.01.9,2.99,1.38.47.23.64.73.51,1.19-.15.51-.53.79-1.25.78Z"></path>
        <path d="m47.32,14.37c.52,0,1.04,0,1.55,0,.56.02,1,.42,1.05.94.06.55-.3,1.09-.88,1.15-1.16.11-2.33.11-3.49,0-.55-.05-.92-.6-.87-1.11.05-.55.49-.95,1.08-.98h1.56Z"></path>
        <path d="m26.66,31c0-2.55,0-5.09,0-7.64,0-.31.13-.57.34-.78,1.17-1.15,2.33-2.31,3.51-3.45.56-.55,1.17-.56,1.63-.09.44.45.38,1.1-.16,1.64-.96.95-1.91,1.89-2.89,2.83-.22.21-.3.42-.3.72,0,2.26,0,4.51,0,6.77-.71.05-1.41.05-2.12,0Z"></path>
        <path d="m21.21,31c0-2.22-.02-4.44,0-6.66,0-.39-.11-.66-.39-.93-.96-.92-1.89-1.87-2.82-2.82-.45-.46-.5-1-.16-1.44.38-.49,1.09-.61,1.55-.17,1.25,1.21,2.46,2.44,3.68,3.67.2.2.28.47.28.76,0,2.53,0,5.06,0,7.59-.72.05-1.42.05-2.13,0Z"></path>
      </g>
      <rect class="cls-2" width="50" height="50"></rect>
    </g>
  </g>
</svg>
