<?xml version="1.0" encoding="UTF-8"?>
<svg xmlns="http://www.w3.org/2000/svg" id="Layer_2" data-name="Layer 2" viewBox="0 0 50 50">
  <defs>
    <style>
      .cls-1 {
        fill: #9a0212;
      }

      .cls-2 {
        fill: none;
      }
    </style>
  </defs>
  <g id="Layer_1-2" data-name="Layer 1">
    <g>
      <g>
        <path class="cls-1" d="m49.94,42.7c-.19.18-.16.44-.24.66-.79,2.05-2.32,3.21-4.46,3.38-1.72.14-3.47.18-5.2-.05-2.51-.33-4.32-2.43-4.32-4.96,0-9.35,0-18.69,0-28.04,0-.44.14-.78.44-1.09,1.92-2.02,3.83-4.06,5.75-6.09.64-.67,1.23-.67,1.87,0,1.92,2.03,3.83,4.06,5.74,6.09.16.17.29.38.43.57,0,9.85,0,19.69,0,29.53Zm-8.18-17.01c0-3.21-.01-6.42.01-9.64,0-.39-.11-.48-.48-.47-1.02.03-2.04.02-3.07,0-.25,0-.37.02-.37.33,0,6.49,0,12.98,0,19.47,0,.28.08.35.35.34,1.04-.02,2.08-.03,3.11,0,.38,0,.44-.1.44-.46,0-3.18.01-6.37.01-9.57Zm6.04,0c0-3.21-.01-6.42.01-9.64,0-.39-.11-.48-.48-.47-1.02.03-2.04.02-3.07,0-.25,0-.37.02-.37.33.01,6.49.01,12.98,0,19.47,0,.28.08.35.35.34,1.04-.02,2.08-.03,3.11,0,.38,0,.44-.11.44-.46,0-3.18.01-6.37.01-9.57Zm-4.94,12.18c-1.52,0-3.05,0-4.57,0-.33,0-.44.07-.43.42.02,1.1.05,2.21,0,3.31-.08,1.68,1.22,2.96,2.88,3.03,1.39.06,2.79.06,4.18,0,1.69-.07,2.97-1.37,2.89-3.02-.05-1.1-.02-2.21,0-3.31.01-.33-.07-.44-.42-.43-1.51.02-3.02,0-4.53,0Zm4.43-24.44c-.07-.1-.1-.15-.14-.2-1.36-1.44-2.72-2.88-4.07-4.33-.22-.24-.32-.19-.52.02-1.32,1.41-2.65,2.82-3.97,4.22-.07.08-.19.13-.17.29h8.87Z"></path>
        <path class="cls-1" d="m.06,26.4V7.4c0-1.03.35-1.38,1.36-1.39,1.4,0,2.79-.01,4.19.01.32,0,.42-.09.4-.41-.03-.45-.02-.91,0-1.36.02-.64.45-1.1,1.05-1.11.61-.01,1.07.46,1.09,1.12,0,.47.02.94,0,1.41,0,.29.09.35.36.35,1.02-.01,2.05-.02,3.07,0,.29,0,.4-.06.39-.37-.03-.47-.02-.94,0-1.41.02-.64.47-1.1,1.06-1.1s1.05.45,1.07,1.09c.02.5,0,1.01,0,1.51,0,.21.06.28.27.28,1.09-.01,2.18-.01,3.26,0,.22,0,.28-.08.27-.29,0-.47,0-.94,0-1.41,0-.71.45-1.19,1.08-1.18s1.05.48,1.06,1.2c0,.44,0,.88,0,1.31,0,.26.04.37.34.37,1.05-.02,2.11-.01,3.17,0,.23,0,.31-.06.31-.3-.02-.49,0-.97,0-1.46,0-.65.45-1.1,1.04-1.12.61-.02,1.08.45,1.1,1.12,0,.45.02.91,0,1.36-.02.32.08.41.4.4,1.4-.02,2.79-.01,4.19-.01,1,0,1.36.36,1.36,1.34v38.09c0,.94-.39,1.34-1.32,1.34H1.41c-.93,0-1.31-.39-1.31-1.34-.04-6.34-.04-12.69-.04-19.04Zm29.71.02V8.64c0-.29.03-.51-.41-.49-1,.04-2.01.02-3.02,0-.28,0-.4.05-.38.36.03.49.02.97,0,1.46,0,.68-.46,1.14-1.07,1.14s-1.06-.47-1.07-1.14c0-.49,0-.97,0-1.46,0-.25-.03-.37-.33-.37-1.05.02-2.11.02-3.17,0-.27,0-.32.1-.31.34,0,.5,0,1.01,0,1.51-.02.67-.48,1.13-1.09,1.12-.59,0-1.03-.47-1.05-1.11,0-.52-.02-1.04,0-1.56,0-.24-.08-.3-.3-.3-1.06,0-2.11.02-3.17,0-.29,0-.35.1-.34.36.02.49,0,.97,0,1.46,0,.68-.45,1.15-1.06,1.15s-1.06-.46-1.08-1.13c0-.52,0-1.04,0-1.56,0-.21-.06-.28-.27-.27-1.09,0-2.18,0-3.26,0-.22,0-.27.07-.27.28,0,.49,0,.97,0,1.46,0,.75-.44,1.23-1.08,1.23-.63,0-1.05-.48-1.06-1.2,0-.47-.02-.94,0-1.41.01-.27-.06-.36-.35-.35-.99.02-1.98.03-2.97,0-.41,0-.5.1-.5.5.01,11.84.01,23.67,0,35.51,0,.41.11.49.5.49,8.86-.01,17.73-.01,26.59,0,.41,0,.49-.11.49-.5.02-5.93.02-11.84.02-17.75Z"></path>
        <path class="cls-1" d="m15.99,36.68H7.42c-.16,0-.33,0-.49,0-.48-.05-.86-.45-.92-.93-.06-.47.23-.96.68-1.11.2-.06.41-.09.62-.09h17.34c.77,0,1.24.35,1.31.96.08.66-.42,1.18-1.16,1.18-2.48,0-4.97,0-7.45,0h-1.36Z"></path>
        <path d="m15.99,18.84H7.27c-.37,0-.71-.05-.98-.34-.52-.56-.31-1.45.4-1.72.25-.09.51-.09.77-.09h17.04c.19,0,.39,0,.58.04.56.12.92.58.88,1.12-.04.56-.48.98-1.07.98-1.28,0-2.56,0-3.85,0-1.68.01-3.36.01-5.05.01Z"></path>
        <path d="m14.91,30.73h-7.64c-.37,0-.71-.05-.98-.33-.52-.56-.32-1.45.39-1.72.25-.09.51-.09.77-.09h14.98c.16,0,.33,0,.49.02.58.09.98.57.95,1.11-.03.6-.46,1.01-1.09,1.01-2.32,0-4.64,0-6.96,0-.29,0-.6,0-.91,0Z"></path>
        <path class="cls-1" d="m13.12,24.79h-5.85c-.77,0-1.25-.4-1.27-1.04-.02-.66.48-1.1,1.26-1.1h11.69c.64,0,1.02.24,1.2.72.16.45.04.83-.29,1.15-.25.25-.57.27-.9.27-1.95,0-3.89,0-5.84,0Z"></path>
      </g>
      <rect class="cls-2" width="50" height="50"></rect>
    </g>
  </g>
</svg>
