<?xml version="1.0" encoding="UTF-8"?>
<!-- Generator: Adobe Illustrator 26.0.1, SVG Export Plug-In . SVG Version: 6.00 Build 0)  -->
<svg xmlns="http://www.w3.org/2000/svg" xmlns:xlink="http://www.w3.org/1999/xlink" version="1.1" id="Layer_1" x="0px" y="0px" viewBox="0 0 100 100" style="enable-background:new 0 0 100 100;" xml:space="preserve">
<style type="text/css">
	.st0{opacity:0.5;fill:#FFFFFF;}
	.st1{fill:#9A0212;}
</style>
<rect class="st0" width="100" height="100"></rect>
<g>
	<path class="st1" d="M44.16,73.26c0-3.87,0-7.72,0-11.59c0.56,0,1.07,0,1.62,0c0,4.4,0,8.81,0,13.34c-1.17-0.06-2.36,0-3.5-0.21   c-1.77-0.33-3.09-2.02-3.11-3.83c-0.03-2.95-0.03-5.9,0.01-8.85c0.01-0.7,0.21-1.39,0.33-2.16c-0.21,0-0.43,0-0.65,0   c-2.05,0-4.09,0-6.14,0c-3.54,0.01-6.06,2.53-6.05,6.08c0,1.32-0.05,2.65,0.12,3.94c0.21,1.62,1.73,3.02,3.21,3.16   c0-1.49,0-2.98,0-4.47c0-1.49,0-2.98,0-4.51c0.55,0,1.08,0,1.65,0c0,3.02,0,6.03,0,9.1c2.51,0,4.98,0,7.48,0c0,0.57,0,1.09,0,1.69   c-0.17,0-0.35,0-0.53,0c-2.53,0-5.07,0-7.6,0c-3.47-0.01-6-2.54-5.99-6.02c0-1.39-0.07-2.79,0.1-4.16   c0.45-3.61,3.42-6.34,7.05-6.45c2.63-0.08,5.27,0.03,7.91,0.04c0.17,0,0.4-0.11,0.5-0.25c1.57-2.12,3.68-3.15,6.3-3.15   c2.08,0,4.16-0.01,6.25,0c2.62,0.01,4.73,1.03,6.31,3.14c0.11,0.15,0.39,0.25,0.59,0.25c2.79,0.02,5.59-0.14,8.37,0.05   c3.57,0.25,6.42,3.35,6.57,6.93c0.07,1.59,0.09,3.2-0.1,4.78c-0.33,2.7-2.78,4.8-5.5,4.83c-2.74,0.03-5.48,0.01-8.22,0.01   c-0.08,0-0.17-0.01-0.28-0.02c0-0.53,0-1.05,0-1.62c2.46,0,4.93,0,7.46,0c0-3.08,0-6.11,0-9.16c0.57,0,1.09,0,1.65,0   c0,3.01,0,6,0,8.99c1.47-0.12,2.97-1.54,3.23-3.16c0.15-0.93,0.12-1.9,0.11-2.85c-0.01-0.88,0.02-1.78-0.16-2.64   c-0.55-2.56-2.73-4.42-5.36-4.51c-2.36-0.08-4.72-0.02-7.08-0.02c-0.08,0-0.16,0.03-0.2,0.03c0.62,3.67,0.26,7.35,0.29,11.01   c0.02,2.12-1.84,3.86-3.96,3.92c-0.87,0.02-1.73,0-2.64,0c0-4.43,0-8.84,0-13.29c0.52,0,1.03,0,1.61,0c0,3.85,0,7.71,0,11.55   c1.98,0.38,3.35-0.74,3.35-2.68c0-2.62,0-5.24,0-7.86c0-3.5-2.53-6.03-6.04-6.04c-2.08,0-4.16-0.01-6.24,0   c-3.52,0.01-6.03,2.53-6.04,6.04c-0.01,2.53,0.07,5.07-0.03,7.6C40.74,72.05,41.81,73.57,44.16,73.26z"></path>
	<path d="M70,52.45c0-0.55,0-1.07,0-1.58c0.7-0.28,0.81-0.45,0.81-1.2c0-1.49,0-2.98,0-4.48c0-0.74-0.3-1.04-1.05-1.04   c-1.27-0.01-2.53-0.01-3.8,0.01c-0.34,0-0.51-0.06-0.6-0.44c-0.38-1.6-1.02-3.09-1.88-4.49c-0.06-0.1-0.11-0.21-0.19-0.35   c0.99-0.98,1.98-1.96,2.96-2.94c0.63-0.63,0.63-0.99,0-1.62c-1.04-1.04-2.08-2.09-3.13-3.13c-0.57-0.57-0.97-0.57-1.55,0.01   c-0.99,0.99-1.98,1.99-2.88,2.91c-1.34-0.58-2.59-1.13-3.84-1.67c-0.13-0.05-0.26-0.09-0.39-0.13c-1.14-0.34-1.14-0.34-1.14-1.56   c0-1.02,0-2.05,0-3.07c0-0.71-0.31-1.01-1.02-1.01c-1.54-0.01-3.09-0.01-4.63,0c-0.7,0-1,0.31-1,1.03c0,1.28-0.01,2.57,0.01,3.85   c0,0.32-0.06,0.48-0.42,0.57c-1.72,0.4-3.31,1.11-4.88,2.11c-0.49-0.52-0.98-1.03-1.47-1.54c-0.53-0.54-1.07-1.09-1.62-1.62   c-0.42-0.4-0.88-0.4-1.29-0.01c-1.15,1.13-2.29,2.27-3.42,3.42c-0.43,0.44-0.41,0.86,0.04,1.32c0.9,0.91,1.81,1.82,2.72,2.73   c0.12,0.12,0.23,0.25,0.37,0.39c-0.98,1.55-1.69,3.19-2.13,4.95c-0.03,0.12-0.3,0.26-0.45,0.26c-1.27,0.02-2.53,0.01-3.8,0.01   c-0.87,0-1.14,0.27-1.14,1.16c0,1.44,0,2.88,0,4.32c0,0.8,0.1,0.95,0.81,1.25c0,0.51,0,1.03,0,1.55c-1.24,0.11-2.43-0.97-2.46-2.29   c-0.04-1.77-0.04-3.54,0-5.31c0.03-1.31,1.15-2.31,2.52-2.34c0.94-0.02,1.87,0.01,2.81-0.01c0.15,0,0.39-0.11,0.44-0.23   c0.43-1.02,0.82-2.05,1.26-3.14c-0.65-0.64-1.35-1.34-2.04-2.04c-1.23-1.23-1.23-2.66-0.01-3.88c1.05-1.06,2.11-2.11,3.17-3.16   c1.23-1.23,2.69-1.22,3.94,0.01c0.6,0.6,1.21,1.19,1.8,1.81c0.21,0.22,0.36,0.22,0.63,0.1c0.87-0.39,1.74-0.76,2.63-1.1   c0.26-0.1,0.35-0.21,0.34-0.48c-0.01-0.94-0.01-1.87,0-2.81c0.02-1.46,1.06-2.53,2.53-2.55c1.65-0.02,3.3-0.02,4.94,0   c1.46,0.02,2.5,1.1,2.52,2.56c0.01,0.92,0.01,1.84,0,2.76c0,0.28,0.06,0.42,0.35,0.53c0.91,0.34,1.79,0.75,2.69,1.1   c0.14,0.06,0.41,0.01,0.52-0.09c0.66-0.62,1.28-1.27,1.92-1.9c1.15-1.13,2.64-1.14,3.79,0c1.11,1.1,2.22,2.2,3.31,3.31   c1.11,1.12,1.11,2.58,0.01,3.7c-0.72,0.73-1.45,1.44-2.15,2.13c0.44,1.11,0.85,2.17,1.29,3.22c0.04,0.1,0.28,0.17,0.43,0.17   c0.88,0.02,1.77,0,2.65,0.01c1.63,0.01,2.68,1.05,2.68,2.66c0.01,1.61,0.01,3.23,0,4.84C72.46,51.38,71.39,52.45,70,52.45z"></path>
	<path d="M61.68,47.46c-0.6,0-1.12,0-1.67,0c-0.12-3.2-1.35-5.85-3.87-7.85c-1.9-1.5-4.08-2.2-6.49-2.11   c-5.16,0.18-9.55,4.3-9.68,9.95c-0.52,0-1.05,0-1.64,0c0.15-4.09,1.79-7.39,5.2-9.63c3.95-2.59,8.14-2.76,12.25-0.43   C59.61,39.56,61.46,43.02,61.68,47.46z"></path>
	<path class="st1" d="M49.97,54.14c-2.76-0.01-4.98-2.25-4.98-5.01c0.01-2.74,2.28-5,5.01-4.98c2.75,0.01,4.99,2.27,4.98,5.02   C54.98,51.92,52.74,54.15,49.97,54.14z M49.97,52.47c1.85,0.01,3.35-1.47,3.35-3.31c0-1.84-1.5-3.35-3.33-3.34   c-1.81,0-3.31,1.49-3.33,3.3C46.65,50.97,48.13,52.47,49.97,52.47z"></path>
	<path class="st1" d="M35.8,57.47c-2.75-0.01-4.98-2.26-4.96-5.02c0.01-2.74,2.29-4.99,5.03-4.97c2.75,0.02,4.98,2.28,4.96,5.03   C40.82,55.27,38.57,57.48,35.8,57.47z M35.83,55.81c1.85,0,3.34-1.48,3.34-3.32c0-1.83-1.52-3.34-3.35-3.33   c-1.81,0.01-3.3,1.5-3.31,3.31C32.5,54.31,33.98,55.8,35.83,55.81z"></path>
	<path class="st1" d="M64.12,57.47c-2.75-0.01-4.98-2.26-4.97-5.01c0.01-2.74,2.28-4.99,5.02-4.98c2.75,0.02,4.98,2.28,4.97,5.02   C69.13,55.26,66.89,57.48,64.12,57.47z M64.15,55.81c1.85,0,3.34-1.49,3.33-3.33c-0.01-1.81-1.49-3.31-3.3-3.32   c-1.83-0.02-3.35,1.49-3.36,3.32C60.81,54.32,62.3,55.81,64.15,55.81z"></path>
	<path class="st1" d="M53.3,73.33c0,0.55,0,1.07,0,1.6c-2.2,0-4.38,0-6.59,0c0-0.52,0-1.04,0-1.6   C48.88,73.33,51.07,73.33,53.3,73.33z"></path>
</g>
</svg>
