<?xml version="1.0" encoding="UTF-8"?>
<!-- Generator: Adobe Illustrator 26.0.1, SVG Export Plug-In . SVG Version: 6.00 Build 0)  -->
<svg xmlns="http://www.w3.org/2000/svg" xmlns:xlink="http://www.w3.org/1999/xlink" version="1.1" id="Layer_1" x="0px" y="0px" viewBox="0 0 100 100" style="enable-background:new 0 0 100 100;" xml:space="preserve">
<style type="text/css">
	.st0{opacity:0.5;fill:#FFFFFF;}
	.st1{fill:#9A0212;}
	.st2{fill:#1D1D1B;}
</style>
<rect class="st0" width="100" height="100"></rect>
<g>
	<path class="st1" d="M73.05,53.55c0.09,0.63,0.55,1.05,1.18,1.06c0.67-0.02,1.14-0.4,1.24-1.07c0.02-0.17,0.03-0.35,0.02-0.61   V31.49c0-0.19,0-0.37-0.02-0.56c-0.07-0.75-0.48-1.4-1.12-1.76c-0.64-0.36-1.4-0.38-2.09-0.05c-0.06,0.03-0.13,0.06-0.19,0.09   l-0.41-0.4c-0.54-0.52-1.06-1.02-1.57-1.53c-0.46-0.47-1-0.62-1.61-0.44l-0.62,0.18c-0.31,0.09-0.62,0.18-0.93,0.28   c-0.5,0.16-1,0.33-1.51,0.5l-0.01,0l0-0.1c0-0.61-0.01-1.2,0.01-1.79c0.02-0.64-0.22-1.14-0.69-1.47l-0.13-0.09h-0.77l-0.1,0.05   c-0.44,0.22-0.88,0.42-1.32,0.63c-0.97,0.45-1.97,0.92-2.91,1.48c-4.39,2.57-7.59,6.08-9.5,10.44c-0.24-0.52-0.47-1.02-0.73-1.51   c-2.37-4.42-5.98-7.74-11.04-10.17c-0.45-0.21-0.9-0.41-1.35-0.61l-0.62-0.27l-0.84-0.04l-0.12,0.08   c-0.66,0.43-0.72,1.08-0.71,1.53c0.02,0.59,0.01,1.17,0.01,1.76l0,0.07l-0.42-0.13c-0.82-0.25-1.62-0.49-2.41-0.76   c-0.8-0.27-1.45-0.1-2.05,0.55c-0.45,0.49-0.93,0.94-1.4,1.39c-0.12,0.11-0.24,0.23-0.36,0.34c-0.08-0.02-0.16-0.04-0.24-0.07   c-0.4-0.11-0.8-0.23-1.23-0.2c-1.22,0.07-1.98,1.03-1.98,2.5l0,22.98l0,7.56c0,0.92,0.42,1.62,1.23,2.07l5.32,2.99   c4.47,2.51,8.94,5.03,13.42,7.53c0.33,0.18,0.7,0.24,1.03,0.28c0.14,0.02,0.28,0.04,0.46,0.08c0.04,0.01,0.09,0.02,0.07-0.01   c0.48,0.5,1.04,0.77,1.82,0.74c1.44-0.01,2.88-0.01,4.31,0c0.01,0,0.01,0,0.02,0c0.71,0,1.31-0.24,1.78-0.72   c0.66,0.09,1.21-0.15,1.71-0.43l12.8-7.2c1.9-1.07,3.8-2.14,5.71-3.21c0.86-0.48,1.28-1.11,1.3-1.92c0.03-1.36,0.02-2.73,0.01-4.09   c-0.01-0.7-0.5-1.2-1.21-1.21c-0.34-0.01-0.65,0.11-0.87,0.33c-0.17,0.17-0.38,0.48-0.38,1.01l0,0.21   c-0.01,1.06-0.02,2.13,0.01,3.19c0.01,0.22-0.02,0.29-0.26,0.43c-3.56,1.99-7.11,3.99-10.66,5.99l-3.41,1.92   c-1.39,0.78-2.77,1.56-4.16,2.33l0-0.1l0-5.59c0-8.06,0-16.12-0.01-24.18c0-0.41,0.08-0.55,0.43-0.74   c4.74-2.65,9.47-5.31,14.2-7.97l3.88-2.18l0,0.1l0,21.21l0,0.1C73.02,53.14,73.03,53.35,73.05,53.55z M69.85,30.47l-6.57,3.7   c-3.03,1.7-6.06,3.4-9.07,5.13c-0.69,0.4-1.35,0.67-2.11,0.68c0.03-0.04,0.06-0.08,0.09-0.11c0.46-0.58,0.88-1.13,1.35-1.65   c2.6-2.87,5.84-5.13,9.9-6.9c1.09-0.48,2.25-0.89,3.37-1.28c0.58-0.21,1.16-0.41,1.74-0.63c0.05-0.02,0.08-0.03,0.11-0.03   c0.04,0,0.06,0.03,0.12,0.09C69.11,29.8,69.47,30.13,69.85,30.47z M55.08,33.42c2-2.43,4.6-4.39,7.86-5.95   c0,0.45,0.01,0.87-0.02,1.29c-0.03,0.03-0.08,0.07-0.13,0.09C59.84,30.17,57.31,31.66,55.08,33.42z M52.06,73.17   c-0.79,0-1.57,0-2.37,0c-0.58,0-1.17,0-1.76,0c0-0.3,0-0.61,0-0.92h4.12C52.06,72.55,52.06,72.85,52.06,73.17z M52.03,49.15v17.31   h-4.05V49.15H52.03z M47.96,46.63v-0.74h4.08v0.74H47.96z M47.95,69.7v-0.72h4.08v0.72H47.95z M47.93,43.35   c0-0.3-0.01-0.6,0.01-0.9c1.38-0.02,2.76-0.02,4.11,0c0.02,0.29,0.01,0.59,0.01,0.9H47.93z M45.46,57.29l0,15l-3.77-2.12   c-4.82-2.71-9.63-5.42-14.46-8.12c-0.23-0.13-0.27-0.19-0.27-0.44c0.01-8.49,0.01-16.98,0.01-25.46v-4.62l5.84,3.28   c4.13,2.32,8.27,4.65,12.4,6.96c0.22,0.12,0.26,0.19,0.26,0.45c-0.01,4-0.01,8-0.01,12L45.46,57.29z M40.3,31.7   c0.3-0.63,0.07-1.29-0.56-1.61c-0.87-0.44-1.74-0.86-2.68-1.34c0.01-0.42,0.01-0.84,0.01-1.28c3.26,1.55,5.87,3.52,7.9,5.99   c-0.09-0.08-0.18-0.15-0.27-0.23c-0.18-0.15-0.37-0.29-0.62-0.47c-0.38-0.27-0.74-0.37-1.08-0.32c-0.21,0.04-0.51,0.15-0.77,0.52   c-0.41,0.58-0.28,1.24,0.35,1.77c0.28,0.23,0.56,0.46,0.84,0.68c0.72,0.58,1.46,1.18,2.11,1.83c0.67,0.68,1.3,1.45,1.9,2.2   c0.14,0.17,0.28,0.34,0.41,0.51c-0.64-0.02-1.16-0.17-1.67-0.46c-3.94-2.25-7.89-4.47-11.84-6.69l-4.17-2.34   c0.39-0.38,0.77-0.74,1.17-1.09c0.04,0,0.08,0.01,0.13,0.02c2.3,0.66,4.55,1.55,6.77,2.68c0.15,0.07,0.29,0.15,0.44,0.21   C39.33,32.58,40,32.33,40.3,31.7z"></path>
	<path d="M55.68,50.79c0.01,0.57,0.22,1.01,0.61,1.24c0.17,0.1,0.37,0.15,0.58,0.15c0.25,0,0.52-0.08,0.8-0.23   c0.49-0.27,0.98-0.55,1.46-0.83l3.4-1.94c2.82-1.61,5.65-3.23,8.47-4.84c0.43-0.25,0.92-0.63,0.91-1.43   c-0.01-0.77-0.01-1.54-0.01-2.32c0-0.7,0-1.4,0-2.1c0-0.55-0.23-0.99-0.61-1.21c-0.39-0.23-0.88-0.2-1.36,0.07   c-0.66,0.37-1.31,0.74-1.97,1.12l-3.26,1.86c-2.73,1.56-5.45,3.12-8.18,4.67c-0.59,0.34-0.87,0.82-0.84,1.48   c0.02,0.48,0.01,0.97,0.01,1.45l0,1.31C55.68,49.77,55.68,50.28,55.68,50.79z M58.13,46.95c3.76-2.15,7.53-4.3,11.29-6.45   c-0.01,0.49-0.01,0.97,0.02,1.45c0.02,0.33-0.03,0.45-0.4,0.66c-2.71,1.52-5.4,3.06-8.09,4.6l-2.8,1.6   C58.15,48.15,58.15,47.51,58.13,46.95z"></path>
	<path d="M48.8,62.44c0.12,0.62,0.58,1,1.2,1c0.01,0,0.02,0,0.02,0c0.61-0.01,1.06-0.39,1.17-0.98c0.04-0.2,0.04-0.41,0.04-0.63   l0-3.02l0-5.11c0-0.16,0-0.33-0.02-0.48c-0.1-0.67-0.58-1.08-1.23-1.07c-0.62,0.01-1.08,0.41-1.19,1.04   c-0.02,0.15-0.03,0.3-0.03,0.47l0,8.24C48.76,62.09,48.77,62.27,48.8,62.44z"></path>
</g>
</svg>
