<?xml version="1.0" encoding="UTF-8"?>
<!-- Generator: Adobe Illustrator 26.0.1, SVG Export Plug-In . SVG Version: 6.00 Build 0)  -->
<svg xmlns="http://www.w3.org/2000/svg" xmlns:xlink="http://www.w3.org/1999/xlink" version="1.1" id="Layer_1" x="0px" y="0px" viewBox="0 0 100 100" style="enable-background:new 0 0 100 100;" xml:space="preserve">
<style type="text/css">
	.st0{opacity:0.5;fill:#FFFFFF;}
	.st1{fill:#9A0212;}
</style>
<rect class="st0" width="100" height="100"></rect>
<g>
	<path class="st1" d="M67.93,40.37c-0.72-4.97-3.54-9.44-7.75-12.29C57.18,26.07,53.64,25,50.1,25c-1.41,0-2.82,0.17-4.2,0.51   c-6.91,1.69-11.53,6.15-13.35,12.92c-1.81,6.75-0.11,12.77,5.06,17.9c0.32,0.34,0.47,0.66,0.47,1.11   c-0.01,2.07-0.01,4.15-0.01,6.22v4.27c0,2,0,4,0.01,6c0,0.37,0.14,0.69,0.39,0.87c0.22,0.18,0.52,0.23,0.83,0.15   c0.18-0.05,0.39-0.17,0.58-0.29c3.2-1.98,6.37-3.95,9.52-5.93c0.45-0.28,0.82-0.28,1.25-0.01c3.16,1.99,6.33,3.95,9.49,5.92   c0.21,0.13,0.44,0.27,0.65,0.31c0.31,0.07,0.59,0.02,0.8-0.15c0.25-0.2,0.39-0.55,0.39-0.97c0.01-5.45,0.01-10.89,0-16.35   c0-0.48,0.15-0.84,0.51-1.19C66.99,51.87,68.82,46.51,67.93,40.37z M59.96,72.15l-0.75-0.43c-0.11-0.07-0.22-0.13-0.32-0.19   l-2.09-1.31c-1.97-1.23-3.94-2.46-5.9-3.71c-0.63-0.4-1.12-0.4-1.76,0.01c-1.93,1.24-3.88,2.45-5.82,3.66l-2.12,1.33   c-0.12,0.07-0.24,0.14-0.39,0.22l-0.75,0.45V58.4l0.56,0.31c6.32,3.47,12.46,3.47,18.78,0.01l0.56-0.3V72.15z M61.39,54.61   c-3.05,3.04-7.1,4.71-11.4,4.71h-0.06c-8.86-0.04-16.06-7.3-16.05-16.2c0-8.89,7.25-16.13,16.15-16.13c0.01,0,0.01,0,0.02,0   c8.89,0.01,16.12,7.25,16.11,16.14C66.16,47.47,64.47,51.54,61.39,54.61z"></path>
	<path d="M61.6,38.74c-0.13-0.43-0.45-0.64-1.09-0.73c-0.77-0.11-1.54-0.22-2.31-0.34c-1.2-0.17-2.41-0.35-3.6-0.51   c-0.45-0.06-0.72-0.26-0.92-0.68c-0.42-0.85-0.84-1.72-1.26-2.57c-0.47-0.93-0.92-1.87-1.38-2.81c-0.27-0.57-0.58-0.78-1.03-0.8   c-0.45,0.01-0.74,0.24-1.03,0.82c-0.47,0.96-0.93,1.93-1.41,2.89c-0.4,0.81-0.8,1.62-1.2,2.44c-0.14,0.31-0.38,0.64-0.95,0.71   c-1.25,0.16-2.5,0.35-3.76,0.53c-0.72,0.11-1.44,0.21-2.17,0.31c-0.63,0.09-0.93,0.3-1.07,0.74c-0.13,0.42,0,0.77,0.43,1.19   c1.65,1.58,3.02,2.91,4.29,4.2c0.25,0.24,0.4,0.68,0.37,1.04c-0.05,0.51-0.15,1.01-0.24,1.5c-0.04,0.21-0.08,0.43-0.11,0.63   l-0.7,4.1c0,0.45,0.17,0.81,0.48,1.01c0.29,0.18,0.67,0.17,1.04-0.01c1.82-0.93,3.62-1.89,5.43-2.86c0.21-0.11,0.42-0.17,0.62-0.17   c0.2,0,0.41,0.06,0.63,0.18c0.87,0.47,1.75,0.92,2.62,1.38c0.87,0.47,1.76,0.92,2.63,1.39c0.55,0.29,0.92,0.3,1.3,0.03   c0.36-0.26,0.46-0.62,0.34-1.26c-0.16-0.92-0.31-1.84-0.48-2.75c-0.18-1.04-0.36-2.07-0.54-3.1c-0.08-0.47,0.03-0.82,0.38-1.15   c0.71-0.69,1.42-1.38,2.14-2.07c0.7-0.69,1.41-1.38,2.12-2.07C61.61,39.52,61.75,39.17,61.6,38.74z M56.37,41.87   c-0.53,0.52-1.05,1.04-1.58,1.54c-0.34,0.34-0.45,0.68-0.37,1.17c0.18,0.98,0.35,1.98,0.51,3.01l0.34,2.08l-0.86-0.41   c-0.12-0.06-0.22-0.1-0.32-0.15l-0.8-0.43c-0.85-0.46-1.71-0.9-2.55-1.37c-0.49-0.27-0.91-0.27-1.41,0.01   c-0.87,0.49-1.77,0.95-2.69,1.44l-1.86,0.98l0.65-3.92c0.02-0.11,0.03-0.24,0.08-0.37c0.39-1.07,0.11-1.89-0.93-2.76   c-0.6-0.5-1.12-1.07-1.67-1.65c-0.24-0.26-0.48-0.52-0.73-0.78l-0.52-0.53l3.35-0.52c0.59-0.08,1.17-0.17,1.75-0.24   c0.47-0.05,0.76-0.26,0.97-0.71c0.44-0.9,0.87-1.8,1.33-2.72l0.89-1.84l0.46,0.69c0.07,0.1,0.13,0.18,0.17,0.27l0.38,0.75   c0.46,0.91,0.91,1.84,1.36,2.76c0.23,0.5,0.56,0.74,1.09,0.81c1.01,0.12,2.01,0.27,3.06,0.44l2.08,0.31L56.37,41.87z"></path>
</g>
</svg>
