<?xml version="1.0" encoding="UTF-8"?>
<!-- Generator: Adobe Illustrator 26.0.1, SVG Export Plug-In . SVG Version: 6.00 Build 0)  -->
<svg xmlns="http://www.w3.org/2000/svg" xmlns:xlink="http://www.w3.org/1999/xlink" version="1.1" id="Layer_1" x="0px" y="0px" viewBox="0 0 100 100" style="enable-background:new 0 0 100 100;" xml:space="preserve">
<style type="text/css">
	.st0{opacity:0.5;fill:#FFFFFF;}
	.st1{fill:#9A0212;}
	.st2{fill:none;}
	.st3{fill:#030303;}
</style>
<rect class="st0" width="100" height="100"></rect>
<g>
	<g>
		<path class="st1" d="M68.53,67.35c0.17-0.24,0.34-0.33,0.64-0.33c0,0,0,0,0,0c0.12,0,0.21-0.09,0.21-0.21V28.82    c0-0.06,0-0.13,0-0.2c0.04-0.76,0.02-1.52,0.01-2.29c-0.01-0.88-0.41-1.27-1.29-1.27c-10.78,0-21.56,0-32.34,0    c-2.99,0-5.15,2.18-5.16,5.22c-0.02,3.34,0,6.69,0,10.03c0,9.76,0,19.51,0,29.27c0,2.26,0.95,3.92,3,4.93    c0.37,0.18,0.81,0.2,1.15,0.43h33.91c0.92-0.64,0.98-1.21,0.22-2.05C67.53,71.41,67.39,68.99,68.53,67.35z M33.98,27.73    c0.71-0.52,1.54-0.55,2.37-0.53c0.15,0.01,0.2,0.07,0.19,0.21c-0.01,0.11,0,0.23,0,0.34c0,12.19,0,24.37,0.01,36.56    c0,0.46-0.1,0.6-0.58,0.6c-1.11-0.02-2.19,0.16-3.23,0.87v-0.53c0-11.62,0-23.24-0.01-34.86C32.74,29.29,33.07,28.39,33.98,27.73z     M66.21,72.73c-0.08,0.11-0.19,0.07-0.28,0.07c-10.06,0-20.13,0-30.19,0c-1.21,0-2.14-0.52-2.68-1.6    c-0.52-1.03-0.42-2.05,0.24-2.99c0.53-0.74,1.27-1.14,2.19-1.18c0.13-0.01,0.26-0.01,0.39-0.01h30.36    C65.4,68.97,65.41,70.86,66.21,72.73z M66.73,64.89c-9.17-0.01-18.35-0.01-27.52,0c-0.43,0-0.54-0.1-0.54-0.53    c0.01-12.22,0.01-24.45,0-36.67c0-0.42,0.12-0.49,0.51-0.49c9.19,0.01,18.38,0.01,27.57,0c0.47,0,0.51,0.16,0.51,0.55    c-0.01,6.1-0.01,12.21-0.01,18.31c0,6.1-0.01,12.21,0.01,18.31C67.27,64.8,67.15,64.89,66.73,64.89z"></path>
		<path d="M63.46,32.49c0-1.01-0.38-1.39-1.38-1.39c-3.03,0-6.07,0-9.1,0h-9.1c-1.03,0-1.4,0.38-1.4,1.41c0,2.73,0,5.45,0,8.18    c0,1.11,0.37,1.48,1.5,1.48c6.01,0,12.01,0,18.02,0c1.09,0,1.48-0.38,1.48-1.46C63.46,37.98,63.47,35.23,63.46,32.49z     M61.33,39.53c0,0.41-0.13,0.51-0.52,0.51c-5.23-0.01-10.45-0.01-15.67,0c-0.4,0-0.53-0.11-0.52-0.52c0.02-1.93,0.02-3.86,0-5.79    c-0.01-0.43,0.14-0.5,0.53-0.5c2.61,0.02,5.23,0.01,7.84,0.01c2.61,0,5.23,0.01,7.84-0.01c0.39,0,0.53,0.08,0.52,0.5    C61.31,35.66,61.31,37.59,61.33,39.53z"></path>
		<path d="M52.94,53.44c-3.05,0-6.1,0-9.15,0c-0.82,0-1.26-0.35-1.29-1c-0.03-0.55,0.29-0.98,0.83-1.09    c0.14-0.03,0.29-0.05,0.43-0.05c6.13,0,12.27,0,18.4,0c0.21,0,0.43,0.02,0.62,0.09c0.43,0.15,0.7,0.63,0.65,1.09    c-0.05,0.5-0.41,0.87-0.9,0.94c-0.18,0.02-0.36,0.02-0.53,0.02C58.98,53.44,55.96,53.44,52.94,53.44z"></path>
		<path class="st3" d="M52.94,59.39c-3.07,0-6.13,0-9.2,0c-0.81,0-1.3-0.47-1.24-1.15c0.04-0.48,0.36-0.85,0.84-0.95    c0.19-0.04,0.39-0.04,0.58-0.04c6.02,0,12.04,0,18.06,0c0.03,0,0.06,0,0.1,0c0.89,0.01,1.37,0.39,1.37,1.09    c-0.01,0.69-0.47,1.05-1.34,1.05C59.04,59.39,55.99,59.39,52.94,59.39z"></path>
	</g>
	<rect x="25" y="25" class="st2" width="50" height="50"></rect>
</g>
</svg>
