<?xml version="1.0" encoding="UTF-8"?>
<!-- Generator: Adobe Illustrator 26.0.1, SVG Export Plug-In . SVG Version: 6.00 Build 0)  -->
<svg xmlns="http://www.w3.org/2000/svg" xmlns:xlink="http://www.w3.org/1999/xlink" version="1.1" id="Layer_1" x="0px" y="0px" viewBox="0 0 100 100" style="enable-background:new 0 0 100 100;" xml:space="preserve">
<style type="text/css">
	.st0{opacity:0.5;fill:#FFFFFF;}
	.st1{fill:#9A0212;}
</style>
<rect class="st0" width="100" height="100"></rect>
<g>
	<path class="st1" d="M53.68,60.55c-2.6,2.94-5.09,5.97-7.68,8.91c-1.49,1.69-3.07,3.32-5.13,4.38c-4,2.04-8.71,1.33-12.14-1.86   c-1.97-1.83-3.22-4.06-3.63-6.73c-0.01-0.08,0-0.17-0.1-0.2c0-0.85,0-1.69,0-2.54c0.21-0.25,0.17-0.57,0.23-0.86   c0.55-2.45,1.92-4.41,3.67-6.14c2.32-2.29,4.84-4.35,7.31-6.46c1.53-1.31,3.06-2.63,4.6-3.93c0.22-0.19,0.29-0.35,0.24-0.66   c-0.7-4.36,3.39-8.52,7.74-7.87c0.29,0.04,0.44-0.04,0.61-0.25c2.05-2.46,4.11-4.92,6.15-7.38c1.85-2.23,4.22-3.5,7.09-3.85   c0.07-0.01,0.13-0.02,0.14-0.1c0.78,0,1.56,0,2.34,0c0.41,0.2,0.86,0.18,1.29,0.27c5.09,1.09,8.91,6.07,8.55,11.25   c-0.24,3.43-1.86,6.19-4.42,8.4c-1.52,1.32-3.18,2.48-4.75,3.74c-0.77,0.62-1.51,1.29-2.26,1.94c-0.55,0.43-1.08,0.89-1.56,1.41   c-0.96,0.82-1.84,1.72-2.74,2.6c-0.54,0.5-1.12,0.98-1.54,1.6c-0.9,0.87-1.74,1.81-2.58,2.73C54.56,59.41,54.1,59.96,53.68,60.55z    M51.46,49.7c-0.71,0.29-1.41,0.59-2.17,0.75c-3.03,0.41-5.47-0.56-7.2-3.13c-0.16-0.24-0.24-0.25-0.45-0.06   c-2.11,1.92-4.32,3.7-6.54,5.49c-0.09,0.07-0.24,0.1-0.22,0.25c3.47-0.31,6.47,0.75,8.92,3.2c2.44,2.45,3.49,5.44,3.18,8.91   c0.06-0.03,0.1-0.03,0.11-0.05c2.43-3.12,5.01-6.11,7.71-9c0.52-0.48,1.03-0.97,1.47-1.53c0.91-0.89,1.82-1.78,2.73-2.67   c0.54-0.46,1.1-0.91,1.56-1.46c1.79-1.58,3.59-3.15,5.47-4.63c1.39-1.09,2.84-2.12,4.08-3.4c2.05-2.12,3.16-4.62,2.65-7.61   c-0.58-3.41-2.6-5.78-5.77-7.06c-3.11-1.24-5.99-0.59-8.58,1.46c-0.85,0.67-1.56,1.47-2.23,2.31c-1.59,1.97-3.12,3.98-4.8,5.87   c2.82,1.74,3.94,4.25,3.55,7.47c-0.18,0.77-0.45,1.51-0.79,2.22C53.48,48.17,52.56,49.02,51.46,49.7z M39.73,55.91   c-1.62-0.68-3.22-0.97-4.91-0.74c-5.71,0.76-9.27,7.1-6.88,12.32c2.77,6.05,9.81,6.53,13.64,3.35c0.23-0.19,0.36-0.36,0.29-0.69   c-0.75-3.7-4.99-5.87-8.43-4.3c-0.44,0.2-0.87,0.43-1.32,0.62c-0.4,0.17-0.8,0.12-1.14-0.17c-0.34-0.3-0.42-0.69-0.32-1.11   c0.07-0.28,0.28-0.47,0.48-0.66c2.73-2.73,5.45-5.45,8.18-8.18C39.45,56.21,39.57,56.08,39.73,55.91z M52.87,43.66   c0.04-2.73-2.06-4.92-4.76-4.97c-2.69-0.04-4.91,2.07-4.95,4.72c-0.05,2.78,2.05,4.97,4.81,5.02   C50.62,48.48,52.83,46.33,52.87,43.66z M43.62,68.45c0.03-0.04,0.06-0.06,0.07-0.09c2.11-3.35,1.25-8.57-1.8-11.07   c-0.29-0.24-0.41-0.09-0.58,0.09c-1.82,1.82-3.63,3.64-5.45,5.45c-0.1,0.1-0.23,0.15-0.35,0.22   C39.37,63.25,42.03,65.01,43.62,68.45z"></path>
	<path d="M61.99,52.02c0.47-0.52,1-0.98,1.56-1.41c0.09,0.07,0.18,0.13,0.26,0.21c2.63,2.63,5.27,5.27,7.9,7.9   c0.07,0.07,0.14,0.14,0.2,0.21c0.58,0.69,0.28,1.62-0.61,1.81c-0.79,0.17-1.59,0.35-2.39,0.47c-0.31,0.05-0.4,0.2-0.45,0.46   c-0.15,0.78-0.29,1.56-0.47,2.34c-0.22,0.98-1.17,1.26-1.89,0.56c-0.67-0.64-1.33-1.29-1.96-1.97c-0.27-0.29-0.54-0.35-0.91-0.26   c-0.39,0.1-0.79,0.21-1.19,0.24c-0.44,0.03-0.56,0.26-0.63,0.64c-0.11,0.69-0.27,1.37-0.4,2.06c-0.09,0.48-0.28,0.88-0.78,1.02   c-0.48,0.13-0.87-0.04-1.23-0.4c-1.77-1.79-3.56-3.57-5.34-5.35c0.42-0.59,0.88-1.15,1.45-1.59c1.37,1.36,2.74,2.72,4.13,4.1   c0.1-0.49,0.21-0.95,0.3-1.41c0.1-0.5,0.39-0.81,0.89-0.92c0.47-0.1,0.94-0.21,1.35-0.3c-1.36-1.4-2.72-2.81-4.09-4.21   c0.42-0.62,1-1.09,1.54-1.6c0.04,0.05,0.08,0.11,0.12,0.15c2.2,2.21,4.4,4.43,6.61,6.64c0.08,0.08,0.13,0.19,0.29,0.18   c0.03-0.13,0.08-0.27,0.11-0.4c0.36-1.74,0.36-1.74,2.09-2.09c0.12-0.02,0.3,0.03,0.35-0.11c0.06-0.17-0.13-0.24-0.22-0.34   c-1.57-1.58-3.15-3.15-4.73-4.72C63.24,53.3,62.62,52.66,61.99,52.02z"></path>
	<path d="M59,51.86c-1.54-1.54-3.07-3.08-4.61-4.61c-0.08-0.08-0.18-0.14-0.27-0.21c0.34-0.71,0.61-1.45,0.79-2.22   c0.07,0.04,0.15,0.07,0.2,0.12c1.81,1.82,3.62,3.64,5.44,5.46C60.09,50.95,59.54,51.4,59,51.86z"></path>
	<path d="M51.46,49.7c1.6,1.61,3.2,3.22,4.8,4.82c-0.44,0.56-0.94,1.05-1.47,1.53c-1.74-1.74-3.49-3.48-5.23-5.23   c-0.11-0.11-0.27-0.19-0.28-0.38C50.05,50.3,50.76,49.99,51.46,49.7z"></path>
	<path class="st1" d="M46.95,43.54c0.01-0.59,0.52-1.08,1.11-1.05c0.58,0.02,1.03,0.51,1.03,1.09c-0.01,0.57-0.49,1.06-1.06,1.05   C47.42,44.63,46.94,44.14,46.95,43.54z"></path>
</g>
</svg>
