<?xml version="1.0" encoding="UTF-8"?>
<!-- Generator: Adobe Illustrator 26.0.1, SVG Export Plug-In . SVG Version: 6.00 Build 0)  -->
<svg xmlns="http://www.w3.org/2000/svg" xmlns:xlink="http://www.w3.org/1999/xlink" version="1.1" id="Layer_1" x="0px" y="0px" viewBox="0 0 100 100" style="enable-background:new 0 0 100 100;" xml:space="preserve">
<style type="text/css">
	.st0{opacity:0.5;fill:#FFFFFF;}
	.st1{fill:#9A0212;}
	.st2{fill:none;}
	.st3{fill:#030303;}
</style>
<rect class="st0" width="100" height="100"></rect>
<g>
	<path class="st1" d="M71.55,25.01c0.22,0.17,0.51,0.14,0.75,0.24c1.54,0.63,2.52,1.76,2.62,3.4c0.17,2.6,0.11,5.2-0.78,7.71   c-1.86,5.19-5.44,8.59-10.7,10.2c-0.73,0.22-1.25,0.56-1.7,1.21c-1.8,2.63-4.27,4.42-7.29,5.43c-0.31,0.1-0.44,0.22-0.42,0.57   c0.03,0.62,0.01,1.24,0.01,1.85c0,1.46,0.63,2.14,2.09,2.25c1.92,0.15,3.36,1.36,3.76,3.19c0.16,0.74,0.11,1.49,0.09,2.24   c-0.01,0.39,0.07,0.56,0.5,0.52c0.42-0.04,0.85-0.02,1.27-0.01c0.83,0.02,1.22,0.43,1.22,1.25c0,2.46,0.01,4.91-0.01,7.37   c0,0.35,0.08,0.44,0.43,0.42c0.49-0.03,0.98-0.02,1.46,0c0.64,0.02,1.09,0.47,1.08,1.08c0,0.6-0.45,1.04-1.1,1.07   c-0.11,0-0.23,0-0.34,0c-9.68,0-19.35,0-29.03,0c-0.15,0-0.29,0.01-0.44-0.01c-0.57-0.06-0.99-0.51-0.98-1.08   c0.01-0.57,0.42-1.02,1-1.05c0.49-0.03,0.98-0.03,1.46,0c0.39,0.03,0.52-0.06,0.51-0.49C36.99,69.95,37,67.55,37,65.14   c0-0.94,0.38-1.32,1.33-1.33c0.42,0,0.85-0.02,1.27,0.01c0.3,0.02,0.39-0.09,0.38-0.38c-0.01-0.78-0.08-1.57,0.08-2.34   c0.37-1.79,1.85-3.07,3.69-3.21c0.44-0.03,0.88-0.05,1.26-0.3c0.61-0.39,0.9-0.96,0.91-1.68c0.01-0.75-0.01-1.5,0.01-2.24   c0.01-0.27-0.1-0.36-0.34-0.43c-3.32-1.08-5.92-3.11-7.8-6.06c-0.15-0.23-0.35-0.32-0.58-0.39c-1.98-0.61-3.88-1.38-5.58-2.59   c-3.77-2.71-5.89-6.4-6.54-10.97c-0.01-0.1,0.05-0.24-0.11-0.29c0-1.56,0-3.12,0-4.69c0.13-0.02,0.11-0.14,0.14-0.23   c0.44-1.46,1.4-2.41,2.85-2.85c0.08-0.03,0.2-0.01,0.23-0.14C42.66,25.01,57.11,25.01,71.55,25.01z M50,27.16   c-4.42,0-8.85,0-13.27-0.01c-0.33,0-0.47,0.06-0.39,0.42c0.07,0.33,0.08,0.68,0.12,1.02c0.35,3.1,0.68,6.2,1.04,9.3   c0.18,1.55,0.21,3.12,0.63,4.63c1.28,4.6,4.25,7.55,8.84,8.85c0.88,0.25,1.11,0.52,1.11,1.45c0,0.96,0,1.92,0,2.88   c0,0.64-0.06,1.27-0.34,1.85c-0.68,1.44-1.79,2.33-3.39,2.41c-1.52,0.07-2.34,0.94-2.23,2.44c0.02,0.31,0.03,0.62,0,0.93   c-0.04,0.38,0.09,0.49,0.48,0.49c4.11-0.01,8.23-0.01,12.34-0.01c0.85,0,1.69-0.01,2.54,0.01c0.27,0,0.37-0.07,0.36-0.35   c-0.03-0.6,0.01-1.21-0.04-1.8c-0.06-0.74-0.62-1.38-1.34-1.57c-0.25-0.06-0.51-0.08-0.77-0.1c-2.11-0.17-3.66-1.71-3.78-3.82   c-0.06-1.1-0.02-2.21-0.03-3.32c0-0.96,0.22-1.23,1.13-1.48c3.66-0.99,6.32-3.19,8.02-6.58c0.93-1.86,1.12-3.88,1.34-5.9   c0.41-3.75,0.83-7.5,1.26-11.24c0.05-0.42-0.04-0.5-0.45-0.5C58.78,27.17,54.39,27.16,50,27.16z M49.94,72.84   c3.48,0,6.96-0.01,10.44,0.01c0.36,0,0.45-0.08,0.45-0.45c-0.02-2.02-0.02-4.03,0-6.05c0-0.32-0.09-0.4-0.4-0.4   c-6.96,0.01-13.92,0.01-20.88,0c-0.33,0-0.4,0.1-0.4,0.41c0.01,2.02,0.02,4.03,0,6.05c0,0.37,0.1,0.45,0.45,0.44   C43.04,72.83,46.49,72.84,49.94,72.84z M63.66,44.22c3.03-0.96,5.87-3.41,7.49-6.34c1.57-2.85,1.82-5.93,1.64-9.08   c-0.05-0.89-0.85-1.61-1.73-1.63c-1.66-0.03-3.32-0.01-4.98-0.02c-0.21,0-0.27,0.06-0.29,0.27c-0.15,1.42-0.29,2.85-0.48,4.26   C64.78,35.86,64.63,40.08,63.66,44.22z M36.38,44.23c-0.3-0.95-0.53-1.79-0.63-2.66c-0.53-4.67-1.05-9.33-1.56-14   c-0.04-0.34-0.14-0.42-0.46-0.42c-1.54,0.02-3.09,0-4.64,0.01c-1.13,0.01-1.93,0.81-1.95,1.94c-0.01,0.75-0.01,1.5,0,2.24   c0.01,2.53,0.66,4.88,1.97,7.04C30.8,41.18,33.24,43.05,36.38,44.23z"></path>
	<path d="M46.32,44.16c-0.69-0.01-1.18-0.59-1.07-1.25c0.16-0.93,0.3-1.86,0.5-2.78c0.1-0.46,0.02-0.78-0.35-1.11   c-0.7-0.6-1.35-1.27-2.02-1.91c-0.35-0.33-0.51-0.71-0.35-1.18c0.16-0.47,0.52-0.69,0.99-0.75c1-0.14,1.99-0.28,2.99-0.41   c0.3-0.04,0.5-0.15,0.63-0.44c0.42-0.88,0.87-1.74,1.31-2.62c0.22-0.44,0.53-0.75,1.05-0.75c0.52,0,0.83,0.3,1.05,0.74   c0.43,0.87,0.88,1.74,1.31,2.62c0.13,0.26,0.29,0.4,0.58,0.43c1,0.12,1.99,0.27,2.99,0.4c0.49,0.07,0.87,0.26,1.04,0.76   c0.17,0.5-0.03,0.88-0.39,1.22c-0.7,0.66-1.37,1.34-2.09,1.98c-0.31,0.27-0.33,0.55-0.26,0.91c0.17,0.93,0.32,1.86,0.5,2.78   c0.09,0.46-0.03,0.84-0.39,1.13c-0.37,0.29-0.78,0.29-1.19,0.08c-0.93-0.47-1.86-0.94-2.77-1.43c-0.26-0.14-0.47-0.13-0.73,0   c-0.89,0.47-1.79,0.92-2.69,1.38C46.73,44.08,46.52,44.17,46.32,44.16z M46.5,37.01c0.35,0.37,0.63,0.75,0.99,1.04   c0.55,0.46,0.66,1,0.51,1.66c-0.1,0.45-0.16,0.91-0.26,1.44c0.57-0.3,1.06-0.54,1.54-0.81c0.47-0.26,0.91-0.27,1.39-0.01   c0.49,0.27,0.99,0.51,1.55,0.8c-0.11-0.65-0.21-1.23-0.3-1.8c-0.07-0.45,0.07-0.81,0.41-1.13c0.39-0.37,0.74-0.79,1.12-1.21   c-0.43-0.06-0.86-0.15-1.29-0.17c-0.72-0.05-1.22-0.34-1.5-1.04c-0.17-0.44-0.42-0.86-0.68-1.36c-0.31,0.61-0.57,1.13-0.84,1.65   c-0.2,0.39-0.49,0.62-0.94,0.68C47.64,36.82,47.07,36.92,46.5,37.01z"></path>
</g>
</svg>
