<?xml version="1.0" encoding="UTF-8"?>
<!-- Generator: Adobe Illustrator 26.0.1, SVG Export Plug-In . SVG Version: 6.00 Build 0)  -->
<svg xmlns="http://www.w3.org/2000/svg" xmlns:xlink="http://www.w3.org/1999/xlink" version="1.1" id="Layer_1" x="0px" y="0px" viewBox="0 0 100 100" style="enable-background:new 0 0 100 100;" xml:space="preserve">
<style type="text/css">
	.st0{opacity:0.5;fill:#FFFFFF;}
	.st1{fill:#9A0212;}
	.st2{fill:#1D1D1B;}
</style>
<rect class="st0" width="100" height="100"></rect>
<g>
	<path class="st1" d="M75.23,69.81c0-0.26-0.1-0.5-0.29-0.67c-0.18-0.18-0.45-0.29-0.7-0.28c-0.52,0.01-0.94,0.42-0.96,0.96   c-0.02,0.29-0.01,0.58-0.01,0.88l0,3.08h-7.97l0-1.64c0-1.31-0.01-2.63,0.02-3.94c0-0.26,0.11-0.56,0.26-0.78   c0.43-0.61,0.88-1.2,1.34-1.8c0.25-0.32,0.49-0.64,0.73-0.97c0.4-0.53,0.36-1.11-0.09-1.47c-0.21-0.16-0.44-0.23-0.68-0.2   c-0.29,0.03-0.56,0.21-0.8,0.51l-2.97,3.94c-0.3,0.4-0.6,0.66-1.08,0.66c0,0,0,0-0.01,0c-0.79,0-1.57,0-2.36,0   c-1.22,0-2.43,0-3.64-0.01c-0.23,0-0.5-0.09-0.72-0.24c-0.36-0.23-0.51-0.73-0.36-1.19c0.14-0.44,0.54-0.73,1.03-0.73   c1.49-0.01,3.07-0.02,4.63,0c0.65,0.01,1.08-0.21,1.44-0.71c1.23-1.68,2.5-3.34,3.58-4.75c0.16-0.2,0.38-0.39,0.61-0.51   c0.05-0.03,0.23-0.01,0.32,0.04c1.77,1.08,3.58,1.1,5.38,0.07c0.08-0.04,0.26-0.05,0.34-0.01c0.66,0.31,1,0.85,1,1.61   c0,0.79,0,1.58,0,2.37c0,0.79,0,1.58,0,2.37c0,0.67,0.37,1.1,0.96,1.11c0.27,0.01,0.51-0.08,0.69-0.25c0.2-0.2,0.31-0.5,0.31-0.88   l0-0.98c0-1.29,0.01-2.57-0.01-3.86c-0.02-1.19-0.52-2.17-1.5-2.91c-0.05-0.04-0.09-0.07-0.14-0.1c0.06-0.2,0.13-0.4,0.19-0.6   c0.19-0.57,0.37-1.1,0.4-1.67c0.1-1.56,0.1-3.17,0.02-4.81c-0.09-1.74-1.42-2.97-3.23-2.99c-1.11-0.01-2.22-0.01-3.32,0   c-1.91,0.02-3.25,1.36-3.28,3.26c-0.01,0.48,0,0.96,0,1.43c0,0.6,0.01,1.19-0.01,1.79c-0.02,1.14,0,2.34,0.61,3.35   c-0.13,0.14-0.25,0.29-0.38,0.42c-0.35,0.4-0.69,0.78-1,1.18c-0.62,0.79-1.22,1.6-1.82,2.4c-0.35,0.47-0.71,0.94-1.08,1.44   c-0.04,0.06-0.13,0.18-0.14,0.19c-0.71,0.02-1.42,0.02-2.15,0.02l-0.43,0c0-0.18-0.01-0.35-0.01-0.52   c-0.01-0.53-0.02-1.03,0.02-1.52c0.13-1.55-0.54-2.76-2.04-3.69c-0.35-0.21-0.71-0.4-1.06-0.59c-0.1-0.05-0.21-0.11-0.31-0.16   c0.02-0.11,0.04-0.22,0.06-0.32c0.07-0.37,0.14-0.75,0.15-1.13c0.03-2.14,0.02-4.27,0.01-6.45c0-0.7-0.4-1.08-1.11-1.09l-0.89,0   c-1.55-0.01-3.15-0.02-4.72,0.01c-1.69,0.03-3.08,1.31-3.1,2.86c-0.01,0.48-0.02,0.95-0.04,1.43c-0.06,1.58-0.11,3.2,0.25,4.82   L45,57.65c-1.46,0.7-3.36,1.96-2.99,4.74c0.05,0.38,0.04,0.77,0.02,1.18c0,0.12-0.01,0.24-0.01,0.36l-0.5,0   c-0.61,0-1.18-0.01-1.76,0.01c-0.23,0.01-0.35-0.06-0.48-0.24c-0.88-1.19-1.83-2.46-2.79-3.71c-0.33-0.43-0.69-0.83-1.06-1.26   c-0.13-0.15-0.27-0.31-0.4-0.47c0.4-0.71,0.61-1.52,0.6-2.36c0-0.55,0-1.1,0-1.65c0-0.85,0-1.7,0-2.55   c-0.02-1.9-1.37-3.23-3.29-3.25c-0.93-0.01-1.86,0-2.79,0l-0.38,0c-2.01,0.01-3.37,1.35-3.4,3.35c0,0.45,0,0.89,0,1.34   c0,0.55,0.01,1.09-0.01,1.64c-0.03,1.28,0.02,2.53,0.75,3.69c-1.04,0.64-1.47,1.63-1.74,2.44l-0.01,5.9l0.03,0.06   c0.4,0.69,0.9,0.7,1.25,0.58c0.69-0.22,0.69-0.9,0.68-1.19c-0.01-1.54-0.01-3.09,0-4.63c0-0.67,0.28-1.17,0.86-1.53   c0.22-0.14,0.35-0.14,0.58,0c1.73,1,3.46,0.99,5.15-0.06c0.28-0.17,0.46-0.16,0.72,0.05c0.14,0.11,0.27,0.27,0.38,0.42l0.53,0.7   c1.02,1.35,2.04,2.69,3.05,4.05c0.33,0.45,0.73,0.65,1.29,0.65c0.01,0,0.02,0,0.03,0c1.43-0.02,2.97-0.02,4.73,0   c0.54,0.01,0.96,0.36,1.04,0.89c0.08,0.56-0.18,1.03-0.68,1.2c-0.14,0.05-0.32,0.07-0.54,0.07c-0.83,0-1.66,0-2.49,0   c-1.11,0-2.21,0-3.32,0.01c0,0-0.01,0-0.01,0c-0.46,0-0.79-0.17-1.07-0.55c-1-1.34-2.01-2.68-3.03-4.01   c-0.26-0.33-0.48-0.5-0.7-0.5c-0.33,0-0.73,0.12-0.95,0.33c-0.33,0.31-0.33,0.79-0.01,1.22l0.67,0.88c0.5,0.66,1.01,1.33,1.49,2   c0.14,0.19,0.23,0.47,0.23,0.69c0.02,1.34,0.02,2.68,0.01,4.02l0,1.61h-7.97l0-2.16c0-0.49,0-0.98,0-1.47   c0-0.33,0.01-0.95-0.64-1.2c-0.65-0.26-1.04,0.2-1.27,0.47l-0.06,0.07v5.64l0.04,0.06c0.34,0.53,0.85,0.6,1.25,0.6   c13.31-0.01,26.63-0.01,39.95-0.01h7.99l0.08,0c0.1,0,0.2,0,0.3-0.01c0.55-0.09,0.88-0.44,0.88-0.96   C75.25,73.04,75.25,71.41,75.23,69.81z M46.93,51.9c-0.06-0.38,0.02-0.75,0.22-1.03c0.2-0.27,0.5-0.43,0.85-0.44   c1.16-0.04,2.31-0.03,3.52-0.02c0.43,0,0.85,0.01,1.29,0.01v1.49H46.93z M52.86,54.61c-0.01,0.69-0.02,1.35-0.14,1.99   c-0.26,1.37-1.69,2.4-3.09,2.24c-1.55-0.18-2.67-1.36-2.71-2.87c-0.02-0.51-0.01-1.02-0.01-1.54l0-0.49h5.96   C52.86,54.17,52.86,54.39,52.86,54.61z M53.08,68.05h-6.18c0.29-1.02,0.16-2.02-0.39-2.81c-0.56-0.8-1.46-1.29-2.51-1.34l0-0.59   c0-0.77-0.01-1.57,0.02-2.35c0-0.11,0.12-0.29,0.28-0.44c0.37-0.35,0.7-0.61,1.02-0.81c0.79-0.49,0.79-0.49,1.51,0.07   c1.98,1.54,4.72,1.37,6.5-0.42c0.21-0.21,0.27-0.19,0.4-0.11c0.18,0.12,0.37,0.23,0.55,0.34c0.47,0.28,0.92,0.55,1.31,0.89   c0.21,0.18,0.35,0.61,0.38,0.94c0.05,0.63,0.04,1.26,0.03,1.92c0,0.19-0.01,0.38-0.01,0.57c-1.04,0.06-1.97,0.54-2.53,1.33   S52.79,67.01,53.08,68.05z M36.69,73.77v-3.7h26.63v3.7H36.69z M72.27,55.12c-0.01,0.04-0.09,0.12-0.12,0.14   c-0.73,0.16-1.33,0.09-1.76-0.2c-0.44-0.29-0.74-0.83-0.89-1.59c-0.05-0.24-0.07-0.48-0.09-0.72l-0.01-0.13   c-0.05-0.43-0.26-0.76-0.58-0.91c-0.11-0.05-0.24-0.08-0.36-0.08c-0.22,0-0.45,0.08-0.67,0.23c-0.5,0.36-0.93,0.53-1.43,0.51   c0-0.05,0-0.11,0-0.16c-0.01-0.26-0.01-0.51,0.01-0.75c0.05-0.58,0.58-1.05,1.19-1.06c1.18-0.02,2.36-0.02,3.5,0   c0.7,0.01,1.2,0.52,1.22,1.22C72.3,52.87,72.28,54.1,72.27,55.12z M71.9,57.29c-0.61,1.15-1.94,1.76-3.25,1.48   c-1.29-0.27-2.26-1.43-2.3-2.75c-0.01-0.43-0.01-0.87-0.01-1.29l0-0.36l1.29-0.21C68.22,56.38,69.66,57.42,71.9,57.29z    M33.69,54.38c-0.01,0.19-0.01,0.38-0.02,0.57c-0.02,0.58-0.03,1.18-0.15,1.74c-0.24,1.13-1.24,1.97-2.55,2.13   c-1.07,0.13-2.26-0.48-2.83-1.47c-0.02-0.03-0.03-0.06-0.05-0.09c2.74-0.19,3.35-0.65,4.27-3.12L33.69,54.38z M33.66,52.37   c-0.45,0.01-0.87-0.11-1.3-0.41c-0.46-0.32-0.85-0.4-1.18-0.25c-0.33,0.15-0.53,0.51-0.59,1.07c-0.05,0.49-0.14,0.91-0.27,1.28   c-0.37,1.1-1.21,1.48-2.54,1.21c-0.02-0.02-0.05-0.08-0.06-0.1l0-0.38c-0.01-1.04-0.02-2.11,0.01-3.17   c0.02-0.71,0.54-1.2,1.29-1.21c0.59-0.01,1.16-0.01,1.71-0.01c0.56,0,1.11,0,1.65,0.01c0.75,0.01,1.25,0.51,1.28,1.26   c0.01,0.2,0,0.41,0,0.62L33.66,52.37z"></path>
	<path d="M28.86,44.34l0,0.57c0,0.62,0,1.23,0,1.83c0,0.26-0.01,0.87,0.58,1.13c0.64,0.29,1.1-0.18,1.27-0.35   c0.87-0.88,1.89-1.91,2.9-2.89c0.1-0.1,0.29-0.18,0.41-0.18c3.15-0.02,6.31-0.01,9.47-0.02c0.17,0.01,0.21,0.01,0.27,0.2   c0.54,1.62,1.9,2.6,3.62,2.63c0.37,0,0.73,0,1.1,0l0.46,0l0.74,0c0.63,0,1.27,0,1.9-0.01c0.31,0,0.58-0.11,0.76-0.31   c0.18-0.18,0.26-0.43,0.26-0.7c-0.02-0.55-0.41-0.92-1.01-0.95c-0.09-0.01-0.18,0-0.28,0l-1.29,0c-0.9,0-1.79,0-2.69-0.01   c-0.68-0.01-1.28-0.36-1.51-0.84c1.17,0.02,2.42-0.45,3.31-1.3c1-0.96,1.53-2.32,1.48-3.83c-0.03-1-0.02-2.03-0.02-3.01   c0-0.46,0.01-0.91,0.01-1.37v-0.31l11.33,0l0.24,0c0.24,0,0.48,0,0.72,0.01c0.97,0.07,1.68,0.81,1.69,1.76   c0.02,2.38,0.02,4.77,0,7.12c-0.01,0.92-0.7,1.67-1.66,1.77c-0.85,0.09-1.11,0.38-1.12,1.24c0,0.28,0,0.56,0,0.84   c-0.35-0.31-0.68-0.63-1-0.94c-0.24-0.24-0.49-0.47-0.74-0.7c-0.26-0.24-0.67-0.41-1.01-0.42c-1.01-0.03-2.03-0.03-3.01-0.02   l-0.9,0c-0.71,0-1.16,0.37-1.18,0.95c-0.01,0.27,0.08,0.5,0.25,0.68c0.21,0.22,0.53,0.33,0.93,0.34l0.55,0   c0.93,0,1.85,0.01,2.78-0.01c0.28,0,0.44,0.06,0.63,0.25c0.56,0.58,1.14,1.15,1.71,1.73c0.37,0.37,0.74,0.74,1.11,1.11   c0.22,0.22,0.5,0.44,0.86,0.44c0.11,0,0.23-0.02,0.36-0.07c0.63-0.25,0.63-0.88,0.63-1.11l0-0.44c0-0.63-0.01-1.26,0.01-1.89   c0.01-0.05,0.08-0.16,0.13-0.18c1.77-0.69,2.64-1.94,2.64-3.81c0-2.23,0-4.46,0-6.69c0-0.28-0.01-0.58-0.06-0.87   c-0.38-1.89-1.87-3.06-3.91-3.06c-2.75,0-5.5,0-8.25,0l-3.73,0v-0.84c-0.01-2.97-2.01-4.97-4.97-4.97c-5.17,0-10.35,0-15.52,0   c-2.97,0-4.97,1.99-4.98,4.95c0,2.56,0,5.11,0,7.66C25.15,41.95,26.47,43.67,28.86,44.34z M30.82,43.59   c-0.01-0.71-0.35-1.06-1.05-1.11c-1.6-0.12-2.64-1.23-2.65-2.83c-0.01-2.67-0.01-5.34,0-8c0.01-1.63,1.19-2.81,2.81-2.81   c2.68-0.01,5.36-0.01,8.04-0.01c2.63,0,5.25,0,7.88,0.01c1.62,0,2.8,1.19,2.81,2.81c0.02,2.78,0.02,5.49,0,8.05   c-0.01,1.64-1.17,2.78-2.82,2.79c-4.02,0.01-8.04,0.01-12.06-0.01c0,0-0.01,0-0.01,0c-0.57,0-0.98,0.17-1.34,0.55   c-0.43,0.47-0.89,0.92-1.34,1.37l-0.26,0.26v-0.02C30.82,44.28,30.82,43.93,30.82,43.59z"></path>
	<path class="st1" d="M30.5,36.4c0.27,0.19,0.63,0.22,0.83,0.22c1.71,0.01,3.42,0.01,5.12,0.01l1.42,0l3.51,0c0.39,0,0.78,0,1.17,0   c0.67,0,1.34,0,2.01,0c0.63,0,1.06-0.38,1.09-0.94c0.02-0.57-0.42-0.99-1.07-1.02c-0.05,0-0.11,0-0.21,0h-2c-3.66,0-7.32,0-10.99,0   c-0.19,0-0.44,0.01-0.67,0.1c-0.32,0.13-0.55,0.43-0.59,0.77C30.09,35.88,30.23,36.2,30.5,36.4z"></path>
	<path class="st1" d="M31.2,32.79c0.04,0,0.08,0,0.12,0l0.1,0c1.67,0,3.34,0,5.01,0h2.92c1.65,0,3.3,0,4.96,0   c0.23,0,0.44-0.01,0.65-0.07c0.46-0.14,0.73-0.52,0.68-1c-0.05-0.48-0.36-0.81-0.84-0.87c-0.13-0.02-0.25-0.02-0.38-0.01l-12.97,0   l-0.09,0c-0.13,0-0.25,0-0.38,0.02c-0.53,0.07-0.86,0.45-0.81,0.92c0.04,0.37,0.35,0.71,0.53,0.87   C30.82,32.77,31.02,32.79,31.2,32.79z"></path>
	<path class="st1" d="M34.48,40.5c1.06,0,2.13,0,3.19,0c0.41,0,0.72-0.11,0.93-0.32c0.17-0.17,0.26-0.41,0.25-0.69   c0-0.29-0.13-0.95-1.16-0.96c-0.75,0-1.51,0-2.26,0l-0.95,0l-0.96,0c-0.74,0-1.47,0-2.2,0c-0.41,0-0.73,0.12-0.94,0.33   c-0.17,0.17-0.25,0.4-0.25,0.67c0.01,0.59,0.46,0.96,1.17,0.96C32.36,40.5,33.42,40.5,34.48,40.5z"></path>
</g>
</svg>
