<?xml version="1.0" encoding="UTF-8"?>
<!-- Generator: Adobe Illustrator 26.0.1, SVG Export Plug-In . SVG Version: 6.00 Build 0)  -->
<svg xmlns="http://www.w3.org/2000/svg" xmlns:xlink="http://www.w3.org/1999/xlink" version="1.1" id="Layer_1" x="0px" y="0px" viewBox="0 0 100 100" style="enable-background:new 0 0 100 100;" xml:space="preserve">
<style type="text/css">
	.st0{opacity:0.5;fill:#FFFFFF;}
	.st1{fill:#9A0212;}
</style>
<rect class="st0" width="100" height="100"></rect>
<g>
	<path class="st1" d="M25,37.7c0.09-0.27,0.17-0.55,0.27-0.82c0.59-1.59,2.08-2.66,3.77-2.7c0.55-0.01,1.11-0.01,1.66,0   c0.65,0.01,0.95,0.3,0.95,0.96c0.01,1.69,0,3.39,0,5.08c0,0.18,0,0.35,0,0.59c4.45,0,8.86,0,13.31,0c0,0.58,0,1.11,0,1.67   c-4.42,0-8.82,0-13.31,0c0,0.24,0,0.45,0,0.65c0,7.99,0,15.98,0,23.97c0,1.01-0.23,1.24-1.23,1.24c-0.44,0-0.88-0.01-1.32,0   c-1.37,0.04-2.44,1.12-2.44,2.47c-0.01,1.34,1.06,2.45,2.42,2.51c0.13,0.01,0.26,0,0.39,0c11.93,0,23.86,0,35.79,0   c0.16,0,0.32,0,0.54,0c0-6.93,0-13.83,0-20.78c0.58,0,1.1,0,1.69,0c0,0.17,0,0.34,0,0.52c0,6.92,0,13.83,0,20.75   c0,0.94-0.24,1.18-1.18,1.18c-12.24,0-24.48,0-36.71,0c-2.46,0-3.87-1.07-4.53-3.44c-0.01-0.03-0.04-0.05-0.06-0.07   C25,60.22,25,48.96,25,37.7z M29.96,66.68c0-10.33,0-20.58,0-30.81c-2.23-0.31-3.33,1.16-3.32,2.95   c0.05,9.34,0.02,18.68,0.02,28.02c0,0.19,0,0.37,0,0.65C27.7,66.75,28.79,66.6,29.96,66.68z"></path>
	<path d="M63.57,25c0.46,0.24,0.61,0.61,0.6,1.12c-0.03,0.91-0.01,1.82-0.01,2.72c0.47,0.2,0.89,0.4,1.34,0.55   c0.14,0.05,0.38,0,0.48-0.1c0.6-0.57,1.18-1.17,1.77-1.75c0.54-0.53,0.94-0.54,1.47-0.02c1.1,1.09,2.19,2.18,3.28,3.28   c0.51,0.51,0.5,0.92,0,1.43c-0.59,0.6-1.21,1.19-1.79,1.8c-0.1,0.1-0.08,0.32-0.1,0.49c0,0.07,0.08,0.14,0.09,0.22   c0.16,1.03,0.81,1.22,1.73,1.11c0.55-0.07,1.11-0.02,1.66-0.01c0.59,0.01,0.9,0.32,0.91,0.91c0.01,1.61,0.01,3.22,0,4.83   c0,0.59-0.32,0.9-0.91,0.9c-0.86,0.01-1.73,0.02-2.59,0c-0.28-0.01-0.43,0.08-0.48,0.35c-0.01,0.05-0.02,0.1-0.04,0.14   c-0.65,0.87-0.3,1.5,0.46,2.08c0.41,0.31,0.75,0.72,1.11,1.09c0.44,0.46,0.46,0.88,0.02,1.33c-1.13,1.15-2.27,2.29-3.42,3.41   c-0.44,0.43-0.87,0.41-1.33-0.03c-0.68-0.67-1.35-1.36-2.02-2.03c-0.49,0.2-0.95,0.37-1.39,0.58c-0.12,0.06-0.23,0.26-0.23,0.39   c-0.02,0.85-0.01,1.69-0.01,2.54c0,0.71-0.3,1-1.02,1c-1.55,0-3.09,0-4.64,0c-0.71,0-0.99-0.29-1-1.01c0-0.81-0.01-1.63,0-2.44   c0-0.28-0.05-0.45-0.35-0.54c-0.44-0.13-0.91-0.49-1.3-0.41c-0.37,0.08-0.66,0.59-0.98,0.91c-0.35,0.34-0.68,0.7-1.04,1.03   c-0.47,0.45-0.89,0.45-1.36-0.02c-1.12-1.11-2.24-2.22-3.35-3.35c-0.45-0.46-0.45-0.9,0.01-1.36c0.67-0.68,1.35-1.36,2.03-2.03   c-0.19-0.47-0.36-0.93-0.57-1.37c-0.06-0.12-0.26-0.23-0.39-0.23c-0.83-0.02-1.66-0.01-2.49-0.01c-0.76,0-1.04-0.27-1.04-1.02   c0-1.55,0-3.09,0-4.64c0-0.71,0.29-1,1.01-1c0.81,0,1.63-0.01,2.44,0c0.27,0,0.45-0.04,0.54-0.34c0.13-0.44,0.49-0.91,0.41-1.3   c-0.08-0.37-0.59-0.66-0.91-0.98c-0.34-0.35-0.7-0.69-1.03-1.04c-0.44-0.45-0.46-0.89-0.03-1.33c1.13-1.15,2.27-2.28,3.42-3.42   c0.44-0.43,0.87-0.42,1.32,0.03c0.61,0.59,1.2,1.19,1.79,1.8c0.18,0.19,0.34,0.28,0.58,0.11c0.09-0.06,0.2-0.12,0.31-0.14   c0.91-0.14,1.08-0.71,0.99-1.52c-0.07-0.55,0.01-1.11-0.02-1.66c-0.03-0.5,0.16-0.85,0.6-1.06C59.93,25,61.75,25,63.57,25z    M50.86,31.56c0.57,0.57,1.17,1.16,1.77,1.76c0.5,0.5,0.51,0.75,0.22,1.39c-0.3,0.63-0.57,1.28-0.8,1.93   c-0.25,0.71-0.43,0.86-1.21,0.86c-0.82,0-1.65,0-2.47,0c0,1.14,0,2.22,0,3.33c0.86,0,1.69,0,2.52,0c0.71,0,0.91,0.18,1.14,0.82   c0.24,0.67,0.51,1.33,0.81,1.98c0.3,0.64,0.28,0.88-0.22,1.39c-0.59,0.6-1.19,1.19-1.76,1.76c0.79,0.8,1.56,1.57,2.35,2.36   c0.6-0.6,1.21-1.22,1.84-1.84c0.41-0.41,0.7-0.43,1.23-0.18c0.63,0.29,1.27,0.58,1.93,0.82c0.83,0.3,0.95,0.42,0.95,1.29   c0,0.81,0,1.61,0,2.41c1.15,0,2.23,0,3.33,0c0-0.88,0-1.73,0-2.57c0-0.65,0.18-0.85,0.78-1.07c0.67-0.25,1.34-0.51,1.98-0.81   c0.69-0.33,0.91-0.32,1.46,0.24c0.58,0.58,1.17,1.17,1.72,1.72c0.81-0.81,1.57-1.57,2.36-2.36c-0.54-0.54-1.1-1.1-1.67-1.66   c-0.62-0.62-0.63-0.81-0.26-1.58c0.28-0.57,0.53-1.15,0.73-1.75c0.29-0.83,0.41-0.95,1.28-0.95c0.81,0,1.61,0,2.41,0   c0-1.15,0-2.23,0-3.33c-0.88,0-1.73,0-2.58,0c-0.64,0-0.85-0.18-1.07-0.78c-0.25-0.68-0.52-1.36-0.83-2.02   c-0.29-0.63-0.28-0.87,0.23-1.38c0.59-0.6,1.19-1.19,1.75-1.75c-0.8-0.8-1.57-1.56-2.36-2.35c-0.58,0.58-1.18,1.19-1.8,1.79   c-0.45,0.45-0.73,0.47-1.31,0.2c-0.65-0.3-1.3-0.58-1.97-0.82c-0.69-0.25-0.85-0.42-0.86-1.16c0-0.84,0-1.68,0-2.52   c-1.14,0-2.22,0-3.33,0c0,0.85,0,1.66,0,2.47c0,0.78-0.15,0.95-0.87,1.2c-0.66,0.23-1.3,0.5-1.93,0.8   c-0.63,0.3-0.89,0.28-1.39-0.21c-0.6-0.59-1.2-1.19-1.77-1.76C52.43,29.99,51.66,30.76,50.86,31.56z"></path>
	<path d="M45.06,63.31c2.18,0,4.36,0,6.6,0c0-0.66,0-1.29,0-1.92c0-1.23,0.17-1.4,1.42-1.4c1.17,0,2.34,0,3.57,0   c0-1.67,0-3.3,0-4.97c0.57,0,1.08,0,1.66,0c0,1.63,0,3.26,0,4.94c0.23,0.01,0.41,0.03,0.58,0.03c1.12,0,2.25,0,3.37,0   c0.78,0,1.08,0.29,1.08,1.05c0.01,2.08,0.01,4.16,0,6.25c0,0.74-0.3,1.04-1.04,1.04c-3.2,0-6.41,0-9.61,0   c-0.71,0-1.01-0.31-1.02-1.02c-0.01-0.75,0-1.49,0-2.28c-2.22,0-4.4,0-6.66,0c0,0.7,0,1.41,0,2.12c0,0.9-0.27,1.17-1.16,1.17   c-3.12,0-6.25,0-9.37,0c-0.86,0-1.15-0.28-1.15-1.14c0-2.03,0-4.07,0-6.1c0-0.83,0.28-1.11,1.12-1.11c3.14,0,6.28,0,9.42,0   c0.86,0,1.13,0.28,1.14,1.14c0,0.68,0,1.37,0.01,2.05C45.02,63.22,45.04,63.25,45.06,63.31z M43.32,61.7c-2.78,0-5.53,0-8.28,0   c0,1.67,0,3.31,0,4.93c2.79,0,5.53,0,8.28,0C43.32,64.97,43.32,63.35,43.32,61.7z M53.35,66.64c2.77,0,5.51,0,8.27,0   c0-1.66,0-3.29,0-4.95c-2.77,0-5.51,0-8.27,0C53.35,63.35,53.35,64.99,53.35,66.64z"></path>
	<path d="M45.01,48.33c1.14,0,2.19,0,3.29,0c0,0.54,0,1.07,0,1.65c-1.07,0-2.15,0-3.29,0c0,0.78,0,1.5,0,2.23   c0,0.84-0.27,1.11-1.11,1.11c-3.16,0-6.31,0-9.47,0c-0.82,0-1.1-0.27-1.1-1.07c0-2.07,0-4.13,0-6.2c0-0.76,0.29-1.04,1.03-1.04   c3.21,0,6.41,0,9.62,0c0.74,0,1.03,0.29,1.03,1.04C45.01,46.79,45.01,47.54,45.01,48.33z M43.31,46.7c-2.78,0-5.52,0-8.29,0   c0,1.66,0,3.29,0,4.94c2.78,0,5.52,0,8.29,0C43.31,49.99,43.31,48.37,43.31,46.7z"></path>
	<path class="st1" d="M60.82,46.67c-4.14-0.01-7.51-3.4-7.49-7.54c0.02-4.11,3.4-7.48,7.52-7.47c4.11,0.01,7.49,3.38,7.49,7.5   C68.34,43.29,64.95,46.68,60.82,46.67z M54.99,39.15c-0.01,3.2,2.63,5.85,5.82,5.86c3.19,0.01,5.84-2.63,5.86-5.83   c0.01-3.19-2.62-5.84-5.82-5.85C57.65,33.31,55,35.95,54.99,39.15z"></path>
	<path class="st1" d="M60.85,42.49c-1.85,0.01-3.33-1.45-3.34-3.29c-0.01-1.87,1.47-3.36,3.33-3.36c1.84,0,3.32,1.49,3.32,3.32   C64.16,41,62.69,42.48,60.85,42.49z M60.84,40.83c0.92-0.01,1.66-0.76,1.65-1.69c-0.01-0.9-0.75-1.63-1.65-1.64   c-0.92-0.01-1.67,0.74-1.67,1.67C59.17,40.1,59.91,40.83,60.84,40.83z"></path>
</g>
</svg>
