<?xml version="1.0" encoding="UTF-8"?>
<!-- Generator: Adobe Illustrator 26.0.1, SVG Export Plug-In . SVG Version: 6.00 Build 0)  -->
<svg xmlns="http://www.w3.org/2000/svg" xmlns:xlink="http://www.w3.org/1999/xlink" version="1.1" id="Layer_1" x="0px" y="0px" viewBox="0 0 100 100" style="enable-background:new 0 0 100 100;" xml:space="preserve">
<style type="text/css">
	.st0{opacity:0.5;fill:#FFFFFF;}
	.st1{fill:#9A0212;}
</style>
<rect class="st0" width="100" height="100"></rect>
<g>
	<path class="st1" d="M74.99,38.83c0-0.83-0.24-1.62-0.69-2.34c-0.91-1.43-2.23-2.18-4.02-2.28l-0.72-0.04l-0.06-0.86   c-0.01-0.15-0.03-0.29-0.02-0.43c0.08-1.34-0.38-2.61-1.29-3.57c-0.96-1.01-2.32-1.56-3.82-1.56l-0.09,0   c-5.2,0.07-10.49,0.05-15.6,0.03l-4.87-0.02c-0.47,0-0.99-0.17-1.4-0.45c-0.86-0.59-1.72-1.23-2.63-1.95   c-0.35-0.28-0.64-0.38-1.07-0.36c-1.49,0.01-2.97,0.01-4.45,0.01h-0.74l-3.59,0C27.03,25.02,25,27.04,25,29.93   c0,9.7,0,19.39,0.01,29.09c0,0.53,0.05,0.96,0.15,1.32c0.7,2.53,2.66,3.8,5.54,3.61v-2.06h-0.66c-1.9,0-2.98-1.08-2.98-2.97V36.34   l0.92-0.06c0.09-0.01,0.16-0.01,0.22-0.01l10.91,0c10.37,0,20.73,0,31.1,0c1.62,0,2.75,1.15,2.75,2.79c0,6.66,0,13.33,0,19.99   c0,1.68-1.14,2.81-2.83,2.82l-0.84,0v2.05c0.37,0,0.73,0,1.09-0.01c2.53-0.06,4.6-2.12,4.62-4.6c0.03-5.79,0.02-11.66,0.01-16.84   L74.99,38.83z M67.37,33.49l-0.1,0.7H27.05l-0.01-1.97c-0.01-0.82-0.01-1.75,0.01-2.66c0.04-1.33,1.17-2.47,2.48-2.49   c2.91-0.04,5.9-0.02,8.54-0.01c0.42,0,0.77,0.22,1.03,0.4l0.4,0.29c0.75,0.54,1.52,1.1,2.27,1.7c0.33,0.26,0.67,0.37,1.18,0.37   c2.36,0,4.71,0,7.06,0c4.75,0.01,9.4,0.01,14.09-0.03c1.21,0,2.08,0.33,2.66,0.99C67.34,31.45,67.54,32.36,67.37,33.49z"></path>
	<path d="M65.41,56.47c0.44-0.27,0.87-0.75,0.43-1.5c-1.32-2.23-2.7-4.49-4.02-6.67l-0.77-1.25c-0.19-0.31-0.42-0.43-0.72-0.38   c-0.34,0.06-0.68,0.17-0.97,0.33c-0.57,0.32-1.14,0.67-1.7,1.02l-2.03,1.25l0-2.73c0-0.69,0-1.36-0.01-2.02   c-0.01-0.61-0.42-1.05-0.99-1.05c-3-0.02-6.12-0.02-9.27,0c-0.58,0-0.99,0.43-1,1.05c-0.01,0.52-0.01,1.03-0.01,1.55l0,1.15   c0,0.13-0.01,0.25-0.03,0.39l-0.16,1.44l-2.05-1.23c-0.6-0.36-1.18-0.71-1.77-1.05c-0.54-0.31-1-0.22-1.31,0.27   c-1.63,2.6-3.26,5.2-4.87,7.81c-0.19,0.31-0.26,0.6-0.2,0.85c0.07,0.31,0.36,0.54,0.58,0.68c0.58,0.35,1.16,0.7,1.74,1.05   l1.11,0.67c0.12,0.07,0.24,0.16,0.38,0.25l1.26,0.85l-2.21,1.34c-0.74,0.45-1.46,0.88-2.17,1.32c-0.76,0.46-0.88,0.96-0.43,1.72   c1.52,2.53,3.05,5.06,4.59,7.58c0.38,0.63,0.92,0.76,1.57,0.39c0.46-0.27,0.92-0.55,1.38-0.83l0.77-0.47   c0.11-0.07,0.22-0.13,0.35-0.2l1.48-0.83l0,2.45c0,0.74,0,1.45,0,2.16c0,0.8,0.39,1.19,1.19,1.19c2.96,0.01,5.91,0,8.87,0   c0.8,0,1.2-0.39,1.2-1.18c0-0.66,0-1.31,0-2l0-2.42l1.42,0.78c0.15,0.08,0.27,0.15,0.39,0.22l0.77,0.47   c0.49,0.3,0.98,0.6,1.48,0.88c0.48,0.27,0.96,0.17,1.22-0.27c1.73-2.79,3.32-5.39,4.86-7.95c0.32-0.53,0.19-1.02-0.36-1.39   c-0.57-0.37-1.14-0.74-1.71-1.11l-1.23-0.8c-0.11-0.07-0.22-0.15-0.34-0.25l-1.09-0.85l2.24-1.36C64,57.32,64.71,56.9,65.41,56.47z    M59.83,57.44c-0.57,0.34-0.83,0.79-0.82,1.47l0,0.12c0,0.28,0.01,0.57-0.01,0.85c-0.02,0.49,0.15,0.8,0.6,1.08   c0.77,0.47,1.54,0.94,2.31,1.42l1.63,1.03l-3.69,6.07l-1.65-1c-0.72-0.43-1.43-0.86-2.13-1.31c-0.54-0.35-0.94-0.37-1.42-0.09   c-0.87,0.5-1.12,0.84-1.09,1.48c0.04,0.81,0.03,1.6,0.02,2.44c0,0.37-0.01,0.73-0.01,1.09v0.82h-7.17v-0.82   c0-0.27,0-0.54-0.01-0.81l0-0.21c-0.01-0.76-0.02-1.55,0.02-2.33c0.05-1.11-0.18-1.23-1.29-1.82l-0.23-0.12   c-0.18-0.1-0.48-0.03-0.88,0.22c-0.89,0.54-1.79,1.08-2.68,1.63l-0.64,0.39l-0.7-0.03l-0.31-0.33l-3.28-5.37l1.66-1.02   c0.71-0.44,1.4-0.86,2.1-1.28c0.55-0.33,0.8-0.77,0.8-1.44l0-0.24c0-0.26,0-0.51,0-0.77c0.02-0.47-0.16-0.78-0.58-1.04l-3.98-2.43   l3.7-6.09l2.56,1.54c0.33,0.19,0.66,0.39,0.97,0.61c1.02,0.7,1.27,0.61,2.5-0.33c0.07-0.06,0.25-0.19,0.25-0.79l0-4.48h7.08   l0.07,0.88c0.01,0.13,0.02,0.27,0.02,0.41l0,3.35c0,0.41,0.15,0.68,0.5,0.9l0.24,0.16c0.23,0.15,0.43,0.29,0.63,0.38   c0.22,0.09,0.51,0.15,1.05-0.18l3.87-2.35l3.71,6.1l-1.64,1.01C61.23,56.6,60.54,57.03,59.83,57.44z"></path>
	<path class="st1" d="M50.01,53.59c-3.15,0-5.63,2.46-5.65,5.59c-0.01,1.52,0.57,2.95,1.63,4.02c1.05,1.06,2.47,1.65,3.99,1.66   c3.15,0,5.63-2.46,5.65-5.59c0.01-1.52-0.57-2.95-1.63-4.01C52.95,54.18,51.53,53.59,50.01,53.59z M52.54,61.78L52.54,61.78   c-0.67,0.66-1.57,1.03-2.54,1.03c-1-0.01-1.9-0.38-2.56-1.05c-0.67-0.68-1.03-1.59-1.02-2.58c0.01-0.97,0.39-1.87,1.06-2.53   c0.67-0.65,1.58-1.01,2.57-1.01c0,0,0.01,0,0.01,0c1.98,0.03,3.53,1.61,3.53,3.59C53.58,60.21,53.21,61.11,52.54,61.78z"></path>
</g>
</svg>
