<?xml version="1.0" encoding="UTF-8"?>
<!-- Generator: Adobe Illustrator 26.0.1, SVG Export Plug-In . SVG Version: 6.00 Build 0)  -->
<svg xmlns="http://www.w3.org/2000/svg" xmlns:xlink="http://www.w3.org/1999/xlink" version="1.1" id="Layer_1" x="0px" y="0px" viewBox="0 0 100 100" style="enable-background:new 0 0 100 100;" xml:space="preserve">
<style type="text/css">
	.st0{opacity:0.5;fill:#FFFFFF;}
	.st1{fill:#9A0212;}
</style>
<rect class="st0" width="100" height="100"></rect>
<g>
	<path class="st1" d="M44.24,75c-0.21-0.08-0.43-0.14-0.63-0.24c-1.18-0.54-1.85-1.44-1.93-2.76c-0.01-0.23-0.01-0.46-0.01-0.68   c0-8.77,0-17.54,0-26.3c0-1.68,0.89-2.88,2.39-3.25c0.31-0.07,0.64-0.09,0.97-0.09c8.87,0,17.74-0.01,26.6,0   c2.09,0,3.36,1.29,3.36,3.39c0,8.72,0,17.44,0,26.16c0,2.21-0.57,3.03-2.64,3.77C62.99,75,53.61,75,44.24,75z M58.3,43.75   c-4.41,0-8.82,0-13.23,0c-0.97,0-1.32,0.36-1.32,1.33c0,8.83,0,17.66,0,26.5c0,0.98,0.37,1.34,1.36,1.34c8.82,0,17.64,0,26.45,0   c0.98,0,1.36-0.37,1.36-1.36c0-8.82,0-17.63,0-26.45c0-0.99-0.37-1.36-1.35-1.36C67.15,43.75,62.73,43.75,58.3,43.75z"></path>
	<path class="st1" d="M25,27.55c0.04-0.1,0.09-0.2,0.13-0.3c0.44-1.37,1.6-2.23,3.04-2.23c2.26-0.01,4.52,0,6.78,0   c6.7,0,13.41,0,20.11,0c1.61,0,2.83,0.93,3.18,2.42c0.07,0.3,0.08,0.61,0.08,0.92c0.01,1.94,0.01,3.87,0,5.81   c-0.01,2.06-1.3,3.35-3.35,3.35c-8.72,0-17.44,0-26.16,0c-2.26,0-3.01-0.52-3.81-2.64C25,32.43,25,29.99,25,27.55z M41.7,27.08   c-4.43,0-8.85,0-13.28,0c-0.96,0-1.34,0.37-1.35,1.32c0,1.9,0,3.81,0,5.71c0,0.92,0.39,1.32,1.3,1.32c8.85,0,17.71,0,26.56,0   c0.94,0,1.31-0.38,1.31-1.34c0-1.82,0-3.64,0-5.47c0-1.23-0.3-1.54-1.51-1.54C50.39,27.08,46.05,27.08,41.7,27.08z"></path>
	<path d="M25,47.17c0.23-1.11,0.6-2.15,1.3-3.06c1.72-2.24,4.76-3.05,7.4-1.93c2.53,1.07,4.14,3.86,3.75,6.49   c-0.45,2.97-2.66,5.15-5.53,5.45c-3.3,0.34-6.24-1.86-6.83-5.12c-0.02-0.09-0.06-0.18-0.09-0.27C25,48.21,25,47.69,25,47.17z    M31.27,52.07c2.29-0.01,4.16-1.89,4.15-4.17c-0.01-2.31-1.91-4.17-4.22-4.15c-2.28,0.02-4.15,1.93-4.12,4.2   C27.11,50.25,28.98,52.08,31.27,52.07z"></path>
	<path d="M25,59.08c0.28-0.58,0.76-0.77,1.39-0.76c3.25,0.01,6.5,0.01,9.75,0.01c0.22,0,0.46,0.01,0.67,0.08   c0.44,0.15,0.68,0.5,0.68,0.96c0,0.47-0.24,0.81-0.68,0.96c-0.21,0.07-0.45,0.08-0.67,0.08c-3.25,0-6.5,0-9.75,0.01   c-0.63,0-1.1-0.18-1.39-0.76C25,59.47,25,59.28,25,59.08z"></path>
	<path d="M25,65.33c0.28-0.58,0.76-0.77,1.39-0.76c3.25,0.01,6.5,0.01,9.75,0.01c0.22,0,0.46,0.01,0.67,0.08   c0.44,0.15,0.68,0.5,0.68,0.96c0,0.47-0.24,0.81-0.68,0.96c-0.21,0.07-0.45,0.08-0.67,0.08c-3.25,0-6.5,0-9.75,0.01   c-0.63,0-1.1-0.18-1.39-0.76C25,65.72,25,65.52,25,65.33z"></path>
	<path d="M25,71.58c0.28-0.58,0.76-0.77,1.39-0.76c3.25,0.01,6.5,0.01,9.75,0.01c0.22,0,0.46,0.01,0.67,0.08   c0.44,0.15,0.68,0.5,0.68,0.96c0,0.47-0.24,0.81-0.68,0.96c-0.21,0.07-0.45,0.08-0.67,0.08c-3.25,0-6.5,0-9.75,0.01   c-0.63,0-1.1-0.18-1.39-0.76C25,71.97,25,71.77,25,71.58z"></path>
	<path class="st1" d="M70.64,34.54c-2.74,1.67-5.65,0.74-7.11-1.23c-1.52-2.05-1.33-4.91,0.48-6.74c1.81-1.84,4.69-2.07,6.78-0.56   c1.9,1.38,2.98,4.27,1.29,7.1c0.74,0.74,1.49,1.48,2.23,2.22c0.14,0.14,0.28,0.27,0.41,0.42c0.4,0.47,0.39,1.05-0.02,1.45   c-0.41,0.4-1,0.43-1.45,0c-0.71-0.67-1.39-1.37-2.08-2.06C70.98,34.95,70.82,34.75,70.64,34.54z M70.82,30.22   c0-1.74-1.4-3.15-3.13-3.14c-1.7,0.01-3.11,1.42-3.11,3.12c-0.01,1.72,1.41,3.13,3.14,3.12C69.44,33.32,70.82,31.94,70.82,30.22z"></path>
	<path d="M52.08,57.29c0-1.98,0-3.97,0-5.95c0-1.18,0.71-1.63,1.76-1.1c3.98,1.99,7.96,3.98,11.95,5.97   c0.04,0.02,0.09,0.04,0.13,0.06c0.45,0.2,0.76,0.53,0.75,1.04c-0.01,0.49-0.31,0.79-0.74,1c-2.29,1.13-4.57,2.28-6.85,3.42   c-1.74,0.87-3.49,1.75-5.23,2.62c-1.05,0.52-1.76,0.08-1.77-1.1C52.07,61.26,52.08,59.28,52.08,57.29z M54.21,52.75   c0,3.07,0,6.05,0,9.09c3.04-1.52,6.03-3.01,9.08-4.54C60.23,55.76,57.25,54.27,54.21,52.75z"></path>
</g>
</svg>
