<?xml version="1.0" encoding="UTF-8"?>
<!-- Generator: Adobe Illustrator 26.0.1, SVG Export Plug-In . SVG Version: 6.00 Build 0)  -->
<svg xmlns="http://www.w3.org/2000/svg" xmlns:xlink="http://www.w3.org/1999/xlink" version="1.1" id="Layer_1" x="0px" y="0px" viewBox="0 0 100 100" style="enable-background:new 0 0 100 100;" xml:space="preserve">
<style type="text/css">
	.st0{opacity:0.5;fill:#FFFFFF;}
	.st1{fill:#9A0212;}
	.st2{fill:#1D1D1B;}
</style>
<rect class="st0" width="100" height="100"></rect>
<g>
	<path class="st1" d="M75,29.12c0-2.58-1.53-4.11-4.1-4.11h-41.3c-2.67,0-3.57,0.59-4.56,3.02L25,58.46l0.05,0.21   c0.02,0.07,0.05,0.13,0.06,0.2c0.49,1.75,1.91,2.84,3.72,2.84c3.06,0.01,6.12,0.01,9.18-0.01c0.2,0.01,0.21,0.01,0.28,0.18   c0.75,1.83,2.17,2.77,4.21,2.78c1.24,0.01,2.47,0.01,3.71,0l1.78,0L48,66.97c0.01,1.69,0.01,3.45-0.02,5.17   c-0.02,0.92,0.14,2.21,1.68,2.83l22.14,0.03l0.07-0.03c1.17-0.46,1.72-1.37,1.69-2.78c-0.04-1.84-0.03-3.72-0.02-5.54l0.01-1.2   c0.01-1.38,0.02-2.8-0.6-4.15c0.08-0.05,0.16-0.09,0.24-0.14c1.19-0.76,1.8-1.85,1.8-3.24c0.01-1.6,0.01-3.21,0-4.81L75,29.12z    M68.55,72.64l-0.69,0l0-8.61c0-0.19,0-0.43-0.06-0.66c-0.14-0.54-0.53-0.85-1.08-0.87c-0.56-0.02-1,0.3-1.16,0.85   c-0.06,0.21-0.06,0.43-0.06,0.67l0,8.62l-14.84,0c-0.1,0-0.22,0-0.3,0c0-0.08,0-0.19,0-0.28l0-8.51c0-1.13-0.41-1.53-1.55-1.53   l-1.77,0c-1.51,0-3.02,0-4.53,0.01c-1.01,0-1.69-0.43-2.07-1.37c-0.27-0.66-0.56-1.31-0.85-1.98l-0.24-0.55l2.62-1.19   c0.08,0.18,0.16,0.35,0.23,0.53c0.44,1.12,1.3,1.69,2.53,1.69c0.01,0,0.01,0,0.02,0c2.1-0.01,4.21-0.01,6.32-0.01   c1.61,0,3.23,0,4.84,0c0.23,0,0.43,0.06,0.6,0.24c0.92,0.95,2.14,1.47,3.45,1.47c0,0,0,0,0,0c1.31,0,2.53-0.53,3.45-1.48   c0.18-0.19,0.32-0.25,0.59-0.24c1.04,0.03,2.11-0.03,3.14,0.08c2.21,0.22,3.98,2.11,4.02,4.31c0.04,1.97,0.04,3.97,0.03,5.9   c0,0.95,0,1.89,0,2.84c0,0.09-0.01,0.13-0.02,0.08c-0.54,0-1.07,0-1.61,0C69.23,72.64,68.89,72.64,68.55,72.64z M38.2,49.95   l-1.3,2.68c-0.13-0.31-0.26-0.61-0.36-0.91c-0.18-0.54,0.02-1.16,0.49-1.52c0.25-0.2,0.53-0.3,0.81-0.3   C37.96,49.9,38.08,49.92,38.2,49.95z M39.75,52.13l0.03-0.05l1.24,2.97l-2.61,1.18c-0.1-0.25-0.21-0.49-0.28-0.75   C38.66,54.38,39.19,53.28,39.75,52.13z M63.19,47.48c-0.03-0.07-0.06-0.13-0.08-0.2c-0.18-0.6-0.58-0.96-1.13-1   c-0.72-0.04-1.07,0.55-1.21,0.77c-0.61,1.02-1.5,1.75-2.64,2.17c-1.17,0.43-2.34,0.58-3.49,0.45c0.03-0.75,0.39-1.56,1.03-2.31   c1-1.17,2.49-1.96,3.89-2.07c2.57-0.2,5.08,1.64,5.61,3.96C64.24,48.94,63.6,48.36,63.19,47.48z M61.74,49.64   c1.35,1.36,1.55,1.48,3.52,2.13c-0.33,1.58-1.2,2.79-2.57,3.61c-0.59,0.35-0.85,0.83-0.84,1.5l0.01,0.27   c0.03,0.56,0.03,0.87-0.36,1.13c-0.71,0.48-1.4,0.62-2.16,0.44c-0.23-0.05-0.47-0.17-0.66-0.27c-0.55-0.3-0.73-0.59-0.65-1.05   c0.02-0.12,0.02-0.23,0.01-0.32c0-0.05-0.01-0.09,0-0.14c0.06-0.69-0.22-1.2-0.86-1.57c-1.25-0.72-2.15-1.94-2.48-3.3   C58.28,52.01,59,51.76,61.74,49.64z M71.72,59.27c-0.03,0-0.11-0.01-0.12-0.01c-1.49-1.49-3.3-2.21-5.44-2.15   c-0.51,0.02-1.02,0.01-1.54,0.01l-0.3,0c0,0,0.01,0,0.01-0.01c2.65-1.87,3.9-5.06,3.17-8.14c-0.74-3.15-3.22-5.43-6.46-5.94   c-2.08-0.33-4.26,0.27-5.97,1.65c-1.7,1.37-2.75,3.35-2.87,5.43c-0.17,2.9,0.95,5.26,3.33,7.01l-2.5,0c-2.72,0-5.45,0-8.18,0.01   c-0.33,0.01-0.44-0.07-0.56-0.35l-0.5-1.2c-0.74-1.79-1.5-3.64-2.34-5.43c-0.29-0.62-0.27-1.07,0.08-1.77   c1.07-2.14,2.11-4.3,3.14-6.47l1.06-2.21c0.08-0.16,0.16-0.34,0.21-0.54c0.12-0.57-0.12-1.05-0.64-1.29   c-0.52-0.24-1.05-0.12-1.4,0.33c-0.12,0.16-0.21,0.33-0.28,0.49l-4.32,8.95c-0.03,0.06-0.06,0.11-0.09,0.17   c-0.84-0.3-1.68-0.31-2.49-0.06c-1,0.32-1.8,1.02-2.25,1.95c-0.45,0.94-0.49,2-0.12,2.99c0.18,0.47,0.38,0.94,0.58,1.4   c0.17,0.4,0.35,0.81,0.5,1.22c0.03,0.07,0.02,0.21-0.01,0.29c-0.14,0.33-0.3,0.65-0.46,0.97c-0.11,0.22-0.22,0.44-0.32,0.67   c-0.3,0.65-0.11,1.31,0.47,1.61c0.59,0.31,1.23,0.1,1.59-0.51l0.45,1.04c-2.71,0-5.41,0-8.12,0c-1.25,0-1.73-0.49-1.73-1.74V29.12   c0-1.28,0.48-1.76,1.76-1.76h41.79c1.28,0,1.76,0.48,1.76,1.76v28.51C72.65,58.84,72.11,59.15,71.72,59.27z"></path>
	<path d="M46.55,31.94c-0.24-0.08-0.49-0.09-0.68-0.09c-1.29,0-2.58-0.01-3.87,0l-5.89,0l-0.1,0c-0.13,0-0.25,0-0.38,0.01   c-0.63,0.07-1.09,0.56-1.1,1.16c-0.01,0.6,0.45,1.09,1.08,1.18c0.1,0.01,0.19,0.01,0.34,0.01h0.9c1.05,0,2.09,0,3.14,0   c1.97,0,3.94,0,5.91,0c0.16,0,0.4-0.01,0.64-0.08c0.49-0.16,0.78-0.55,0.78-1.08C47.32,32.51,47.04,32.11,46.55,31.94z"></path>
	<path d="M64.52,31.88c-0.17-0.04-0.33-0.04-0.52-0.04l-9.92,0c-0.13,0-0.26,0-0.38,0.02c-0.61,0.1-1.02,0.56-1.02,1.15   c0,0.6,0.4,1.07,1.01,1.17c0.14,0.02,0.28,0.02,0.49,0.02l5.84,0l4,0c0.14,0,0.31,0,0.48-0.03c0.6-0.13,0.96-0.55,0.96-1.14   C65.46,32.45,65.11,32.02,64.52,31.88z"></path>
	<path d="M40.77,37.73c-1.63-0.01-3.27-0.01-4.9,0c-0.43,0-0.8,0.14-1.04,0.4c-0.21,0.22-0.31,0.5-0.3,0.82   c0.03,0.68,0.56,1.13,1.35,1.13c0.32,0,0.64,0,0.96,0c0.25,0,0.5,0,0.74,0l0.75,0l0.72,0c0.56,0,1.12,0,1.68,0   c0.82,0,1.37-0.48,1.37-1.18C42.1,38.22,41.55,37.74,40.77,37.73z"></path>
	<path d="M59.06,37.74c-1.65-0.01-3.3-0.01-4.95,0c-0.41,0-0.76,0.13-1,0.38c-0.21,0.21-0.32,0.49-0.32,0.81   c0.01,0.69,0.54,1.16,1.33,1.16c0.33,0,0.66,0,0.98,0c0.24,0,0.49,0,0.73,0l0.73,0l0.75,0c0.57,0,1.13,0,1.7,0   c0.78,0,1.32-0.47,1.34-1.15c0.01-0.31-0.1-0.6-0.31-0.82C59.82,37.87,59.47,37.74,59.06,37.74z"></path>
</g>
</svg>
