<?xml version="1.0" encoding="UTF-8"?>
<!-- Generator: Adobe Illustrator 26.0.1, SVG Export Plug-In . SVG Version: 6.00 Build 0)  -->
<svg xmlns="http://www.w3.org/2000/svg" xmlns:xlink="http://www.w3.org/1999/xlink" version="1.1" id="Layer_1" x="0px" y="0px" viewBox="0 0 100 100" style="enable-background:new 0 0 100 100;" xml:space="preserve">
<style type="text/css">
	.st0{opacity:0.5;fill:#FFFFFF;}
	.st1{fill:#9A0212;}
	.st2{fill:none;}
	.st3{fill:#030303;}
</style>
<rect class="st0" width="100" height="100"></rect>
<g>
	<g>
		<g>
			<g>
				<path class="st1" d="M71.7,48.41c-0.17-0.37-0.54-0.61-0.95-0.61H29.25c-0.41,0-0.78,0.24-0.95,0.61      c-0.17,0.37-0.1,0.81,0.17,1.12l4.92,6.13c0.2,0.23,0.48,0.35,0.78,0.35h7.76v-2.08h-7.29l-3.09-4.04h36.91l-3.09,4.04h-7.29V56      h7.76c0.3,0,0.59-0.13,0.78-0.35l4.92-6.13C71.81,49.22,71.87,48.78,71.7,48.41z"></path>
			</g>
			<g>
				<path class="st1" d="M59.11,51.84H40.89c-0.58,0-1.04,0.47-1.04,1.04v21.06c0,0.58,0.47,1.04,1.04,1.04h18.23      c0.58,0,1.04-0.47,1.04-1.04V52.88C60.15,52.3,59.69,51.84,59.11,51.84z M58.07,72.9H41.93V53.92h16.14V72.9z"></path>
			</g>
			<g>
				<path class="st1" d="M63.34,74.98H36.66c-0.58,0-1.04-0.47-1.04-1.04s0.47-1.04,1.04-1.04h26.68c0.58,0,1.04,0.47,1.04,1.04      S63.92,74.98,63.34,74.98z"></path>
			</g>
			<g>
				<path class="st1" d="M50,56c-0.58,0-1.04-0.26-1.04-0.58v-1.97c0-0.32,0.47-0.58,1.04-0.58s1.04,0.26,1.04,0.58v1.97      C51.04,55.74,50.58,56,50,56z"></path>
			</g>
			<g>
				<path class="st1" d="M50,74.46c-0.58,0-1.04-0.27-1.04-0.59v-2.53c0-0.33,0.47-0.59,1.04-0.59s1.04,0.27,1.04,0.59v2.53      C51.04,74.19,50.58,74.46,50,74.46z"></path>
			</g>
			<g>
				<path class="st1" d="M50,37.95c-3.57,0-6.48-2.91-6.48-6.48c0-3.57,2.91-6.48,6.48-6.48s6.48,2.91,6.48,6.48      C56.48,35.05,53.57,37.95,50,37.95z M50,27.08c-2.42,0-4.39,1.97-4.39,4.39c0,2.42,1.97,4.39,4.39,4.39s4.39-1.97,4.39-4.39      C54.39,29.05,52.42,27.08,50,27.08z"></path>
			</g>
			<g>
				<path class="st1" d="M58.2,46.15c-0.58,0-1.04-0.47-1.04-1.04c0-3.94-3.21-7.15-7.15-7.15s-7.15,3.21-7.15,7.15      c0,0.58-0.47,1.04-1.04,1.04c-0.58,0-1.04-0.47-1.04-1.04c0-5.09,4.14-9.24,9.24-9.24s9.24,4.14,9.24,9.24      C59.24,45.68,58.77,46.15,58.2,46.15z"></path>
			</g>
			<g>
				<path d="M50.85,67.55c0,0.25-0.11,0.47-0.27,0.62c-0.15,0.14-0.35,0.23-0.58,0.23c-0.22,0-0.43-0.08-0.58-0.23      c-0.17-0.16-0.27-0.38-0.27-0.63c0-0.47,0.38-0.85,0.85-0.85C50.47,66.7,50.85,67.08,50.85,67.55z"></path>
				<path d="M53.05,61.46c0,0.82-0.31,1.58-0.89,2.16c-0.2,0.2-0.42,0.37-0.67,0.5c-0.01,0.01-0.03,0.01-0.04,0.03      c-0.39,0.23-0.62,0.62-0.62,1.03v0.12c0,0.46-0.38,0.84-0.83,0.84c-0.46,0-0.83-0.37-0.83-0.84v-0.12c0-1.03,0.58-2,1.51-2.52      c0.11-0.06,0.21-0.14,0.3-0.23c0.26-0.26,0.4-0.61,0.4-0.98c0-0.37-0.14-0.71-0.4-0.97c-0.26-0.26-0.61-0.41-0.97-0.41      c-0.37,0-0.72,0.14-0.98,0.41c-0.26,0.26-0.4,0.61-0.4,0.97c0,0.33-0.19,0.61-0.47,0.75c-0.11,0.06-0.24,0.09-0.37,0.09      c-0.46,0-0.83-0.37-0.83-0.84c0-0.81,0.31-1.58,0.89-2.15c0.1-0.1,0.2-0.19,0.31-0.27c0.53-0.41,1.17-0.62,1.85-0.62      c0.51,0,1.01,0.13,1.45,0.37c0.25,0.14,0.49,0.31,0.7,0.52C52.73,59.89,53.05,60.65,53.05,61.46z"></path>
				<path d="M55.97,57.49c-0.76-0.76-1.66-1.39-2.66-1.81C52.29,55.24,51.18,55,50,55c-1.33,0-2.58,0.31-3.7,0.86      c-0.58,0.28-1.12,0.63-1.61,1.03c-0.64,0.52-1.2,1.13-1.66,1.81c-0.91,1.34-1.44,2.96-1.44,4.71c0,0.17,0,0.34,0.02,0.51      c0.08,1.49,0.57,2.88,1.34,4.06c0.82,1.27,1.99,2.3,3.35,2.97c0.29,0.14,0.59,0.27,0.9,0.38c0.76,0.27,1.56,0.43,2.4,0.47      c0.13,0.01,0.27,0.01,0.4,0.01c1.17,0,2.29-0.24,3.31-0.68c1-0.43,1.91-1.05,2.66-1.82c1.51-1.52,2.43-3.61,2.43-5.91      C58.41,61.11,57.48,59.01,55.97,57.49z M55.7,66.67c-0.32,0.56-0.72,1.06-1.18,1.5c-0.37,0.35-0.77,0.66-1.21,0.91      c-0.57,0.34-1.2,0.59-1.86,0.74c-0.47,0.11-0.95,0.16-1.45,0.16c-0.35,0-0.69-0.03-1.03-0.08c-0.28-0.04-0.55-0.11-0.81-0.18      c-0.64-0.18-1.23-0.47-1.77-0.82c-0.03-0.02-0.06-0.04-0.09-0.06c-0.29-0.19-0.56-0.41-0.81-0.65c-0.53-0.5-0.97-1.08-1.31-1.73      c-0.47-0.91-0.74-1.94-0.74-3.03c0-0.79,0.14-1.55,0.4-2.26c0.32-0.89,0.83-1.68,1.48-2.34c0.3-0.31,0.62-0.58,0.98-0.82      c0.56-0.38,1.19-0.68,1.85-0.88c0.59-0.17,1.2-0.27,1.85-0.27c0.5,0,0.98,0.06,1.45,0.16c0,0,0,0,0,0      c0.66,0.15,1.29,0.4,1.85,0.74c1.16,0.68,2.1,1.71,2.66,2.95c0.38,0.83,0.59,1.75,0.59,2.72c0,0.97-0.21,1.88-0.59,2.71      C55.89,66.31,55.8,66.49,55.7,66.67z"></path>
			</g>
		</g>
		<rect x="25" y="25" class="st2" width="50" height="50"></rect>
	</g>
	<rect x="25" y="25" class="st2" width="50" height="50"></rect>
</g>
</svg>
