<?xml version="1.0" encoding="UTF-8"?>
<!-- Generator: Adobe Illustrator 26.0.1, SVG Export Plug-In . SVG Version: 6.00 Build 0)  -->
<svg xmlns="http://www.w3.org/2000/svg" xmlns:xlink="http://www.w3.org/1999/xlink" version="1.1" id="Layer_1" x="0px" y="0px" viewBox="0 0 100 100" style="enable-background:new 0 0 100 100;" xml:space="preserve">
<style type="text/css">
	.st0{opacity:0.5;fill:#FFFFFF;}
	.st1{fill:#9A0212;}
</style>
<rect class="st0" width="100" height="100"></rect>
<g>
	<path class="st1" d="M73.47,55.63c-1.11-0.72-2.25-0.67-3.5,0.16c-1.77,1.18-3.59,2.36-5.34,3.5c-0.75,0.49-1.5,0.98-2.25,1.47   l-0.99,0.65c-0.9,0.59-1.81,1.18-2.7,1.77c-0.26,0.17-0.42,0.39-0.47,0.63c-0.05,0.22,0.01,0.46,0.15,0.67   c0.29,0.43,0.77,0.5,1.29,0.19c0.13-0.08,0.25-0.16,0.38-0.24l3.07-2.02c2.65-1.75,5.3-3.49,7.96-5.23   c0.41-0.27,0.85-0.34,1.24-0.21c0.39,0.13,0.69,0.44,0.85,0.88c0.3,0.83,0.01,1.71-0.72,2.19l-0.14,0.09   c-1.11,0.73-2.25,1.49-3.39,2.22c-2.3,1.48-4.6,2.96-6.9,4.43c-2.85,1.83-5.69,3.65-8.53,5.49c-1.41,0.91-2.87,1.06-4.46,0.48   c-2.99-1.1-5.96-2.16-9.27-3.32c-0.32-0.11-0.7-0.17-1.13-0.15c-0.68,0.02-1.35,0.06-2.05,0.11c-0.23,0.01-0.46,0.03-0.7,0.05   c0,0,0,0,0,0c-0.01-0.06-0.02-0.12-0.02-0.17l0-3.39c0-3.29,0-6.58-0.01-9.88c0-0.24,0.08-0.28,0.32-0.33   c1.68-0.39,3.21-0.51,4.68-0.39c1.92,0.16,3.25,0.75,4.19,1.86c0.67,0.79,1.49,1.15,2.52,1.14c2.4-0.02,4.98-0.02,8.11,0   c0.31,0,0.62,0.08,0.85,0.22c0.58,0.35,0.86,1.25,0.62,2.01c-0.24,0.76-0.71,1.11-1.53,1.11l-1.87,0c-2,0-4,0-6,0   c-0.01,0-0.01,0-0.01,0c-1.06,0-1.83,0.47-2.31,1.38c-0.46,0.88-0.42,1.81,0.13,2.77c0.2,0.35,0.51,0.47,0.93,0.38   c0.28-0.06,0.49-0.21,0.6-0.43c0.13-0.25,0.1-0.58-0.06-0.94c-0.19-0.41-0.22-0.77-0.06-1.02c0.15-0.24,0.47-0.37,0.92-0.37h2.36   c1.74,0,3.48,0,5.22-0.01c0.32,0,0.74-0.02,1.14-0.13c1.53-0.44,2.55-2.09,2.33-3.76c-0.24-1.79-1.55-3-3.24-3.01   c-2.47-0.01-5.08-0.01-8.21,0c0,0-0.01,0-0.01,0c-0.44,0-0.77-0.15-1.17-0.53c-0.53-0.51-1.25-1.14-2.05-1.57   c-1.36-0.72-2.97-0.99-5.08-0.88c-0.78,0.04-1.53,0.13-2.34,0.22c-0.31,0.04-0.62,0.07-0.94,0.11l0-0.25c0-0.31,0-0.62,0-0.94   c-0.01-0.77-0.3-1.05-1.08-1.05H32c-1.97,0-3.94,0-5.91-0.01c0,0-0.01,0-0.01,0c-0.36,0-0.8,0.07-1.07,0.57L25,72.48l0.02,0.03   c0.24,0.37,0.6,0.55,1.09,0.54c2.03-0.01,4.05-0.01,6.08-0.01l2.47,0c0.88,0,1.15-0.28,1.16-1.18c0-0.16,0-0.31,0-0.48l0-0.16   c0.45,0.01,0.88-0.01,1.31-0.03c1.07-0.05,2.09-0.1,3.14,0.32c2.28,0.9,4.63,1.72,6.91,2.5c0.54,0.19,1.09,0.38,1.63,0.56   c0.41,0.14,0.85,0.23,1.27,0.31c0.19,0.04,0.39,0.07,0.61,0.12l0.3,0c1.59-0.13,2.92-0.86,4.11-1.64   c5.92-3.84,12.04-7.79,18.19-11.73c0.99-0.63,1.53-1.47,1.67-2.56C75.15,57.56,74.65,56.4,73.47,55.63z M34.01,53.47v17.85h-7.2   V53.47H34.01z"></path>
	<path d="M27.47,41.33c0.53,0.09,1.14,0.18,1.74,0.23c0.21,0.02,0.26,0.09,0.34,0.31c0.28,0.73,0.56,1.37,0.84,1.96   c0.11,0.23,0.14,0.33-0.01,0.5c-0.34,0.41-0.65,0.85-0.96,1.27l-0.15,0.21c-0.31,0.43-0.29,0.85,0.08,1.21   c0.27,0.27,0.54,0.54,0.81,0.81c0.33,0.33,0.65,0.65,0.98,0.98c0.46,0.44,0.8,0.46,1.32,0.08c0.18-0.13,0.36-0.27,0.54-0.4   c0.29-0.22,0.6-0.45,0.91-0.66c0.09-0.06,0.29-0.07,0.42-0.02c0.31,0.12,0.61,0.25,0.92,0.38c0.36,0.15,0.72,0.31,1.09,0.45   c0.23,0.09,0.3,0.17,0.32,0.39c0.05,0.52,0.12,1.08,0.22,1.74c0.1,0.65,0.42,0.91,1.08,0.92c0.76,0,1.52,0,2.28,0   c0.67,0,0.96-0.25,1.07-0.92c0.05-0.3,0.09-0.61,0.13-0.92c0.04-0.3,0.08-0.61,0.13-0.91c0.02-0.1,0.09-0.21,0.13-0.22   c0.41-0.17,0.83-0.32,1.28-0.48l0.32-0.12l0,1.41c0,0.85,0,1.7,0,2.54c0.01,0.77,0.3,1.06,1.07,1.06c4.6,0,9.2,0,13.79,0   c4.6,0,9.2,0,13.79,0c0.78,0,1.08-0.3,1.08-1.06c0-8.68,0-17.36,0-26.03c0-0.76-0.3-1.06-1.08-1.06c-9.2,0-18.39,0-27.59,0   c-0.77,0-1.06,0.29-1.07,1.06c-0.01,0.87,0,1.75,0,2.62l0,1.42c-0.11-0.04-0.21-0.08-0.32-0.11c-0.42-0.15-0.82-0.29-1.21-0.45   c-0.08-0.03-0.18-0.18-0.2-0.28c-0.06-0.33-0.1-0.66-0.15-0.99c-0.04-0.28-0.07-0.56-0.12-0.84c-0.11-0.67-0.4-0.92-1.07-0.92   c-0.73-0.01-1.46,0-2.19,0c-0.8,0-1.1,0.27-1.2,1.07c-0.02,0.15-0.04,0.3-0.05,0.45c-0.05,0.39-0.09,0.79-0.17,1.18   c-0.02,0.11-0.15,0.26-0.28,0.32c-0.66,0.32-1.35,0.61-2.03,0.88c-0.13,0.05-0.33,0.04-0.42-0.02c-0.33-0.21-0.66-0.45-0.98-0.69   c-0.17-0.13-0.35-0.25-0.52-0.38c-0.57-0.41-0.97-0.37-1.45,0.12c-0.51,0.52-1.02,1.05-1.52,1.58c-0.49,0.52-0.51,0.83-0.09,1.4   c0.12,0.17,0.25,0.34,0.38,0.5c0.23,0.3,0.47,0.62,0.69,0.94c0.05,0.07,0.06,0.24,0.02,0.34c-0.31,0.78-0.6,1.46-0.89,2.08   c-0.06,0.12-0.21,0.25-0.32,0.27c-0.39,0.08-0.8,0.13-1.19,0.18c-0.23,0.03-0.45,0.06-0.68,0.1c-0.54,0.08-0.84,0.42-0.84,0.95   l0,0.24c-0.01,0.73-0.01,1.49,0.01,2.24C26.53,40.9,26.83,41.23,27.47,41.33z M28.36,38.51l0.35-0.05c0.49-0.07,0.94-0.13,1.39-0.2   c0.68-0.1,0.88-0.38,1.1-1.03c0.28-0.82,0.64-1.65,1.06-2.46c0.32-0.61,0.4-0.94-0.07-1.55c-0.26-0.34-0.53-0.68-0.8-1.02   l-0.26-0.34l0.75-0.74c0.11,0.09,0.23,0.18,0.35,0.27c0.34,0.26,0.69,0.53,1.03,0.81c0.4,0.33,0.77,0.36,1.29,0.1   c0.88-0.43,1.85-0.83,2.89-1.19c0.41-0.15,0.81-0.36,0.89-0.95c0.06-0.45,0.13-0.89,0.2-1.35l0.07-0.5h1.05l0.06,0.4   c0.06,0.39,0.12,0.79,0.17,1.18c0.1,0.8,0.32,0.98,1.06,1.25c0.9,0.32,1.78,0.69,2.6,1.11c0.55,0.28,0.97,0.26,1.39-0.07   c0.34-0.26,0.69-0.52,1.05-0.78l0.39-0.28l0.73,0.77c-0.09,0.12-0.18,0.25-0.27,0.38c-0.27,0.37-0.54,0.75-0.84,1.12   c-0.33,0.41-0.27,0.78-0.07,1.2c0.48,1.02,0.88,1.96,1.21,2.88c0.14,0.39,0.36,0.77,0.93,0.85c0.45,0.06,0.91,0.13,1.35,0.2   l0.53,0.08c0.08,1.06,0.08,1.06-1.01,1.19c-1.19,0-1.81,0.52-2.01,1.67c-0.1,0.56-0.4,1.11-0.7,1.64   c-0.07,0.13-0.14,0.26-0.21,0.39c-0.31,0.58-0.28,1.04,0.07,1.49c0.25,0.32,0.49,0.65,0.75,1c0.09,0.12,0.18,0.25,0.27,0.37   l-0.8,0.71c-0.1-0.08-0.21-0.15-0.32-0.23c-0.35-0.25-0.71-0.51-1.06-0.8c-0.47-0.39-0.88-0.32-1.33-0.09   c-0.81,0.4-1.7,0.78-2.74,1.17c-0.63,0.23-0.86,0.38-0.97,1.1c-0.05,0.36-0.11,0.72-0.16,1.09l-0.08,0.55h-1.06l-0.22-1.57   c-0.11-0.83-0.32-1-1.1-1.27c-0.79-0.28-1.62-0.63-2.52-1.06c-0.64-0.31-0.93-0.34-1.51,0.09c-0.34,0.25-0.68,0.5-1.02,0.75   L31.9,47l-0.73-0.77c0.08-0.1,0.16-0.21,0.24-0.31c0.25-0.33,0.52-0.68,0.8-1.02c0.38-0.45,0.4-0.9,0.08-1.39   c-0.59-0.9-0.96-1.81-1.11-2.76c-0.08-0.46-0.38-0.76-0.86-0.83l-0.34-0.05c-0.45-0.07-0.92-0.14-1.39-0.19   c-0.2-0.02-0.22-0.07-0.22-0.22c0.01-0.23,0.01-0.47,0.01-0.72C28.36,38.66,28.36,38.58,28.36,38.51z M53.79,39.47   c0.38,0.15,0.74,0.03,1.09-0.35c1.02-1.13,2.04-2.26,3.06-3.39c0.08-0.09,0.16-0.18,0.25-0.27l0.03-0.03l3.18,3.52   c0.08,0.09,0.15,0.17,0.23,0.25c0.37,0.37,0.76,0.46,1.08,0.23c0.23-0.17,0.43-0.55,0.44-0.85c0.03-1.17,0.02-2.36,0.02-3.51   l0-1.49h8.08v17.76H45.12v-3l0.02,0.02c0.19,0.14,0.37,0.28,0.55,0.41c0.58,0.43,1,0.41,1.5-0.08c0.56-0.55,1.1-1.09,1.62-1.62   c0.45-0.46,0.47-0.8,0.09-1.32c-0.13-0.18-0.26-0.35-0.39-0.52c-0.23-0.3-0.46-0.6-0.67-0.92c-0.06-0.09-0.07-0.29-0.02-0.42   c0.27-0.7,0.56-1.39,0.87-2.04c0.05-0.11,0.21-0.24,0.33-0.27c0.33-0.06,0.68-0.11,1.01-0.15c0.25-0.03,0.51-0.07,0.76-0.11   c0.67-0.11,0.92-0.4,0.92-1.07c0.01-0.76,0.01-1.52,0-2.29c0-0.67-0.27-0.98-0.92-1.08c-0.55-0.09-1.14-0.17-1.74-0.22   c-0.22-0.02-0.29-0.08-0.38-0.33c-0.23-0.61-0.49-1.24-0.82-1.92c-0.09-0.19-0.08-0.44,0.04-0.63c0.05-0.09,0.17-0.23,0.38-0.23   c1.21-0.01,2.43-0.01,3.67-0.01l1.32,0l0,3.61c0,0.45,0,0.91,0,1.36C53.26,38.83,53.31,39.29,53.79,39.47z M53.16,31.77h-3.97   c-0.08-0.1-0.15-0.2-0.21-0.3c-0.17-0.25-0.34-0.48-0.53-0.69c-0.42-0.46-0.87-0.89-1.31-1.32l-0.07-0.07   c-0.44-0.43-0.79-0.45-1.29-0.09c-0.19,0.14-0.38,0.28-0.58,0.44l-0.07,0.06V26.8h8.03V31.77z M61.31,36.36   c-0.03-0.03-0.06-0.06-0.09-0.09c-0.31-0.34-0.62-0.69-0.93-1.04c-0.45-0.5-0.89-0.99-1.34-1.48c-0.29-0.32-0.54-0.47-0.8-0.47   c0,0,0,0,0,0c-0.26,0-0.51,0.15-0.8,0.47l-2.33,2.58V26.8h6.29V36.36z M63.13,31.67v-4.85h8.05v4.85H63.13z"></path>
	<path class="st1" d="M39.01,45.23c0.06,0,0.12,0,0.17,0c1.65-0.05,3.19-0.73,4.34-1.92c1.15-1.19,1.76-2.74,1.71-4.35   c-0.05-1.65-0.73-3.19-1.92-4.34c-1.19-1.15-2.72-1.75-4.35-1.71c-3.43,0.1-6.14,2.92-6.05,6.27c0.05,1.67,0.74,3.23,1.97,4.39   C36.02,44.65,37.48,45.23,39.01,45.23z M34.69,39.06c0-1.17,0.46-2.27,1.3-3.1c0.83-0.83,1.93-1.28,3.1-1.28c0.01,0,0.02,0,0.03,0   c2.41,0.02,4.35,2,4.34,4.42c-0.01,2.4-1.98,4.35-4.39,4.35c-0.01,0-0.01,0-0.01,0C36.64,43.45,34.69,41.48,34.69,39.06z"></path>
</g>
</svg>
