<?xml version="1.0" encoding="UTF-8"?>
<!-- Generator: Adobe Illustrator 26.0.1, SVG Export Plug-In . SVG Version: 6.00 Build 0)  -->
<svg xmlns="http://www.w3.org/2000/svg" xmlns:xlink="http://www.w3.org/1999/xlink" version="1.1" id="Layer_1" x="0px" y="0px" viewBox="0 0 100 100" style="enable-background:new 0 0 100 100;" xml:space="preserve">
<style type="text/css">
	.st0{opacity:0.5;fill:#FFFFFF;}
	.st1{fill:#9A0212;}
	.st2{fill:#1D1D1B;}
</style>
<rect class="st0" width="100" height="100"></rect>
<g>
	<g>
		<path class="st1" d="M50,74.17c-0.83,0.68-1.76,0.84-2.77,0.83c-3.04-0.02-6.08-0.01-9.12-0.01c-2.32,0-3.67-1.36-3.67-3.67    c0-1.68-0.02-3.36,0.01-5.05c0.01-0.66-0.18-1.18-0.57-1.7c-2.57-3.5-5.11-7.01-7.68-10.51c-0.47-0.64-0.7-1.32-0.7-2.11    c0.01-7.65,0-15.3,0.01-22.95c0-1.79,0.95-3.18,2.51-3.75c1.53-0.57,3.24-0.14,4.3,1.08c0.56,0.65,0.9,1.4,0.93,2.26    c0.02,0.75,0.01,1.51,0.01,2.34c0.93-0.39,1.79-0.46,2.67-0.24c1.53,0.38,2.68,1.68,2.86,3.25c0.04,0.32,0.05,0.65,0.05,0.97    c0,2.78,0.01,5.57-0.01,8.35c0,0.38,0.11,0.64,0.4,0.88c0.95,0.85,1.89,1.72,2.92,2.67c-0.07-3.47,1.36-5.99,4.33-7.66    c-1.12-1.21-1.69-2.59-1.49-4.22c0.15-1.27,0.72-2.34,1.7-3.18c1.9-1.63,4.76-1.6,6.61,0.07c2.1,1.89,2.17,4.46,0.17,7.35    c2.91,1.65,4.34,4.17,4.28,7.64c1.13-1.04,2.17-1.98,3.18-2.94c0.12-0.12,0.12-0.4,0.12-0.61c0.01-2.88,0-5.75,0.01-8.63    c0.01-2.1,1.23-3.69,3.17-3.99c0.75-0.12,1.55,0.05,2.39,0.1c0-0.48,0-1.07,0-1.66c0.02-2.37,1.62-4.06,3.86-4.07    c2.25-0.01,4.01,1.77,4.01,4.1c0.01,7.6,0,15.19,0.01,22.79c0,0.83-0.25,1.55-0.74,2.21c-2.58,3.51-5.13,7.04-7.71,10.55    c-0.35,0.48-0.51,0.96-0.5,1.55c0.03,1.74,0.01,3.47,0.01,5.21c-0.01,2.16-1.39,3.56-3.56,3.57c-3.17,0.01-6.33-0.01-9.5,0.01    C51.59,75,50.75,74.81,50,74.17z M48.84,67.21c0-0.24,0-0.42,0-0.6c0-2.78-0.01-5.57,0-8.35c0.01-1.52-0.54-2.77-1.67-3.79    c-1.96-1.79-3.91-3.6-5.87-5.4c-1.74-1.61-3.48-3.21-5.23-4.81c-0.69-0.63-1.62-0.63-2.26-0.04c-0.66,0.6-0.73,1.57-0.16,2.3    c0.15,0.2,0.34,0.37,0.53,0.54c3.43,3.19,6.87,6.37,10.3,9.56c0.59,0.55,0.67,1.25,0.22,1.72c-0.45,0.48-1.1,0.46-1.68-0.08    c-3.55-3.27-7.1-6.54-10.65-9.82c-0.89-0.83-1.33-1.86-1.33-3.09c0.01-5.33,0-10.67,0-16c0-0.2,0.01-0.4-0.01-0.6    c-0.08-0.84-0.74-1.47-1.57-1.52c-0.83-0.05-1.56,0.51-1.72,1.34c-0.05,0.25-0.04,0.5-0.04,0.76c0,7.41,0,14.83-0.01,22.24    c0,0.57,0.15,1.05,0.48,1.51c2.58,3.55,5.15,7.11,7.73,10.67c0.46,0.64,0.71,1.33,0.69,2.12c-0.01,0.44,0,0.89,0,1.35    C40.71,67.21,44.73,67.21,48.84,67.21z M63.29,67.2c0-0.31,0.02-0.57,0-0.82c-0.11-1.16,0.28-2.13,0.97-3.06    c2.42-3.27,4.77-6.59,7.18-9.86c0.48-0.65,0.7-1.28,0.7-2.11c-0.04-7.3-0.02-14.61-0.02-21.91c0-0.22,0.01-0.43-0.01-0.65    c-0.07-1.28-1.46-1.99-2.55-1.31c-0.62,0.39-0.77,0.99-0.77,1.69c0.01,5.26-0.02,10.52,0.02,15.78c0.01,1.53-0.52,2.71-1.64,3.72    c-2.36,2.13-4.68,4.31-7.02,6.47c-1.14,1.05-2.28,2.11-3.44,3.16c-0.49,0.44-1.19,0.41-1.61-0.04c-0.41-0.44-0.37-1.05,0.1-1.55    c0.07-0.08,0.16-0.15,0.24-0.22c3.04-2.79,6.07-5.57,9.11-8.36c0.51-0.46,1.03-0.91,1.5-1.41c0.7-0.74,0.7-1.81,0.07-2.45    c-0.67-0.67-1.63-0.64-2.42,0.08c-3.68,3.39-7.36,6.8-11.05,10.18c-1.1,1.01-1.61,2.23-1.6,3.7c0.01,2.8,0,5.6,0,8.41    c0,0.19,0.02,0.38,0.03,0.58C55.16,67.2,59.19,67.2,63.29,67.2z M49.81,53.95c0.44-0.35,0.96-0.7,1.41-1.11    c1.34-1.21,2.66-2.45,3.98-3.69c0.16-0.15,0.28-0.42,0.28-0.64c0.03-0.85,0.03-1.7,0-2.55c-0.07-2.81-2.26-5.14-5.05-5.39    c-2.83-0.25-5.43,1.7-5.93,4.52c-0.13,0.72-0.01,1.49-0.13,2.21c-0.19,1.19,0.31,1.97,1.19,2.72    C47.09,51.32,48.51,52.74,49.81,53.95z M36.6,69.46c0,0.64,0,1.25,0,1.86c0,1.06,0.39,1.45,1.43,1.45c1.5,0,3,0,4.5,0    c1.68,0,3.36,0,5.05,0c0.7,0,1.18-0.35,1.23-0.97c0.06-0.77,0.01-1.54,0.01-2.34C44.75,69.46,40.72,69.46,36.6,69.46z     M51.06,69.46c0,0.79-0.04,1.55,0.01,2.3c0.04,0.61,0.5,1.01,1.14,1.01c3.31,0.01,6.62,0.01,9.93,0c0.61,0,1.08-0.39,1.12-0.97    c0.05-0.77,0.01-1.54,0.01-2.34C59.19,69.46,55.17,69.46,51.06,69.46z M66.57,41.86c0.02-0.09,0.04-0.14,0.04-0.19    c0-2.4,0.01-4.8,0-7.21c0-0.23-0.06-0.47-0.14-0.68c-0.29-0.72-1.05-1.12-1.8-0.98c-0.82,0.15-1.37,0.78-1.38,1.63    c-0.01,2.38-0.01,4.77,0,7.15c0,0.12,0.02,0.23,0.03,0.35C64.68,41.52,64.92,41.51,66.57,41.86z M36.59,41.93    c0-2.63,0.03-5.19-0.02-7.75c-0.01-0.66-0.48-1.12-1.13-1.32c-1.14-0.35-2.16,0.43-2.17,1.71c-0.02,2.31-0.01,4.63,0,6.94    c0,0.1,0.02,0.2,0.04,0.37C34.42,41.4,35.49,41.47,36.59,41.93z M49.87,38.32c1.56,0.04,2.81-1.14,2.85-2.71    c0.05-1.53-1.18-2.81-2.73-2.84c-1.54-0.03-2.8,1.19-2.83,2.75C47.14,37.05,48.33,38.28,49.87,38.32z"></path>
	</g>
	<g>
		<path class="st2" d="M55.48,45.96c-0.07-2.81-2.26-5.14-5.05-5.39c-2.83-0.25-5.43,1.7-5.93,4.52l-0.17,3.3l-2.19-1.57    c-0.07-3.47,1.36-5.99,4.33-7.66c-1.12-1.21-1.69-2.59-1.49-4.22c0.15-1.27,0.72-2.34,1.7-3.18c1.9-1.63,4.76-1.6,6.61,0.07    c2.1,1.89,2.17,4.46,0.17,7.35c2.91,1.65,4.34,4.17,4.28,7.64l-2.24,1.91L55.48,45.96z M49.87,38.32    c1.56,0.04,2.81-1.14,2.85-2.71c0.05-1.53-1.18-2.81-2.73-2.84c-1.54-0.03-2.8,1.19-2.83,2.75    C47.14,37.04,48.33,38.27,49.87,38.32z"></path>
	</g>
</g>
</svg>
