<?xml version="1.0" encoding="UTF-8"?>
<!-- Generator: Adobe Illustrator 26.0.1, SVG Export Plug-In . SVG Version: 6.00 Build 0)  -->
<svg xmlns="http://www.w3.org/2000/svg" xmlns:xlink="http://www.w3.org/1999/xlink" version="1.1" id="Layer_1" x="0px" y="0px" viewBox="0 0 100 100" style="enable-background:new 0 0 100 100;" xml:space="preserve">
<style type="text/css">
	.st0{opacity:0.5;fill:#FFFFFF;}
	.st1{fill:#9A0212;}
</style>
<rect class="st0" width="100" height="100"></rect>
<g>
	<path class="st1" d="M75,54.65c0-0.25-0.02-0.47-0.07-0.65c-0.22-0.92-0.83-1.55-1.8-1.87c-0.02-0.3-0.03-0.59-0.05-0.88   c-0.03-0.71-0.07-1.39-0.15-2.07c-0.69-5.44-3.05-10.16-7.03-14.02c-0.16-0.15-0.28-0.43-0.28-0.65c-0.02-1.47-0.02-2.96-0.01-4.41   c0-0.64,0-1.27,0-1.91c0-2-1.19-3.19-3.17-3.19c-8.29,0-16.58,0-24.86,0c-1.91,0-3.14,1.23-3.14,3.13l0,0.58   c0,1.9-0.01,3.86,0.01,5.78c0,0.29-0.08,0.49-0.3,0.7c-1.94,1.83-3.54,3.97-4.73,6.35c-1.62,3.22-2.44,6.67-2.46,10.25   c0,0.14-0.06,0.32-0.08,0.35c-0.92,0.31-1.52,0.97-1.84,2.01L25,66.9l0.05,0.13c0.02,0.04,0.04,0.08,0.06,0.12   c0.39,1.15,1.3,1.81,2.5,1.81c0.78,0,1.56,0,2.34,0c1.34,0,2.74,0,4.11,0.01c0.23,0,0.51,0.11,0.68,0.26   c3.89,3.36,8.42,5.27,13.47,5.68c0.06,0,0.12,0.02,0.19,0.05c0.04,0.01,0.07,0.02,0.11,0.03l0.03,0l2.94,0   c0.04-0.01,0.08-0.02,0.13-0.03c0.08-0.02,0.15-0.04,0.23-0.05c5.02-0.41,9.52-2.31,13.38-5.65c0.24-0.21,0.48-0.3,0.81-0.3   c0,0,0.01,0,0.01,0c1.95,0.01,4.03,0.01,6.36,0c1.53-0.01,2.6-1.08,2.6-2.62C75,62.45,75,58.55,75,54.65z M56.2,62.72   c0-0.87,0-1.73,0-2.63c0-0.17,0-0.35-0.03-0.52c-0.08-0.46-0.41-0.74-0.88-0.74c-0.47,0-0.79,0.27-0.88,0.74   c-0.03,0.15-0.03,0.3-0.03,0.46l0,1.42c0,1.58,0,3.16,0,4.75c0,1.77,1.02,2.78,2.78,2.78h5.44c-6.1,4.89-17.03,6.18-25.26,0l1.86,0   c1.26,0,2.52,0,3.79,0c1.57-0.01,2.64-1.06,2.65-2.63c0.01-1.5,0.01-3,0.01-4.51l0-1.91c0-0.11,0-0.21-0.02-0.31   c-0.08-0.47-0.45-0.8-0.89-0.8c-0.02,0-0.04,0-0.05,0c-0.49,0.03-0.83,0.4-0.84,0.9c-0.01,0.8-0.01,1.6-0.01,2.4l0,1.99   c0,0.72,0,1.45,0,2.17c-0.01,0.63-0.25,0.87-0.88,0.88c-5.08,0-10.17,0-15.25,0c-0.6,0-0.86-0.25-0.86-0.85c0-3.85,0-7.71,0-11.56   c0-0.62,0.24-0.85,0.88-0.85c2.84,0,5.69-0.01,8.53-0.02l0.5,0c0.14,0,0.31-0.01,0.47-0.06c0.42-0.14,0.64-0.47,0.61-0.92   c-0.03-0.43-0.27-0.72-0.69-0.8c-0.18-0.04-0.37-0.04-0.55-0.04h-0.06c-2.02,0-4.05,0-6.07,0h-1.66   c-0.59-3.92,2.54-11.97,5.62-14.57v0.66c0,0.48,0,0.96,0,1.43c0,1.11-0.01,2.25,0.01,3.38c0.02,1.51,1.31,2.79,2.8,2.81   c0.01,0,0.01,0,0.02,0c0.57,0,0.95-0.31,1-0.82c0.04-0.47-0.28-0.85-0.86-0.99c-0.25-0.06-0.61-0.17-0.85-0.37   c-0.19-0.15-0.22-0.23-0.22-0.27c0-0.09,0.22-0.23,0.29-0.28l7.54-5.02c2.83-1.89,5.67-3.77,8.49-5.67   c0.29-0.19,0.43-0.19,0.7-0.01c3.51,2.43,6.96,4.79,10.16,6.98c0.22,0.15,0.29,0.28,0.28,0.51c-0.01,0.56-0.01,1.11-0.01,1.67   c0,0.42,0,0.83,0,1.25c-0.01,0.74-0.32,1.1-1.06,1.21c-0.65,0.1-0.99,0.47-0.93,1.02c0.05,0.51,0.43,0.79,1.02,0.79   c0.04,0,0.08,0,0.12,0c1.44-0.08,2.64-1.33,2.66-2.79c0.02-1.23,0.02-2.48,0.01-3.69c0-0.5,0-1,0-1.5l0-0.35   c3.78,4.19,5.64,8.98,5.68,14.62h-1.96c-1.95,0-3.91,0-5.87,0h-0.07c-0.16,0-0.33,0-0.49,0.03c-0.44,0.1-0.69,0.4-0.7,0.85   c-0.01,0.45,0.22,0.77,0.66,0.88c0.18,0.05,0.36,0.05,0.56,0.05c2.99,0.01,5.99,0.01,8.98,0.01c0.52,0,0.79,0.25,0.79,0.75   c0.01,3.92,0.01,7.84,0,11.75c0,0.52-0.28,0.76-0.89,0.76c-1.75,0-3.51,0-5.26,0h-9.84c-0.76,0-0.98-0.22-0.98-0.97   C56.2,65.03,56.2,63.87,56.2,62.72z M63.78,28.13c0,2.57,0,5.13,0,7.7v1.28c0,0.06,0,0.12-0.01,0.19   c-0.11-0.07-0.21-0.14-0.31-0.21l-9.57-6.56c-0.8-0.55-0.95-0.55-1.75-0.02c-5.22,3.48-10.45,6.96-15.67,10.44   c-0.07,0.05-0.14,0.09-0.24,0.15v-7.96c0-1.65,0-3.3,0-4.95c0-0.95,0.4-1.36,1.34-1.36c4.15,0,8.29,0,12.43,0s8.29,0,12.43,0   C63.36,26.82,63.77,27.23,63.78,28.13z"></path>
	<path d="M57.51,57.1c0.58,0.2,0.94,0.06,1.26-0.47c0.47-0.79,0.93-1.59,1.36-2.35c0.31-0.55,0.25-0.91-0.22-1.32   c-0.18-0.16-0.37-0.32-0.56-0.48c-0.28-0.23-0.57-0.47-0.83-0.72c-0.08-0.08-0.15-0.26-0.15-0.43c-0.02-0.94-0.02-1.8,0-2.65   c0.01-0.18,0.08-0.38,0.17-0.47c0.23-0.22,0.48-0.42,0.72-0.62c0.22-0.18,0.43-0.36,0.64-0.55c0.14-0.13,0.23-0.28,0.33-0.43   c0.04-0.06,0.08-0.13,0.12-0.19l0.04-0.06l-0.03-0.07c-0.03-0.08-0.06-0.16-0.09-0.23c-0.05-0.14-0.1-0.26-0.17-0.38   c-0.43-0.76-0.87-1.52-1.31-2.27c-0.35-0.6-0.7-0.73-1.37-0.48c-0.19,0.07-0.37,0.14-0.56,0.21c-0.35,0.13-0.71,0.27-1.08,0.38   c-0.11,0.03-0.31,0-0.45-0.08c-0.82-0.45-1.57-0.89-2.29-1.33c-0.15-0.09-0.29-0.26-0.32-0.38c-0.11-0.46-0.19-0.93-0.27-1.39   l-0.07-0.41c-0.1-0.54-0.44-0.83-1.01-0.83c0,0,0,0,0,0l-0.92,0c-0.61,0-1.23,0-1.85,0c-0.57,0.01-0.88,0.26-0.99,0.84l-0.03,0.15   c-0.09,0.45-0.19,0.92-0.24,1.38c-0.05,0.39-0.15,0.62-0.53,0.72c-0.31,0.08-0.59,0.24-0.87,0.4l-0.04,0.02   c-0.19,0.11-0.37,0.24-0.54,0.37c-0.35,0.26-0.69,0.51-1.03,0.53c-0.37,0.03-0.78-0.15-1.2-0.35c-0.2-0.09-0.4-0.19-0.61-0.26   c-0.6-0.21-0.97-0.08-1.29,0.48c-0.45,0.77-0.9,1.54-1.34,2.31c-0.33,0.59-0.27,0.94,0.26,1.39c0.16,0.14,0.33,0.28,0.5,0.42   c0.29,0.24,0.58,0.48,0.86,0.74c0.08,0.07,0.14,0.24,0.14,0.39c0.02,0.96,0.02,1.84,0,2.7c0,0.15-0.08,0.34-0.17,0.43   c-0.27,0.25-0.56,0.49-0.84,0.73c-0.17,0.14-0.35,0.29-0.52,0.44c-0.5,0.43-0.56,0.79-0.24,1.36c0.44,0.77,0.89,1.54,1.34,2.31   c0.34,0.57,0.7,0.7,1.34,0.48c0.19-0.07,0.39-0.14,0.58-0.21c0.34-0.13,0.7-0.26,1.06-0.37c0.12-0.04,0.33,0,0.49,0.09   c0.74,0.4,1.51,0.85,2.3,1.32c0.14,0.08,0.27,0.24,0.29,0.35c0.09,0.36,0.15,0.73,0.21,1.09c0.04,0.24,0.08,0.47,0.13,0.71   c0.12,0.6,0.42,0.85,1.03,0.85c0.47,0,0.93,0.01,1.38,0.01c0.45,0,0.9,0,1.34-0.01c0.6-0.01,0.9-0.26,1.02-0.86   c0.05-0.24,0.09-0.47,0.13-0.71c0.06-0.35,0.12-0.7,0.2-1.05c0.03-0.13,0.17-0.3,0.31-0.39c0.76-0.46,1.53-0.91,2.29-1.33   c0.15-0.08,0.36-0.11,0.5-0.07c0.35,0.1,0.69,0.23,1.03,0.36C57.08,56.94,57.29,57.03,57.51,57.1z M50.81,58.58l-0.09,0.49h-1.44   c-0.03-0.15-0.06-0.3-0.09-0.46c-0.08-0.43-0.16-0.87-0.23-1.31c-0.08-0.49-0.34-0.79-0.8-0.93c-1.05-0.3-1.98-0.84-2.77-1.6   c-0.35-0.34-0.74-0.41-1.2-0.23c-0.4,0.16-0.81,0.31-1.24,0.46l-0.46,0.17l-0.7-1.2l-0.03-0.05l0.33-0.28   c0.34-0.29,0.68-0.58,1.03-0.85c0.42-0.33,0.55-0.73,0.42-1.24c-0.26-1.03-0.26-2.07,0-3.11c0.13-0.5,0-0.88-0.4-1.2   c-0.34-0.27-0.67-0.55-1-0.84c-0.13-0.11-0.25-0.22-0.38-0.33l0.72-1.24c0.15,0.05,0.3,0.11,0.46,0.16   c0.42,0.15,0.84,0.3,1.26,0.46c0.46,0.18,0.85,0.1,1.2-0.24c0.78-0.76,1.72-1.3,2.77-1.6c0.47-0.13,0.72-0.44,0.8-0.94   c0.08-0.55,0.17-1.08,0.29-1.56c0.02-0.08,0.14-0.19,0.19-0.2c0.32-0.02,0.64-0.02,0.98-0.02c0.09,0,0.19,0,0.28,0l0.09,0.47   c0.08,0.44,0.16,0.87,0.22,1.3c0.08,0.51,0.35,0.82,0.84,0.96c1.04,0.29,1.96,0.83,2.73,1.58c0.36,0.35,0.75,0.43,1.2,0.25   c0.41-0.16,0.82-0.31,1.25-0.46c0.16-0.05,0.31-0.11,0.47-0.17l0.72,1.24l-0.38,0.32c-0.34,0.29-0.67,0.57-1,0.84   c-0.4,0.33-0.53,0.71-0.4,1.2c0.27,1.04,0.27,2.1,0,3.15c-0.12,0.48,0,0.85,0.38,1.16c0.35,0.28,0.69,0.57,1.04,0.87l0.36,0.3   l-0.71,1.25L57.06,55c-0.44-0.16-0.86-0.31-1.28-0.47c-0.44-0.17-0.82-0.09-1.16,0.24c-0.79,0.77-1.72,1.31-2.77,1.6   c-0.47,0.13-0.74,0.43-0.81,0.92C50.97,57.72,50.89,58.15,50.81,58.58z"></path>
	<path d="M39.79,59.62c-1.08-0.66-2.16-1.31-3.24-1.96c-1.17-0.71-2.35-1.42-3.52-2.13c-0.3-0.19-0.67-0.34-1.09-0.11   c-0.41,0.23-0.46,0.61-0.46,0.99c0.01,1,0,1.99,0,2.99l0,2.34c0,0.97,0,1.95,0,2.92c0,0.47,0.16,0.81,0.45,0.98   c0.12,0.06,0.25,0.1,0.38,0.1c0.21,0,0.45-0.07,0.69-0.22c2.26-1.36,4.51-2.72,6.76-4.09c0.54-0.33,0.65-0.67,0.65-0.9   C40.43,60.28,40.32,59.94,39.79,59.62z M37.76,60.51l-4.43,2.69v-5.37L37.76,60.51z"></path>
	<path d="M69.87,62.98c-3.22,0-6.44,0-9.66,0c-0.68,0-1.1,0.35-1.1,0.91c0,0.56,0.42,0.91,1.1,0.91c1.15,0,2.31,0,3.46,0h2.64   c0.45,0,0.89,0,1.34,0c0.74,0,1.49,0,2.23,0c0.66,0,1.05-0.32,1.07-0.88c0.01-0.26-0.07-0.49-0.23-0.65   C70.52,63.08,70.23,62.98,69.87,62.98z"></path>
	<path d="M59.1,60.56c0.02,0.89,0.99,0.9,1.31,0.9c1.13,0,2.26,0,3.38,0c1.95,0,3.9,0,5.86,0c0.18,0,0.36,0,0.53-0.03   c0.51-0.09,0.81-0.53,0.73-1.04c-0.05-0.34-0.28-0.74-1.07-0.75c-1.14,0-2.29,0-3.43,0l-5.98,0c-0.54,0-0.91,0.11-1.12,0.32   C59.17,60.11,59.09,60.31,59.1,60.56z"></path>
	<path d="M64.5,58.1c0.82,0,1.65,0,2.47,0c0.95,0,1.9,0,2.85,0c0.95,0,1.1-0.56,1.1-0.89c0-0.26-0.07-0.48-0.23-0.63   c-0.19-0.19-0.49-0.29-0.9-0.29c-0.61,0-1.22,0-1.83,0l-0.83,0l-0.8,0c-0.6,0-1.21,0-1.81,0c-0.99,0-1.15,0.56-1.16,0.9   c0,0.25,0.07,0.46,0.23,0.62C63.79,57.99,64.11,58.1,64.5,58.1z"></path>
	<path d="M41.28,28.12c-0.01,0-0.01,0-0.01,0c-0.85,0-1.65,0.34-2.26,0.95c-0.62,0.62-0.95,1.42-0.95,2.28   c0.01,1.74,1.43,3.18,3.18,3.21c0.02,0,0.03,0,0.05,0c0.83,0,1.61-0.33,2.22-0.92c0.63-0.61,0.97-1.42,0.98-2.28   c0.01-0.85-0.33-1.66-0.94-2.27C42.94,28.47,42.13,28.13,41.28,28.12z M41.25,29.94c0.01,0,0.01,0,0.02,0   c0.35,0,0.7,0.15,0.97,0.41c0.27,0.27,0.43,0.63,0.43,0.99c0,0.36-0.16,0.72-0.43,0.99c-0.27,0.26-0.62,0.41-0.97,0.41   c-0.01,0-0.02,0-0.02,0c-0.74-0.01-1.37-0.65-1.37-1.4C39.88,30.59,40.5,29.95,41.25,29.94z"></path>
	<path class="st1" d="M54.89,50c0-2.7-2.19-4.89-4.89-4.89c0,0,0,0,0,0c-1.3,0-2.53,0.51-3.45,1.44c-0.93,0.93-1.44,2.15-1.44,3.45   c0,1.3,0.51,2.53,1.44,3.45c0.93,0.93,2.15,1.44,3.45,1.44c0,0,0,0,0,0C52.7,54.89,54.89,52.69,54.89,50z M47.83,52.16   c-0.58-0.59-0.9-1.36-0.89-2.18c0.01-1.68,1.39-3.04,3.06-3.04c0,0,0,0,0.01,0c0.82,0,1.59,0.32,2.17,0.9   c0.58,0.58,0.9,1.35,0.9,2.18c0,0.82-0.32,1.59-0.9,2.17c-0.58,0.58-1.35,0.9-2.17,0.9c0,0-0.01,0-0.01,0   C49.18,53.07,48.41,52.74,47.83,52.16z"></path>
</g>
</svg>
