<?xml version="1.0" encoding="UTF-8"?>
<svg xmlns="http://www.w3.org/2000/svg" width="60" height="60" viewBox="0 0 60 60" fill="none">
  <path d="M31.62 33.4206C31.62 28.8606 38.58 21.5406 40.92 19.0206C41.82 18.0606 43.32 18.0606 44.22 18.9606C44.22 18.9606 44.22 18.9606 44.28 19.0206C45.12 19.8606 45.12 21.2406 44.34 22.1406C43.32 23.1606 42.42 24.3006 41.58 25.3806C45.18 26.2206 48 29.5206 48 33.4206C48 37.9206 44.34 41.6406 39.78 41.6406C35.22 41.6406 31.62 37.9806 31.62 33.4206ZM20.22 41.6406C24.72 41.6406 28.44 37.9806 28.44 33.4206C28.44 29.4606 25.62 26.1606 21.9 25.3806C22.8 24.2406 23.7 23.1606 24.66 22.1406C25.5 21.2406 25.44 19.9206 24.6 19.0206C24.6 19.0206 24.6 19.0206 24.54 18.9606C23.64 18.0006 22.14 18.0606 21.24 19.0206C18.9 21.4806 11.94 28.8606 11.94 33.4206C12 37.9806 15.66 41.6406 20.22 41.6406Z" fill="black"></path>
</svg>
