<?xml version="1.0" encoding="UTF-8"?>
<!-- Generator: Adobe Illustrator 26.0.1, SVG Export Plug-In . SVG Version: 6.00 Build 0)  -->
<svg xmlns="http://www.w3.org/2000/svg" xmlns:xlink="http://www.w3.org/1999/xlink" version="1.1" id="Layer_1" x="0px" y="0px" viewBox="0 0 100 100" style="enable-background:new 0 0 100 100;" xml:space="preserve">
<style type="text/css">
	.st0{opacity:0.5;fill:#FFFFFF;}
	.st1{fill:#9A0212;}
	.st2{fill:#210021;}
	.st3{fill:#FFFFFF;}
	.st4{fill:none;}
</style>
<rect class="st0" width="100" height="100"></rect>
<g>
	<g>
		<g>
			<path class="st1" d="M73.41,56.45c1.07-3.95,1.23-7.94,0.29-11.94c-1.35-5.78-4.48-10.45-9.14-14.07     c-5.49-4.26-11.72-5.8-18.58-4.86c-4.38,0.61-8.26,2.4-11.67,5.18c-4.68,3.81-7.73,8.65-8.92,14.61     c-0.14,0.71-0.12,1.45-0.39,2.14v3.83c0.04,0.13,0.16,0.27,0,0.41v0.52c0.22,0.4,0.17,0.85,0.23,1.28     c0.89,5.88,3.48,10.89,7.99,14.72c7.81,6.64,16.57,8.2,26.16,4.35c0.62-0.25,1.22-0.53,1.8-0.84c1.06,0.36,2.19,0.56,3.37,0.56     c5.74,0,10.41-4.67,10.41-10.41C74.98,59.92,74.4,58.04,73.41,56.45z M45.41,28.1c-0.77,0.84-1.55,1.66-2.26,2.53     c-1.41,1.74-2.61,3.62-3.52,5.67c-0.16,0.36-0.32,0.41-0.69,0.3c-1.87-0.55-3.71-1.18-5.58-1.96     C36.72,31.15,40.7,28.95,45.41,28.1z M27.33,48.46c0.31-4.28,1.71-8.14,4.21-11.62c0.22-0.31,0.4-0.34,0.74-0.19     c1.91,0.83,3.86,1.54,5.87,2.08c0.4,0.11,0.44,0.26,0.32,0.63c-0.96,2.93-1.44,5.94-1.55,9.02c-0.02,0.39-0.12,0.48-0.5,0.48     c-1.45-0.03-2.89-0.01-4.34-0.01c-1.44,0-2.89-0.01-4.34,0C27.44,48.85,27.3,48.83,27.33,48.46z M32.21,63.34     c-0.32,0.14-0.47,0.07-0.66-0.2c-2.52-3.49-3.92-7.37-4.22-11.66c-0.03-0.33,0.08-0.36,0.35-0.36c1.48,0.01,2.96,0,4.44,0     c1.44,0,2.89,0.01,4.34-0.01c0.33,0,0.43,0.07,0.44,0.42c0.12,3.14,0.6,6.22,1.61,9.21c0.11,0.31,0.04,0.43-0.28,0.51     C36.17,61.79,34.16,62.49,32.21,63.34z M33.36,65.33c1.47-0.62,2.94-1.13,4.43-1.58c0.46-0.14,0.92-0.26,1.38-0.4     c0.18-0.05,0.31-0.04,0.41,0.17c1.41,3.14,3.37,5.89,5.85,8.28c0.01,0.01,0,0.03,0.02,0.17C40.71,71.02,36.72,68.81,33.36,65.33z      M48.51,71.2c0,0.03-0.03,0.05-0.1,0.14c-2.91-2.33-5.1-5.2-6.72-8.59c2.17-0.47,4.32-0.73,6.49-0.84     c0.24-0.01,0.34,0.03,0.34,0.3C48.52,65.2,48.52,68.2,48.51,71.2z M48.53,59.22c0,0.31-0.07,0.41-0.39,0.42     c-2.33,0.09-4.63,0.36-6.9,0.87c-0.28,0.06-0.42,0.01-0.52-0.29c-0.94-2.85-1.42-5.77-1.56-8.76c-0.01-0.3,0.08-0.37,0.37-0.37     c1.44,0.01,2.89,0.01,4.34,0.01c1.41,0,2.82,0.01,4.23-0.01c0.33,0,0.45,0.06,0.44,0.42C48.52,54.1,48.52,56.66,48.53,59.22z      M48.53,48.43c0,0.36-0.13,0.42-0.45,0.42c-1.43-0.01-2.85,0-4.28,0c-1.41,0-2.82-0.01-4.23,0c-0.34,0-0.44-0.08-0.42-0.42     c0.15-2.95,0.61-5.84,1.54-8.64c0.09-0.27,0.18-0.33,0.47-0.27c2.3,0.52,4.63,0.86,6.98,0.96c0.33,0.01,0.39,0.13,0.38,0.42     C48.53,43.41,48.52,45.92,48.53,48.43z M48.18,38.21c-2.08-0.12-4.14-0.41-6.18-0.84c-0.17-0.04-0.33-0.06-0.2-0.33     c1.56-3.28,3.69-6.11,6.58-8.34c0.03-0.02,0.06-0.02,0.16-0.04c0,3.1,0,6.16,0.01,9.22C48.54,38.17,48.43,38.22,48.18,38.21z      M67.11,36.66c0.32-0.14,0.47-0.07,0.67,0.2c2.49,3.48,3.89,7.35,4.19,11.61c0.02,0.32-0.08,0.37-0.36,0.37     c-1.48-0.01-2.96,0-4.44,0c-1.47,0-2.93-0.01-4.39,0c-0.34,0-0.47-0.06-0.48-0.44c-0.12-3.09-0.62-6.11-1.6-9.05     c-0.12-0.35-0.05-0.45,0.3-0.55C63.08,38.23,65.13,37.53,67.11,36.66z M71.96,51.46c-0.07,0.94-0.18,1.87-0.36,2.8     c-1.85-1.7-4.32-2.74-7.03-2.74c-0.77,0-1.53,0.09-2.26,0.25c0-0.1,0-0.2,0-0.3c0-0.26,0.07-0.36,0.35-0.36     c3,0.01,5.99,0.01,8.98,0C71.91,51.11,71.98,51.17,71.96,51.46z M65.96,34.67c-1.54,0.65-3.07,1.18-4.63,1.66     c-0.51,0.16-1.09,0.5-1.52,0.37c-0.41-0.13-0.48-0.85-0.71-1.3c-1.37-2.66-3.09-5.08-5.26-7.15c-0.07-0.07-0.19-0.09-0.22-0.2     C58.48,28.88,62.55,31.11,65.96,34.67z M50.81,28.64c1.35,1.02,2.41,2.16,3.39,3.38c1.2,1.49,2.24,3.08,3.07,4.81     c0.17,0.37,0.22,0.51-0.28,0.61c-1.91,0.37-3.84,0.64-5.78,0.75c-0.19,0.01-0.42,0.11-0.41-0.26     C50.81,34.88,50.81,31.82,50.81,28.64z M50.8,40.9c0-0.35,0.11-0.41,0.43-0.43c2.24-0.11,4.45-0.39,6.63-0.89     c0.35-0.08,0.52-0.03,0.65,0.36c0.9,2.73,1.35,5.53,1.52,8.39c0.03,0.38-0.05,0.53-0.48,0.52c-1.37-0.03-2.75-0.01-4.13-0.01     c-1.37,0-2.75-0.01-4.13,0.01c-0.37,0-0.5-0.06-0.5-0.47C50.82,45.89,50.82,43.39,50.8,40.9z M50.81,51.49     c0-0.29,0.06-0.38,0.36-0.38c2.84,0.01,5.67,0.01,8.51,0c0.35,0,0.38,0.13,0.37,0.42c-0.01,0.35-0.02,0.7-0.05,1.05     c-2.9,1.42-5.05,4.15-5.66,7.42c-1.04-0.14-2.08-0.26-3.13-0.29c-0.3,0-0.41-0.1-0.41-0.42C50.81,56.68,50.81,54.08,50.81,51.49z      M52.46,70c-0.51,0.45-1.03,0.89-1.55,1.34c-0.15-0.19-0.09-0.35-0.09-0.49c0-2.8,0-5.61-0.01-8.41c0-0.42,0.11-0.5,0.51-0.48     c0.96,0.07,1.9,0.19,2.85,0.29c0.05,1.6,0.46,3.11,1.16,4.45C54.48,67.9,53.56,69.03,52.46,70z M54.26,71.88     c-0.13,0.03-0.27,0.03-0.51,0.06c1.08-1.02,2.06-2.09,2.93-3.23c0.57,0.67,1.22,1.26,1.95,1.76     C57.23,71.09,55.77,71.56,54.26,71.88z M64.56,70.17c-0.25,0-0.5-0.01-0.74-0.03c-1.04-0.09-2.03-0.38-2.92-0.82     c-1.17-0.58-2.17-1.43-2.95-2.46c-0.3-0.4-0.56-0.83-0.78-1.28c-0.55-1.1-0.86-2.34-0.86-3.66c0-2.74,1.34-5.17,3.4-6.67     c0.73-0.54,1.55-0.95,2.44-1.22c0.76-0.23,1.57-0.36,2.41-0.36c4.55,0,8.25,3.7,8.25,8.25C72.81,66.48,69.11,70.17,64.56,70.17z"></path>
		</g>
		<g>
			<path class="st2" d="M64.56,65.33c-0.57,0-1.04-0.47-1.04-1.04v-0.15c0-1.28,0.72-2.49,1.88-3.14c0.14-0.08,0.26-0.17,0.38-0.28     c0.32-0.32,0.5-0.76,0.5-1.21c0-0.46-0.18-0.89-0.5-1.21c-0.32-0.32-0.76-0.5-1.21-0.5c-0.46,0-0.89,0.18-1.21,0.5     c-0.32,0.32-0.5,0.76-0.5,1.21c0,0.57-0.47,1.04-1.04,1.04s-1.04-0.47-1.04-1.04c0-1.01,0.4-1.97,1.11-2.69     c0.72-0.72,1.67-1.11,2.69-1.11c1.01,0,1.97,0.4,2.69,1.11c0.72,0.72,1.11,1.67,1.11,2.69c0,1.01-0.39,1.97-1.11,2.69     c-0.25,0.25-0.53,0.46-0.83,0.63c-0.51,0.29-0.82,0.78-0.82,1.32v0.15C65.6,64.86,65.14,65.33,64.56,65.33z"></path>
		</g>
		<g>
			<circle class="st2" cx="64.56" cy="67.09" r="1.06"></circle>
		</g>
	</g>
	<g>
		<g>
			<path class="st3" d="M65.62,67.09c0,0.31-0.13,0.59-0.34,0.77c-0.19,0.18-0.44,0.28-0.72,0.28c-0.28,0-0.53-0.11-0.72-0.28     c-0.21-0.19-0.34-0.47-0.34-0.78c0-0.58,0.47-1.05,1.06-1.05C65.15,66.04,65.62,66.51,65.62,67.09z"></path>
			<path class="st3" d="M68.34,59.54c0,1.01-0.39,1.96-1.1,2.68c-0.25,0.24-0.52,0.45-0.83,0.62c-0.01,0.01-0.03,0.02-0.05,0.03     c-0.48,0.28-0.77,0.77-0.77,1.28v0.15c0,0.57-0.47,1.04-1.04,1.04c-0.57,0-1.04-0.46-1.04-1.04v-0.15c0-1.28,0.72-2.48,1.87-3.12     c0.13-0.08,0.26-0.17,0.37-0.28c0.33-0.32,0.5-0.75,0.5-1.21c0-0.45-0.17-0.88-0.5-1.21c-0.32-0.33-0.75-0.5-1.21-0.5     c-0.46,0-0.89,0.18-1.21,0.5c-0.33,0.32-0.5,0.75-0.5,1.21c0,0.41-0.23,0.76-0.58,0.93c-0.14,0.07-0.29,0.11-0.46,0.11     c-0.57,0-1.04-0.46-1.04-1.04c0-1.01,0.39-1.96,1.1-2.67c0.12-0.12,0.25-0.23,0.39-0.33c0.66-0.5,1.45-0.77,2.29-0.77     c0.64,0,1.26,0.16,1.8,0.46c0.32,0.17,0.61,0.39,0.87,0.65C67.95,57.59,68.34,58.54,68.34,59.54z"></path>
			<path d="M57.34,65.72c-0.05,0.02-0.09,0.05-0.13,0.08h0c-0.04,0.03-0.07,0.06-0.11,0.1c-0.02,0.02-0.03,0.03-0.05,0.05     c-0.02,0.01-0.04,0.03-0.05,0.06c-0.03,0.04-0.06,0.07-0.08,0.11c-0.04,0.07-0.07,0.15-0.1,0.22c-0.02,0.06-0.03,0.13-0.04,0.21     c0,0.05-0.01,0.1-0.01,0.15c0,0.68,0.5,1.14,1.27,1.16c0.31,0,0.61,0.01,0.92,0.01C58.31,67.25,57.76,66.52,57.34,65.72z      M57.34,65.72c-0.05,0.02-0.09,0.05-0.13,0.08h0c-0.04,0.03-0.07,0.06-0.11,0.1c-0.02,0.02-0.03,0.03-0.05,0.05     c-0.02,0.01-0.04,0.03-0.05,0.06c-0.03,0.04-0.06,0.07-0.08,0.11c-0.04,0.07-0.07,0.15-0.1,0.22c-0.02,0.06-0.03,0.13-0.04,0.21     c0,0.05-0.01,0.1-0.01,0.15c0,0.68,0.5,1.14,1.27,1.16c0.31,0,0.61,0.01,0.92,0.01C58.31,67.25,57.76,66.52,57.34,65.72z      M57.34,65.72c-0.05,0.02-0.09,0.05-0.13,0.08h0c-0.04,0.03-0.07,0.06-0.11,0.1c-0.02,0.02-0.03,0.03-0.05,0.05     c-0.02,0.01-0.04,0.03-0.05,0.06c-0.03,0.04-0.06,0.07-0.08,0.11c-0.04,0.07-0.07,0.15-0.1,0.22c-0.02,0.06-0.03,0.13-0.04,0.21     c0,0.05-0.01,0.1-0.01,0.15c0,0.68,0.5,1.14,1.27,1.16c0.31,0,0.61,0.01,0.92,0.01C58.31,67.25,57.76,66.52,57.34,65.72z      M66.36,69.9c-0.58,0.13-1.18,0.2-1.8,0.2c-0.79,0-1.56-0.11-2.29-0.33c0,0.62,0,1.25-0.01,1.87c0,0.32,0.07,0.42,0.4,0.41     c1.1-0.02,2.2-0.02,3.3,0c0.33,0.01,0.41-0.09,0.4-0.41C66.36,71.06,66.36,70.48,66.36,69.9z M65.86,51.87     c-0.26,0.01-0.52,0.02-0.78,0.02c-0.51,0.01-1.02,0.01-1.54,0c-0.26,0-0.51-0.01-0.77-0.02c-0.43-0.01-0.5,0.14-0.5,0.53     c0,0.58,0,1.16,0,1.75c0.73-0.22,1.49-0.33,2.29-0.33c0.62,0,1.22,0.07,1.8,0.2c0-0.54,0-1.08,0-1.62     C66.37,52.01,66.3,51.85,65.86,51.87z M59.97,68.68c-0.36-0.24-0.69-0.51-1-0.81c-0.66-0.61-1.21-1.34-1.63-2.15     c-0.59-1.12-0.92-2.4-0.92-3.76c0-2.79,1.41-5.26,3.55-6.72c0-0.88,0-1.76,0-2.65c-3.46,1.7-5.85,5.26-5.85,9.37     c0,4.11,2.39,7.67,5.85,9.37C59.96,70.44,59.97,69.56,59.97,68.68z M66.36,69.9c-0.58,0.13-1.18,0.2-1.8,0.2     c-0.79,0-1.56-0.11-2.29-0.33c0,0.62,0,1.25-0.01,1.87c0,0.32,0.07,0.42,0.4,0.41c1.1-0.02,2.2-0.02,3.3,0     c0.33,0.01,0.41-0.09,0.4-0.41C66.36,71.06,66.36,70.48,66.36,69.9z M65.86,51.87c-0.26,0.01-0.52,0.02-0.78,0.02     c-0.51,0.01-1.02,0.01-1.54,0c-0.26,0-0.51-0.01-0.77-0.02c-0.43-0.01-0.5,0.14-0.5,0.53c0,0.58,0,1.16,0,1.75     c0.73-0.22,1.49-0.33,2.29-0.33c0.62,0,1.22,0.07,1.8,0.2c0-0.54,0-1.08,0-1.62C66.37,52.01,66.3,51.85,65.86,51.87z      M59.97,68.68c-0.36-0.24-0.69-0.51-1-0.81c-0.66-0.61-1.21-1.34-1.63-2.15c-0.59-1.12-0.92-2.4-0.92-3.76     c0-2.79,1.41-5.26,3.55-6.72c0-0.88,0-1.76,0-2.65c-3.46,1.7-5.85,5.26-5.85,9.37c0,4.11,2.39,7.67,5.85,9.37     C59.96,70.44,59.97,69.56,59.97,68.68z M66.36,69.9c-0.58,0.13-1.18,0.2-1.8,0.2c-0.79,0-1.56-0.11-2.29-0.33     c0,0.62,0,1.25-0.01,1.87c0,0.32,0.07,0.42,0.4,0.41c1.1-0.02,2.2-0.02,3.3,0c0.33,0.01,0.41-0.09,0.4-0.41     C66.36,71.06,66.36,70.48,66.36,69.9z M65.86,51.87c-0.26,0.01-0.52,0.02-0.78,0.02c-0.51,0.01-1.02,0.01-1.54,0     c-0.26,0-0.51-0.01-0.77-0.02c-0.43-0.01-0.5,0.14-0.5,0.53c0,0.58,0,1.16,0,1.75c0.73-0.22,1.49-0.33,2.29-0.33     c0.62,0,1.22,0.07,1.8,0.2c0-0.54,0-1.08,0-1.62C66.37,52.01,66.3,51.85,65.86,51.87z M59.97,68.68c-0.36-0.24-0.69-0.51-1-0.81     c-0.66-0.61-1.21-1.34-1.63-2.15c-0.59-1.12-0.92-2.4-0.92-3.76c0-2.79,1.41-5.26,3.55-6.72c0-0.88,0-1.76,0-2.65     c-3.46,1.7-5.85,5.26-5.85,9.37c0,4.11,2.39,7.67,5.85,9.37C59.96,70.44,59.97,69.56,59.97,68.68z M64.57,70.1     c-0.79,0-1.56-0.11-2.29-0.33c0,0.62,0,1.25-0.01,1.87c0,0.32,0.07,0.42,0.4,0.41c1.1-0.02,2.2-0.02,3.3,0     c0.33,0.01,0.41-0.09,0.4-0.41c-0.01-0.58-0.01-1.16-0.01-1.74C65.79,70.03,65.19,70.1,64.57,70.1z M64.57,53.81     c0.62,0,1.22,0.07,1.8,0.2c0-0.54,0-1.08,0-1.62c0-0.39-0.07-0.55-0.51-0.53c-0.26,0.01-0.52,0.02-0.78,0.02     c-0.51,0.01-1.02,0.01-1.54,0c-0.26,0-0.51-0.01-0.77-0.02c-0.43-0.01-0.5,0.14-0.5,0.53c0,0.58,0,1.16,0,1.75     C63,53.93,63.77,53.81,64.57,53.81z M59.97,55.24c0-0.88,0-1.76,0-2.65c-3.46,1.7-5.85,5.26-5.85,9.37     c0,4.11,2.39,7.67,5.85,9.37c-0.01-0.88-0.01-1.76,0-2.65c-0.36-0.24-0.69-0.51-1-0.81c-0.66-0.61-1.21-1.34-1.63-2.15     c-0.59-1.12-0.92-2.4-0.92-3.76C56.42,59.17,57.83,56.7,59.97,55.24z M71.97,54.62c-0.94-0.95-2.06-1.72-3.31-2.25     c-1.26-0.55-2.65-0.84-4.1-0.84c-1.65,0-3.2,0.38-4.59,1.07c-3.46,1.7-5.85,5.26-5.85,9.37c0,4.11,2.39,7.67,5.85,9.37     c1.38,0.69,2.94,1.07,4.59,1.07c1.46,0,2.85-0.3,4.11-0.84c1.25-0.54,2.37-1.31,3.31-2.26c1.87-1.89,3.02-4.47,3.02-7.33     C75,59.1,73.84,56.51,71.97,54.62z M71.63,66c-0.39,0.69-0.89,1.32-1.46,1.86c-0.45,0.44-0.96,0.82-1.5,1.13     c-0.71,0.42-1.49,0.73-2.31,0.91c-0.58,0.13-1.18,0.2-1.8,0.2c-0.79,0-1.56-0.11-2.29-0.33c-0.83-0.24-1.61-0.61-2.31-1.1     c-0.36-0.24-0.69-0.51-1-0.81c-0.66-0.61-1.21-1.34-1.63-2.15c-0.59-1.12-0.92-2.4-0.92-3.76c0-2.79,1.41-5.26,3.55-6.72     c0.7-0.48,1.47-0.85,2.3-1.09c0.73-0.22,1.49-0.33,2.29-0.33c0.62,0,1.22,0.07,1.8,0.2c0,0,0,0,0,0c0.82,0.19,1.6,0.5,2.3,0.91     c1.44,0.85,2.6,2.13,3.31,3.66c0.47,1.03,0.73,2.17,0.73,3.37c0,1.2-0.26,2.34-0.73,3.36C71.87,65.55,71.76,65.78,71.63,66z      M59.97,68.68c-0.36-0.24-0.69-0.51-1-0.81c-0.66-0.61-1.21-1.34-1.63-2.15c-0.59-1.12-0.92-2.4-0.92-3.76     c0-2.79,1.41-5.26,3.55-6.72c0-0.88,0-1.76,0-2.65c-3.46,1.7-5.85,5.26-5.85,9.37c0,4.11,2.39,7.67,5.85,9.37     C59.96,70.44,59.97,69.56,59.97,68.68z M65.86,51.87c-0.26,0.01-0.52,0.02-0.78,0.02c-0.51,0.01-1.02,0.01-1.54,0     c-0.26,0-0.51-0.01-0.77-0.02c-0.43-0.01-0.5,0.14-0.5,0.53c0,0.58,0,1.16,0,1.75c0.73-0.22,1.49-0.33,2.29-0.33     c0.62,0,1.22,0.07,1.8,0.2c0-0.54,0-1.08,0-1.62C66.37,52.01,66.3,51.85,65.86,51.87z M66.36,69.9c-0.58,0.13-1.18,0.2-1.8,0.2     c-0.79,0-1.56-0.11-2.29-0.33c0,0.62,0,1.25-0.01,1.87c0,0.32,0.07,0.42,0.4,0.41c1.1-0.02,2.2-0.02,3.3,0     c0.33,0.01,0.41-0.09,0.4-0.41C66.36,71.06,66.36,70.48,66.36,69.9z M59.97,68.68c-0.36-0.24-0.69-0.51-1-0.81     c-0.66-0.61-1.21-1.34-1.63-2.15c-0.59-1.12-0.92-2.4-0.92-3.76c0-2.79,1.41-5.26,3.55-6.72c0-0.88,0-1.76,0-2.65     c-3.46,1.7-5.85,5.26-5.85,9.37c0,4.11,2.39,7.67,5.85,9.37C59.96,70.44,59.97,69.56,59.97,68.68z M65.86,51.87     c-0.26,0.01-0.52,0.02-0.78,0.02c-0.51,0.01-1.02,0.01-1.54,0c-0.26,0-0.51-0.01-0.77-0.02c-0.43-0.01-0.5,0.14-0.5,0.53     c0,0.58,0,1.16,0,1.75c0.73-0.22,1.49-0.33,2.29-0.33c0.62,0,1.22,0.07,1.8,0.2c0-0.54,0-1.08,0-1.62     C66.37,52.01,66.3,51.85,65.86,51.87z M66.36,69.9c-0.58,0.13-1.18,0.2-1.8,0.2c-0.79,0-1.56-0.11-2.29-0.33     c0,0.62,0,1.25-0.01,1.87c0,0.32,0.07,0.42,0.4,0.41c1.1-0.02,2.2-0.02,3.3,0c0.33,0.01,0.41-0.09,0.4-0.41     C66.36,71.06,66.36,70.48,66.36,69.9z M59.97,68.68c-0.36-0.24-0.69-0.51-1-0.81c-0.66-0.61-1.21-1.34-1.63-2.15     c-0.59-1.12-0.92-2.4-0.92-3.76c0-2.79,1.41-5.26,3.55-6.72c0-0.88,0-1.76,0-2.65c-3.46,1.7-5.85,5.26-5.85,9.37     c0,4.11,2.39,7.67,5.85,9.37C59.96,70.44,59.97,69.56,59.97,68.68z M65.86,51.87c-0.26,0.01-0.52,0.02-0.78,0.02     c-0.51,0.01-1.02,0.01-1.54,0c-0.26,0-0.51-0.01-0.77-0.02c-0.43-0.01-0.5,0.14-0.5,0.53c0,0.58,0,1.16,0,1.75     c0.73-0.22,1.49-0.33,2.29-0.33c0.62,0,1.22,0.07,1.8,0.2c0-0.54,0-1.08,0-1.62C66.37,52.01,66.3,51.85,65.86,51.87z M66.36,69.9     c-0.58,0.13-1.18,0.2-1.8,0.2c-0.79,0-1.56-0.11-2.29-0.33c0,0.62,0,1.25-0.01,1.87c0,0.32,0.07,0.42,0.4,0.41     c1.1-0.02,2.2-0.02,3.3,0c0.33,0.01,0.41-0.09,0.4-0.41C66.36,71.06,66.36,70.48,66.36,69.9z M57.34,65.72     c-0.05,0.02-0.09,0.05-0.13,0.08h0c-0.04,0.03-0.07,0.06-0.11,0.1c-0.02,0.02-0.03,0.03-0.05,0.05     c-0.02,0.01-0.04,0.03-0.05,0.06c-0.03,0.04-0.06,0.07-0.08,0.11c-0.04,0.07-0.07,0.15-0.1,0.22c-0.02,0.06-0.03,0.13-0.04,0.21     c0,0.05-0.01,0.1-0.01,0.15c0,0.68,0.5,1.14,1.27,1.16c0.31,0,0.61,0.01,0.92,0.01C58.31,67.25,57.76,66.52,57.34,65.72z      M57.34,65.72c-0.05,0.02-0.09,0.05-0.13,0.08h0c-0.04,0.03-0.07,0.06-0.11,0.1c-0.02,0.02-0.03,0.03-0.05,0.05     c-0.02,0.01-0.04,0.03-0.05,0.06c-0.03,0.04-0.06,0.07-0.08,0.11c-0.04,0.07-0.07,0.15-0.1,0.22c-0.02,0.06-0.03,0.13-0.04,0.21     c0,0.05-0.01,0.1-0.01,0.15c0,0.68,0.5,1.14,1.27,1.16c0.31,0,0.61,0.01,0.92,0.01C58.31,67.25,57.76,66.52,57.34,65.72z      M57.34,65.72c-0.05,0.02-0.09,0.05-0.13,0.08h0c-0.04,0.03-0.07,0.06-0.11,0.1c-0.02,0.02-0.03,0.03-0.05,0.05     c-0.02,0.01-0.04,0.03-0.05,0.06c-0.03,0.04-0.06,0.07-0.08,0.11c-0.04,0.07-0.07,0.15-0.1,0.22c-0.02,0.06-0.03,0.13-0.04,0.21     c0,0.05-0.01,0.1-0.01,0.15c0,0.68,0.5,1.14,1.27,1.16c0.31,0,0.61,0.01,0.92,0.01C58.31,67.25,57.76,66.52,57.34,65.72z"></path>
		</g>
		<g>
			<g>
				<path d="M68.34,59.54c0,1.01-0.39,1.96-1.1,2.68c-0.25,0.24-0.52,0.45-0.83,0.62c-0.01,0.01-0.03,0.02-0.05,0.03      c-0.48,0.28-0.77,0.77-0.77,1.28v0.15c0,0.57-0.47,1.04-1.04,1.04c-0.57,0-1.04-0.46-1.04-1.04v-0.15      c0-1.28,0.72-2.48,1.87-3.12c0.13-0.08,0.26-0.17,0.37-0.28c0.33-0.32,0.5-0.75,0.5-1.21c0-0.45-0.17-0.88-0.5-1.21      c-0.32-0.33-0.75-0.5-1.21-0.5c-0.46,0-0.89,0.18-1.21,0.5c-0.33,0.32-0.5,0.75-0.5,1.21c0,0.41-0.23,0.76-0.58,0.93      c-0.14,0.07-0.29,0.11-0.46,0.11c-0.57,0-1.04-0.46-1.04-1.04c0-1.01,0.39-1.96,1.1-2.67c0.12-0.12,0.25-0.23,0.39-0.33      c0.66-0.5,1.45-0.77,2.29-0.77c0.64,0,1.26,0.16,1.8,0.46c0.32,0.17,0.61,0.39,0.87,0.65C67.95,57.59,68.34,58.54,68.34,59.54z"></path>
			</g>
		</g>
		<g>
			<g>
				<path d="M65.62,67.09c0,0.31-0.13,0.59-0.34,0.77c-0.19,0.18-0.44,0.28-0.72,0.28c-0.28,0-0.53-0.11-0.72-0.28      c-0.21-0.19-0.34-0.47-0.34-0.78c0-0.58,0.47-1.05,1.06-1.05C65.15,66.04,65.62,66.51,65.62,67.09z"></path>
			</g>
		</g>
	</g>
</g>
</svg>
