<?xml version="1.0" encoding="UTF-8"?>
<!-- Generator: Adobe Illustrator 26.0.1, SVG Export Plug-In . SVG Version: 6.00 Build 0)  -->
<svg xmlns="http://www.w3.org/2000/svg" xmlns:xlink="http://www.w3.org/1999/xlink" version="1.1" id="Layer_1" x="0px" y="0px" viewBox="0 0 100 100" style="enable-background:new 0 0 100 100;" xml:space="preserve">
<style type="text/css">
	.st0{opacity:0.5;fill:#FFFFFF;}
	.st1{fill:#9A0212;}
	.st2{fill:#210021;}
	.st3{fill:#FFFFFF;}
	.st4{fill:none;}
</style>
<rect class="st0" width="100" height="100"></rect>
<g>
	<g>
		<g>
			<path class="st1" d="M73.59,64.24c-2.47-7.48-4.94-14.96-7.4-22.43c-0.21-0.64-0.42-1.28-0.63-1.92     c-0.28-0.04-0.55-0.11-0.81-0.18c-0.64-0.18-1.23-0.47-1.77-0.82c0.27,0.82,0.54,1.64,0.81,2.46c2.86,8.7,5.73,17.39,8.6,26.09     c0.03,0.09,0.06,0.19,0.1,0.32c0,0.2-0.22,0.17-0.35,0.21c-2.3,0.77-4.61,1.53-6.91,2.29c-2.14,0.7-4.27,1.4-6.4,2.12     c-0.4,0.13-0.51,0.03-0.62-0.33c-4.33-13.16-8.66-26.31-13.01-39.47c-0.11-0.33-0.08-0.45,0.27-0.57     c4.46-1.46,8.92-2.93,13.36-4.41c0.34-0.11,0.43,0,0.52,0.29c0.09,0.28,0.18,0.55,0.27,0.83c0.27,0.82,0.54,1.63,0.81,2.45     c0.32-0.89,0.83-1.68,1.48-2.34c-0.21-0.64-0.42-1.28-0.63-1.92c-0.09-0.27-0.18-0.54-0.27-0.82c-0.32-0.96-0.78-1.2-1.74-0.88     c-4.81,1.59-9.62,3.17-14.43,4.76c-0.15,0.05-0.3,0.1-0.5,0.16c0-0.37,0.01-0.71,0-1.05c-0.02-0.68-0.41-1.08-1.08-1.14     c-0.14-0.01-0.29-0.01-0.44-0.01c-5.42,0-10.84,0-16.26,0c-1.17,0-1.5,0.32-1.5,1.5c0,14.64,0,29.28-0.01,43.93     c0,0.66,0.11,1.21,0.69,1.59h17.83c0.61-0.3,0.78-0.81,0.78-1.47c-0.01-11.95-0.01-23.9-0.01-35.85v-0.5     c0.03,0,0.06-0.01,0.08-0.01c0.52,1.59,1.05,3.18,1.58,4.77c3.52,10.68,7.04,21.36,10.55,32.04c0.14,0.44,0.39,0.76,0.75,1.02     h0.68c1.31-0.54,2.67-0.92,4.01-1.36c3.99-1.33,7.98-2.64,11.97-3.95c0.42-0.14,0.72-0.4,0.97-0.74v-0.68     C74.41,66.92,74.03,65.57,73.59,64.24z M42.21,72.29c0,0.39-0.07,0.51-0.49,0.51c-4.69-0.02-9.38-0.02-14.07,0     c-0.37,0-0.45-0.08-0.45-0.45c0.01-6.98,0.01-13.96,0.01-20.94c0-6.93,0.01-13.86-0.01-20.8c0-0.48,0.13-0.57,0.58-0.56     c4.64,0.02,9.28,0.01,13.93,0c0.4,0,0.51,0.1,0.51,0.51C42.2,44.47,42.2,58.38,42.21,72.29z"></path>
			<path d="M34.69,61.99c-2.17,0-3.97,1.8-3.96,3.97c0.01,2.16,1.77,3.92,3.93,3.93c2.19,0.01,3.97-1.74,3.97-3.94     C38.65,63.78,36.87,61.99,34.69,61.99z M34.7,67.75c-1.01,0-1.84-0.82-1.83-1.82c0.01-0.98,0.83-1.8,1.81-1.8     c1-0.01,1.82,0.82,1.81,1.83C36.49,66.97,35.7,67.75,34.7,67.75z"></path>
			<path class="st1" d="M64.35,52.6c-1.49-4.51-2.98-9.03-4.46-13.54c-0.12-0.36-0.24-0.71-0.35-1.07     c-0.45-1.36-0.89-2.71-1.34-4.06c-0.14-0.41-0.27-0.82-0.41-1.22c-0.23-0.71-0.72-1.04-1.36-0.84c-2.18,0.7-4.36,1.42-6.54,2.15     c-0.46,0.16-0.69,0.52-0.69,1.1c-0.01,0.13,0.07,0.33,0.14,0.52c2.17,6.59,4.34,13.18,6.52,19.77c0.3,0.89,0.78,1.15,1.67,0.85     c2-0.66,3.99-1.32,5.99-1.97C64.41,53.98,64.65,53.5,64.35,52.6z M61.82,52.59c-1.3,0.44-2.61,0.86-3.92,1.3     c-0.34,0.11-0.33-0.15-0.39-0.33c-0.77-2.32-1.53-4.64-2.3-6.96c-1.15-3.49-2.3-6.98-3.46-10.46c-0.12-0.36-0.07-0.48,0.3-0.6     c1.22-0.37,2.43-0.79,3.64-1.2c0.24-0.08,0.36-0.08,0.45,0.2c1.93,5.89,3.88,11.77,5.82,17.66c0.01,0.05,0.03,0.1,0.04,0.15     C62.1,52.54,61.92,52.55,61.82,52.59z"></path>
			<path class="st1" d="M63.33,59.76c-2.16-0.02-3.97,1.77-3.98,3.95c-0.01,2.18,1.77,3.97,3.95,3.97c2.16,0,3.94-1.76,3.95-3.92     C67.27,61.57,65.52,59.79,63.33,59.76z M63.28,65.53c-0.99-0.01-1.78-0.82-1.78-1.81c0-1.01,0.83-1.84,1.83-1.82     c0.98,0.01,1.78,0.82,1.78,1.81C65.11,64.73,64.29,65.55,63.28,65.53z"></path>
		</g>
		<path class="st4" d="M67.44,37.55c0,0.25-0.11,0.47-0.27,0.62c-0.15,0.14-0.35,0.23-0.58,0.23c-0.22,0-0.43-0.08-0.58-0.23    c-0.17-0.16-0.27-0.38-0.27-0.63c0-0.47,0.38-0.85,0.85-0.85C67.06,36.7,67.44,37.08,67.44,37.55z"></path>
		<path class="st4" d="M69.64,31.47c0,0.82-0.31,1.58-0.89,2.16c-0.2,0.2-0.42,0.37-0.67,0.5c-0.01,0.01-0.03,0.01-0.04,0.03    c-0.39,0.23-0.62,0.62-0.62,1.03v0.12c0,0.46-0.38,0.84-0.83,0.84c-0.46,0-0.83-0.37-0.83-0.84v-0.12c0-1.03,0.58-2,1.51-2.52    c0.11-0.06,0.21-0.14,0.3-0.23c0.26-0.26,0.4-0.61,0.4-0.98c0-0.37-0.14-0.71-0.4-0.97c-0.26-0.26-0.61-0.41-0.97-0.41    c-0.37,0-0.72,0.14-0.98,0.41c-0.26,0.26-0.4,0.61-0.4,0.97c0,0.33-0.19,0.61-0.47,0.75c-0.11,0.06-0.24,0.09-0.37,0.09    c-0.46,0-0.83-0.37-0.83-0.84c0-0.81,0.31-1.58,0.89-2.15c0.1-0.1,0.2-0.19,0.31-0.27c0.53-0.41,1.17-0.62,1.85-0.62    c0.51,0,1.01,0.13,1.45,0.37c0.25,0.14,0.49,0.31,0.7,0.52C69.32,29.89,69.64,30.65,69.64,31.47z"></path>
		<path class="st4" d="M25,25v50h50V25H25z M68.04,27.01C68.04,27.01,68.04,27.01,68.04,27.01c0.67,0.15,1.29,0.4,1.86,0.74    c1.16,0.68,2.1,1.71,2.66,2.95c0.38,0.83,0.59,1.75,0.59,2.72c0,0.97-0.21,1.88-0.59,2.71c-0.08,0.18-0.18,0.37-0.28,0.54    c-0.32,0.56-0.72,1.06-1.18,1.5c-0.37,0.35-0.77,0.66-1.21,0.91c-0.57,0.34-1.2,0.59-1.86,0.74c-0.47,0.11-0.95,0.16-1.45,0.16    c-0.35,0-0.69-0.03-1.03-0.08c-0.28-0.04-0.55-0.11-0.81-0.18c-0.64-0.18-1.23-0.47-1.77-0.82c-0.03-0.02-0.06-0.04-0.09-0.06    c-0.29-0.19-0.56-0.41-0.81-0.65c-0.53-0.5-0.97-1.08-1.31-1.73c-0.47-0.91-0.74-1.94-0.74-3.03c0-0.79,0.14-1.55,0.4-2.26    c0.32-0.89,0.83-1.68,1.48-2.34c0.3-0.31,0.62-0.58,0.98-0.82c0.56-0.38,1.19-0.68,1.85-0.88c0.59-0.17,1.2-0.27,1.85-0.27    C67.09,26.85,67.57,26.9,68.04,27.01z"></path>
	</g>
	<g>
		<path d="M67.44,37.55c0,0.25-0.11,0.47-0.27,0.62c-0.15,0.14-0.35,0.23-0.58,0.23c-0.22,0-0.43-0.08-0.58-0.23    c-0.17-0.16-0.27-0.38-0.27-0.63c0-0.47,0.38-0.85,0.85-0.85C67.06,36.7,67.44,37.08,67.44,37.55z"></path>
		<path d="M69.64,31.47c0,0.82-0.31,1.58-0.89,2.16c-0.2,0.2-0.42,0.37-0.67,0.5c-0.01,0.01-0.03,0.01-0.04,0.03    c-0.39,0.23-0.62,0.62-0.62,1.03v0.12c0,0.46-0.38,0.84-0.83,0.84c-0.46,0-0.83-0.37-0.83-0.84v-0.12c0-1.03,0.58-2,1.51-2.52    c0.11-0.06,0.21-0.14,0.3-0.23c0.26-0.26,0.4-0.61,0.4-0.98c0-0.37-0.14-0.71-0.4-0.97c-0.26-0.26-0.61-0.41-0.97-0.41    c-0.37,0-0.72,0.14-0.98,0.41c-0.26,0.26-0.4,0.61-0.4,0.97c0,0.33-0.19,0.61-0.47,0.75c-0.11,0.06-0.24,0.09-0.37,0.09    c-0.46,0-0.83-0.37-0.83-0.84c0-0.81,0.31-1.58,0.89-2.15c0.1-0.1,0.2-0.19,0.31-0.27c0.53-0.41,1.17-0.62,1.85-0.62    c0.51,0,1.01,0.13,1.45,0.37c0.25,0.14,0.49,0.31,0.7,0.52C69.32,29.89,69.64,30.65,69.64,31.47z"></path>
		<path d="M72.56,27.49c-0.76-0.76-1.66-1.39-2.66-1.81C68.88,25.24,67.77,25,66.59,25c-1.33,0-2.58,0.31-3.7,0.86    c-0.58,0.28-1.12,0.63-1.61,1.03c-0.64,0.52-1.2,1.13-1.66,1.81c-0.91,1.34-1.44,2.96-1.44,4.71c0,0.17,0,0.34,0.02,0.51    c0.08,1.49,0.57,2.88,1.34,4.06c0.82,1.27,1.99,2.3,3.35,2.97c0.29,0.14,0.59,0.27,0.9,0.38c0.76,0.27,1.56,0.43,2.4,0.47    c0.13,0.01,0.27,0.01,0.4,0.01c1.17,0,2.29-0.24,3.31-0.68c1-0.43,1.91-1.05,2.66-1.82C74.07,37.8,75,35.72,75,33.41    C75,31.11,74.07,29.02,72.56,27.49z M72.28,36.67c-0.32,0.56-0.72,1.06-1.18,1.5c-0.37,0.35-0.77,0.66-1.21,0.91    c-0.57,0.34-1.2,0.59-1.86,0.74c-0.47,0.11-0.95,0.16-1.45,0.16c-0.35,0-0.69-0.03-1.03-0.08c-0.28-0.04-0.55-0.11-0.81-0.18    c-0.64-0.18-1.23-0.47-1.77-0.82c-0.03-0.02-0.06-0.04-0.09-0.06c-0.29-0.19-0.56-0.41-0.81-0.65c-0.53-0.5-0.97-1.08-1.31-1.73    c-0.47-0.91-0.74-1.94-0.74-3.03c0-0.79,0.14-1.55,0.4-2.26c0.32-0.89,0.83-1.68,1.48-2.34c0.3-0.31,0.62-0.58,0.98-0.82    c0.56-0.38,1.19-0.68,1.85-0.88c0.59-0.17,1.2-0.27,1.85-0.27c0.5,0,0.98,0.06,1.45,0.16c0,0,0,0,0,0    c0.66,0.15,1.29,0.4,1.85,0.74c1.16,0.68,2.1,1.71,2.66,2.95c0.38,0.83,0.59,1.75,0.59,2.72c0,0.97-0.21,1.88-0.59,2.71    C72.48,36.31,72.39,36.49,72.28,36.67z"></path>
	</g>
	<g>
		<path d="M37.74,58.14h-6.07c-0.93,0-1.69-0.76-1.69-1.69V35.09c0-0.93,0.76-1.69,1.69-1.69h6.07c0.93,0,1.69,0.76,1.69,1.69v21.36    C39.43,57.38,38.67,58.14,37.74,58.14z M32.2,55.92h5.02v-20.3H32.2V55.92z"></path>
	</g>
</g>
</svg>
