<?xml version="1.0" encoding="UTF-8"?>
<!-- Generator: Adobe Illustrator 26.0.1, SVG Export Plug-In . SVG Version: 6.00 Build 0)  -->
<svg xmlns="http://www.w3.org/2000/svg" xmlns:xlink="http://www.w3.org/1999/xlink" version="1.1" id="Layer_1" x="0px" y="0px" viewBox="0 0 100 100" style="enable-background:new 0 0 100 100;" xml:space="preserve">
<style type="text/css">
	.st0{opacity:0.5;fill:#FFFFFF;}
	.st1{fill:#9A0212;}
	.st2{fill:#210021;}
	.st3{fill:#FFFFFF;}
	.st4{fill:none;}
</style>
<rect class="st0" width="100" height="100"></rect>
<g>
	<g>
		<path class="st1" d="M63.8,52.28c-0.12,0.09-0.23,0.19-0.34,0.29c-0.63,0.63-0.97,1.46-0.97,2.35c0,0.5,0.41,0.91,0.91,0.91    c0.15,0,0.28-0.03,0.4-0.1C63.8,54.59,63.8,53.44,63.8,52.28z M71.34,34.86c-3.07-1.16-6.13-2.31-9.2-3.47    c-4.29-1.61-8.57-3.23-12.86-4.85c-0.06-0.02-0.11-0.04-0.17-0.06c-0.11-0.04-0.22-0.06-0.33-0.07c-0.26-0.02-0.51,0.01-0.79,0.12    c-7.36,2.79-14.73,5.56-22.1,8.34c-0.39,0.15-0.67,0.38-0.89,0.72v6.27c0.04,0.06,0.08,0.13,0.12,0.18    c0.04,0.06,0.08,0.11,0.13,0.15c0.04,0.04,0.08,0.07,0.12,0.11c0,0,0,0,0,0c0.02,0.02,0.04,0.03,0.07,0.05    c0.07,0.04,0.14,0.08,0.22,0.11c0.04,0.02,0.08,0.03,0.12,0.04c0.05,0.02,0.1,0.03,0.15,0.04c0.15,0.03,0.31,0.04,0.48,0.03    c0.45-0.02,1.04-0.2,1.33,0.08c0.1,0.11,0.14,0.27,0.14,0.45c0,0.06,0,0.14-0.01,0.21c0,0.06-0.01,0.11-0.02,0.17    c0,0.05-0.01,0.11-0.02,0.16c-0.01,0.06-0.02,0.13-0.02,0.19c0,0.04,0,0.08,0,0.12c0,5.42,0,10.84,0,16.26h2.03    c0-3.83,0.01-7.65,0-11.48c0-0.04,0-0.07,0-0.1c0-0.03,0-0.06,0-0.08c0-0.03,0-0.06,0.01-0.09c0-0.03,0.01-0.05,0.02-0.08    c0.01-0.02,0.02-0.04,0.03-0.05c0-0.01,0.01-0.02,0.02-0.02c0-0.01,0.01-0.02,0.02-0.02c0.01-0.02,0.03-0.03,0.04-0.04    c0.03-0.02,0.07-0.04,0.13-0.04c0.02,0,0.03-0.01,0.05-0.01c0.03,0,0.07-0.01,0.12-0.01h0.07c0.86,0.04,1.72,0.04,2.58,0h0.07    c0.04,0,0.08,0,0.11,0.01c0.02,0,0.05,0,0.07,0.01c0.02,0,0.05,0.01,0.07,0.02c0.02,0.01,0.04,0.02,0.05,0.03    c0.02,0.01,0.02,0.02,0.04,0.04c0.02,0.02,0.03,0.04,0.04,0.06c0.01,0.01,0.01,0.02,0.01,0.02c0,0,0.01,0.01,0.01,0.02    c0.01,0.02,0.01,0.03,0.01,0.05c0.01,0.03,0.01,0.06,0.01,0.08c0,0.01,0.01,0.03,0,0.04c0,0.02,0,0.03,0,0.05c0,0.03,0,0.06,0,0.1    c-0.01,2.3-0.01,4.6-0.01,6.89c0,1.53,0,3.06,0,4.59c0.68,0,1.35,0,2.03,0c0-3.84,0.01-7.68-0.01-11.52c0-0.1,0-0.18,0.02-0.24    c0.01-0.07,0.03-0.12,0.07-0.16c0.04-0.04,0.08-0.07,0.15-0.08c0.02,0,0.04-0.01,0.06-0.01c0.02,0,0.05-0.01,0.08-0.01    c0.04,0,0.07,0,0.12,0c2.78,0.02,5.56,0.02,8.34,0c0.04,0,0.09,0,0.13,0c0.02,0,0.03,0,0.04,0c0.06,0.01,0.12,0.02,0.16,0.04    c0.01,0.01,0.02,0.02,0.04,0.02c0.02,0.01,0.03,0.02,0.04,0.04c0.01,0.01,0.02,0.02,0.02,0.04c0.01,0.01,0.01,0.02,0.02,0.03    c0.02,0.04,0.03,0.1,0.04,0.16c0,0.02,0,0.04,0,0.06c0,0.01,0,0.02,0,0.03c0,0.02,0,0.05,0,0.08c-0.02,3.84-0.01,7.67-0.01,11.51    h2.03v-4.6c0-1.15,0-2.3,0-3.45c0-1.15,0-2.3,0-3.45c0-0.06,0-0.11,0-0.15c0-0.06,0.02-0.12,0.03-0.17    c0.01-0.02,0.02-0.04,0.03-0.06c0.01-0.01,0.02-0.02,0.03-0.04c0.01-0.02,0.02-0.02,0.03-0.03c0.01-0.01,0.02-0.02,0.04-0.02    c0.01-0.01,0.03-0.02,0.05-0.02c0.02-0.01,0.05-0.02,0.08-0.02c0.05-0.01,0.12-0.01,0.19-0.01c0.89,0.04,1.78,0.03,2.67,0    c0.38-0.01,0.45,0.12,0.45,0.47c-0.01,3.85-0.01,7.7-0.01,11.56h2.03c0-3.84,0.01-7.67-0.01-11.51c0-0.4,0.08-0.52,0.5-0.51    c2.8,0.02,5.59,0.02,8.38,0c0.38,0,0.45,0.11,0.45,0.46v0.17c0,0.77,0,1.55,0,2.33c0.61-0.42,1.3-0.75,2.03-0.96    c0-0.51,0-1.02,0-1.54c0-0.35,0.06-0.48,0.44-0.47c0.23,0.01,0.46,0.02,0.68,0.02c0.45,0.01,0.9,0.01,1.35,0    c0.23,0,0.46-0.01,0.69-0.02c0.38-0.01,0.45,0.13,0.45,0.47c0,0.48,0,0.95,0,1.42c0,0,0,0,0,0c0.72,0.17,1.4,0.44,2.03,0.8    c0-0.75,0-1.51,0-2.26c0-1.84,0-3.68-0.01-5.52c0-0.46,0.13-0.58,0.56-0.54c0.41,0.04,0.83,0.02,1.24,0    c0.65-0.04,1.01-0.44,1.02-1.08c0.01-1.83,0.01-3.66,0-5.49C72.24,35.39,72,35.11,71.34,34.86z M48.63,46.15    c-4.26,0-8.52,0-12.78,0c-1.83,0-3.66,0-5.48,0c-0.06,0-0.11,0-0.15,0c-0.02,0-0.04,0-0.06-0.01c-0.02,0-0.03,0-0.05-0.01    c-0.03-0.01-0.06-0.02-0.09-0.03c-0.02-0.01-0.05-0.02-0.07-0.04c-0.02-0.01-0.03-0.02-0.04-0.04c0,0,0,0,0,0    c-0.01-0.02-0.02-0.03-0.03-0.05c-0.01-0.02-0.02-0.04-0.02-0.06c-0.01-0.02-0.01-0.04-0.02-0.07c-0.01-0.06-0.01-0.13-0.01-0.2    c0.04-0.88,0.03-1.75,0-2.63c0-0.05,0-0.09,0-0.13c0-0.02,0-0.04,0-0.06c0-0.02,0-0.05,0.01-0.07c0-0.02,0.01-0.04,0.02-0.05    c0-0.01,0-0.02,0.01-0.02c0,0,0,0,0-0.01c0-0.02,0.02-0.03,0.03-0.04c0.02-0.02,0.04-0.03,0.06-0.04    c0.01-0.01,0.03-0.02,0.04-0.02c0,0,0.01,0,0.02,0c0.02-0.01,0.05-0.01,0.08-0.02c0.02,0,0.05,0,0.08,0c0.03,0,0.06,0,0.09,0    c1.18,0.03,2.36,0.01,3.55,0.01c5.5,0,11.01,0,16.51,0c5.5,0,11,0,16.51-0.01c0.44,0,0.58,0.09,0.56,0.54    c-0.04,0.84-0.04,1.69,0,2.53c0,0.1,0,0.18-0.01,0.25c-0.01,0.04-0.02,0.08-0.04,0.12c-0.01,0.02-0.02,0.04-0.03,0.05    c-0.01,0.02-0.02,0.03-0.04,0.04c-0.01,0.01-0.03,0.02-0.04,0.02c-0.02,0.01-0.04,0.02-0.06,0.02c-0.05,0.02-0.11,0.03-0.18,0.03    c-0.05,0-0.1,0-0.16,0c-1.82,0-3.64,0-5.47,0C57.13,46.15,52.88,46.15,48.63,46.15z M69.73,40.54    c-7.04-0.01-14.08-0.01-21.12-0.01c-7.02,0-14.05,0-21.07,0.01c-0.43,0-0.53-0.11-0.52-0.52c0.03-1.01,0.02-2.03,0-3.04    c0-0.24,0.04-0.38,0.3-0.47c7.01-2.63,14.01-5.28,21.02-7.93c0.2-0.08,0.37-0.08,0.57,0c6.99,2.64,13.98,5.29,20.98,7.92    c0.27,0.1,0.33,0.23,0.33,0.5c-0.01,1.03-0.03,2.06,0,3.09C70.23,40.47,70.11,40.54,69.73,40.54z M63.8,52.28    c-0.12,0.09-0.23,0.19-0.34,0.29c-0.63,0.63-0.97,1.46-0.97,2.35c0,0.5,0.41,0.91,0.91,0.91c0.15,0,0.28-0.03,0.4-0.1    C63.8,54.59,63.8,53.44,63.8,52.28z M68.17,52.58c-0.23-0.23-0.49-0.42-0.77-0.57c0,1.95,0,3.91,0,5.86    c0.01-0.01,0.03-0.02,0.04-0.03c0.27-0.15,0.51-0.33,0.73-0.55c0.63-0.63,0.97-1.46,0.97-2.36C69.14,54.04,68.8,53.21,68.17,52.58    z"></path>
		<path class="st1" d="M72.21,72.32c-0.14-0.53-0.52-0.76-1.25-0.76c-0.37,0-0.74-0.02-1.11,0.01c-0.34,0.03-0.43-0.08-0.43-0.42    c0.01-1.88,0.01-3.76,0.01-5.64c0-0.75,0-1.5,0-2.26c-0.62,0.37-1.31,0.64-2.03,0.8c0,0.51,0,1.02,0.01,1.53    c0,0.28-0.06,0.37-0.36,0.36c-0.97-0.02-1.94-0.02-2.91,0c-0.29,0.01-0.36-0.08-0.35-0.36c0.01-0.55,0.01-1.1,0.01-1.65    c-0.73-0.21-1.42-0.54-2.03-0.96c0,0.78-0.01,1.55,0,2.33c0,0.09,0,0.19,0,0.28c0,0.03,0,0.05,0,0.07c0,0.02,0,0.04,0,0.06    c0,0.04-0.01,0.08-0.03,0.11c-0.01,0.02-0.02,0.03-0.03,0.04c-0.02,0.02-0.03,0.03-0.05,0.04c-0.02,0.01-0.04,0.02-0.06,0.02    c-0.02,0-0.05,0.01-0.08,0.01c-0.03,0-0.06,0-0.1,0c-2.87-0.01-5.75-0.01-8.63,0c-0.03,0-0.06,0-0.09,0    c-0.03,0-0.06-0.01-0.08-0.01c-0.02,0-0.03-0.01-0.04-0.01c-0.02-0.01-0.04-0.02-0.06-0.04c-0.01-0.01-0.02-0.03-0.03-0.04    c-0.02-0.03-0.02-0.07-0.03-0.11c0-0.02,0-0.04,0-0.06c0-0.02,0-0.05,0-0.07c0.01-1.11,0-2.22,0-3.32c-0.68,0-1.35,0-2.03,0    c0,0.55,0,1.11,0,1.66c0,0.55,0,1.11,0.01,1.66c0,0.28-0.06,0.36-0.36,0.36c-0.97-0.02-1.94-0.02-2.91,0    c-0.29,0.01-0.36-0.08-0.35-0.36c0.02-1.11,0-2.22,0-3.32c-0.67,0-1.35,0-2.03,0c0,1.11-0.01,2.21,0,3.32c0,0.02,0,0.05,0,0.07    c0,0.02,0,0.04,0,0.06c0,0.06-0.02,0.1-0.04,0.13c0,0.01-0.01,0.02-0.02,0.03c-0.03,0.03-0.06,0.04-0.11,0.06    c-0.02,0-0.05,0.01-0.08,0.01c-0.03,0-0.06,0-0.1,0c-2.87-0.01-5.75-0.01-8.62,0c-0.29,0-0.36-0.08-0.36-0.36    c0.02-1.11,0-2.21,0-3.32c-0.67,0-1.35,0-2.03,0c0,1.11-0.01,2.21,0,3.32c0,0.28-0.06,0.37-0.35,0.36c-0.97-0.02-1.94-0.02-2.91,0    c-0.29,0.01-0.36-0.08-0.36-0.36c0.02-1.11,0-2.21,0-3.32h-2.03c0,2.94-0.01,5.88,0.01,8.82c0,0.04,0,0.08,0,0.11    c0,0.02,0,0.03,0,0.05c-0.01,0.1-0.03,0.17-0.07,0.23c-0.03,0.03-0.06,0.06-0.11,0.08c-0.01,0-0.02,0.01-0.03,0.01    c-0.02,0.01-0.03,0.01-0.05,0.01c-0.06,0.01-0.14,0.01-0.23,0c-0.06-0.01-0.13-0.01-0.2-0.01c-0.21,0-0.42,0.02-0.63,0    c-0.36-0.04-0.67,0-0.95,0.14c-0.1,0.05-0.2,0.12-0.29,0.21c-0.09,0.08-0.17,0.19-0.25,0.3v0.74c0.21,0.21,0.43,0.43,0.65,0.65    h45.86C72.1,73.24,72.34,72.81,72.21,72.32z M67.41,71.12c0.01,0.37-0.1,0.45-0.46,0.45c-6.12-0.01-12.23-0.01-18.35-0.01    c-6.09,0-12.17,0-18.26,0.01c-0.09,0-0.17,0-0.24-0.02c-0.03-0.01-0.06-0.02-0.08-0.02c0,0-0.01,0-0.02-0.01    c-0.02,0-0.03-0.01-0.04-0.02c0,0-0.01,0-0.01-0.01c-0.02-0.02-0.04-0.03-0.05-0.05c-0.02-0.03-0.03-0.06-0.04-0.1    c-0.01-0.02-0.01-0.04-0.01-0.08c-0.01-0.05-0.01-0.11-0.01-0.19c0.04-0.89,0.03-1.78,0-2.68c0-0.04,0-0.08,0-0.12    c0-0.02,0-0.03,0-0.04c0-0.05,0.02-0.1,0.04-0.13c0-0.01,0.01-0.02,0.02-0.03c0.01-0.02,0.02-0.03,0.04-0.04    c0.06-0.06,0.18-0.08,0.36-0.08c3.46,0.01,6.92,0.01,10.37,0.01c0.31,0,0.63,0,0.94,0c0.02,0,0.03,0,0.05,0c0.02,0,0.03,0,0.04,0    c0,0,0,0,0.01,0c0.01,0,0.03,0,0.04,0h0c0,0,0,0,0.01,0h0c0.01,0,0.03,0,0.04,0c0,0,0,0,0.01,0c0,0,0,0,0.01,0c0,0,0,0,0.01,0    c0.01,0,0.03,0,0.04,0h0c0,0,0,0,0.01,0c0,0,0,0,0.01,0c0,0,0,0,0.01,0h0c0.01,0,0.03,0,0.04,0c0,0,0,0,0.01,0c0,0,0,0,0.01,0    c0,0,0,0,0.01,0c0,0,0,0,0.01,0c0,0,0,0,0.01,0c0.01,0,0.03,0,0.04,0h0c0,0,0,0,0.01,0c0,0,0,0,0.01,0c0,0,0,0,0.01,0    c0,0,0,0,0.01,0c0,0,0,0,0.01,0h0c0.01,0,0.03,0,0.04,0h0c0,0,0,0,0.01,0c0,0,0,0,0.01,0c0,0,0,0,0.01,0c0,0,0.01,0,0.02,0    c0,0,0,0,0.01,0c0,0,0,0,0.01,0c0,0,0,0,0.01,0h0c0.01,0,0.02,0,0.03,0c0,0,0,0,0.01,0c0,0,0,0,0.01,0c0,0,0,0,0.01,0    c0,0,0,0,0.01,0c0,0,0,0,0.01,0c0,0,0.01,0,0.02,0c0,0,0,0,0.01,0c0,0,0,0,0.01,0c0,0,0,0,0.01,0c0,0,0,0,0.01,0h0    c0.01,0,0.02,0,0.03,0h0c0,0,0,0,0.01,0c0,0,0,0,0.01,0c0,0,0,0,0.01,0c0,0,0,0,0.01,0c0,0,0.01,0,0.02,0c0,0,0.01,0,0.02,0    c0,0,0.01,0,0.02,0c0,0,0,0,0.01,0c0,0,0,0,0.01,0c0,0,0,0,0.01,0c0,0,0,0,0.01,0h0c0.01,0,0.02,0,0.02,0h0c0,0,0,0,0.01,0    c0,0,0,0,0.01,0c0,0,0,0,0.01,0c0,0,0,0,0.01,0c0,0,0.01,0,0.01,0c0,0,0.01,0,0.02,0h0c0,0,0.01,0,0.02,0h0c0,0,0.01,0,0.02,0    c0,0,0,0,0.01,0c0,0,0,0,0.01,0c0,0,0,0,0.01,0c0,0,0,0,0.01,0c0,0,0,0,0.01,0c0,0,0.01,0,0.02,0c0,0,0,0,0.01,0c0,0,0,0,0.01,0    c0,0,0,0,0.01,0c0,0,0,0,0.01,0c0,0,0,0,0.01,0c0,0,0.01,0,0.01,0c0,0,0.01,0,0.02,0c0.01,0,0.01,0,0.02,0h16.24    c1.32,0,2.64,0,3.97,0c1.32,0,2.64,0,3.97,0c0.4,0,0.52,0.08,0.5,0.5C67.37,69.34,67.38,70.23,67.41,71.12z"></path>
		<path d="M27.81,62.26c-0.51-0.01-1.01-0.03-1.52-0.01c-0.6,0.03-1.04-0.19-1.29-0.74c0-0.18,0-0.37,0-0.55    c0.25-0.55,0.69-0.78,1.29-0.75c0.51,0.03,1.01,0,1.52-0.01c0.68,0,1.35,0,2.03,0c1.2,0,2.4,0,3.6,0c0.68,0,1.35,0,2.03,0    c0.56,0.01,1.13,0.01,1.69,0.02c0.68,0.01,1.12,0.41,1.12,1.01c0,0.6-0.44,1-1.12,1.02c-0.56,0.01-1.13,0.01-1.69,0.02    c-0.68,0-1.35,0-2.03,0c-1.2,0-2.4,0-3.6,0C29.17,62.26,28.49,62.26,27.81,62.26z"></path>
		<path d="M46.82,60.2c1.2,0,2.4,0,3.6,0c0.68,0,1.35,0,2.03,0c0.57,0,1.13,0.01,1.7,0.02c0.68,0.01,1.12,0.41,1.12,1.01    c0,0.6-0.44,1-1.12,1.02c-0.57,0.01-1.13,0.01-1.7,0.02c-0.68,0-1.35,0-2.03,0c-1.2,0-2.4,0-3.6,0c-0.68,0-1.35,0-2.03-0.01    c-0.57,0-1.13,0-1.7-0.02c-0.68-0.01-1.12-0.42-1.12-1.02c0-0.6,0.44-1,1.12-1.01c0.57-0.01,1.13-0.01,1.7-0.02    C45.47,60.2,46.15,60.2,46.82,60.2z"></path>
		<path d="M60.89,62.25c-0.27,0-0.54-0.01-0.81-0.01c-0.68-0.01-1.12-0.42-1.12-1.02c0-0.04,0-0.09,0.01-0.13    c0.01-0.06,0.02-0.13,0.04-0.18c0.02-0.07,0.05-0.14,0.09-0.2c0.02-0.04,0.04-0.07,0.07-0.1c0.01-0.02,0.03-0.04,0.04-0.05    c0.01-0.02,0.02-0.03,0.04-0.04c0.03-0.03,0.06-0.06,0.09-0.08h0c0.04-0.02,0.07-0.05,0.11-0.07    C59.83,61.07,60.31,61.71,60.89,62.25z"></path>
		<path d="M66.74,61.58c0,0.27-0.12,0.52-0.3,0.68c-0.42,0-0.84,0-1.26,0c-0.18-0.17-0.3-0.42-0.3-0.69c0-0.51,0.42-0.93,0.93-0.93    C66.33,60.65,66.74,61.06,66.74,61.58z"></path>
		<path d="M72.24,61.21c0.02,0.6-0.43,1.02-1.1,1.04c-0.13,0-0.26,0-0.39,0c0.5-0.47,0.94-1.02,1.29-1.63    c0.04,0.04,0.07,0.09,0.09,0.15c0.02,0.04,0.04,0.08,0.05,0.13c0.02,0.04,0.03,0.09,0.04,0.15    C72.23,61.08,72.24,61.15,72.24,61.21z"></path>
		<path d="M48.6,31.37c-1.93,0.02-3.39,1.5-3.4,3.44c0,1.85,1.54,3.38,3.42,3.38c1.88,0,3.43-1.53,3.42-3.38    C52.03,32.85,50.54,31.35,48.6,31.37z M49.98,35.08c0,0.03-0.01,0.06-0.02,0.1c-0.02,0.09-0.06,0.18-0.1,0.26    c-0.06,0.12-0.14,0.22-0.23,0.31c-0.03,0.03-0.06,0.06-0.1,0.09c-0.07,0.06-0.14,0.1-0.22,0.15c-0.08,0.04-0.16,0.08-0.25,0.11    c-0.13,0.04-0.27,0.06-0.42,0.06c-0.8,0-1.4-0.59-1.4-1.39c0-0.37,0.16-0.71,0.41-0.96c0.06-0.06,0.13-0.12,0.21-0.17    c0.06-0.04,0.12-0.08,0.19-0.1c0.02-0.01,0.05-0.02,0.08-0.04c0.02-0.01,0.03-0.01,0.04-0.02c0.02-0.01,0.04-0.02,0.07-0.02    c0,0,0,0,0.01,0c0.12-0.04,0.25-0.06,0.38-0.06c0.1,0,0.19,0.01,0.28,0.03c0.03,0,0.05,0.01,0.08,0.02c0.02,0,0.05,0.01,0.08,0.02    c0.05,0.02,0.1,0.04,0.15,0.06c0.04,0.02,0.09,0.04,0.14,0.07c0.03,0.02,0.06,0.04,0.08,0.06c0.05,0.03,0.09,0.07,0.14,0.11    c0.03,0.02,0.05,0.05,0.08,0.08c0.1,0.11,0.19,0.23,0.25,0.37c0.02,0.04,0.04,0.09,0.06,0.14c0.02,0.06,0.03,0.11,0.04,0.17    C49.99,34.56,50,34.6,50,34.63c0,0.04,0.01,0.08,0.01,0.11C50.01,34.86,50,34.98,49.98,35.08z"></path>
	</g>
	<g>
		<g>
			<path class="st3" d="M66.74,61.58c0,0.27-0.12,0.52-0.3,0.68c-0.17,0.16-0.39,0.25-0.63,0.25c-0.24,0-0.47-0.09-0.63-0.25     c-0.18-0.17-0.3-0.42-0.3-0.69c0-0.51,0.42-0.93,0.93-0.93C66.33,60.65,66.74,61.06,66.74,61.58z"></path>
			<path class="st3" d="M69.14,54.93c0,0.89-0.34,1.73-0.97,2.36c-0.22,0.21-0.46,0.4-0.73,0.55c-0.01,0.01-0.03,0.02-0.04,0.03     c-0.42,0.25-0.67,0.67-0.67,1.13v0.13c0,0.5-0.41,0.91-0.91,0.91c-0.5,0-0.91-0.41-0.91-0.91v-0.13c0-1.13,0.63-2.18,1.65-2.75     c0.12-0.07,0.23-0.15,0.33-0.25c0.29-0.28,0.44-0.66,0.44-1.07c0-0.4-0.15-0.78-0.44-1.06c-0.28-0.29-0.66-0.44-1.06-0.44     c-0.4,0-0.78,0.16-1.07,0.44c-0.29,0.28-0.44,0.66-0.44,1.06c0,0.36-0.21,0.67-0.51,0.82c-0.12,0.06-0.26,0.1-0.4,0.1     c-0.5,0-0.91-0.41-0.91-0.91c0-0.89,0.34-1.72,0.97-2.35c0.11-0.11,0.22-0.21,0.34-0.29c0.58-0.44,1.28-0.68,2.02-0.68     c0.56,0,1.11,0.14,1.59,0.4c0.28,0.15,0.54,0.34,0.77,0.57C68.8,53.21,69.14,54.04,69.14,54.93z"></path>
			<path d="M59.46,60.37c-0.04,0.02-0.08,0.04-0.11,0.07h0c-0.03,0.03-0.06,0.06-0.09,0.08c-0.02,0.02-0.03,0.03-0.04,0.04     c-0.02,0.01-0.03,0.03-0.04,0.05c-0.02,0.03-0.05,0.06-0.07,0.1c-0.04,0.06-0.06,0.13-0.09,0.2c-0.02,0.06-0.03,0.12-0.04,0.18     c0,0.04-0.01,0.09-0.01,0.13c0,0.6,0.44,1,1.12,1.02c0.27,0,0.54,0.01,0.81,0.01C60.31,61.71,59.83,61.07,59.46,60.37z      M59.46,60.37c-0.04,0.02-0.08,0.04-0.11,0.07h0c-0.03,0.03-0.06,0.06-0.09,0.08c-0.02,0.02-0.03,0.03-0.04,0.04     c-0.02,0.01-0.03,0.03-0.04,0.05c-0.02,0.03-0.05,0.06-0.07,0.1c-0.04,0.06-0.06,0.13-0.09,0.2c-0.02,0.06-0.03,0.12-0.04,0.18     c0,0.04-0.01,0.09-0.01,0.13c0,0.6,0.44,1,1.12,1.02c0.27,0,0.54,0.01,0.81,0.01C60.31,61.71,59.83,61.07,59.46,60.37z      M59.46,60.37c-0.04,0.02-0.08,0.04-0.11,0.07h0c-0.03,0.03-0.06,0.06-0.09,0.08c-0.02,0.02-0.03,0.03-0.04,0.04     c-0.02,0.01-0.03,0.03-0.04,0.05c-0.02,0.03-0.05,0.06-0.07,0.1c-0.04,0.06-0.06,0.13-0.09,0.2c-0.02,0.06-0.03,0.12-0.04,0.18     c0,0.04-0.01,0.09-0.01,0.13c0,0.6,0.44,1,1.12,1.02c0.27,0,0.54,0.01,0.81,0.01C60.31,61.71,59.83,61.07,59.46,60.37z      M67.4,64.05c-0.51,0.12-1.04,0.18-1.58,0.18c-0.7,0-1.38-0.1-2.01-0.29c0,0.55,0,1.1-0.01,1.65c0,0.28,0.06,0.37,0.35,0.36     c0.97-0.02,1.94-0.02,2.91,0c0.29,0.01,0.36-0.08,0.36-0.36C67.4,65.07,67.4,64.56,67.4,64.05z M66.96,48.17     c-0.23,0.01-0.46,0.02-0.69,0.02c-0.45,0.01-0.9,0.01-1.35,0c-0.23,0-0.45-0.01-0.68-0.02c-0.38-0.01-0.44,0.12-0.44,0.47     c0,0.51,0,1.02,0,1.54c0.64-0.19,1.32-0.29,2.02-0.29c0.54,0,1.07,0.06,1.59,0.18c0-0.48,0-0.95,0-1.42     C67.41,48.3,67.34,48.16,66.96,48.17z M61.77,62.97c-0.31-0.21-0.61-0.45-0.88-0.71c-0.58-0.54-1.06-1.18-1.43-1.89     c-0.52-0.99-0.81-2.11-0.81-3.31c0-2.46,1.24-4.63,3.13-5.92c0-0.77,0-1.55,0-2.33c-3.05,1.49-5.15,4.63-5.15,8.25     c0,3.62,2.1,6.75,5.15,8.24C61.77,64.52,61.77,63.75,61.77,62.97z M67.4,64.05c-0.51,0.12-1.04,0.18-1.58,0.18     c-0.7,0-1.38-0.1-2.01-0.29c0,0.55,0,1.1-0.01,1.65c0,0.28,0.06,0.37,0.35,0.36c0.97-0.02,1.94-0.02,2.91,0     c0.29,0.01,0.36-0.08,0.36-0.36C67.4,65.07,67.4,64.56,67.4,64.05z M66.96,48.17c-0.23,0.01-0.46,0.02-0.69,0.02     c-0.45,0.01-0.9,0.01-1.35,0c-0.23,0-0.45-0.01-0.68-0.02c-0.38-0.01-0.44,0.12-0.44,0.47c0,0.51,0,1.02,0,1.54     c0.64-0.19,1.32-0.29,2.02-0.29c0.54,0,1.07,0.06,1.59,0.18c0-0.48,0-0.95,0-1.42C67.41,48.3,67.34,48.16,66.96,48.17z      M61.77,62.97c-0.31-0.21-0.61-0.45-0.88-0.71c-0.58-0.54-1.06-1.18-1.43-1.89c-0.52-0.99-0.81-2.11-0.81-3.31     c0-2.46,1.24-4.63,3.13-5.92c0-0.77,0-1.55,0-2.33c-3.05,1.49-5.15,4.63-5.15,8.25c0,3.62,2.1,6.75,5.15,8.24     C61.77,64.52,61.77,63.75,61.77,62.97z M67.4,64.05c-0.51,0.12-1.04,0.18-1.58,0.18c-0.7,0-1.38-0.1-2.01-0.29     c0,0.55,0,1.1-0.01,1.65c0,0.28,0.06,0.37,0.35,0.36c0.97-0.02,1.94-0.02,2.91,0c0.29,0.01,0.36-0.08,0.36-0.36     C67.4,65.07,67.4,64.56,67.4,64.05z M66.96,48.17c-0.23,0.01-0.46,0.02-0.69,0.02c-0.45,0.01-0.9,0.01-1.35,0     c-0.23,0-0.45-0.01-0.68-0.02c-0.38-0.01-0.44,0.12-0.44,0.47c0,0.51,0,1.02,0,1.54c0.64-0.19,1.32-0.29,2.02-0.29     c0.54,0,1.07,0.06,1.59,0.18c0-0.48,0-0.95,0-1.42C67.41,48.3,67.34,48.16,66.96,48.17z M61.77,62.97     c-0.31-0.21-0.61-0.45-0.88-0.71c-0.58-0.54-1.06-1.18-1.43-1.89c-0.52-0.99-0.81-2.11-0.81-3.31c0-2.46,1.24-4.63,3.13-5.92     c0-0.77,0-1.55,0-2.33c-3.05,1.49-5.15,4.63-5.15,8.25c0,3.62,2.1,6.75,5.15,8.24C61.77,64.52,61.77,63.75,61.77,62.97z      M65.82,64.22c-0.7,0-1.38-0.1-2.01-0.29c0,0.55,0,1.1-0.01,1.65c0,0.28,0.06,0.37,0.35,0.36c0.97-0.02,1.94-0.02,2.91,0     c0.29,0.01,0.36-0.08,0.36-0.36c-0.01-0.51-0.01-1.02-0.01-1.53C66.89,64.16,66.36,64.22,65.82,64.22z M65.82,49.89     c0.54,0,1.07,0.06,1.59,0.18c0-0.48,0-0.95,0-1.42c0-0.34-0.06-0.48-0.45-0.47c-0.23,0.01-0.46,0.02-0.69,0.02     c-0.45,0.01-0.9,0.01-1.35,0c-0.23,0-0.45-0.01-0.68-0.02c-0.38-0.01-0.44,0.12-0.44,0.47c0,0.51,0,1.02,0,1.54     C64.44,49.99,65.11,49.89,65.82,49.89z M61.77,51.14c0-0.77,0-1.55,0-2.33c-3.05,1.49-5.15,4.63-5.15,8.25     c0,3.62,2.1,6.75,5.15,8.24c-0.01-0.78-0.01-1.55,0-2.33c-0.31-0.21-0.61-0.45-0.88-0.71c-0.58-0.54-1.06-1.18-1.43-1.89     c-0.52-0.99-0.81-2.11-0.81-3.31C58.65,54.6,59.89,52.43,61.77,51.14z M72.34,50.59c-0.83-0.84-1.81-1.51-2.91-1.98     c-1.11-0.48-2.33-0.74-3.61-0.74c-1.45,0-2.82,0.33-4.04,0.94c-3.05,1.49-5.15,4.63-5.15,8.25c0,3.62,2.1,6.75,5.15,8.24     c1.22,0.61,2.59,0.94,4.04,0.94c1.28,0,2.51-0.26,3.62-0.74c1.1-0.47,2.08-1.15,2.91-1.99c1.65-1.66,2.66-3.94,2.66-6.46     C75,54.54,73.98,52.26,72.34,50.59z M72.03,60.61c-0.35,0.61-0.78,1.16-1.29,1.63c-0.4,0.38-0.84,0.72-1.32,1     c-0.62,0.37-1.31,0.64-2.03,0.8c-0.51,0.12-1.04,0.18-1.58,0.18c-0.7,0-1.38-0.1-2.01-0.29c-0.73-0.21-1.42-0.54-2.03-0.96     c-0.31-0.21-0.61-0.45-0.88-0.71c-0.58-0.54-1.06-1.18-1.43-1.89c-0.52-0.99-0.81-2.11-0.81-3.31c0-2.46,1.24-4.63,3.13-5.92     c0.61-0.42,1.3-0.75,2.03-0.96c0.64-0.19,1.32-0.29,2.02-0.29c0.54,0,1.07,0.06,1.59,0.18c0,0,0,0,0,0     c0.72,0.17,1.4,0.44,2.03,0.8c1.27,0.75,2.29,1.87,2.91,3.22c0.41,0.9,0.64,1.91,0.64,2.97c0,1.06-0.23,2.06-0.64,2.96     C72.25,60.22,72.15,60.42,72.03,60.61z M61.77,62.97c-0.31-0.21-0.61-0.45-0.88-0.71c-0.58-0.54-1.06-1.18-1.43-1.89     c-0.52-0.99-0.81-2.11-0.81-3.31c0-2.46,1.24-4.63,3.13-5.92c0-0.77,0-1.55,0-2.33c-3.05,1.49-5.15,4.63-5.15,8.25     c0,3.62,2.1,6.75,5.15,8.24C61.77,64.52,61.77,63.75,61.77,62.97z M66.96,48.17c-0.23,0.01-0.46,0.02-0.69,0.02     c-0.45,0.01-0.9,0.01-1.35,0c-0.23,0-0.45-0.01-0.68-0.02c-0.38-0.01-0.44,0.12-0.44,0.47c0,0.51,0,1.02,0,1.54     c0.64-0.19,1.32-0.29,2.02-0.29c0.54,0,1.07,0.06,1.59,0.18c0-0.48,0-0.95,0-1.42C67.41,48.3,67.34,48.16,66.96,48.17z      M67.4,64.05c-0.51,0.12-1.04,0.18-1.58,0.18c-0.7,0-1.38-0.1-2.01-0.29c0,0.55,0,1.1-0.01,1.65c0,0.28,0.06,0.37,0.35,0.36     c0.97-0.02,1.94-0.02,2.91,0c0.29,0.01,0.36-0.08,0.36-0.36C67.4,65.07,67.4,64.56,67.4,64.05z M61.77,62.97     c-0.31-0.21-0.61-0.45-0.88-0.71c-0.58-0.54-1.06-1.18-1.43-1.89c-0.52-0.99-0.81-2.11-0.81-3.31c0-2.46,1.24-4.63,3.13-5.92     c0-0.77,0-1.55,0-2.33c-3.05,1.49-5.15,4.63-5.15,8.25c0,3.62,2.1,6.75,5.15,8.24C61.77,64.52,61.77,63.75,61.77,62.97z      M66.96,48.17c-0.23,0.01-0.46,0.02-0.69,0.02c-0.45,0.01-0.9,0.01-1.35,0c-0.23,0-0.45-0.01-0.68-0.02     c-0.38-0.01-0.44,0.12-0.44,0.47c0,0.51,0,1.02,0,1.54c0.64-0.19,1.32-0.29,2.02-0.29c0.54,0,1.07,0.06,1.59,0.18     c0-0.48,0-0.95,0-1.42C67.41,48.3,67.34,48.16,66.96,48.17z M67.4,64.05c-0.51,0.12-1.04,0.18-1.58,0.18     c-0.7,0-1.38-0.1-2.01-0.29c0,0.55,0,1.1-0.01,1.65c0,0.28,0.06,0.37,0.35,0.36c0.97-0.02,1.94-0.02,2.91,0     c0.29,0.01,0.36-0.08,0.36-0.36C67.4,65.07,67.4,64.56,67.4,64.05z M61.77,62.97c-0.31-0.21-0.61-0.45-0.88-0.71     c-0.58-0.54-1.06-1.18-1.43-1.89c-0.52-0.99-0.81-2.11-0.81-3.31c0-2.46,1.24-4.63,3.13-5.92c0-0.77,0-1.55,0-2.33     c-3.05,1.49-5.15,4.63-5.15,8.25c0,3.62,2.1,6.75,5.15,8.24C61.77,64.52,61.77,63.75,61.77,62.97z M66.96,48.17     c-0.23,0.01-0.46,0.02-0.69,0.02c-0.45,0.01-0.9,0.01-1.35,0c-0.23,0-0.45-0.01-0.68-0.02c-0.38-0.01-0.44,0.12-0.44,0.47     c0,0.51,0,1.02,0,1.54c0.64-0.19,1.32-0.29,2.02-0.29c0.54,0,1.07,0.06,1.59,0.18c0-0.48,0-0.95,0-1.42     C67.41,48.3,67.34,48.16,66.96,48.17z M67.4,64.05c-0.51,0.12-1.04,0.18-1.58,0.18c-0.7,0-1.38-0.1-2.01-0.29     c0,0.55,0,1.1-0.01,1.65c0,0.28,0.06,0.37,0.35,0.36c0.97-0.02,1.94-0.02,2.91,0c0.29,0.01,0.36-0.08,0.36-0.36     C67.4,65.07,67.4,64.56,67.4,64.05z M59.46,60.37c-0.04,0.02-0.08,0.04-0.11,0.07h0c-0.03,0.03-0.06,0.06-0.09,0.08     c-0.02,0.02-0.03,0.03-0.04,0.04c-0.02,0.01-0.03,0.03-0.04,0.05c-0.02,0.03-0.05,0.06-0.07,0.1c-0.04,0.06-0.06,0.13-0.09,0.2     c-0.02,0.06-0.03,0.12-0.04,0.18c0,0.04-0.01,0.09-0.01,0.13c0,0.6,0.44,1,1.12,1.02c0.27,0,0.54,0.01,0.81,0.01     C60.31,61.71,59.83,61.07,59.46,60.37z M59.46,60.37c-0.04,0.02-0.08,0.04-0.11,0.07h0c-0.03,0.03-0.06,0.06-0.09,0.08     c-0.02,0.02-0.03,0.03-0.04,0.04c-0.02,0.01-0.03,0.03-0.04,0.05c-0.02,0.03-0.05,0.06-0.07,0.1c-0.04,0.06-0.06,0.13-0.09,0.2     c-0.02,0.06-0.03,0.12-0.04,0.18c0,0.04-0.01,0.09-0.01,0.13c0,0.6,0.44,1,1.12,1.02c0.27,0,0.54,0.01,0.81,0.01     C60.31,61.71,59.83,61.07,59.46,60.37z M59.46,60.37c-0.04,0.02-0.08,0.04-0.11,0.07h0c-0.03,0.03-0.06,0.06-0.09,0.08     c-0.02,0.02-0.03,0.03-0.04,0.04c-0.02,0.01-0.03,0.03-0.04,0.05c-0.02,0.03-0.05,0.06-0.07,0.1c-0.04,0.06-0.06,0.13-0.09,0.2     c-0.02,0.06-0.03,0.12-0.04,0.18c0,0.04-0.01,0.09-0.01,0.13c0,0.6,0.44,1,1.12,1.02c0.27,0,0.54,0.01,0.81,0.01     C60.31,61.71,59.83,61.07,59.46,60.37z"></path>
		</g>
		<g>
			<g>
				<path d="M69.14,54.93c0,0.89-0.34,1.73-0.97,2.36c-0.22,0.21-0.46,0.4-0.73,0.55c-0.01,0.01-0.03,0.02-0.04,0.03      c-0.42,0.25-0.67,0.67-0.67,1.13v0.13c0,0.5-0.41,0.91-0.91,0.91c-0.5,0-0.91-0.41-0.91-0.91v-0.13c0-1.13,0.63-2.18,1.65-2.75      c0.12-0.07,0.23-0.15,0.33-0.25c0.29-0.28,0.44-0.66,0.44-1.07c0-0.4-0.15-0.78-0.44-1.06c-0.28-0.29-0.66-0.44-1.06-0.44      c-0.4,0-0.78,0.16-1.07,0.44c-0.29,0.28-0.44,0.66-0.44,1.06c0,0.36-0.21,0.67-0.51,0.82c-0.12,0.06-0.26,0.1-0.4,0.1      c-0.5,0-0.91-0.41-0.91-0.91c0-0.89,0.34-1.72,0.97-2.35c0.11-0.11,0.22-0.21,0.34-0.29c0.58-0.44,1.28-0.68,2.02-0.68      c0.56,0,1.11,0.14,1.59,0.4c0.28,0.15,0.54,0.34,0.77,0.57C68.8,53.21,69.14,54.04,69.14,54.93z"></path>
			</g>
		</g>
		<g>
			<g>
				<path d="M66.74,61.58c0,0.27-0.12,0.52-0.3,0.68c-0.17,0.16-0.39,0.25-0.63,0.25c-0.24,0-0.47-0.09-0.63-0.25      c-0.18-0.17-0.3-0.42-0.3-0.69c0-0.51,0.42-0.93,0.93-0.93C66.33,60.65,66.74,61.06,66.74,61.58z"></path>
			</g>
		</g>
	</g>
</g>
</svg>
