<?xml version="1.0" encoding="UTF-8"?>
<!-- Generator: Adobe Illustrator 26.0.1, SVG Export Plug-In . SVG Version: 6.00 Build 0)  -->
<svg xmlns="http://www.w3.org/2000/svg" xmlns:xlink="http://www.w3.org/1999/xlink" version="1.1" id="Layer_1" x="0px" y="0px" viewBox="0 0 100 100" style="enable-background:new 0 0 100 100;" xml:space="preserve">
<style type="text/css">
	.st0{opacity:0.5;fill:#FFFFFF;}
	.st1{fill:#9A0212;}
	.st2{fill:none;}
	.st3{fill:#030303;}
</style>
<rect class="st0" width="100" height="100"></rect>
<g>
	<g>
		<path class="st1" d="M65.68,74.94c-11.3,0-22.6,0-33.91,0c-0.35-0.24-0.78-0.25-1.15-0.43c-2.04-1.01-3-2.67-3-4.93    c0-9.76,0-19.51,0-29.27c0-3.34-0.01-6.69,0-10.03c0.01-3.04,2.17-5.22,5.16-5.22c10.78-0.01,21.56,0,32.34,0    c0.88,0,1.28,0.39,1.29,1.27c0.01,0.76,0.03,1.53-0.01,2.29c-0.02,0.47,0.07,0.64,0.6,0.62c1.31-0.05,2.63-0.02,3.94-0.01    c1.06,0,1.41,0.35,1.41,1.39c0,1.77,0,3.54,0,5.31c0,1.01-0.38,1.39-1.38,1.39c-1.4,0-2.79,0.01-4.19-0.01    c-0.29,0-0.39,0.06-0.39,0.37c0.02,1.01,0.02,2.01,0,3.02c-0.01,0.35,0.12,0.43,0.44,0.42c1.4-0.02,2.79-0.01,4.19-0.01    c0.94,0,1.32,0.38,1.32,1.34c0,1.79,0,3.57,0,5.36c0,1.02-0.38,1.39-1.42,1.39c-1.38,0-2.76,0.01-4.14-0.01    c-0.28,0-0.4,0.05-0.39,0.37c0.02,1.15,0.01,2.3,0.02,3.46c-0.09,0.71-0.09,1.42,0,2.14c0,1.13,0,2.27-0.01,3.4    c0,0.29,0.06,0.4,0.37,0.39c1.15-0.02,2.3-0.01,3.45-0.02c0.27,0.01,0.54,0.05,0.81,0.03c0.62-0.05,1.04,0.21,1.28,0.78    c0.08,1.98,0.02,3.95,0.03,5.93c0.01,0.97-0.39,1.36-1.35,1.36c-1.6,0-3.21,0.01-4.81-0.01c-0.29,0-0.47,0.09-0.64,0.33    c-1.14,1.64-1,4.06,0.34,5.54C66.66,73.73,66.6,74.31,65.68,74.94z M64.28,46.05c0-6.1,0-12.21,0.01-18.31    c0-0.39-0.04-0.55-0.51-0.55c-9.19,0.02-18.38,0.02-27.57,0c-0.39,0-0.51,0.07-0.51,0.49c0.01,12.22,0.01,24.45,0,36.67    c0,0.43,0.11,0.53,0.53,0.53c9.17-0.01,18.35-0.01,27.52,0c0.42,0,0.54-0.09,0.54-0.53C64.27,58.26,64.28,52.15,64.28,46.05z     M63.26,67.03c-0.2,0-0.33,0-0.46,0c-9.97,0-19.93,0-29.9,0c-0.13,0-0.26,0-0.39,0.01c-0.92,0.04-1.66,0.44-2.19,1.18    c-0.67,0.94-0.76,1.96-0.24,2.99c0.55,1.08,1.47,1.6,2.68,1.6c10.06,0,20.13,0,30.19,0c0.09,0,0.19,0.05,0.28-0.07    C62.43,70.86,62.43,68.97,63.26,67.03z M29.76,65.77c1.04-0.71,2.12-0.89,3.23-0.87c0.47,0.01,0.58-0.13,0.58-0.6    c-0.01-12.19-0.01-24.37-0.01-36.56c0-0.11-0.01-0.23,0-0.34c0.01-0.14-0.04-0.2-0.19-0.21c-0.84-0.03-1.66,0.01-2.37,0.53    c-0.9,0.66-1.24,1.56-1.24,2.66c0.01,11.62,0,23.24,0,34.86C29.76,65.38,29.76,65.53,29.76,65.77z M66.42,33.19    c0,0.53,0.02,1.07-0.01,1.6c-0.01,0.31,0.1,0.38,0.39,0.38c1.02-0.02,2.04-0.02,3.06,0c0.28,0,0.36-0.08,0.36-0.36    c-0.01-1.04-0.02-2.07,0-3.11c0-0.3-0.12-0.34-0.37-0.34c-1.04,0.01-2.07,0.01-3.11,0c-0.25,0-0.34,0.07-0.33,0.33    C66.43,32.19,66.42,32.69,66.42,33.19z M68.26,47.05c0.53,0,1.07-0.01,1.6,0.01c0.28,0.01,0.36-0.08,0.36-0.36    c-0.01-1.04-0.01-2.07,0-3.11c0-0.24-0.05-0.35-0.32-0.34c-1.07,0.01-2.14,0.01-3.21,0c-0.21,0-0.28,0.06-0.28,0.27    c0.01,1.07,0.01,2.14,0,3.21c0,0.26,0.09,0.34,0.34,0.33C67.25,47.04,67.76,47.05,68.26,47.05z M68.31,61.08    c-0.52,0-1.04,0.01-1.56,0c-0.24-0.01-0.34,0.04-0.34,0.32c0.02,1.05,0.01,2.11,0,3.16c0,0.25,0.07,0.34,0.33,0.33    c1.05-0.01,2.11-0.01,3.16,0c0.22,0,0.32-0.06,0.32-0.3c-0.01-1.07-0.01-2.14,0-3.21c0-0.24-0.09-0.31-0.31-0.3    C69.38,61.09,68.84,61.08,68.31,61.08z"></path>
		<path d="M66.43,53.01c1.61,0,3.21-0.02,4.82-0.01c0.64,0,1.09,0.36,1.1,1c0.03,1.91,0.07,3.82-0.02,5.74    c-0.24-0.57-0.65-0.83-1.28-0.78c-0.27,0.02-0.54-0.02-0.81-0.03c0-1.1-0.02-2.21,0-3.31c0.01-0.39-0.12-0.49-0.5-0.48    c-1.1,0.02-2.21,0.01-3.31,0.02C66.34,54.44,66.34,53.73,66.43,53.01z"></path>
		<path d="M50,31.1c3.03,0,6.07,0,9.1,0c0.99,0,1.37,0.38,1.38,1.39c0,2.74,0,5.49,0,8.23c0,1.08-0.38,1.46-1.48,1.46    c-6,0-12.01,0-18.01,0c-1.13,0-1.5-0.37-1.5-1.48c0-2.73,0-5.45,0-8.18c0-1.04,0.38-1.41,1.4-1.41C43.93,31.1,46.97,31.1,50,31.1z     M49.99,33.24c-2.61,0-5.23,0.01-7.84-0.01c-0.39,0-0.53,0.07-0.53,0.5c0.02,1.93,0.02,3.86,0,5.79c0,0.41,0.12,0.52,0.52,0.52    c5.22-0.01,10.45-0.01,15.67,0c0.4,0,0.53-0.1,0.52-0.51c-0.02-1.93-0.02-3.86,0-5.79c0.01-0.42-0.14-0.5-0.52-0.5    C55.22,33.25,52.6,33.24,49.99,33.24z"></path>
		<path class="st1" d="M49.97,53.44c-3.05,0-6.1,0-9.15,0c-0.82,0-1.26-0.35-1.29-1c-0.03-0.55,0.29-0.98,0.83-1.09    c0.14-0.03,0.29-0.05,0.43-0.05c6.13,0,12.27,0,18.4,0c0.21,0,0.43,0.02,0.62,0.09c0.43,0.15,0.7,0.63,0.65,1.09    c-0.05,0.5-0.41,0.87-0.9,0.94c-0.18,0.02-0.36,0.02-0.53,0.02C56,53.44,52.99,53.44,49.97,53.44z"></path>
		<path class="st1" d="M49.96,59.39c-3.07,0-6.13,0-9.2,0c-0.81,0-1.3-0.47-1.24-1.15c0.04-0.48,0.36-0.85,0.84-0.95    c0.19-0.04,0.39-0.04,0.58-0.04c6.02,0,12.04,0,18.06,0c0.03,0,0.06,0,0.1,0c0.89,0.01,1.37,0.39,1.37,1.09    c-0.01,0.69-0.47,1.05-1.34,1.05C56.06,59.39,53.01,59.39,49.96,59.39z"></path>
	</g>
	<rect x="25" y="25" class="st2" width="50" height="50"></rect>
</g>
</svg>
