<?xml version="1.0" encoding="UTF-8"?>
<!-- Generator: Adobe Illustrator 26.0.1, SVG Export Plug-In . SVG Version: 6.00 Build 0)  -->
<svg xmlns="http://www.w3.org/2000/svg" xmlns:xlink="http://www.w3.org/1999/xlink" version="1.1" id="Layer_1" x="0px" y="0px" viewBox="0 0 100 100" style="enable-background:new 0 0 100 100;" xml:space="preserve">
<style type="text/css">
	.st0{opacity:0.5;fill:#FFFFFF;}
	.st1{fill:#9A0212;}
	.st2{fill:#020202;}
	.st3{fill:none;}
	.st4{fill:#656565;}
	.st5{fill:#141414;}
</style>
<rect class="st0" width="100" height="100"></rect>
<g>
	<g>
		<g>
			<path class="st1" d="M46.42,51.82c-0.08-0.26-0.15-0.53-0.26-0.78c-0.76-1.88-2.06-3.28-3.85-4.21c0.02-0.16,0.15-0.22,0.24-0.31     c1.12-1.17,1.64-2.55,1.52-4.17c-0.17-2.34-1.86-4.3-4.15-4.82c-2.3-0.52-4.67,0.55-5.85,2.63c-1.15,2.04-0.82,4.63,0.83,6.3     c0.27,0.28,0.31,0.37-0.07,0.58c-1.98,1.12-3.25,2.8-3.82,5c-0.16,0.6,0.14,1.13,0.71,1.31c0.56,0.19,1.1-0.08,1.32-0.67     c0.06-0.15,0.11-0.31,0.16-0.46c0.95-3.05,4.22-4.77,7.26-3.8c2.01,0.64,3.3,2,3.9,4.02c0.22,0.74,0.75,1.11,1.35,0.94     C46.38,53.19,46.65,52.62,46.42,51.82z M38.72,45.97c-1.77-0.03-3.18-1.46-3.17-3.23c0-1.76,1.43-3.18,3.2-3.18     c1.76,0,3.19,1.43,3.2,3.19C41.96,44.52,40.47,46,38.72,45.97z"></path>
			<path class="st1" d="M60.56,45.11c2.46,0,4.91,0,7.37,0c0.52,0,0.92,0.17,1.13,0.67c0.24,0.58-0.06,1.21-0.66,1.41     c-0.22,0.07-0.45,0.07-0.68,0.07c-4.76,0-9.53,0-14.29,0c-0.15,0-0.29,0.01-0.44-0.01c-0.61-0.08-1.03-0.56-0.99-1.12     c0.03-0.58,0.47-1,1.1-1.01c1.24-0.01,2.47,0,3.71,0C58.06,45.11,59.31,45.11,60.56,45.11z"></path>
			<path class="st2" d="M60.57,39.15c2.47,0,4.94,0,7.41,0c0.47,0,0.82,0.18,1.04,0.59c0.19,0.36,0.15,0.72-0.07,1.06     c-0.26,0.4-0.66,0.5-1.1,0.5c-1.24,0-2.47,0-3.71,0c-3.61,0-7.22,0-10.83,0c-0.77,0-1.24-0.36-1.29-0.98     c-0.06-0.71,0.39-1.17,1.17-1.17c2.21-0.01,4.42,0,6.63,0C60.08,39.15,60.33,39.15,60.57,39.15z"></path>
			<path class="st1" d="M56.64,51.07c1.12,0,2.24,0,3.36,0c0.72,0,1.2,0.43,1.2,1.06c0,0.62-0.49,1.08-1.2,1.08     c-2.28,0.01-4.55,0.01-6.83,0c-0.72,0-1.18-0.47-1.17-1.1c0.01-0.64,0.47-1.04,1.21-1.04C54.36,51.06,55.5,51.07,56.64,51.07z"></path>
		</g>
		<path class="st3" d="M27.66,29.2c-0.4,0-0.52,0.07-0.52,0.49c0.02,10.48,0.02,20.96,0,31.44c0,0.42,0.11,0.5,0.51,0.5    c7.43-0.02,14.87-0.01,22.31-0.01c1.82,0,3.64,0,5.46,0c0.7,0,1.41,0,2.12,0"></path>
		<path class="st3" d="M72.34,29.19c0.45,0,0.52,0.14,0.52,0.54c-0.01,9.13-0.01,18.25,0,27.38v4.02c0,0.26-0.04,0.39-0.17,0.45"></path>
	</g>
	<g>
		<path class="st1" d="M73.52,27.05c-5.53,0.01-11.06,0-16.59,0.02H43.08c-5.53-0.02-11.06-0.01-16.59-0.01    c-1.14,0-1.48,0.34-1.48,1.48c0,11.21,0,22.43-0.01,33.64c0,0.66,0.11,1.21,0.69,1.58h31.73c-0.02-0.21-0.03-0.42-0.03-0.63    c0-0.52,0.05-1.02,0.15-1.51h-7.58c-7.44,0-14.88-0.01-22.31,0.01c-0.4,0-0.51-0.08-0.51-0.5c0.02-10.48,0.02-20.96,0-31.44    c0-0.42,0.12-0.49,0.52-0.49l44.68-0.01c0.45,0,0.52,0.14,0.52,0.54c-0.01,9.13-0.01,18.25,0,27.38v4.02    c0,0.26-0.04,0.39-0.17,0.45c0.11,0.5,0.16,1.02,0.16,1.55c0,0.21-0.01,0.42-0.03,0.63h1.4c0.28-0.14,0.51-0.35,0.71-0.6    c0.03-0.02,0.05-0.05,0.07-0.08V27.83C74.69,27.22,74.18,27.05,73.52,27.05z"></path>
		<g>
			<path class="st2" d="M72.86,57.11c-1.79-2.3-4.6-3.79-7.74-3.79c-4.9,0-8.96,3.6-9.7,8.3c-0.07,0.49-0.11,0.99-0.11,1.51     c0,0.21,0.01,0.42,0.02,0.63c0.33,5.12,4.59,9.19,9.79,9.19c5.4,0,9.79-4.39,9.81-9.79v-0.03     C74.93,60.86,74.16,58.77,72.86,57.11z M65.12,70.86c-4.05,0-7.38-3.13-7.7-7.1c-0.02-0.21-0.03-0.42-0.03-0.63     c0-0.52,0.05-1.02,0.15-1.51c0.7-3.54,3.84-6.21,7.58-6.21c3.73,0,6.85,2.65,7.57,6.17c0.11,0.5,0.16,1.02,0.16,1.55     c0,0.21-0.01,0.42-0.03,0.63C72.5,67.73,69.17,70.86,65.12,70.86z"></path>
			<path class="st2" d="M69.15,62.04c-0.06-0.19-0.19-0.34-0.37-0.41c0,0,0,0-0.01,0c-0.05-0.03-0.11-0.05-0.17-0.06l-1.98-0.29     l-0.88-1.79c-0.12-0.23-0.36-0.38-0.62-0.38s-0.5,0.15-0.62,0.38l-0.88,1.79l-1.98,0.29c-0.05,0.01-0.1,0.02-0.15,0.05     c-0.19,0.07-0.34,0.22-0.4,0.42c-0.08,0.25-0.01,0.52,0.17,0.7l1.04,1.02l0.39,0.38l-0.33,1.97c-0.05,0.25,0.06,0.51,0.27,0.67     c0.12,0.08,0.26,0.13,0.4,0.13c0.11,0,0.22-0.03,0.32-0.08l1.77-0.93l1.77,0.93c0.23,0.12,0.51,0.1,0.72-0.05     c0.21-0.16,0.32-0.42,0.28-0.67l-0.34-1.97l0.39-0.38l1.04-1.02C69.17,62.56,69.23,62.29,69.15,62.04z M66.42,63.42     c-0.1,0.09-0.17,0.21-0.2,0.34c-0.03,0.1-0.04,0.21-0.02,0.31l0.18,1.02l-0.92-0.48c-0.1-0.05-0.22-0.08-0.34-0.08     s-0.23,0.03-0.34,0.08l-0.92,0.48l0.18-1.02c0.02-0.1,0.01-0.21-0.02-0.31c-0.03-0.13-0.1-0.25-0.19-0.34l-0.74-0.72l1.02-0.15     c0.24-0.03,0.45-0.18,0.55-0.4l0.26-0.53l0.2-0.4l0.2,0.4l0.26,0.53c0.11,0.22,0.31,0.37,0.55,0.4l1.02,0.15L66.42,63.42z"></path>
		</g>
	</g>
</g>
</svg>
