<?xml version="1.0" encoding="UTF-8"?>
<!-- Generator: Adobe Illustrator 26.1.0, SVG Export Plug-In . SVG Version: 6.00 Build 0)  -->
<svg xmlns="http://www.w3.org/2000/svg" xmlns:xlink="http://www.w3.org/1999/xlink" version="1.1" id="Layer_1" x="0px" y="0px" viewBox="0 0 100 100" style="enable-background:new 0 0 100 100;" xml:space="preserve">
<style type="text/css">
	.st0{opacity:0.5;fill:#FFFFFF;}
	.st1{fill:#9A0212;}
	.st2{fill:none;}
</style>
<rect y="0" class="st0" width="100" height="100"></rect>
<g>
	<g>
		<path class="st1" d="M74.9,67.7c-0.2,0.2-0.2,0.4-0.2,0.7c-0.8,2.1-2.3,3.2-4.5,3.4c-1.7,0.1-3.5,0.2-5.2-0.1    c-2.5-0.3-4.3-2.4-4.3-5c0-9.3,0-18.7,0-28c0-0.4,0.1-0.8,0.4-1.1c1.9-2,3.8-4.1,5.8-6.1c0.6-0.7,1.2-0.7,1.9,0    c1.9,2,3.8,4.1,5.7,6.1c0.2,0.2,0.3,0.4,0.4,0.6C74.9,48,74.9,57.9,74.9,67.7z M66.8,50.7c0-3.2,0-6.4,0-9.6    c0-0.4-0.1-0.5-0.5-0.5c-1,0-2,0-3.1,0c-0.2,0-0.4,0-0.4,0.3c0,6.5,0,13,0,19.5c0,0.3,0.1,0.3,0.3,0.3c1,0,2.1,0,3.1,0    c0.4,0,0.4-0.1,0.4-0.5C66.8,57.1,66.8,53.9,66.8,50.7z M72.8,50.7c0-3.2,0-6.4,0-9.6c0-0.4-0.1-0.5-0.5-0.5c-1,0-2,0-3.1,0    c-0.2,0-0.4,0-0.4,0.3c0,6.5,0,13,0,19.5c0,0.3,0.1,0.3,0.3,0.3c1,0,2.1,0,3.1,0c0.4,0,0.4-0.1,0.4-0.5    C72.8,57.1,72.8,53.9,72.8,50.7z M67.8,62.9c-1.5,0-3.1,0-4.6,0c-0.3,0-0.4,0.1-0.4,0.4c0,1.1,0,2.2,0,3.3c-0.1,1.7,1.2,3,2.9,3    c1.4,0.1,2.8,0.1,4.2,0c1.7-0.1,3-1.4,2.9-3c0-1.1,0-2.2,0-3.3c0-0.3-0.1-0.4-0.4-0.4C70.9,62.9,69.4,62.9,67.8,62.9z M72.3,38.4    c-0.1-0.1-0.1-0.2-0.1-0.2c-1.4-1.4-2.7-2.9-4.1-4.3c-0.2-0.2-0.3-0.2-0.5,0c-1.3,1.4-2.7,2.8-4,4.2c-0.1,0.1-0.2,0.1-0.2,0.3    C66.3,38.4,69.3,38.4,72.3,38.4z"></path>
		<path class="st1" d="M25.1,51.4c0-6.3,0-12.7,0-19c0-1,0.4-1.4,1.4-1.4c1.4,0,2.8,0,4.2,0c0.3,0,0.4-0.1,0.4-0.4    c0-0.5,0-0.9,0-1.4c0-0.6,0.4-1.1,1.1-1.1c0.6,0,1.1,0.5,1.1,1.1c0,0.5,0,0.9,0,1.4c0,0.3,0.1,0.4,0.3,0.4c1,0,2,0,3.1,0    c0.3,0,0.4-0.1,0.4-0.4c0-0.5,0-0.9,0-1.4c0-0.6,0.5-1.1,1.1-1.1s1,0.4,1.1,1.1c0,0.5,0,1,0,1.5c0,0.2,0.1,0.3,0.3,0.3    c1.1,0,2.2,0,3.3,0c0.2,0,0.3-0.1,0.3-0.3c0-0.5,0-0.9,0-1.4c0-0.7,0.5-1.2,1.1-1.2c0.6,0,1,0.5,1.1,1.2c0,0.4,0,0.9,0,1.3    c0,0.3,0,0.4,0.3,0.4c1,0,2.1,0,3.2,0c0.2,0,0.3-0.1,0.3-0.3c0-0.5,0-1,0-1.5c0-0.6,0.5-1.1,1-1.1c0.6,0,1.1,0.4,1.1,1.1    c0,0.5,0,0.9,0,1.4c0,0.3,0.1,0.4,0.4,0.4c1.4,0,2.8,0,4.2,0c1,0,1.4,0.4,1.4,1.3c0,12.7,0,25.4,0,38.1c0,0.9-0.4,1.3-1.3,1.3    c-9.7,0-19.5,0-29.2,0c-0.9,0-1.3-0.4-1.3-1.3C25.1,64.1,25.1,57.8,25.1,51.4z M54.8,51.4c0-5.9,0-11.8,0-17.8    c0-0.3,0-0.5-0.4-0.5c-1,0-2,0-3,0c-0.3,0-0.4,0-0.4,0.4c0,0.5,0,1,0,1.5c0,0.7-0.5,1.1-1.1,1.1s-1.1-0.5-1.1-1.1c0-0.5,0-1,0-1.5    c0-0.2,0-0.4-0.3-0.4c-1,0-2.1,0-3.2,0c-0.3,0-0.3,0.1-0.3,0.3c0,0.5,0,1,0,1.5c0,0.7-0.5,1.1-1.1,1.1c-0.6,0-1-0.5-1-1.1    c0-0.5,0-1,0-1.6c0-0.2-0.1-0.3-0.3-0.3c-1,0-2.1,0-3.2,0c-0.3,0-0.3,0.1-0.3,0.4c0,0.5,0,1,0,1.5c0,0.7-0.4,1.1-1.1,1.2    c-0.6,0-1.1-0.5-1.1-1.1c0-0.5,0-1,0-1.6c0-0.2-0.1-0.3-0.3-0.3c-1.1,0-2.2,0-3.3,0c-0.2,0-0.3,0.1-0.3,0.3c0,0.5,0,1,0,1.5    c0,0.8-0.4,1.2-1.1,1.2c-0.6,0-1-0.5-1.1-1.2c0-0.5,0-0.9,0-1.4c0-0.3-0.1-0.4-0.4-0.3c-1,0-2,0-3,0c-0.4,0-0.5,0.1-0.5,0.5    c0,11.8,0,23.7,0,35.5c0,0.4,0.1,0.5,0.5,0.5c8.9,0,17.7,0,26.6,0c0.4,0,0.5-0.1,0.5-0.5C54.8,63.2,54.8,57.3,54.8,51.4z"></path>
		<path class="st1" d="M41,61.7c-2.9,0-5.7,0-8.6,0c-0.2,0-0.3,0-0.5,0c-0.5,0-0.9-0.5-0.9-0.9c-0.1-0.5,0.2-1,0.7-1.1    c0.2-0.1,0.4-0.1,0.6-0.1c5.8,0,11.6,0,17.3,0c0.8,0,1.2,0.3,1.3,1c0.1,0.7-0.4,1.2-1.2,1.2c-2.5,0-5,0-7.4,0    C41.9,61.7,41.5,61.7,41,61.7z"></path>
		<path d="M41,43.8c-2.9,0-5.8,0-8.7,0c-0.4,0-0.7,0-1-0.3c-0.5-0.6-0.3-1.5,0.4-1.7c0.2-0.1,0.5-0.1,0.8-0.1c5.7,0,11.4,0,17,0    c0.2,0,0.4,0,0.6,0c0.6,0.1,0.9,0.6,0.9,1.1c0,0.6-0.5,1-1.1,1c-1.3,0-2.6,0-3.9,0C44.4,43.8,42.7,43.8,41,43.8z"></path>
		<path d="M39.9,55.7c-2.5,0-5.1,0-7.6,0c-0.4,0-0.7,0-1-0.3c-0.5-0.6-0.3-1.5,0.4-1.7c0.2-0.1,0.5-0.1,0.8-0.1c5,0,10,0,15,0    c0.2,0,0.3,0,0.5,0c0.6,0.1,1,0.6,1,1.1c0,0.6-0.5,1-1.1,1c-2.3,0-4.6,0-7,0C40.5,55.7,40.2,55.7,39.9,55.7z"></path>
		<path class="st1" d="M38.1,49.8c-2,0-3.9,0-5.8,0c-0.8,0-1.2-0.4-1.3-1c0-0.7,0.5-1.1,1.3-1.1c3.9,0,7.8,0,11.7,0    c0.6,0,1,0.2,1.2,0.7c0.2,0.5,0,0.8-0.3,1.1c-0.2,0.2-0.6,0.3-0.9,0.3C42,49.8,40.1,49.8,38.1,49.8z"></path>
	</g>
	<rect x="25" y="25" class="st2" width="50" height="50"></rect>
</g>
</svg>
