<?xml version="1.0" encoding="UTF-8"?>
<!-- Generator: Adobe Illustrator 26.0.1, SVG Export Plug-In . SVG Version: 6.00 Build 0)  -->
<svg xmlns="http://www.w3.org/2000/svg" xmlns:xlink="http://www.w3.org/1999/xlink" version="1.1" id="Layer_1" x="0px" y="0px" viewBox="0 0 100 100" style="enable-background:new 0 0 100 100;" xml:space="preserve">
<style type="text/css">
	.st0{opacity:0.5;fill:#FFFFFF;}
	.st1{fill:#9A0212;}
	.st2{fill:#020202;}
	.st3{fill:none;}
	.st4{fill:#656565;}
	.st5{fill:#141414;}
</style>
<rect class="st0" width="100" height="100"></rect>
<g>
	<g>
		<path d="M54.87,56.45c0,2.77,0.01,5.54-0.01,8.3c0,0.45,0.13,0.59,0.56,0.55c0.31-0.03,0.64-0.03,0.95,0.01    c0.68,0.09,1.07,0.57,1.03,1.24c-0.03,0.63-0.46,1.06-1.15,1.06c-4.16,0.01-8.32,0.01-12.48,0c-0.69,0-1.19-0.51-1.19-1.15    c0-0.62,0.48-1.12,1.14-1.16c0.39-0.03,0.78-0.03,1.16,0c0.37,0.03,0.48-0.11,0.47-0.48c-0.02-2.15-0.01-4.3-0.01-6.45    c0-2.87-0.01-5.75,0.01-8.62c0-0.41-0.11-0.58-0.53-0.53c-0.3,0.03-0.6,0.02-0.9-0.01c-0.56-0.05-0.97-0.47-1.03-1.03    c-0.06-0.54,0.28-1.06,0.82-1.2c0.22-0.06,0.45-0.08,0.68-0.08c3,0,5.99,0,8.99,0c1.08,0,1.47,0.39,1.47,1.46    C54.87,51.06,54.87,53.75,54.87,56.45C54.87,56.45,54.87,56.45,54.87,56.45z M47.69,57.3c0,2.5,0.01,5-0.01,7.5    c0,0.4,0.11,0.51,0.51,0.5c1.29-0.02,2.57-0.02,3.86,0c0.38,0.01,0.52-0.07,0.52-0.49c-0.01-5.04-0.01-10.08,0-15.11    c0-0.36-0.1-0.49-0.47-0.48c-1.25,0.02-2.5,0.03-3.75,0c-0.5-0.01-0.66,0.11-0.66,0.63C47.7,52.33,47.69,54.82,47.69,57.3z"></path>
		<path d="M50.01,32.38c3.18,0,5.58,2.42,5.57,5.61c-0.01,2.99-2.55,5.49-5.57,5.49c-3.05,0-5.56-2.51-5.55-5.55    C44.48,34.75,46.85,32.38,50.01,32.38z M50.03,34.68c-1.79-0.01-3.23,1.39-3.24,3.14c-0.02,1.89,1.37,3.32,3.23,3.32    c1.81,0,3.23-1.44,3.23-3.28C53.26,36.12,51.81,34.69,50.03,34.68z"></path>
	</g>
	<path class="st1" d="M49.99,25C36.19,25,25,36.19,25,50.01C25,63.81,36.19,75,49.99,75C63.81,75,75,63.81,75,50.01   C75,36.19,63.81,25,49.99,25z M49.99,72.75c-12.55,0-22.73-10.18-22.73-22.75c0-12.56,10.18-22.75,22.73-22.75   c12.56,0,22.75,10.18,22.75,22.75C72.74,62.57,62.56,72.75,49.99,72.75z"></path>
</g>
</svg>
