<?xml version="1.0" encoding="UTF-8"?>
<!-- Generator: Adobe Illustrator 26.0.0, SVG Export Plug-In . SVG Version: 6.00 Build 0)  -->
<svg xmlns="http://www.w3.org/2000/svg" xmlns:xlink="http://www.w3.org/1999/xlink" version="1.1" id="Layer_1" x="0px" y="0px" viewBox="0 0 50 50" style="enable-background:new 0 0 50 50;" xml:space="preserve">
<style type="text/css">
	.st0{fill:#75020E;}
</style>
<g>
	<path class="st0" d="M2.8,24.98C2.8,12.74,12.77,2.8,25.02,2.81c12.24,0.01,22.2,9.99,22.18,22.22   c-0.02,12.24-9.98,22.17-22.23,22.16C12.71,47.18,2.79,37.24,2.8,24.98z M25,4.47c-11.3,0-20.54,9.22-20.55,20.5   c-0.01,11.33,9.19,20.56,20.51,20.57c11.33,0.01,20.58-9.2,20.59-20.49C45.56,13.72,36.32,4.47,25,4.47z"></path>
	<path class="st0" d="M29.42,19.94c0.31,0,0.61,0.01,0.92,0c0.67-0.02,1.09-0.39,1.2-1.06c0.14-0.82-0.05-1.62-0.2-2.43   c-0.11-0.6-0.27-1.2-0.28-1.81c-0.02-0.67,0.13-1.3,0.63-1.78c0.41-0.4,0.69-0.34,0.92,0.19c0.26,0.6,0.28,1.24,0.04,1.83   c-0.26,0.64-0.19,1.25-0.05,1.86c0.32,1.39,0.14,2.69-0.74,3.85c-0.15,0.2-0.05,0.26,0.12,0.32c0.42,0.16,0.83,0.33,1.25,0.48   c1.33,0.49,2.66,0.97,3.99,1.46c0.48,0.18,0.94,0.4,1.31,0.77c0.34,0.34,0.37,0.89,0.08,1.38c-0.26,0.43-0.7,0.6-1.18,0.44   c-0.85-0.28-1.68-0.6-2.56-0.77c-1.44-0.28-2.82,0.01-4.18,0.41c-0.79,0.23-1.59,0.45-2.39,0.69c-0.5,0.15-1.01,0.14-1.52,0.1   c-0.82-0.06-1.44-0.48-1.86-1.18c-0.12-0.21-0.17-0.27-0.34-0.01c-0.79,1.19-2.26,1.76-3.58,0.86c-0.14-0.1-0.22-0.09-0.28,0.07   c-1.04,2.45-3.05,3.68-5.5,4.34c-1.87,0.5-3.67,0.32-5.31-0.79c-0.74-0.5-1.01-1.26-1.12-2.09c-0.22-1.58,0.43-2.89,1.29-4.13   c0.22-0.31,0.47-0.6,0.71-0.9c0.13-0.16,0.28-0.3,0.48-0.37c0.05-0.02,0.11-0.04,0.15-0.02c0.07,0.04,0.03,0.12,0,0.17   c-0.12,0.27-0.25,0.53-0.38,0.79c-0.39,0.82-0.85,1.62-0.98,2.52c-0.22,1.6,0.34,2.63,1.67,3.09c1.07,0.37,2.16,0.37,3.24,0.09   c0.81-0.21,1.6-0.52,2.37-0.87c1.68-0.77,2.54-2.07,2.55-3.92c0.01-1.35-0.15-2.7-0.23-4.05c-0.08-1.33-0.38-2.63-0.49-3.94   c-0.07-0.78-0.13-1.59,0.32-2.31c0.16-0.25,0.32-0.55,0.65-0.53c0.31,0.02,0.46,0.33,0.6,0.59c0.28,0.51,0.35,1.06,0.13,1.59   c-0.37,0.92-0.26,1.86-0.18,2.79c0.11,1.37,0.43,2.72,0.52,4.1c0.02,0.34,0.06,0.69,0.03,1.03c-0.1,1.24,0.99,1.77,2,1.46   c0.76-0.23,1.25-0.75,1.56-1.47c0.04-0.1,0.03-0.28,0.15-0.27c0.14,0,0.16,0.18,0.2,0.29c0.23,0.65,0.69,1.06,1.33,1.27   c0.56,0.19,1.12,0.04,1.67-0.03c1.2-0.17,2.34-0.62,3.53-0.83c0.43-0.08,0.86-0.11,1.29-0.17c0.06-0.01,0.15-0.02,0.17-0.06   c0.03-0.07-0.06-0.1-0.12-0.12c-1.45-0.6-2.85-1.31-4.41-1.6c-0.92-0.17-1.69,0.02-2.27,0.8c-0.13,0.18-0.16,0.01-0.2-0.06   c-0.22-0.39-0.12-0.86,0.3-1.23c0.6-0.53,1.3-0.85,2.11-0.89c0.29-0.01,0.59,0,0.88,0C29.42,19.9,29.42,19.92,29.42,19.94z"></path>
	<path class="st0" d="M12.61,37.14c-0.01-1.56,0.41-2.99,1.27-4.3c0.11-0.16,0.22-0.44,0.42-0.34c0.13,0.07-0.01,0.35-0.1,0.52   c-0.61,1.12-0.89,2.33-0.86,3.6c0.03,1.49,1.16,2.49,2.62,2.22c2.12-0.39,3.71-1.58,4.77-3.44c0.52-0.91,0.45-1.9,0.1-2.85   c-0.27-0.73-0.6-1.43-0.9-2.15c-0.31-0.74-0.17-1.45,0.22-2.12c0.26-0.43,0.48-0.43,0.75,0c0.4,0.64,0.53,1.37,0.71,2.09   c0.26,1.06,0.48,2.14,0.86,3.17c0.31,0.83,0.73,1.6,1.48,2.14c0.58,0.41,1.21,0.6,1.91,0.52c0.1-0.01,0.23,0.01,0.26-0.11   c0.03-0.09-0.08-0.15-0.14-0.21c-0.36-0.37-0.68-0.76-0.94-1.2c-1.13-1.95,0.43-4.81,2.62-4.94c1.63-0.1,2.7,0.63,2.67,2.34   c0,0.14-0.04,0.28-0.07,0.41c-0.04,0.16-0.1,0.38-0.26,0.39c-0.14,0.01-0.1-0.23-0.16-0.35c-0.1-0.22-0.23-0.4-0.41-0.55   c-0.72-0.61-2.1-0.76-2.93-0.31c-0.6,0.32-0.73,0.63-0.53,1.27c0.33,1.01,0.91,1.82,1.89,2.3c0.18,0.09,0.35,0.11,0.55,0.06   c0.6-0.13,1.11-0.45,1.6-0.8c0.5-0.35,1.01-0.69,1.63-0.82c0.53-0.11,0.76,0.04,0.87,0.56c0.05,0.23,0.02,0.46-0.03,0.68   c-0.05,0.22-0.09,0.33-0.4,0.27c-0.52-0.1-0.98,0.17-1.45,0.38c-0.84,0.37-1.08,1.06-1.07,1.89c0.01,0.91,0.21,1.75,1.08,2.22   c0.64,0.34,1.33,0.28,2.01,0.1c0.41-0.11,0.81-0.24,1.17-0.46c1.63-0.99,3.18-2.09,4.43-3.55c0.32-0.37,0.59-0.77,0.82-1.2   c0.22-0.41,0.06-0.72-0.4-0.8c-0.4-0.08-0.79,0.03-1.18,0.06c-0.13,0.01-0.25,0.04-0.38,0.03c-1.15-0.09-1.73-0.58-1.79-1.5   c-0.09-1.28,0.59-2.39,1.59-2.62c0.56-0.13,1.06,0.07,1.51,0.39c1.37,0.99,1.78,2.31,1.54,3.96c-0.17,1.11-0.72,1.97-1.42,2.77   c-1.49,1.69-3.21,3.1-5.19,4.19c-0.74,0.41-1.57,0.53-2.41,0.37c-0.97-0.17-1.55-0.78-1.81-1.71c-0.26-0.93-0.18-1.84,0.1-2.75   c0.04-0.12,0.13-0.28,0.03-0.36c-0.11-0.08-0.23,0.07-0.33,0.13c-0.93,0.54-1.87,1.05-2.96,1.2c-1.59,0.22-3.02-0.54-3.76-1.99   c-0.09-0.18-0.11-0.5-0.31-0.51c-0.14,0-0.15,0.34-0.22,0.53c-0.26,0.66-0.61,1.26-1.1,1.78c-1.07,1.14-2.34,2.02-3.79,2.6   c-0.72,0.29-1.49,0.43-2.24,0.14C13.32,40,12.75,39,12.62,37.71C12.6,37.52,12.61,37.33,12.61,37.14z M37.26,32.33   c0.29-0.09,0.74,0.06,0.94-0.32c0.1-0.2-0.58-0.71-0.97-0.75c-0.42-0.04-0.78,0.19-0.8,0.52c-0.02,0.29,0.23,0.48,0.67,0.53   C37.14,32.32,37.18,32.32,37.26,32.33z"></path>
	<path class="st0" d="M33.98,27.62c0,0.54-0.1,1.07-0.17,1.6c-0.14,1.09,0.15,2.13,0.42,3.16c0.31,1.17,0.63,2.34,0.57,3.57   c-0.05,0.9-0.39,1.71-0.82,2.48c-0.06,0.1-0.14,0.28-0.26,0.24c-0.1-0.04,0.02-0.2,0.03-0.31c0.15-1.27,0.02-2.52-0.26-3.76   c-0.4-1.74-0.96-3.44-1.22-5.21c-0.11-0.76-0.22-1.52-0.05-2.28c0.07-0.29,0.2-0.55,0.38-0.78c0.19-0.25,0.45-0.34,0.75-0.27   c0.28,0.06,0.46,0.25,0.53,0.54C33.96,26.93,33.98,27.27,33.98,27.62z"></path>
	<path class="st0" d="M14.78,23.48c-0.1-0.95-0.49-1.75-1.31-2.29c-0.14-0.09-0.29-0.16-0.44-0.23c-0.71-0.33-0.67-0.89-0.46-1.53   c0.08-0.23,0.23-0.31,0.48-0.17c0.81,0.44,1.46,1.02,1.77,1.92c0.03,0.08,0.08,0.22,0.12,0.22c0.13,0.01,0.12-0.14,0.15-0.23   c0.16-0.46,0.29-0.92,0.51-1.36c0.18-0.36,0.42-0.67,0.77-0.88c0.4-0.24,0.78-0.15,1.01,0.25c0.2,0.34,0.22,0.71,0.15,1.08   c-0.09,0.45-0.21,0.52-0.66,0.43c-0.49-0.1-0.85,0.05-1.16,0.54c-0.39,0.61-0.56,1.31-0.68,2.01c-0.01,0.09-0.01,0.18-0.04,0.26   c-0.05,0.14-0.04,0.41-0.16,0.39C14.65,23.86,14.82,23.63,14.78,23.48z"></path>
	<path class="st0" d="M38.12,17.8c-0.01,0.31-0.01,0.54-0.47,0.53c-0.45-0.01-0.79,0.32-1.02,0.72c-0.23,0.4-0.36,0.84-0.49,1.28   c-0.03,0.08,0.02,0.24-0.13,0.23c-0.09-0.01-0.07-0.15-0.08-0.23c-0.06-0.42-0.24-0.8-0.46-1.16c-0.17-0.28-0.43-0.45-0.71-0.63   c-0.4-0.25-0.44-0.81-0.12-1.15c0.12-0.13,0.24-0.1,0.38-0.05c0.22,0.08,0.4,0.23,0.56,0.39c0.17,0.18,0.28,0.21,0.34-0.08   c0.02-0.1,0-0.27,0.14-0.28c0.15-0.01,0.2,0.15,0.24,0.26c0.11,0.29,0.2,0.26,0.36,0.03c0.2-0.28,0.49-0.44,0.84-0.46   C37.92,17.19,38.14,17.41,38.12,17.8z"></path>
	<path class="st0" d="M27.77,39.61c-0.01,0.49-0.11,0.66-0.6,0.79c-1.37,0.36-2.71,0.81-3.98,1.43c-0.37,0.18-0.73,0.36-1.1,0.53   c-0.05,0.02-0.16,0.03-0.17,0c-0.05-0.09,0.04-0.13,0.1-0.17c1.57-1.2,3.27-2.16,5.13-2.82c0.07-0.03,0.14-0.05,0.22-0.07   C27.7,39.2,27.77,39.26,27.77,39.61z"></path>
	<path class="st0" d="M20.06,8.5c0.01,0.15-0.11,0.16-0.2,0.2c-0.12,0.06-0.19,0-0.23-0.11c-0.1-0.26-0.19-0.53-0.3-0.78   c-0.08-0.2-0.18-0.45-0.46-0.35c-0.28,0.11-0.34,0.36-0.22,0.64c0.1,0.24,0.18,0.48,0.28,0.71c0.06,0.14,0.05,0.24-0.11,0.3   c-0.15,0.05-0.24,0-0.3-0.14c-0.08-0.23-0.16-0.46-0.26-0.68c-0.09-0.21-0.16-0.53-0.48-0.41c-0.3,0.11-0.33,0.38-0.2,0.67   c0.09,0.21,0.17,0.43,0.25,0.64c0.06,0.14,0.08,0.26-0.11,0.34c-0.2,0.08-0.24-0.03-0.3-0.17c-0.16-0.42-0.32-0.83-0.48-1.25   c-0.04-0.09-0.09-0.19,0.01-0.28c0.06-0.05,0.16-0.09,0.21-0.04c0.16,0.17,0.22,0.04,0.3-0.08c0.2-0.26,0.45-0.39,0.77-0.24   c0.17,0.08,0.21-0.02,0.29-0.13c0.39-0.52,0.88-0.47,1.14,0.13C19.81,7.82,19.93,8.16,20.06,8.5z"></path>
	<path class="st0" d="M30.5,8.81c-1.12-0.02-1.71-0.82-1.34-1.81c0.33-0.89,1.45-1.14,2.15-0.5c0.13,0.12,0.19,0.28,0.08,0.4   c-0.13,0.15-0.21-0.05-0.3-0.11c-0.73-0.5-1.45-0.19-1.56,0.68c-0.05,0.38,0.14,0.71,0.49,0.86c0.39,0.16,0.67-0.05,0.63-0.47   c-0.02-0.16-0.15-0.15-0.25-0.19c-0.11-0.05-0.27-0.04-0.2-0.24c0.06-0.16,0.17-0.1,0.28-0.08c0.75,0.18,0.75,0.18,0.53,0.94   C30.86,8.82,30.86,8.82,30.5,8.81z"></path>
	<path class="st0" d="M11.23,33.54c0.17,0,0.38-0.16,0.57-0.36c0.05-0.05,0.09-0.15,0.18-0.08c0.04,0.03,0.05,0.12,0.04,0.17   c-0.06,0.42-0.22,0.82-0.49,1.15c-0.26,0.32-0.74,0.29-1.09-0.02c-0.27-0.24-0.38-0.57-0.42-0.92c-0.08-0.71,0.02-1.4,0.24-2.07   c0.02-0.06,0.04-0.12,0.08-0.17c0.04-0.06,0.1-0.15,0.18-0.12c0.1,0.04,0.03,0.13,0.01,0.2c-0.11,0.49-0.18,0.98-0.08,1.48   C10.52,33.27,10.76,33.55,11.23,33.54z"></path>
	<path class="st0" d="M26.87,8.8c-0.16-0.02-0.32-0.03-0.48-0.07c-0.47-0.11-0.57-0.38-0.3-0.78c0.07-0.1,0.03-0.18,0.03-0.27   c0.03-0.4,0.07-0.8,0.16-1.19c0.05-0.23,0.29-0.33,0.52-0.31c0.29,0.02,0.58,0.07,0.87,0.11c0.15,0.02,0.22,0.19,0.13,0.23   c-0.26,0.11-0.17,0.33-0.23,0.5c-0.14,0.35-0.43,0.4-0.76,0.36c-0.11-0.01-0.29-0.13-0.33,0.05c-0.05,0.22,0.17,0.21,0.31,0.24   c0.12,0.03,0.25,0.03,0.38,0.06c0.26,0.05,0.47,0.18,0.47,0.47c0,0.31-0.19,0.49-0.5,0.54C27.06,8.77,26.97,8.78,26.87,8.8z    M26.73,7.97c-0.21-0.01-0.37,0.06-0.36,0.26c0.01,0.26,0.25,0.26,0.43,0.27c0.18,0.01,0.39-0.03,0.38-0.26   C27.16,7.95,26.9,8.01,26.73,7.97z M26.89,7.11c0.22,0,0.33-0.12,0.34-0.32c0.01-0.21-0.13-0.33-0.33-0.33   c-0.19,0-0.3,0.12-0.32,0.31C26.57,6.98,26.68,7.09,26.89,7.11z"></path>
	<path class="st0" d="M41.22,15c0,0.11-0.08,0.14-0.14,0.18c-0.38,0.27-0.77,0.54-1.15,0.81c-0.13,0.1-0.22,0.09-0.31-0.05   c-0.09-0.13-0.1-0.22,0.05-0.31c0.28-0.18,0.54-0.39,0.82-0.56c0.19-0.12,0.26-0.24,0.09-0.42c-0.14-0.13-0.18-0.47-0.4-0.38   c-0.3,0.11-0.59,0.31-0.78,0.58c-0.06,0.08-0.01,0.18,0.05,0.24c0.07,0.08,0.12,0.14,0,0.21c-0.08,0.05-0.14,0.08-0.24,0.03   c-0.3-0.17-0.37-0.61-0.12-0.85c0.17-0.16,0.37-0.27,0.55-0.41c0.14-0.11,0.41-0.16,0.27-0.45c-0.01-0.02,0.02-0.1,0.04-0.1   c0.27-0.02,0.55-0.07,0.82-0.03c0.1,0.01,0.18,0.23,0,0.33c-0.23,0.13-0.16,0.27-0.04,0.43c0.14,0.18,0.27,0.37,0.4,0.56   C41.14,14.88,41.18,14.94,41.22,15z"></path>
	<path class="st0" d="M17.22,36.06c-0.07-0.65-0.34-1.16-0.95-1.45c-0.07-0.03-0.14-0.07-0.19-0.13c-0.22-0.21-0.2-0.49-0.06-0.7   c0.17-0.26,0.33,0.02,0.47,0.1c0.31,0.17,0.51,0.45,0.65,0.77c0.02,0.06,0.06,0.14,0.1,0.15c0.09,0.01,0.1-0.09,0.13-0.16   c0.1-0.29,0.18-0.59,0.37-0.83c0.16-0.2,0.34-0.44,0.63-0.29c0.3,0.15,0.29,0.45,0.24,0.74c-0.03,0.15-0.11,0.26-0.3,0.2   c-0.4-0.12-0.59,0.14-0.74,0.43C17.37,35.25,17.31,35.66,17.22,36.06z"></path>
	<path class="st0" d="M12.58,10.02c0.33,0.03,0.53,0.22,0.67,0.49c0.16,0.31,0.12,0.64-0.12,0.84c-0.39,0.33-0.33,0.58,0.01,0.86   c0.13,0.11,0.18,0.23,0.02,0.38c-0.17,0.16-0.26,0.05-0.37-0.08c-0.42-0.49-0.85-0.98-1.28-1.46c-0.14-0.15-0.16-0.27,0.02-0.41   C11.85,10.4,12.12,10.05,12.58,10.02z M12.9,10.99c-0.01-0.28-0.27-0.54-0.5-0.51c-0.21,0.03-0.39,0.13-0.44,0.35   c-0.02,0.09,0.51,0.64,0.58,0.62C12.75,11.35,12.88,11.19,12.9,10.99z"></path>
	<path class="st0" d="M30.06,26.08c0.36,0.18,0.78,0.31,1.08,0.65c0.08,0.09,0,0.17-0.04,0.24c-0.09,0.15-0.18,0.31-0.29,0.44   c-0.15,0.17-0.18,0.52-0.46,0.48c-0.37-0.05-0.74-0.18-1.01-0.47c-0.02-0.02-0.04-0.04-0.05-0.06   C29.17,27.13,29.78,26.09,30.06,26.08z"></path>
	<path class="st0" d="M25.09,26.51c0.16-0.01,1.04,0.56,1.1,0.7c0.04,0.08,0.01,0.15-0.03,0.21c-0.19,0.3-0.39,0.6-0.58,0.9   c-0.06,0.1-0.13,0.1-0.22,0.03c-0.13-0.09-0.26-0.16-0.39-0.24c-0.23-0.15-0.63-0.26-0.59-0.53c0.06-0.39,0.33-0.74,0.62-1.03   C25.03,26.53,25.07,26.52,25.09,26.51z"></path>
	<path class="st0" d="M23.2,28.73c-0.31-0.07-0.6-0.22-0.8-0.5c-0.03-0.05-0.07-0.13-0.06-0.17c0.15-0.4,0.36-0.76,0.65-1.07   c0.07-0.08,0.17-0.01,0.25,0.01c0.95,0.3,1.05,0.6,0.45,1.39C23.46,28.72,23.42,28.75,23.2,28.73z"></path>
	<path class="st0" d="M9.37,17.6c-0.01,0.55-0.39,0.98-0.86,0.97c-0.58-0.01-1.11-0.47-1.1-0.95c0.01-0.53,0.41-0.98,0.88-0.97   C8.88,16.66,9.38,17.09,9.37,17.6z M8.25,17.08c-0.3-0.01-0.44,0.17-0.47,0.44c-0.03,0.28,0.39,0.59,0.77,0.6   c0.3,0.01,0.45-0.16,0.46-0.44C9.03,17.41,8.62,17.1,8.25,17.08z"></path>
	<path class="st0" d="M16.88,9.52c0,0.49-0.44,0.91-0.98,0.92c-0.47,0-0.92-0.52-0.93-1.08c0-0.48,0.45-0.91,0.98-0.92   C16.43,8.43,16.88,8.96,16.88,9.52z M16.47,9.64c0-0.37-0.34-0.83-0.6-0.82c-0.27,0.01-0.45,0.15-0.46,0.45   c-0.01,0.33,0.34,0.79,0.6,0.78C16.27,10.04,16.45,9.89,16.47,9.64z"></path>
	<path class="st0" d="M40.19,16.77c0-0.47,0.52-0.9,1.09-0.9c0.49,0,0.9,0.46,0.9,0.99c0,0.46-0.54,0.91-1.09,0.91   C40.61,17.77,40.19,17.3,40.19,16.77z M40.97,17.35c0.39,0,0.84-0.34,0.83-0.61c-0.01-0.28-0.17-0.45-0.46-0.46   c-0.34-0.01-0.8,0.34-0.78,0.6C40.59,17.16,40.74,17.33,40.97,17.35z"></path>
	<path class="st0" d="M35.25,9.39c-0.12,0.45-0.43,0.85-0.7,1.28c-0.07,0.12-0.18,0.02-0.27-0.03c-0.12-0.06-0.12-0.15-0.06-0.25   c0.14-0.24,0.29-0.48,0.43-0.72c0.12-0.21,0.23-0.45-0.05-0.59c-0.24-0.12-0.47-0.05-0.61,0.22c-0.13,0.23-0.28,0.46-0.41,0.69   c-0.08,0.15-0.18,0.15-0.31,0.07c-0.12-0.08-0.14-0.16-0.07-0.28c0.25-0.41,0.49-0.84,0.74-1.25c0.14-0.23,0.35-0.13,0.35,0.04   c0,0.28,0.16,0.18,0.29,0.19C34.98,8.76,35.26,9,35.25,9.39z"></path>
	<path class="st0" d="M36.24,9.82c0.28,0.02,0.55,0.18,0.71,0.48c0.15,0.26,0.08,0.51-0.06,0.76c-0.12,0.21-0.25,0.27-0.45,0.1   c-0.16-0.14-0.34-0.27-0.52-0.39c-0.08-0.05-0.15-0.16-0.26-0.08c-0.09,0.07-0.11,0.17-0.1,0.28c0.02,0.32,0.28,0.43,0.51,0.56   c0.08,0.05,0.28,0.01,0.21,0.19c-0.06,0.18-0.22,0.13-0.35,0.08c-0.53-0.2-0.85-0.63-0.78-1.05C35.23,10.26,35.73,9.81,36.24,9.82z    M36.67,10.51c-0.05-0.2-0.18-0.35-0.41-0.36c-0.15,0-0.38,0.08-0.33,0.23c0.07,0.22,0.32,0.36,0.54,0.43   C36.61,10.84,36.63,10.65,36.67,10.51z"></path>
	<path class="st0" d="M42.7,18.81c0-0.23-0.31-0.44-0.56-0.37c-0.27,0.08-0.53,0.19-0.79,0.29c-0.14,0.05-0.26,0.09-0.34-0.1   c-0.08-0.2,0.02-0.24,0.17-0.3c0.43-0.16,0.86-0.32,1.29-0.49c0.08-0.03,0.17-0.07,0.24,0.02c0.06,0.07,0.1,0.18,0.02,0.24   c-0.18,0.16-0.01,0.2,0.08,0.27c0.48,0.39,0.42,0.89-0.14,1.13c-0.31,0.14-0.64,0.24-0.96,0.37c-0.14,0.06-0.22,0.02-0.27-0.11   c-0.05-0.13-0.05-0.24,0.12-0.3c0.28-0.1,0.55-0.2,0.82-0.31C42.54,19.1,42.68,19,42.7,18.81z"></path>
	<path class="st0" d="M11.01,14.79c-0.41-0.01-0.64-0.33-0.54-0.7c0.05-0.17,0.15-0.32,0.26-0.46c0.06-0.09,0.18-0.17,0.05-0.29   c-0.13-0.12-0.27-0.14-0.42-0.03c-0.16,0.12-0.23,0.3-0.29,0.48c-0.03,0.08-0.04,0.2-0.17,0.14c-0.09-0.04-0.15-0.11-0.12-0.21   c0.09-0.36,0.27-0.67,0.6-0.85c0.27-0.15,0.51-0.01,0.73,0.17c0.24,0.2,0.49,0.41,0.74,0.6c0.17,0.13,0.11,0.3-0.03,0.32   c-0.23,0.03-0.22,0.17-0.27,0.32C11.48,14.57,11.28,14.76,11.01,14.79z M11.38,14c0-0.2-0.11-0.36-0.25-0.34   c-0.22,0.02-0.31,0.23-0.33,0.44c-0.01,0.16,0.09,0.27,0.25,0.26C11.29,14.35,11.35,14.18,11.38,14z"></path>
	<path class="st0" d="M31.45,8.67c0.04-0.35,0.18-0.73,0.56-0.96c0.29-0.17,0.59-0.11,0.87,0.05c0.39,0.22,0.5,0.68,0.27,1.06   C33.08,8.94,33,8.97,32.87,8.91c-0.21-0.1-0.42-0.19-0.63-0.27C32.13,8.59,32,8.46,31.91,8.62c-0.07,0.12-0.06,0.27,0.03,0.4   c0.15,0.2,0.37,0.26,0.6,0.3c0.09,0.01,0.24-0.02,0.22,0.13c-0.02,0.15-0.13,0.19-0.28,0.17C31.87,9.56,31.45,9.2,31.45,8.67z    M32.66,8.54c0.2,0,0.19-0.13,0.19-0.24c0-0.26-0.17-0.36-0.4-0.37c-0.16,0-0.36,0.1-0.34,0.25C32.16,8.47,32.51,8.4,32.66,8.54z"></path>
	<path class="st0" d="M24.01,7.01c0-0.23-0.01-0.46,0-0.69c0.01-0.25,0.19-0.3,0.31-0.14c0.13,0.17,0.18,0.09,0.29,0.02   c0.54-0.31,0.95-0.1,1.01,0.52c0.03,0.32,0.02,0.63,0.04,0.95c0.01,0.15,0,0.28-0.2,0.29c-0.24,0.01-0.22-0.15-0.23-0.31   c-0.01-0.27-0.01-0.53-0.03-0.8c-0.02-0.21-0.07-0.43-0.35-0.41c-0.25,0.02-0.41,0.18-0.41,0.46c0,0.25,0,0.51,0,0.76   c0,0.16,0.02,0.31-0.22,0.3c-0.22,0-0.21-0.14-0.21-0.28c0-0.23,0-0.46,0-0.69C24.02,7.01,24.01,7.01,24.01,7.01z"></path>
	<path class="st0" d="M38.05,12.63c0.3,0.02,0.5,0.2,0.69,0.39c0.08,0.08,0.16,0.23,0.31,0.08c0.12-0.12,0.17-0.25,0.06-0.41   c-0.1-0.15-0.25-0.25-0.41-0.33c-0.07-0.04-0.2-0.04-0.14-0.17c0.04-0.1,0.14-0.16,0.25-0.11c0.34,0.14,0.62,0.37,0.74,0.73   c0.11,0.32-0.09,0.53-0.31,0.72c-0.23,0.2-0.46,0.4-0.68,0.61c-0.16,0.15-0.31,0.06-0.31-0.07c0.01-0.25-0.17-0.26-0.31-0.34   c-0.28-0.16-0.43-0.4-0.34-0.73C37.65,12.77,37.83,12.67,38.05,12.63z M38.69,13.38c-0.11-0.16-0.22-0.33-0.44-0.36   c-0.16-0.02-0.29,0.07-0.29,0.23c-0.01,0.23,0.15,0.33,0.36,0.36C38.49,13.64,38.6,13.55,38.69,13.38z"></path>
	<path class="st0" d="M6.01,19.35c0.11-0.31,0.21-0.63,0.32-0.94c0.03-0.09,0.08-0.16,0.2-0.12c0.11,0.04,0.18,0.1,0.14,0.23   c-0.04,0.12-0.07,0.25-0.12,0.36c-0.14,0.28-0.03,0.39,0.25,0.48c0.29,0.1,0.43,0.05,0.49-0.25c0.02-0.11,0.07-0.22,0.11-0.32   c0.04-0.12,0.12-0.11,0.22-0.08c0.1,0.03,0.15,0.09,0.11,0.2c0,0.01-0.01,0.02-0.01,0.04c-0.03,0.22-0.28,0.44-0.11,0.63   c0.12,0.14,0.39,0.16,0.59,0.24c0.14,0.05,0.31,0.08,0.24,0.3c-0.07,0.23-0.22,0.19-0.39,0.13c-0.59-0.2-1.18-0.4-1.77-0.59   C6.11,19.61,5.95,19.58,6.01,19.35z"></path>
	<path class="st0" d="M39.7,27.23c-0.01,0.27-0.08,0.45-0.34,0.52c-1.12,0.29-2.21,0.69-3.23,1.25c-0.06,0.03-0.11,0.06-0.18,0.02   c0.03-0.04,0.05-0.08,0.08-0.1c1-0.79,2.11-1.38,3.3-1.8C39.48,27.06,39.7,26.92,39.7,27.23z"></path>
	<path class="st0" d="M22.04,6.59c-0.2,0.01-0.41,0-0.43,0.24c-0.01,0.22,0.2,0.22,0.36,0.26c0.51,0.12,0.72,0.38,0.61,0.73   c-0.11,0.32-0.7,0.56-1.04,0.43c-0.11-0.04-0.18-0.12-0.17-0.23c0.02-0.17,0.15-0.08,0.24-0.07c0.1,0.02,0.2,0.04,0.3,0   c0.13-0.04,0.25-0.09,0.26-0.24c0.01-0.16-0.12-0.21-0.24-0.25c-0.12-0.04-0.25-0.06-0.37-0.1c-0.23-0.07-0.36-0.22-0.37-0.47   c-0.01-0.25,0.12-0.4,0.33-0.51c0.15-0.08,0.32-0.09,0.48-0.09c0.14,0.01,0.31,0,0.29,0.2C22.27,6.71,22.11,6.55,22.04,6.59z"></path>
	<path class="st0" d="M9.11,15.17c-0.33,0.55,0.07,0.73,0.41,0.94c0.14,0.09,0.28,0.17,0.43,0.25c0.12,0.07,0.1,0.16,0.04,0.26   c-0.06,0.1-0.11,0.21-0.26,0.12c-0.44-0.26-0.88-0.52-1.31-0.79c-0.19-0.11-0.07-0.33,0.03-0.32c0.35,0.03,0.18-0.19,0.19-0.33   c0.01-0.16,0.04-0.32,0.25-0.3C8.98,15,9.08,15.07,9.11,15.17z"></path>
	<path class="st0" d="M38.48,11.65c-0.01,0.1-0.08,0.16-0.14,0.22c-0.08,0.07-0.13,0.01-0.19-0.04c-0.26-0.21-0.49-0.15-0.7,0.08   c-0.17,0.18-0.34,0.35-0.49,0.53c-0.11,0.12-0.2,0.13-0.32,0.02c-0.11-0.11-0.14-0.19-0.02-0.32c0.34-0.35,0.66-0.71,0.99-1.06   c0.12-0.13,0.31-0.09,0.3,0.02c-0.03,0.34,0.21,0.29,0.39,0.34C38.4,11.47,38.47,11.54,38.48,11.65z"></path>
	<path class="st0" d="M13.84,9.75c0.15,0.12,0.16-0.01,0.18-0.09c0.04-0.11,0.06-0.22,0.16-0.3c0.11-0.08,0.21-0.08,0.29,0.04   c0.07,0.09,0.14,0.17-0.01,0.28c-0.28,0.21-0.26,0.47-0.05,0.73c0.14,0.18,0.26,0.38,0.4,0.56c0.09,0.13,0.09,0.23-0.05,0.32   c-0.14,0.1-0.23,0.05-0.32-0.07c-0.26-0.38-0.53-0.75-0.8-1.13c-0.05-0.07-0.15-0.13-0.08-0.23C13.63,9.78,13.72,9.69,13.84,9.75z"></path>
	<path class="st0" d="M20.94,8.19c0.04,0.24-0.08,0.25-0.17,0.29c-0.12,0.05-0.2,0.02-0.23-0.11c-0.12-0.49-0.24-0.99-0.37-1.48   c-0.04-0.16,0.05-0.2,0.17-0.24c0.11-0.03,0.21-0.01,0.24,0.12C20.71,7.27,20.84,7.77,20.94,8.19z"></path>
	<path class="st0" d="M22.95,6.6c0-0.04,0.01-0.1,0-0.16c-0.02-0.17,0.07-0.23,0.21-0.25c0.15-0.01,0.2,0.07,0.21,0.21   c0.05,0.48,0.09,0.96,0.14,1.44c0.02,0.15-0.06,0.2-0.2,0.21c-0.13,0.01-0.22-0.03-0.24-0.18C23.04,7.46,22.99,7.04,22.95,6.6z"></path>
	<path class="st0" d="M23.07,5.87c-0.15,0.01-0.24-0.07-0.25-0.22c-0.01-0.18,0.12-0.23,0.27-0.24c0.16-0.01,0.22,0.09,0.23,0.24   C23.32,5.82,23.2,5.85,23.07,5.87z"></path>
	<path class="st0" d="M20.18,6.35c-0.17,0-0.22-0.11-0.22-0.25c0-0.17,0.13-0.2,0.26-0.22c0.17-0.03,0.23,0.09,0.24,0.23   C20.47,6.3,20.31,6.32,20.18,6.35z"></path>
	<path class="st0" d="M41.58,14.28c0.17,0.05,0.26,0.15,0.26,0.3c0.01,0.14-0.1,0.21-0.22,0.21c-0.17,0.01-0.25-0.12-0.27-0.26   C41.33,14.37,41.48,14.33,41.58,14.28z"></path>
</g>
</svg>
