<?xml version="1.0" encoding="UTF-8"?>
<!-- Generator: Adobe Illustrator 26.0.0, SVG Export Plug-In . SVG Version: 6.00 Build 0)  -->
<svg xmlns="http://www.w3.org/2000/svg" xmlns:xlink="http://www.w3.org/1999/xlink" version="1.1" id="Layer_1" x="0px" y="0px" viewBox="0 0 50 50" style="enable-background:new 0 0 50 50;" xml:space="preserve">
<style type="text/css">
	.st0{fill:#75020E;}
</style>
<g>
	<path class="st0" d="M25.02,2.81c12.24,0.01,22.2,9.99,22.19,22.22c-0.02,12.26-9.99,22.18-22.27,22.16   C12.69,47.17,2.78,37.21,2.8,24.94C2.82,12.73,12.79,2.8,25.02,2.81z M4.45,24.98c-0.01,11.31,9.19,20.54,20.48,20.56   c11.33,0.02,20.6-9.18,20.62-20.47c0.02-11.34-9.2-20.6-20.53-20.61C13.71,4.45,4.45,13.67,4.45,24.98z"></path>
	<g>
		<path class="st0" d="M19.9,26.41c-0.2,0.04-0.49,0.12-0.86,0.24c-0.49,0.15-0.98,0.31-1.47,0.46c-0.49,0.13-1.02,0.19-1.6,0.19    c-2.81,0-4.21-1.1-4.21-3.29c0-0.82,0.21-1.68,0.62-2.58c0.35-0.75,0.73-1.3,1.12-1.66c-0.23-0.13-0.46-0.25-0.68-0.38    c-0.4-0.24-0.72-0.49-0.95-0.75c-0.32-0.36-0.48-0.73-0.48-1.12c0-0.57,0.21-1.06,0.63-1.45c0.4-0.38,0.86-0.57,1.37-0.58    c0.56-0.01,1.08,0.1,1.58,0.33c0.43,0.2,0.64,0.36,0.64,0.49c0,0.04-0.03,0.05-0.08,0.05c-0.04,0-0.09-0.01-0.15-0.03    c-0.45-0.12-0.76-0.18-0.95-0.18c-0.45,0-1,0.1-1.65,0.3c-0.67,0.21-1.01,0.4-1.01,0.58c0,0.32,0.26,0.69,0.79,1.12    c0.6,0.49,1.23,0.74,1.9,0.74c0.07,0,0.15,0,0.22-0.01c0.7-0.42,1.53-0.93,2.46-1.51c0.1-0.06,0.16-0.09,0.19-0.09    c0.03,0,0.04,0.01,0.04,0.04c0,0.04-0.02,0.1-0.05,0.18c-0.07,0.19-0.15,0.41-0.26,0.64c-0.07,0.09-0.52,0.39-1.37,0.91    c-0.98,0.6-1.54,0.95-1.67,1.04c-0.6,0.42-1.07,1.01-1.44,1.75c-0.31,0.63-0.47,1.21-0.47,1.73c0,1.13,0.52,1.91,1.55,2.35    c0.7,0.3,1.74,0.46,3.12,0.47c0.74,0.01,1.7-0.06,2.89-0.2c0.07-0.01,0.14-0.01,0.2-0.01c0.19,0,0.29,0.03,0.29,0.09    C20.18,26.32,20.09,26.37,19.9,26.41z"></path>
		<path class="st0" d="M22.05,21.17c-0.1,0.01-0.2,0.01-0.31,0.01c-0.01,0.05-0.03,0.15-0.06,0.3c-0.09,0.47-0.28,0.86-0.57,1.19    c-0.59,0.54-1.28,1.07-2.07,1.58c-0.71,0.46-1.3,0.78-1.76,0.97c-0.96,0.14-1.82,0.35-2.57,0.63c-0.16,0.06-0.28,0.09-0.38,0.09    c-0.06,0-0.09-0.01-0.09-0.04c0-0.06,0.12-0.14,0.36-0.24c0.74-0.32,1.5-0.68,2.29-1.08c0.97-0.49,1.98-1.1,3.03-1.82    c1.02-0.71,1.53-1.14,1.54-1.3c-0.02-0.11-0.05-0.2-0.09-0.28c-0.83,0-1.35-0.04-1.56-0.13c-0.11-0.05-0.22-0.13-0.32-0.26    c-0.11-0.14-0.17-0.28-0.17-0.41c0-0.37,0.12-0.71,0.35-1.04c0.23-0.33,0.46-0.49,0.71-0.49c0.18,0,0.4,0.14,0.68,0.43    c0.29,0.3,0.49,0.62,0.6,0.97c0.14,0,0.27,0,0.39-0.01V21.17z M20.75,20.25c-0.04-0.05-0.09-0.12-0.14-0.2    c-0.09-0.13-0.21-0.2-0.35-0.21c-0.11,0-0.19,0.02-0.26,0.07c-0.07,0.05-0.1,0.13-0.09,0.23C19.97,20.19,20.25,20.23,20.75,20.25z    "></path>
		<path class="st0" d="M29.09,21.17c-0.58,0-1.13-0.02-1.64-0.06c-0.26-0.02-0.52-0.04-0.78-0.06c-0.26-0.02-0.47-0.06-0.63-0.13    c-0.1-0.03-0.17-0.15-0.22-0.36c-1.5,0.4-2.75,0.6-3.77,0.6v-0.92c0.43,0,0.87-0.02,1.32-0.07c0.3-0.38,0.56-0.69,0.79-0.93    c0.03-0.54,0.04-0.94,0.01-1.2c-0.06-0.56-0.16-1.21-0.31-1.94c-0.25-1.21-0.39-1.88-0.41-2.01c-0.11-0.5-0.24-1.22-0.39-2.15    c-0.02-0.04-0.04-0.08-0.06-0.11c-0.02-0.03-0.05-0.09-0.09-0.18c-0.03-0.03,0.05-0.32,0.22-0.85c0.01-0.03,0.02-0.04,0.03-0.04    c0.02,0,0.09,0.09,0.19,0.28c0.61,1.08,0.85,1.62,0.72,1.62c-0.02,0-0.05-0.02-0.09-0.05c-0.14-0.1-0.25-0.22-0.33-0.35    c-0.02,0.12,0.09,0.68,0.31,1.68c0.27,1.23,0.46,2.3,0.56,3.22c0.07,0.58,0.04,1.16-0.08,1.75c1.08-1.11,1.94-1.67,2.6-1.67    c0.49,0,0.92,0.14,1.26,0.42c0.21,0.18,0.35,0.35,0.41,0.51c0.01,0.06,0.02,0.12,0.02,0.18c0,0.37-0.26,0.83-0.79,1.38    c-0.26,0.14-0.59,0.29-1,0.43c0.13,0.01,0.33,0.02,0.6,0.04c0.37,0.03,0.89,0.04,1.54,0.03V21.17z M28.32,18.85    c-0.54-0.5-1.07-0.75-1.58-0.75c-0.67,0-1.61,0.68-2.81,2.03c0.49-0.05,0.95-0.12,1.39-0.22C26.63,19.61,27.63,19.25,28.32,18.85z    "></path>
		<path class="st0" d="M29.19,15.27c0.01,0.01,0.02,0.03,0.02,0.07c0,0.22-0.08,0.49-0.23,0.8c0,0.01-0.02,0.02-0.03,0.02    c-0.04,0-0.28-0.16-0.7-0.47c-0.02-0.01-0.03-0.04-0.03-0.08c0,0.03,0.07-0.25,0.21-0.83c0-0.01,0.01-0.01,0.02-0.01    c0.03,0,0.12,0.07,0.29,0.2C28.93,15.12,29.08,15.22,29.19,15.27z M29.86,16.56c0.02,0.01,0.03,0.04,0.03,0.08    c0,0.04-0.07,0.3-0.22,0.79c-0.01,0.02-0.02,0.03-0.04,0.03c-0.02,0-0.11-0.06-0.28-0.18c-0.18-0.14-0.36-0.24-0.52-0.29    c-0.01,0-0.01-0.02-0.01-0.04c0-0.07,0.04-0.24,0.12-0.49c0.08-0.24,0.12-0.36,0.13-0.35C29.28,16.23,29.55,16.38,29.86,16.56z     M31.6,21.17c-0.13,0-0.3-0.05-0.51-0.16c-0.25-0.12-0.42-0.27-0.54-0.43c-0.09-0.14-0.13-0.31-0.12-0.52    c-0.19,0.39-0.35,0.65-0.47,0.76c-0.24,0.23-0.53,0.35-0.87,0.35v-0.92c0.41,0,0.72-0.07,0.91-0.21c0.05-0.03,0.12-0.13,0.2-0.28    c0.09-0.18,0.15-0.28,0.16-0.3c0.22-0.28,0.33-0.34,0.33-0.17c0,0.06-0.02,0.14-0.05,0.24c0.02,0.06,0.06,0.14,0.11,0.23    c0.05,0.09,0.18,0.19,0.38,0.32c0.2,0.12,0.36,0.18,0.47,0.18V21.17z"></path>
		<path class="st0" d="M33.16,18.65c0.02,0.84-0.11,1.45-0.39,1.83c-0.33,0.46-0.73,0.69-1.18,0.69v-0.92    c0.36,0,0.63-0.05,0.81-0.16c0.14-0.08,0.26-0.22,0.35-0.43c0.01-0.01,0.01-0.05,0.01-0.11c0-0.4-0.22-2.31-0.66-5.71    c-0.07-0.59-0.13-1.25-0.17-1.98c-0.01-0.03-0.05-0.09-0.12-0.18c-0.03-0.03-0.04-0.08-0.04-0.14c0-0.12,0.07-0.4,0.21-0.83    c0.01-0.03,0.02-0.05,0.04-0.05c0.04,0,0.11,0.1,0.18,0.3c0.45,0.85,0.68,1.41,0.68,1.66c0,0.04-0.01,0.07-0.04,0.07    c-0.02,0-0.05-0.01-0.09-0.04c-0.01-0.01-0.12-0.14-0.35-0.38C32.64,13.89,32.89,16.02,33.16,18.65z"></path>
		<path class="st0" d="M35.74,19.04c0.02,0.22,0.03,0.43,0.03,0.64c0,0.73-0.09,1.25-0.26,1.57c-0.07,0.12-0.11,0.18-0.14,0.18    c-0.05,0-0.05-0.14-0.02-0.42c0.04-0.35,0.05-0.72,0.01-1.11c-0.16-1.25-0.38-3.13-0.66-5.65c-0.04-0.46-0.09-1.12-0.18-1.99    c-0.01-0.05-0.07-0.18-0.18-0.39c-0.03-0.05,0.04-0.33,0.21-0.83c0.01-0.03,0.02-0.05,0.04-0.05c0.04,0,0.11,0.09,0.18,0.28    c0.14,0.29,0.27,0.58,0.4,0.87c0.21,0.45,0.32,0.72,0.32,0.83c0,0.04-0.01,0.05-0.04,0.05c-0.02,0-0.05-0.01-0.09-0.04    c-0.11-0.08-0.23-0.19-0.35-0.32c-0.01,0.12,0.08,0.93,0.27,2.42C35.51,16.87,35.66,18.19,35.74,19.04z"></path>
		<path class="st0" d="M19.64,32.28c-0.21,0.02-0.63,0.08-1.27,0.18c-0.29,0.06-0.7,0.2-1.23,0.43c0.2,0.05,0.58,0.15,1.14,0.3    c0.29,0.08,0.48,0.2,0.56,0.34c0.06,0.1,0.09,0.26,0.09,0.51c0,0.21-0.08,0.51-0.24,0.9c-0.12,0.29-0.83,0.76-2.11,1.4    c-1.34,0.67-2.37,1-3.11,1c-0.49,0-0.96-0.14-1.41-0.41c-0.77-0.46-1.15-1.24-1.15-2.32c0-1,0.24-1.93,0.71-2.79    c0.06-0.11,0.1-0.16,0.12-0.16c0.04,0,0.03,0.09-0.01,0.27c-0.09,0.3-0.18,0.6-0.27,0.91c-0.15,0.56-0.23,1.02-0.23,1.37    c0,0.68,0.23,1.23,0.68,1.64c0.43,0.39,0.98,0.58,1.66,0.58c0.63,0,1.46-0.22,2.5-0.66c0.58-0.25,1.13-0.53,1.67-0.84    c0.48-0.28,0.72-0.46,0.72-0.51c0-0.13-0.28-0.27-0.83-0.42c-0.86-0.23-1.33-0.36-1.42-0.39c-0.25-0.1-0.37-0.23-0.39-0.39    c0-0.03,0.03-0.15,0.09-0.37c0.07-0.24,0.13-0.39,0.18-0.43c0.28-0.18,0.87-0.41,1.78-0.67c0.54-0.16,1.14-0.28,1.78-0.37V32.28z     M16.83,38.67c0,0.11-0.03,0.24-0.08,0.39c-0.07,0.18-0.14,0.28-0.22,0.28c-0.04,0-0.2-0.08-0.48-0.25    c-0.31-0.18-0.46-0.3-0.46-0.37c0-0.08,0.11-0.35,0.32-0.82c0.13,0.13,0.34,0.28,0.63,0.45C16.73,38.46,16.83,38.57,16.83,38.67z     M18.14,38.29c0,0.07-0.03,0.19-0.09,0.36c-0.07,0.21-0.15,0.35-0.23,0.45c-0.58-0.32-0.87-0.52-0.87-0.6    c0-0.03,0.04-0.15,0.13-0.37c0.1-0.24,0.16-0.35,0.2-0.35C17.86,38.03,18.14,38.21,18.14,38.29z"></path>
		<path class="st0" d="M21.68,30.14c0.06,0.46-0.09,0.9-0.46,1.33c-0.15,0.18-0.37,0.35-0.66,0.51c-0.35,0.2-0.66,0.3-0.93,0.3    c0-0.31,0-0.61,0-0.92c0.39,0,0.8-0.12,1.23-0.35c0.38-0.21,0.55-0.36,0.52-0.45c-0.06-0.15-0.3-0.47-0.72-0.95    c-0.4-0.46-0.67-0.92-0.83-1.38c-0.09,0-0.14-0.02-0.13-0.07c0.02-0.16,0.04-0.39,0.08-0.67c0.03-0.14,0.07-0.17,0.14-0.11    c0.22,0.15,0.49,0.35,0.8,0.58c0.11,0.09,0.16,0.16,0.16,0.22c0,0.04-0.04,0.07-0.11,0.07c-0.12,0-0.23-0.01-0.32-0.03    c0.04,0.12,0.25,0.4,0.64,0.84C21.44,29.47,21.64,29.83,21.68,30.14z M21.49,34.1c0,0.29-0.09,0.55-0.27,0.78    c-0.25-0.13-0.51-0.27-0.77-0.4c-0.13-0.07-0.19-0.14-0.19-0.22c0,0.03,0.08-0.24,0.24-0.82c0.11,0.1,0.33,0.22,0.65,0.37    C21.38,33.91,21.49,34.01,21.49,34.1z"></path>
		<path class="st0" d="M26.37,32.31c0,0.36-0.02,0.55-0.06,0.55c-0.02,0-0.06-0.08-0.12-0.25c-0.07-0.2-0.12-0.32-0.15-0.37    c-0.27-0.44-0.5-0.76-0.69-0.94c-0.49-0.42-1.44-1.31-2.88-2.69c-0.25-0.24-0.5-0.48-0.74-0.72c-0.27-0.26-0.48-0.51-0.64-0.74    c-0.05-0.08-0.19-0.19-0.41-0.34c0.03-0.11,0.03-0.38,0-0.81c-0.01-0.01-0.01-0.02-0.01-0.03c0-0.02,0.05,0,0.16,0.07    c0.07,0.04,0.14,0.09,0.21,0.14c0.85,0.45,1.28,0.73,1.28,0.84c0,0.02-0.02,0.03-0.07,0.03c-0.03,0-0.07-0.01-0.12-0.02    c-0.05-0.01-0.16-0.03-0.33-0.05c0.11,0.18,0.49,0.58,1.16,1.2c1.36,1.24,2.13,1.95,2.3,2.11C26,30.98,26.37,31.66,26.37,32.31z     M28.6,35.41c-0.48,0-0.85-0.19-1.11-0.57c-0.28-0.4-0.5-1.23-0.68-2.49c-0.07,0.59-0.19,1.09-0.35,1.51    c-0.09,0.22-0.26,0.5-0.53,0.85c-0.37,0.49-0.75,0.82-1.13,0.99c-0.63,0.28-1.17,0.54-1.6,0.77c-0.17,0.09-0.27,0.13-0.32,0.13    c-0.02,0-0.03,0-0.03-0.01c0-0.05,0.1-0.15,0.3-0.31c0.7-0.56,1.15-0.92,1.36-1.09c0.55-0.46,0.95-0.84,1.2-1.14    c0.49-0.59,0.75-0.99,0.78-1.22c0.03-0.25,0.05-0.55,0.05-0.91c0-0.83-0.09-1.87-0.28-3.13c-0.18-0.98-0.38-2.03-0.58-3.16    c0-0.02,0.05-0.31,0.15-0.87c0.01-0.08,0.03-0.12,0.06-0.12c0.08,0,0.2,0.33,0.37,0.99c0.14,0.58,0.26,1.15,0.35,1.73    c0.21,1.31,0.42,3.02,0.64,5.12c0.14,1.34,0.59,2.01,1.35,2.01V35.41z"></path>
		<path class="st0" d="M35.65,35.41c-0.58,0-1.13-0.02-1.64-0.06c-0.26-0.02-0.52-0.04-0.78-0.06c-0.26-0.02-0.47-0.06-0.63-0.13    c-0.1-0.03-0.17-0.15-0.22-0.36c-1.5,0.4-2.75,0.6-3.77,0.6v-0.92c0.43,0,0.87-0.02,1.32-0.07c0.3-0.38,0.56-0.69,0.79-0.93    c0.03-0.54,0.04-0.94,0.01-1.2c-0.06-0.56-0.16-1.21-0.31-1.94c-0.25-1.21-0.39-1.88-0.41-2.01c-0.11-0.5-0.24-1.22-0.39-2.15    c-0.02-0.04-0.04-0.08-0.06-0.11c-0.02-0.03-0.05-0.09-0.09-0.18c-0.03-0.03,0.05-0.32,0.22-0.85c0.01-0.03,0.02-0.04,0.03-0.04    c0.02,0,0.09,0.09,0.19,0.28c0.61,1.08,0.85,1.62,0.72,1.62c-0.02,0-0.05-0.02-0.09-0.05c-0.14-0.1-0.25-0.22-0.33-0.35    c-0.02,0.12,0.09,0.68,0.31,1.68c0.27,1.23,0.46,2.3,0.56,3.22c0.07,0.58,0.04,1.16-0.08,1.75c1.08-1.11,1.94-1.67,2.6-1.67    c0.49,0,0.92,0.14,1.26,0.42c0.21,0.18,0.35,0.35,0.41,0.51c0.01,0.06,0.02,0.12,0.02,0.18c0,0.37-0.26,0.83-0.79,1.38    c-0.26,0.14-0.59,0.29-1,0.43c0.13,0.01,0.33,0.02,0.6,0.04c0.37,0.03,0.89,0.04,1.54,0.03V35.41z M34.88,33.08    c-0.54-0.5-1.07-0.75-1.58-0.75c-0.67,0-1.61,0.68-2.81,2.03c0.49-0.05,0.95-0.12,1.39-0.22C33.18,33.84,34.19,33.49,34.88,33.08z    "></path>
		<path class="st0" d="M37.22,32.89c0.02,0.84-0.11,1.45-0.39,1.83c-0.33,0.46-0.73,0.69-1.18,0.69v-0.92    c0.36,0,0.63-0.05,0.81-0.16c0.14-0.08,0.26-0.22,0.35-0.43c0.01-0.01,0.01-0.05,0.01-0.11c0-0.4-0.22-2.31-0.66-5.71    c-0.07-0.59-0.13-1.25-0.17-1.98c-0.01-0.03-0.05-0.09-0.12-0.18c-0.03-0.03-0.04-0.08-0.04-0.14c0-0.12,0.07-0.4,0.21-0.83    c0.01-0.03,0.02-0.05,0.04-0.05c0.04,0,0.11,0.1,0.18,0.3c0.45,0.85,0.68,1.41,0.68,1.66c0,0.04-0.01,0.07-0.04,0.07    c-0.02,0-0.05-0.01-0.09-0.04c-0.01-0.01-0.12-0.14-0.35-0.38C36.69,28.13,36.94,30.26,37.22,32.89z"></path>
		<path class="st0" d="M39.08,33.28c0.02,0.22,0.03,0.43,0.03,0.64c0,0.73-0.09,1.25-0.26,1.57c-0.07,0.12-0.11,0.18-0.14,0.18    c-0.05,0-0.05-0.14-0.02-0.42c0.04-0.35,0.05-0.72,0.01-1.11c-0.16-1.25-0.38-3.13-0.66-5.65c-0.04-0.46-0.09-1.12-0.18-1.99    c-0.01-0.05-0.07-0.18-0.18-0.39c-0.03-0.05,0.04-0.33,0.21-0.83c0.01-0.03,0.02-0.05,0.04-0.05c0.04,0,0.11,0.09,0.18,0.28    c0.14,0.29,0.27,0.58,0.4,0.87c0.21,0.45,0.32,0.72,0.32,0.83c0,0.04-0.01,0.05-0.04,0.05c-0.02,0-0.05-0.01-0.09-0.04    c-0.11-0.08-0.23-0.19-0.35-0.32c-0.01,0.12,0.08,0.93,0.27,2.42C38.85,31.11,39,32.42,39.08,33.28z"></path>
	</g>
	<g>
		<path class="st0" d="M8.17,33.26l0.3,0.54l1.58-0.87l0.25,0.45l-1.58,0.87l0.3,0.54l-0.36,0.2l-0.85-1.54L8.17,33.26z"></path>
		<path class="st0" d="M8.19,32.39c-0.07-0.03-0.13-0.07-0.18-0.12c-0.05-0.05-0.1-0.12-0.13-0.2c-0.03-0.08-0.05-0.15-0.05-0.23    c0-0.07,0.02-0.14,0.05-0.2c0.03-0.06,0.08-0.12,0.13-0.17s0.13-0.09,0.21-0.12l0.92-0.39l0.18,0.43L8.4,31.77    c-0.07,0.03-0.12,0.07-0.14,0.12c-0.03,0.05-0.03,0.11,0,0.17c0.02,0.05,0.05,0.09,0.09,0.12c0.04,0.03,0.08,0.06,0.13,0.09    l1.03-0.44l0.18,0.43L7.6,33.15l-0.18-0.43L8.19,32.39z"></path>
		<path class="st0" d="M8.26,30.55c0.12-0.05,0.2-0.12,0.24-0.2s0.04-0.17,0.01-0.26c-0.02-0.05-0.04-0.09-0.06-0.13    c-0.02-0.03-0.05-0.06-0.07-0.09c-0.02-0.02-0.05-0.05-0.07-0.07c-0.02-0.02-0.03-0.04-0.04-0.07c-0.01-0.04-0.01-0.07,0.01-0.09    l0.12-0.18c0.07,0.03,0.13,0.07,0.18,0.11c0.05,0.04,0.09,0.09,0.13,0.14c0.04,0.05,0.07,0.1,0.09,0.16    c0.03,0.05,0.05,0.11,0.06,0.16c0.03,0.11,0.05,0.21,0.04,0.31c-0.01,0.1-0.03,0.2-0.08,0.29c-0.05,0.09-0.11,0.17-0.2,0.24    s-0.2,0.13-0.33,0.17c-0.1,0.03-0.2,0.04-0.3,0.04C7.89,31.07,7.8,31.04,7.71,31s-0.17-0.1-0.23-0.18    c-0.07-0.08-0.12-0.17-0.16-0.29c-0.03-0.1-0.04-0.19-0.04-0.29c0-0.09,0.03-0.18,0.07-0.25c0.04-0.08,0.1-0.15,0.17-0.21    c0.07-0.06,0.17-0.11,0.27-0.14c0.03-0.01,0.06-0.02,0.08-0.02c0.02,0,0.04,0,0.06,0c0.02,0,0.03,0.01,0.04,0.02    c0.01,0.01,0.02,0.03,0.02,0.05L8.26,30.55z M7.83,30.07c-0.04,0.01-0.07,0.03-0.1,0.05s-0.06,0.04-0.08,0.07s-0.03,0.06-0.04,0.1    c-0.01,0.04,0,0.08,0.01,0.13c0.03,0.08,0.07,0.14,0.14,0.18c0.06,0.03,0.14,0.04,0.24,0.03L7.83,30.07z"></path>
		<path class="st0" d="M5.94,26.96l2.18-0.33l0.04,0.26c0.01,0.04,0,0.07,0,0.1c-0.01,0.03-0.03,0.06-0.05,0.09l-1.14,1.23    C7,28.3,7.04,28.29,7.08,28.28s0.07-0.01,0.1-0.02l1.17-0.18l0.07,0.45l-2.18,0.33L6.19,28.6c0-0.02,0-0.04-0.01-0.06    s0-0.03,0-0.04c0-0.01,0.01-0.03,0.02-0.04s0.02-0.03,0.03-0.04l1.15-1.24c-0.04,0.01-0.08,0.02-0.12,0.03    c-0.04,0.01-0.08,0.01-0.11,0.02l-1.15,0.18L5.94,26.96z"></path>
		<path class="st0" d="M6.76,26.39c-0.09-0.09-0.15-0.19-0.2-0.31s-0.07-0.24-0.08-0.37c0-0.09,0.01-0.18,0.04-0.26    c0.03-0.08,0.07-0.14,0.12-0.2s0.12-0.1,0.19-0.13c0.07-0.03,0.16-0.05,0.25-0.05l0.98-0.04l0.01,0.21c0,0.04,0,0.08-0.01,0.1    c-0.01,0.02-0.04,0.04-0.07,0.06L7.9,25.45c0.04,0.04,0.07,0.07,0.09,0.11c0.03,0.04,0.05,0.07,0.07,0.11    c0.02,0.04,0.03,0.08,0.04,0.12c0.01,0.04,0.02,0.09,0.02,0.15c0,0.07,0,0.14-0.02,0.2c-0.02,0.06-0.04,0.11-0.08,0.15    s-0.08,0.08-0.13,0.1s-0.11,0.04-0.19,0.04c-0.06,0-0.11-0.01-0.17-0.04c-0.06-0.03-0.11-0.07-0.17-0.14    c-0.05-0.07-0.09-0.16-0.13-0.28c-0.04-0.12-0.06-0.26-0.07-0.44l-0.07,0c-0.09,0-0.16,0.03-0.2,0.06    c-0.04,0.04-0.06,0.09-0.06,0.16c0,0.05,0.01,0.1,0.02,0.13c0.01,0.04,0.03,0.07,0.04,0.09c0.02,0.03,0.03,0.05,0.04,0.08    c0.01,0.03,0.02,0.06,0.02,0.09c0,0.03-0.01,0.06-0.02,0.08c-0.02,0.02-0.03,0.04-0.06,0.06L6.76,26.39z M7.44,25.52    c0.01,0.09,0.02,0.17,0.03,0.23c0.01,0.06,0.03,0.11,0.05,0.14c0.02,0.04,0.04,0.06,0.06,0.07c0.02,0.01,0.05,0.02,0.08,0.02    c0.05,0,0.09-0.02,0.11-0.05c0.02-0.03,0.03-0.07,0.03-0.13c0-0.06-0.02-0.11-0.04-0.16s-0.06-0.09-0.11-0.13L7.44,25.52z"></path>
		<path class="st0" d="M6.17,22.91c0.04,0,0.07,0.01,0.1,0.03c0.03,0.02,0.06,0.04,0.08,0.07c0.02,0.03,0.04,0.06,0.05,0.09    c0.01,0.04,0.02,0.07,0.01,0.11c0,0.04-0.01,0.07-0.03,0.11c-0.02,0.03-0.04,0.06-0.06,0.08c-0.03,0.02-0.06,0.04-0.09,0.06    c-0.03,0.01-0.07,0.02-0.11,0.02c-0.04,0-0.07-0.01-0.11-0.03c-0.03-0.02-0.06-0.04-0.08-0.07c-0.02-0.03-0.04-0.06-0.05-0.09    c-0.01-0.03-0.02-0.07-0.02-0.11c0-0.04,0.01-0.08,0.03-0.11c0.02-0.03,0.04-0.06,0.06-0.09c0.03-0.02,0.06-0.04,0.09-0.06    C6.09,22.91,6.13,22.91,6.17,22.91z M8.16,23.1l-0.03,0.47l-1.24-0.08l-0.04,0.66l0.78,0.05c0.04,0,0.07,0,0.09-0.02    s0.04-0.04,0.04-0.07c0-0.02,0-0.03,0-0.04s-0.01-0.02-0.01-0.03c0-0.01-0.01-0.02-0.01-0.03c0-0.01,0-0.02,0-0.03    c0-0.01,0-0.03,0.01-0.03c0.01-0.01,0.02-0.02,0.03-0.02l0.23-0.13C8.05,23.85,8.08,23.92,8.1,24c0.02,0.08,0.02,0.16,0.02,0.24    c0,0.07-0.02,0.14-0.04,0.2s-0.06,0.1-0.1,0.14c-0.04,0.04-0.09,0.06-0.15,0.08c-0.06,0.02-0.12,0.02-0.19,0.02l-0.81-0.05    l-0.01,0.13c0,0.02-0.01,0.04-0.03,0.06c-0.02,0.02-0.04,0.02-0.07,0.02l-0.18-0.01l-0.03-0.25l-0.38-0.12    c-0.05-0.02-0.07-0.05-0.07-0.11l0.02-0.24l0.46,0.03L6.6,23L8.16,23.1z"></path>
		<path class="st0" d="M6.74,21.86c0.02-0.12,0.06-0.22,0.11-0.31c0.05-0.09,0.12-0.16,0.2-0.22c0.08-0.06,0.17-0.1,0.28-0.12    s0.22-0.02,0.34,0C7.8,21.23,7.9,21.27,8,21.32c0.09,0.06,0.17,0.12,0.22,0.2c0.06,0.08,0.1,0.17,0.12,0.28    c0.02,0.1,0.02,0.21,0,0.33c-0.02,0.12-0.06,0.22-0.11,0.31c-0.05,0.09-0.12,0.17-0.2,0.22c-0.08,0.06-0.17,0.1-0.28,0.12    s-0.22,0.02-0.34,0c-0.12-0.02-0.23-0.06-0.32-0.11s-0.17-0.12-0.22-0.21c-0.06-0.08-0.1-0.17-0.12-0.28    C6.72,22.09,6.72,21.98,6.74,21.86z M8,22.08c0.02-0.11-0.01-0.19-0.07-0.25c-0.07-0.06-0.18-0.11-0.33-0.13    c-0.15-0.03-0.27-0.02-0.35,0.02c-0.08,0.04-0.13,0.11-0.15,0.22c-0.02,0.11,0,0.2,0.07,0.26c0.07,0.06,0.18,0.11,0.33,0.13    c0.15,0.03,0.27,0.02,0.36-0.02C7.93,22.26,7.98,22.19,8,22.08z"></path>
		<path class="st0" d="M7.26,20.38c-0.02-0.04-0.04-0.07-0.05-0.11c-0.01-0.04-0.03-0.08-0.03-0.12c-0.01-0.04-0.01-0.08-0.01-0.13    s0.01-0.09,0.02-0.14c0.02-0.08,0.06-0.15,0.1-0.21c0.05-0.06,0.1-0.1,0.16-0.13c0.06-0.03,0.13-0.05,0.21-0.05    c0.08,0,0.16,0.01,0.24,0.03l0.96,0.27l-0.12,0.45l-0.96-0.27c-0.07-0.02-0.14-0.02-0.19,0c-0.05,0.02-0.09,0.07-0.1,0.13    c-0.01,0.05-0.02,0.1-0.01,0.15c0.01,0.05,0.03,0.1,0.05,0.15l1.08,0.3L8.5,21.17l-1.51-0.42l0.08-0.28    c0.02-0.06,0.05-0.09,0.11-0.09L7.26,20.38z"></path>
		<path class="st0" d="M7.68,19.12C7.63,19,7.61,18.88,7.61,18.76c0-0.12,0.03-0.25,0.07-0.37c0.03-0.09,0.08-0.16,0.13-0.22    c0.06-0.06,0.12-0.11,0.19-0.14s0.15-0.04,0.23-0.04c0.08,0,0.16,0.02,0.25,0.05l0.92,0.35l-0.08,0.2    c-0.02,0.04-0.03,0.07-0.05,0.09c-0.02,0.02-0.05,0.03-0.09,0.03l-0.09,0c0.02,0.05,0.03,0.09,0.04,0.14    c0.01,0.04,0.02,0.09,0.02,0.13c0,0.04,0,0.09-0.01,0.13c-0.01,0.04-0.02,0.09-0.04,0.14c-0.03,0.07-0.06,0.12-0.1,0.17    s-0.08,0.08-0.13,0.11c-0.05,0.02-0.1,0.04-0.16,0.04s-0.12-0.01-0.19-0.04c-0.05-0.02-0.1-0.05-0.15-0.1    c-0.04-0.05-0.08-0.11-0.1-0.19c-0.02-0.08-0.02-0.18-0.01-0.31c0.01-0.12,0.05-0.27,0.11-0.44l-0.06-0.02    c-0.09-0.03-0.15-0.04-0.21-0.02C8.07,18.47,8.03,18.51,8,18.58c-0.02,0.05-0.03,0.1-0.03,0.13c0,0.04,0,0.07,0,0.1    s0.01,0.06,0.01,0.09s0,0.06-0.02,0.09c-0.01,0.03-0.03,0.05-0.05,0.07s-0.05,0.02-0.07,0.03L7.68,19.12z M8.64,18.59    c-0.03,0.09-0.05,0.16-0.06,0.23c-0.01,0.06-0.01,0.11-0.01,0.15s0.02,0.07,0.03,0.09c0.02,0.02,0.04,0.04,0.06,0.05    c0.05,0.02,0.09,0.02,0.12,0s0.06-0.06,0.08-0.11c0.02-0.06,0.03-0.11,0.03-0.16c0-0.05-0.02-0.1-0.05-0.17L8.64,18.59z"></path>
		<path class="st0" d="M7.66,16.75l2.06,0.95l-0.2,0.43l-2.06-0.95L7.66,16.75z"></path>
		<path class="st0" d="M11.19,15.14l-0.21,0.34c-0.02,0.04-0.05,0.06-0.08,0.08c-0.03,0.01-0.07,0.02-0.1,0.01l-0.4-0.09l-0.44,0.71    l0.26,0.31c0.02,0.02,0.03,0.05,0.03,0.09c0,0.04,0,0.07-0.03,0.11l-0.21,0.34l-1.43-1.89l0.28-0.45L11.19,15.14z M10.05,15.39    l-0.62-0.14c-0.04-0.01-0.09-0.02-0.14-0.03s-0.11-0.03-0.17-0.05c0.04,0.05,0.08,0.09,0.12,0.13c0.04,0.04,0.07,0.08,0.09,0.11    l0.4,0.49L10.05,15.39z"></path>
		<path class="st0" d="M10.47,13.95c-0.04-0.09-0.06-0.17-0.06-0.25s0.02-0.15,0.07-0.22c0.04-0.06,0.09-0.09,0.14-0.11l0.26,0.23    c0.01,0.02,0.02,0.03,0.02,0.05s-0.01,0.03-0.02,0.05c0,0.01-0.01,0.01-0.02,0.02c-0.01,0.01-0.02,0.02-0.03,0.03    c-0.01,0.01-0.02,0.02-0.03,0.03s-0.02,0.02-0.03,0.03c-0.04,0.05-0.06,0.11-0.06,0.16c0,0.05,0.02,0.11,0.06,0.17l0.76,0.58    l-0.28,0.37l-1.25-0.95l0.17-0.22c0.01-0.02,0.03-0.03,0.04-0.04c0.01-0.01,0.03-0.02,0.04-0.02c0.01,0,0.03,0,0.04,0    c0.01,0,0.03,0.01,0.05,0.02L10.47,13.95z"></path>
		<path class="st0" d="M11.8,12.56c0,0.02,0,0.04,0,0.06c0,0.02-0.01,0.03-0.03,0.05c-0.02,0.02-0.03,0.03-0.05,0.04    c-0.02,0.01-0.04,0.01-0.07,0.02c-0.03,0.01-0.05,0.02-0.08,0.04c-0.03,0.02-0.06,0.04-0.09,0.08c-0.04,0.04-0.06,0.09-0.08,0.13    s-0.01,0.09,0,0.14c0.01,0.05,0.03,0.09,0.07,0.14c0.03,0.05,0.08,0.1,0.13,0.14c0.11,0.1,0.22,0.15,0.32,0.16    c0.1,0.01,0.18-0.02,0.25-0.1c0.04-0.04,0.06-0.08,0.07-0.11c0.01-0.03,0.02-0.06,0.02-0.09c0-0.03,0-0.05,0.01-0.08    s0.01-0.05,0.03-0.07c0.02-0.03,0.05-0.04,0.09-0.04l0.22,0.01c0.01,0.07,0.01,0.14,0,0.2s-0.03,0.12-0.05,0.18    c-0.02,0.06-0.05,0.11-0.08,0.15s-0.07,0.09-0.1,0.13c-0.06,0.07-0.14,0.13-0.22,0.17c-0.09,0.04-0.18,0.06-0.27,0.07    c-0.1,0-0.19-0.01-0.3-0.05c-0.1-0.04-0.2-0.1-0.3-0.19c-0.08-0.08-0.15-0.16-0.2-0.25c-0.05-0.09-0.08-0.18-0.09-0.28    c-0.01-0.1,0-0.2,0.04-0.3c0.03-0.1,0.09-0.2,0.18-0.29c0.08-0.09,0.17-0.16,0.26-0.2c0.09-0.04,0.19-0.07,0.3-0.07L11.8,12.56z"></path>
		<path class="st0" d="M12.24,11.8c0.01-0.07,0.03-0.14,0.05-0.21c0.03-0.07,0.08-0.13,0.14-0.19c0.06-0.06,0.13-0.1,0.2-0.12    c0.07-0.02,0.14-0.03,0.21-0.02c0.07,0.01,0.14,0.03,0.21,0.07c0.07,0.04,0.13,0.09,0.19,0.15l0.68,0.73l-0.34,0.32l-0.68-0.73    c-0.05-0.06-0.11-0.09-0.16-0.09c-0.06-0.01-0.11,0.01-0.16,0.06c-0.04,0.04-0.07,0.08-0.08,0.12c-0.02,0.05-0.03,0.1-0.03,0.15    l0.77,0.82l-0.34,0.32l-1.56-1.65l0.34-0.32L12.24,11.8z"></path>
		<path class="st0" d="M13.27,10.15c0.02,0.03,0.04,0.06,0.05,0.1c0.01,0.04,0.01,0.07,0.01,0.11c0,0.04-0.02,0.07-0.03,0.1    c-0.02,0.03-0.04,0.06-0.07,0.09c-0.03,0.02-0.06,0.04-0.1,0.05s-0.07,0.01-0.11,0.01s-0.07-0.01-0.1-0.03    c-0.03-0.02-0.06-0.04-0.08-0.07c-0.02-0.03-0.04-0.06-0.05-0.1c-0.01-0.04-0.01-0.07-0.01-0.11c0-0.04,0.01-0.07,0.03-0.1    c0.02-0.03,0.04-0.06,0.07-0.08c0.03-0.02,0.06-0.04,0.1-0.05c0.04-0.01,0.07-0.02,0.11-0.01c0.04,0,0.07,0.01,0.1,0.03    C13.22,10.09,13.24,10.12,13.27,10.15z M13.5,10.51l0.99,1.22l-0.36,0.3l-0.99-1.22L13.5,10.51z"></path>
		<path class="st0" d="M15.03,9.4l0.41,1.63l-0.35,0.25l-1.4-0.93l0.32-0.23c0.03-0.02,0.05-0.03,0.08-0.03    c0.03,0,0.05,0.01,0.07,0.02l0.58,0.45c0.05,0.04,0.1,0.07,0.14,0.11c0.04,0.04,0.09,0.07,0.13,0.11    c-0.04-0.1-0.08-0.21-0.12-0.32l-0.22-0.71c-0.01-0.02-0.01-0.05,0-0.07c0.01-0.03,0.03-0.05,0.05-0.06L15.03,9.4z"></path>
		<path class="st0" d="M16.01,9.83c0.08,0.11,0.16,0.17,0.25,0.19s0.17,0,0.26-0.05c0.05-0.03,0.08-0.06,0.11-0.09    c0.03-0.03,0.05-0.06,0.07-0.09c0.02-0.03,0.04-0.06,0.05-0.08c0.02-0.02,0.04-0.04,0.06-0.06c0.03-0.02,0.06-0.02,0.09-0.01    l0.2,0.08c-0.01,0.07-0.04,0.14-0.07,0.2c-0.03,0.06-0.07,0.11-0.11,0.16s-0.09,0.09-0.13,0.12c-0.05,0.04-0.09,0.07-0.14,0.09    c-0.1,0.05-0.19,0.09-0.3,0.11c-0.1,0.02-0.2,0.01-0.3-0.01c-0.1-0.03-0.19-0.07-0.28-0.14c-0.09-0.07-0.17-0.17-0.24-0.29    c-0.05-0.09-0.09-0.19-0.1-0.29c-0.02-0.1-0.01-0.2,0.01-0.29c0.02-0.09,0.07-0.18,0.13-0.27c0.06-0.08,0.15-0.15,0.25-0.21    c0.09-0.05,0.18-0.08,0.27-0.1c0.09-0.01,0.18-0.01,0.26,0.01c0.08,0.02,0.16,0.06,0.24,0.12c0.07,0.06,0.14,0.14,0.2,0.24    c0.02,0.03,0.03,0.06,0.04,0.08c0.01,0.02,0.01,0.04,0.01,0.05c0,0.02-0.01,0.03-0.01,0.04c-0.01,0.01-0.02,0.02-0.04,0.03    L16.01,9.83z M16.39,9.3c-0.02-0.03-0.04-0.06-0.07-0.09s-0.06-0.05-0.09-0.06c-0.03-0.01-0.07-0.02-0.11-0.02    c-0.04,0-0.08,0.02-0.12,0.04c-0.08,0.04-0.12,0.1-0.14,0.17s-0.01,0.15,0.02,0.24L16.39,9.3z"></path>
		<path class="st0" d="M17.79,8.33c0,0.02-0.01,0.04-0.02,0.05s-0.02,0.02-0.04,0.03c-0.02,0.01-0.04,0.01-0.07,0.02    c-0.02,0-0.05,0-0.08,0c-0.03,0-0.06,0-0.09,0.01c-0.03,0-0.07,0.02-0.11,0.03c-0.05,0.02-0.09,0.05-0.11,0.09    c-0.02,0.03-0.02,0.07,0,0.11c0.01,0.03,0.03,0.04,0.06,0.05c0.03,0.01,0.06,0.01,0.1,0.01c0.04,0,0.08,0,0.12-0.01    s0.09-0.01,0.14-0.02c0.05,0,0.1-0.01,0.15,0c0.05,0,0.09,0.01,0.14,0.02c0.04,0.01,0.09,0.04,0.12,0.07    c0.04,0.03,0.07,0.08,0.1,0.14c0.03,0.07,0.05,0.14,0.05,0.21s-0.01,0.14-0.04,0.21c-0.03,0.07-0.08,0.13-0.14,0.19    s-0.14,0.11-0.24,0.16c-0.05,0.02-0.1,0.04-0.15,0.05c-0.05,0.01-0.11,0.02-0.16,0.03c-0.05,0.01-0.1,0.01-0.15,0    s-0.09-0.01-0.13-0.02l0.03-0.2c0-0.02,0.01-0.04,0.02-0.06c0.01-0.02,0.03-0.03,0.06-0.05c0.02-0.01,0.05-0.02,0.07-0.01    c0.02,0,0.05,0,0.08,0.01c0.03,0,0.06,0,0.1,0c0.04,0,0.08-0.02,0.12-0.04c0.03-0.02,0.06-0.03,0.08-0.05    c0.02-0.02,0.03-0.04,0.04-0.05c0.01-0.02,0.01-0.04,0.01-0.05c0-0.02,0-0.03-0.01-0.05c-0.01-0.03-0.03-0.05-0.06-0.06    c-0.03-0.01-0.06-0.01-0.1-0.01c-0.04,0-0.08,0.01-0.12,0.01c-0.05,0.01-0.09,0.01-0.14,0.02c-0.05,0-0.1,0.01-0.15,0    c-0.05,0-0.1-0.01-0.14-0.03s-0.09-0.04-0.13-0.08c-0.04-0.04-0.08-0.09-0.11-0.15c-0.03-0.06-0.04-0.12-0.04-0.19    s0.01-0.13,0.04-0.19c0.03-0.06,0.07-0.12,0.13-0.18c0.06-0.06,0.14-0.11,0.23-0.15c0.05-0.02,0.1-0.04,0.16-0.06    c0.05-0.01,0.1-0.02,0.15-0.02c0.05,0,0.1,0,0.14,0c0.05,0.01,0.09,0.02,0.13,0.03L17.79,8.33z"></path>
		<path class="st0" d="M19.9,7.01c-0.01,0.03-0.02,0.05-0.03,0.07s-0.03,0.03-0.06,0.04c-0.02,0.01-0.05,0.01-0.08,0    c-0.03-0.01-0.06-0.01-0.1-0.02c-0.04-0.01-0.08-0.01-0.12-0.01c-0.05,0-0.1,0.01-0.15,0.02c-0.09,0.03-0.15,0.07-0.19,0.12    c-0.03,0.05-0.04,0.11-0.02,0.18c0.01,0.04,0.04,0.07,0.07,0.09c0.04,0.02,0.08,0.03,0.13,0.04s0.11,0.01,0.17,0.01    c0.06,0,0.12,0,0.19,0c0.06,0,0.13,0.01,0.2,0.02c0.06,0.01,0.13,0.03,0.18,0.06c0.06,0.03,0.11,0.07,0.16,0.12    c0.05,0.05,0.08,0.12,0.11,0.21c0.03,0.1,0.04,0.19,0.04,0.29c-0.01,0.1-0.03,0.19-0.08,0.27c-0.04,0.08-0.11,0.16-0.19,0.22    s-0.18,0.12-0.3,0.16c-0.07,0.02-0.13,0.04-0.21,0.04c-0.07,0.01-0.14,0.01-0.21,0.01s-0.14-0.01-0.21-0.03    c-0.07-0.02-0.13-0.04-0.18-0.07l0.07-0.27c0.01-0.02,0.02-0.04,0.03-0.06s0.03-0.03,0.06-0.04c0.03-0.01,0.06-0.01,0.1,0    c0.04,0.01,0.07,0.02,0.12,0.03s0.09,0.02,0.15,0.02c0.05,0,0.11-0.01,0.18-0.03c0.09-0.03,0.15-0.07,0.19-0.12    c0.04-0.05,0.04-0.12,0.01-0.21c-0.02-0.05-0.04-0.08-0.08-0.11c-0.04-0.02-0.08-0.04-0.13-0.04s-0.11-0.01-0.17-0.01    c-0.06,0-0.12,0-0.19,0c-0.06,0-0.13,0-0.19-0.01s-0.13-0.03-0.18-0.06s-0.11-0.08-0.16-0.13c-0.05-0.06-0.09-0.14-0.12-0.23    c-0.02-0.08-0.03-0.16-0.03-0.25s0.03-0.17,0.08-0.25c0.04-0.08,0.1-0.15,0.18-0.21c0.08-0.06,0.18-0.11,0.29-0.15    c0.06-0.02,0.13-0.04,0.19-0.04c0.06-0.01,0.13-0.01,0.19-0.01c0.06,0,0.12,0.01,0.18,0.02c0.06,0.01,0.11,0.03,0.16,0.05    L19.9,7.01z"></path>
		<path class="st0" d="M21.32,8.5c-0.07,0.02-0.14,0.02-0.2,0.01c-0.06-0.01-0.11-0.03-0.16-0.06c-0.05-0.03-0.09-0.07-0.12-0.12    c-0.03-0.05-0.06-0.11-0.07-0.18l-0.18-0.79L20.46,7.4c-0.02,0.01-0.05,0-0.07-0.01c-0.02-0.01-0.03-0.03-0.04-0.06l-0.04-0.18    l0.23-0.1l0-0.39c0-0.05,0.03-0.08,0.08-0.09l0.24-0.06l0.1,0.45l0.38-0.09l0.07,0.31l-0.38,0.09l0.18,0.76    c0.01,0.04,0.02,0.06,0.05,0.08c0.02,0.02,0.05,0.02,0.08,0.02c0.02,0,0.03-0.01,0.04-0.01c0.01-0.01,0.02-0.01,0.03-0.02    c0.01-0.01,0.01-0.01,0.02-0.02c0.01,0,0.01-0.01,0.02-0.01c0.01,0,0.03,0,0.04,0s0.02,0.01,0.03,0.02l0.19,0.19    c-0.05,0.06-0.11,0.11-0.18,0.15S21.4,8.48,21.32,8.5z"></path>
		<path class="st0" d="M23.03,6.6l0.23,1.55l-0.29,0.04c-0.06,0.01-0.1-0.01-0.12-0.06L22.8,8.04c-0.03,0.03-0.05,0.06-0.08,0.09    c-0.03,0.03-0.06,0.05-0.09,0.07c-0.03,0.02-0.07,0.04-0.11,0.06c-0.04,0.02-0.09,0.03-0.14,0.03c-0.08,0.01-0.16,0.01-0.23-0.01    c-0.07-0.02-0.13-0.05-0.18-0.1c-0.05-0.05-0.1-0.1-0.13-0.17s-0.06-0.15-0.07-0.23L21.62,6.8l0.46-0.07l0.14,0.99    c0.01,0.08,0.04,0.13,0.08,0.17c0.04,0.04,0.1,0.05,0.16,0.04c0.05-0.01,0.1-0.02,0.14-0.05s0.08-0.06,0.12-0.11l-0.16-1.11    L23.03,6.6z"></path>
		<path class="st0" d="M24.82,5.8l0.1,2.27l-0.29,0.01c-0.06,0-0.1-0.02-0.12-0.07l-0.04-0.12c-0.03,0.03-0.06,0.07-0.09,0.1    s-0.07,0.05-0.11,0.08s-0.08,0.04-0.13,0.05s-0.1,0.02-0.15,0.02c-0.08,0-0.16-0.01-0.23-0.04S23.63,8,23.58,7.93    c-0.05-0.07-0.1-0.15-0.13-0.25c-0.03-0.1-0.05-0.21-0.06-0.34c-0.01-0.12,0.01-0.23,0.03-0.33c0.03-0.1,0.07-0.19,0.12-0.27    s0.12-0.14,0.21-0.18c0.08-0.04,0.17-0.07,0.27-0.07c0.08,0,0.15,0,0.21,0.03c0.06,0.02,0.11,0.05,0.16,0.09l-0.04-0.79L24.82,5.8    z M24.4,6.93c-0.04-0.04-0.08-0.06-0.12-0.08c-0.04-0.01-0.09-0.02-0.13-0.02c-0.04,0-0.08,0.01-0.12,0.03    C24,6.89,23.97,6.92,23.94,6.96s-0.04,0.09-0.06,0.15c-0.01,0.06-0.02,0.13-0.01,0.22c0,0.08,0.01,0.15,0.03,0.21    c0.01,0.06,0.03,0.1,0.06,0.13c0.02,0.03,0.05,0.06,0.08,0.07c0.03,0.01,0.06,0.02,0.1,0.02c0.03,0,0.06-0.01,0.09-0.01    c0.03-0.01,0.05-0.02,0.08-0.03c0.02-0.01,0.04-0.03,0.06-0.05c0.02-0.02,0.04-0.04,0.06-0.07L24.4,6.93z"></path>
		<path class="st0" d="M25.61,7.38c0.01,0.13,0.04,0.23,0.11,0.29c0.06,0.06,0.14,0.1,0.25,0.1c0.05,0,0.1,0,0.14-0.01    c0.04-0.01,0.08-0.02,0.11-0.04s0.06-0.03,0.09-0.04s0.05-0.02,0.08-0.02c0.04,0,0.06,0.02,0.08,0.04l0.13,0.17    c-0.05,0.05-0.11,0.1-0.16,0.13c-0.06,0.03-0.12,0.06-0.18,0.07c-0.06,0.02-0.12,0.03-0.18,0.03s-0.12,0.01-0.17,0    c-0.11-0.01-0.21-0.03-0.31-0.07s-0.18-0.1-0.24-0.17c-0.07-0.07-0.12-0.16-0.16-0.27c-0.04-0.11-0.05-0.23-0.04-0.37    c0.01-0.1,0.03-0.2,0.07-0.3c0.04-0.09,0.1-0.17,0.17-0.24c0.07-0.07,0.15-0.12,0.25-0.16s0.21-0.05,0.33-0.05    c0.1,0,0.2,0.03,0.28,0.06c0.08,0.04,0.16,0.09,0.22,0.15c0.06,0.06,0.1,0.14,0.13,0.23s0.04,0.19,0.04,0.31    c0,0.04,0,0.06-0.01,0.09c0,0.02-0.01,0.04-0.02,0.05s-0.02,0.02-0.03,0.03s-0.03,0.01-0.05,0L25.61,7.38z M26.21,7.14    c0-0.04,0-0.07-0.01-0.11s-0.02-0.07-0.04-0.1s-0.05-0.05-0.08-0.07C26.04,6.84,26,6.83,25.95,6.83c-0.09,0-0.16,0.02-0.21,0.07    c-0.05,0.05-0.09,0.12-0.11,0.22L26.21,7.14z"></path>
		<path class="st0" d="M27.41,6.83c0.03-0.02,0.07-0.04,0.1-0.06c0.04-0.02,0.07-0.03,0.11-0.05S27.7,6.7,27.75,6.7    c0.04,0,0.09,0,0.14,0.01c0.08,0.01,0.16,0.04,0.22,0.08c0.06,0.04,0.11,0.09,0.15,0.15s0.06,0.13,0.07,0.2    c0.01,0.08,0.01,0.16,0,0.24l-0.14,0.99l-0.46-0.07l0.14-0.99c0.01-0.08,0-0.14-0.03-0.19c-0.03-0.05-0.08-0.08-0.14-0.09    c-0.05-0.01-0.1,0-0.15,0.01c-0.05,0.02-0.09,0.04-0.14,0.07l-0.16,1.11l-0.46-0.07L27,6.6l0.29,0.04    c0.06,0.01,0.09,0.04,0.1,0.09L27.41,6.83z"></path>
		<path class="st0" d="M28.95,8.56c-0.07-0.02-0.13-0.04-0.19-0.08c-0.05-0.03-0.09-0.07-0.12-0.12c-0.03-0.05-0.05-0.1-0.05-0.16    c-0.01-0.06,0-0.12,0.01-0.19l0.18-0.79l-0.13-0.03c-0.02-0.01-0.04-0.02-0.06-0.04c-0.01-0.02-0.02-0.04-0.01-0.07l0.04-0.18    l0.25,0.01l0.18-0.35c0.02-0.04,0.06-0.06,0.12-0.05l0.24,0.06l-0.1,0.45L29.7,7.1l-0.07,0.31l-0.38-0.09l-0.17,0.76    c-0.01,0.04-0.01,0.07,0,0.09c0.01,0.03,0.03,0.04,0.07,0.05c0.02,0,0.03,0.01,0.04,0c0.01,0,0.02,0,0.03,0    c0.01,0,0.02,0,0.03-0.01c0.01,0,0.02,0,0.03,0c0.01,0,0.02,0.01,0.03,0.02s0.01,0.02,0.02,0.04l0.09,0.25    c-0.07,0.03-0.14,0.05-0.22,0.05C29.11,8.59,29.03,8.58,28.95,8.56z"></path>
		<path class="st0" d="M30.83,7.8c-0.02,0.01-0.03,0.02-0.05,0.03c-0.02,0-0.03,0-0.05,0c-0.02-0.01-0.04-0.02-0.06-0.03    s-0.04-0.03-0.06-0.05c-0.02-0.02-0.05-0.04-0.07-0.06c-0.03-0.02-0.06-0.03-0.1-0.05c-0.06-0.02-0.1-0.02-0.14-0.01    s-0.06,0.04-0.07,0.08c-0.01,0.03-0.01,0.05,0.01,0.08c0.01,0.02,0.04,0.05,0.06,0.07c0.03,0.02,0.06,0.05,0.1,0.07    c0.04,0.03,0.08,0.05,0.11,0.08s0.08,0.06,0.11,0.09s0.06,0.07,0.09,0.11s0.04,0.09,0.04,0.14c0.01,0.05,0,0.1-0.02,0.17    c-0.02,0.07-0.06,0.14-0.1,0.19c-0.05,0.05-0.1,0.1-0.17,0.12s-0.14,0.04-0.23,0.04c-0.09,0-0.18-0.01-0.28-0.05    c-0.05-0.02-0.1-0.04-0.15-0.06s-0.09-0.05-0.14-0.08c-0.04-0.03-0.08-0.06-0.11-0.1c-0.03-0.04-0.06-0.07-0.08-0.11l0.16-0.13    c0.02-0.02,0.04-0.03,0.06-0.03c0.02-0.01,0.05,0,0.07,0c0.03,0.01,0.05,0.02,0.07,0.04c0.02,0.02,0.04,0.04,0.06,0.06    c0.02,0.02,0.04,0.04,0.07,0.06c0.03,0.02,0.07,0.04,0.12,0.06c0.04,0.01,0.07,0.02,0.09,0.02c0.03,0,0.05,0,0.07-0.01    c0.02-0.01,0.03-0.02,0.04-0.03c0.01-0.01,0.02-0.03,0.02-0.04c0.01-0.03,0.01-0.06-0.01-0.08c-0.01-0.03-0.04-0.05-0.06-0.07    c-0.03-0.02-0.06-0.05-0.1-0.07C30.08,8.21,30.04,8.18,30,8.15s-0.08-0.06-0.11-0.1c-0.04-0.04-0.06-0.07-0.09-0.12    c-0.02-0.04-0.04-0.09-0.04-0.15c0-0.05,0-0.12,0.02-0.18c0.02-0.06,0.05-0.12,0.09-0.17c0.04-0.05,0.09-0.09,0.16-0.12    c0.06-0.03,0.13-0.04,0.22-0.05c0.08,0,0.17,0.01,0.27,0.04c0.05,0.02,0.11,0.04,0.15,0.06c0.05,0.03,0.09,0.05,0.13,0.08    s0.07,0.06,0.1,0.1s0.05,0.07,0.07,0.11L30.83,7.8z"></path>
		<path class="st0" d="M34.15,8.16l-1.74,1.62l-0.42-0.2l0.14-2.37l0.37,0.18c0.04,0.02,0.07,0.04,0.08,0.07    c0.02,0.03,0.02,0.06,0.02,0.1L32.49,8.8c0,0.06-0.01,0.11-0.02,0.18c-0.01,0.06-0.02,0.13-0.03,0.2c0.04-0.05,0.08-0.1,0.12-0.15    s0.08-0.09,0.12-0.13l0.89-0.89c0.02-0.02,0.05-0.04,0.09-0.04c0.04-0.01,0.07,0,0.11,0.01L34.15,8.16z"></path>
		<path class="st0" d="M34.7,9.22c0.1,0.06,0.18,0.14,0.25,0.22c0.06,0.08,0.11,0.17,0.13,0.27c0.02,0.1,0.03,0.2,0.01,0.3    c-0.02,0.11-0.06,0.21-0.13,0.32c-0.07,0.11-0.14,0.19-0.23,0.26c-0.09,0.06-0.18,0.11-0.27,0.13s-0.2,0.02-0.3,0.01    c-0.1-0.02-0.21-0.06-0.31-0.12c-0.1-0.06-0.19-0.14-0.25-0.22c-0.06-0.08-0.11-0.17-0.13-0.27c-0.02-0.1-0.03-0.2-0.01-0.3    c0.02-0.11,0.06-0.21,0.13-0.32c0.07-0.11,0.14-0.19,0.23-0.26C33.9,9.17,34,9.12,34.09,9.1c0.1-0.02,0.2-0.02,0.3,0    C34.5,9.12,34.6,9.16,34.7,9.22z M34.04,10.3c0.09,0.06,0.18,0.07,0.26,0.03c0.08-0.04,0.17-0.12,0.25-0.26    c0.08-0.13,0.12-0.24,0.12-0.34s-0.05-0.17-0.14-0.22c-0.09-0.06-0.18-0.07-0.27-0.03C34.17,9.52,34.09,9.61,34,9.74    c-0.08,0.13-0.12,0.24-0.12,0.34S33.94,10.25,34.04,10.3z"></path>
		<path class="st0" d="M36.42,9.57l-1.33,1.84l-0.38-0.27l1.33-1.84L36.42,9.57z"></path>
		<path class="st0" d="M37.39,11.25l-1.01,1.21l-0.22-0.19c-0.04-0.04-0.06-0.08-0.04-0.13l0.04-0.09c-0.04,0-0.08,0-0.12,0    s-0.08-0.01-0.12-0.02c-0.04-0.01-0.08-0.03-0.12-0.05c-0.04-0.02-0.08-0.05-0.12-0.08c-0.07-0.06-0.11-0.12-0.15-0.18    c-0.03-0.07-0.05-0.13-0.05-0.2c0-0.07,0.01-0.14,0.04-0.21c0.03-0.07,0.07-0.14,0.13-0.21l0.64-0.77l0.36,0.3l-0.64,0.76    c-0.05,0.06-0.08,0.12-0.08,0.17s0.03,0.1,0.08,0.15c0.04,0.03,0.08,0.06,0.13,0.07s0.1,0.02,0.16,0.02l0.72-0.86L37.39,11.25z"></path>
		<path class="st0" d="M37.88,11.96c0.04,0,0.08,0.01,0.12,0.01c0.04,0.01,0.08,0.02,0.12,0.03s0.08,0.03,0.11,0.06    s0.07,0.05,0.11,0.09c0.06,0.06,0.1,0.13,0.13,0.19c0.02,0.07,0.03,0.14,0.03,0.21c-0.01,0.07-0.03,0.14-0.06,0.21    s-0.08,0.13-0.15,0.19l-0.71,0.7l-0.33-0.33l0.71-0.7c0.06-0.05,0.09-0.11,0.09-0.16s-0.02-0.11-0.06-0.16    c-0.04-0.04-0.08-0.06-0.12-0.08c-0.05-0.02-0.1-0.03-0.16-0.03l-0.8,0.79l-0.33-0.34l1.12-1.1l0.2,0.21    c0.04,0.04,0.05,0.09,0.02,0.14L37.88,11.96z"></path>
		<path class="st0" d="M38.08,14.3c-0.05-0.06-0.08-0.12-0.1-0.17c-0.02-0.06-0.03-0.11-0.02-0.17c0.01-0.06,0.02-0.11,0.05-0.16    s0.07-0.1,0.13-0.14l0.62-0.52l-0.08-0.1c-0.02-0.02-0.02-0.04-0.02-0.06c0-0.02,0.01-0.04,0.04-0.06l0.14-0.12l0.2,0.16    l0.35-0.17c0.04-0.02,0.09-0.01,0.12,0.03l0.16,0.19l-0.35,0.29l0.25,0.3l-0.25,0.21l-0.25-0.3l-0.6,0.5    c-0.03,0.02-0.05,0.05-0.05,0.08s0,0.06,0.02,0.08c0.01,0.01,0.02,0.02,0.03,0.03c0.01,0.01,0.02,0.01,0.03,0.02    c0.01,0,0.02,0.01,0.03,0.01c0.01,0,0.01,0.01,0.02,0.02c0.01,0.01,0.01,0.02,0.01,0.03c0,0.01,0,0.02-0.01,0.04l-0.08,0.25    c-0.07-0.02-0.14-0.05-0.21-0.09C38.19,14.41,38.13,14.36,38.08,14.3z"></path>
		<path class="st0" d="M39.25,14.62c-0.1,0.09-0.15,0.18-0.16,0.26s0.01,0.17,0.07,0.26c0.03,0.04,0.06,0.08,0.1,0.1    c0.03,0.02,0.07,0.04,0.1,0.06c0.03,0.02,0.06,0.03,0.08,0.04c0.03,0.01,0.05,0.03,0.06,0.05c0.02,0.03,0.03,0.06,0.02,0.09    l-0.06,0.21c-0.07-0.01-0.14-0.02-0.2-0.05c-0.06-0.03-0.12-0.06-0.17-0.09c-0.05-0.04-0.1-0.08-0.14-0.12s-0.08-0.09-0.11-0.13    c-0.06-0.09-0.11-0.18-0.14-0.28c-0.03-0.1-0.03-0.2-0.01-0.3c0.02-0.1,0.05-0.2,0.12-0.29c0.06-0.1,0.15-0.18,0.26-0.26    c0.09-0.06,0.18-0.1,0.28-0.13c0.1-0.02,0.19-0.03,0.29-0.02c0.1,0.01,0.19,0.05,0.28,0.1c0.09,0.05,0.17,0.13,0.24,0.23    c0.06,0.08,0.1,0.17,0.13,0.26c0.02,0.09,0.03,0.18,0.01,0.26c-0.01,0.09-0.05,0.17-0.1,0.25c-0.05,0.08-0.13,0.15-0.22,0.22    c-0.03,0.02-0.05,0.04-0.07,0.05c-0.02,0.01-0.04,0.02-0.05,0.02c-0.02,0-0.03,0-0.04-0.01c-0.01-0.01-0.02-0.02-0.04-0.04    L39.25,14.62z M39.81,14.94c0.03-0.02,0.06-0.05,0.08-0.07s0.04-0.06,0.05-0.09c0.01-0.03,0.01-0.07,0.01-0.11    c-0.01-0.04-0.02-0.08-0.05-0.12c-0.05-0.07-0.11-0.11-0.18-0.13c-0.07-0.01-0.15,0-0.24,0.05L39.81,14.94z"></path>
		<path class="st0" d="M40.16,15.99c-0.11,0.08-0.17,0.16-0.19,0.25c-0.02,0.09,0,0.17,0.05,0.26c0.03,0.05,0.06,0.08,0.09,0.11    c0.03,0.03,0.06,0.05,0.09,0.07c0.03,0.02,0.06,0.04,0.08,0.05c0.02,0.02,0.04,0.04,0.06,0.06c0.02,0.03,0.02,0.06,0.01,0.09    l-0.08,0.2c-0.07-0.01-0.14-0.04-0.2-0.07c-0.06-0.03-0.11-0.07-0.16-0.11c-0.05-0.04-0.09-0.09-0.12-0.13s-0.07-0.09-0.09-0.14    c-0.06-0.1-0.09-0.19-0.11-0.3c-0.02-0.1-0.01-0.2,0.01-0.3c0.03-0.1,0.07-0.19,0.14-0.28c0.07-0.09,0.17-0.17,0.29-0.24    c0.09-0.05,0.19-0.09,0.29-0.1c0.1-0.02,0.2-0.01,0.29,0.01s0.18,0.07,0.27,0.13c0.08,0.06,0.16,0.15,0.21,0.25    c0.05,0.09,0.09,0.18,0.1,0.27c0.01,0.09,0.01,0.18-0.01,0.26s-0.06,0.16-0.12,0.24c-0.06,0.07-0.14,0.14-0.24,0.2    c-0.03,0.02-0.06,0.03-0.08,0.04s-0.04,0.01-0.05,0.01c-0.01,0-0.03-0.01-0.04-0.01c-0.01-0.01-0.02-0.02-0.03-0.04L40.16,15.99z     M40.69,16.37c0.03-0.02,0.06-0.04,0.09-0.07c0.03-0.03,0.04-0.06,0.06-0.09c0.01-0.03,0.02-0.07,0.02-0.11s-0.02-0.08-0.04-0.12    c-0.04-0.08-0.1-0.12-0.17-0.14c-0.07-0.02-0.15-0.01-0.24,0.02L40.69,16.37z"></path>
		<path class="st0" d="M41.52,17.23c0.1,0.01,0.18,0.03,0.25,0.07c0.07,0.04,0.12,0.09,0.16,0.17c0.03,0.06,0.04,0.12,0.03,0.18    l-0.33,0.12c-0.02,0-0.04,0-0.05,0c-0.01-0.01-0.02-0.02-0.03-0.04c0-0.01-0.01-0.02-0.01-0.03s-0.01-0.03-0.01-0.04    c0-0.01-0.01-0.03-0.01-0.04c0-0.01-0.01-0.03-0.02-0.04c-0.03-0.06-0.07-0.1-0.12-0.12s-0.11-0.03-0.18-0.03l-0.86,0.41    l-0.2-0.42l1.42-0.67l0.12,0.25c0.01,0.02,0.02,0.04,0.02,0.06c0,0.02,0,0.03,0,0.04c0,0.01-0.01,0.03-0.02,0.04    c-0.01,0.01-0.02,0.02-0.04,0.04L41.52,17.23z"></path>
		<path class="st0" d="M42.24,18.28l-1.46,0.59l-0.18-0.44l1.46-0.59L42.24,18.28z M42.65,18.16c-0.04,0.01-0.07,0.02-0.11,0.02    s-0.07-0.01-0.1-0.03c-0.03-0.01-0.06-0.04-0.09-0.06s-0.05-0.06-0.06-0.1c-0.01-0.04-0.02-0.07-0.02-0.11    c0-0.04,0.01-0.07,0.02-0.1s0.03-0.06,0.06-0.09c0.02-0.03,0.05-0.05,0.09-0.06c0.04-0.01,0.07-0.02,0.11-0.02    c0.04,0,0.07,0.01,0.1,0.02c0.03,0.01,0.06,0.03,0.09,0.06c0.03,0.03,0.05,0.06,0.06,0.09c0.01,0.04,0.02,0.07,0.02,0.11    s-0.01,0.07-0.02,0.11s-0.03,0.06-0.06,0.09C42.72,18.13,42.69,18.15,42.65,18.16z"></path>
		<path class="st0" d="M42.36,19.1c0.04,0.02,0.07,0.04,0.1,0.07c0.03,0.02,0.06,0.05,0.09,0.08c0.03,0.03,0.05,0.06,0.07,0.1    c0.02,0.04,0.04,0.08,0.06,0.13c0.03,0.08,0.04,0.16,0.03,0.23c-0.01,0.07-0.03,0.14-0.07,0.2c-0.04,0.06-0.09,0.11-0.15,0.16    c-0.06,0.04-0.13,0.08-0.22,0.11l-0.95,0.31l-0.14-0.45l0.95-0.31c0.07-0.02,0.12-0.06,0.15-0.11s0.03-0.1,0.01-0.17    c-0.02-0.05-0.04-0.09-0.08-0.13c-0.04-0.04-0.08-0.07-0.12-0.1l-1.07,0.34l-0.14-0.45l1.5-0.48l0.09,0.28    c0.02,0.06,0,0.1-0.04,0.13L42.36,19.1z"></path>
		<path class="st0" d="M43.18,21.79l-0.17,0.04c-0.03,0.01-0.05,0-0.07-0.01c-0.02-0.01-0.03-0.03-0.05-0.07l-0.05-0.11    c-0.02,0.01-0.04,0.02-0.06,0.03c-0.02,0.01-0.04,0.02-0.07,0.02c-0.08,0.02-0.15,0.02-0.22,0s-0.13-0.05-0.18-0.1    c-0.06-0.05-0.1-0.1-0.14-0.18c-0.04-0.07-0.07-0.15-0.09-0.24c0-0.02-0.01-0.05-0.01-0.07c0-0.02-0.01-0.05-0.01-0.07    c-0.03-0.03-0.05-0.04-0.08-0.04c-0.03,0.01-0.04,0.02-0.05,0.05c0,0.03,0,0.07,0,0.11c0,0.05,0.01,0.1,0.02,0.16    c0.01,0.06,0.02,0.12,0.03,0.18S42,21.63,42,21.69s-0.01,0.12-0.03,0.17s-0.05,0.1-0.09,0.13s-0.1,0.07-0.17,0.08    c-0.07,0.02-0.14,0.01-0.21-0.01c-0.07-0.02-0.14-0.06-0.21-0.11s-0.12-0.12-0.18-0.21c-0.05-0.09-0.09-0.19-0.12-0.31    c-0.03-0.12-0.04-0.23-0.03-0.32c0-0.09,0.02-0.17,0.04-0.24c0.02-0.07,0.06-0.12,0.1-0.16c0.04-0.04,0.09-0.06,0.14-0.07    c0.07-0.02,0.13-0.01,0.18,0.02c0.05,0.03,0.1,0.08,0.15,0.14c0.01-0.04,0.04-0.08,0.07-0.11c0.03-0.03,0.07-0.05,0.13-0.06    c0.02,0,0.05-0.01,0.07,0c0.03,0,0.05,0.01,0.08,0.02c0.03,0.01,0.06,0.03,0.08,0.05s0.05,0.05,0.08,0.08    c0.02-0.09,0.07-0.16,0.13-0.23c0.06-0.06,0.14-0.1,0.23-0.12c0.08-0.02,0.15-0.02,0.22,0c0.07,0.02,0.13,0.05,0.19,0.1    c0.05,0.05,0.1,0.11,0.14,0.18c0.04,0.07,0.07,0.15,0.09,0.24c0.03,0.13,0.03,0.25,0,0.36L43.18,21.79z M41.54,21.67    c0.04-0.01,0.06-0.03,0.07-0.07c0.01-0.04,0.01-0.08,0.01-0.13c0-0.05-0.01-0.11-0.03-0.18s-0.02-0.13-0.03-0.2    c-0.03-0.02-0.05-0.04-0.08-0.06c-0.03-0.01-0.06-0.02-0.09-0.01c-0.02,0-0.04,0.01-0.06,0.03c-0.02,0.01-0.03,0.03-0.04,0.06    c-0.01,0.03-0.01,0.06-0.01,0.1c0,0.04,0.01,0.09,0.02,0.15c0.01,0.07,0.03,0.12,0.05,0.16c0.02,0.04,0.04,0.07,0.05,0.09    c0.02,0.02,0.04,0.04,0.06,0.04C41.5,21.68,41.52,21.68,41.54,21.67z M42.37,21.12c0.02,0.08,0.05,0.13,0.09,0.15    c0.05,0.03,0.1,0.03,0.16,0.02c0.06-0.01,0.11-0.04,0.14-0.08c0.03-0.04,0.03-0.1,0.02-0.18c-0.02-0.08-0.05-0.13-0.09-0.15    s-0.1-0.03-0.16-0.02c-0.03,0.01-0.06,0.02-0.08,0.03c-0.02,0.01-0.04,0.03-0.06,0.05c-0.01,0.02-0.02,0.05-0.03,0.08    C42.36,21.05,42.36,21.08,42.37,21.12z"></path>
		<path class="st0" d="M44.08,23.56c0.01,0.16,0,0.29-0.02,0.4c-0.03,0.11-0.07,0.21-0.13,0.29c-0.06,0.08-0.13,0.14-0.22,0.18    s-0.18,0.06-0.28,0.07c-0.11,0.01-0.21,0-0.31-0.03c-0.09-0.03-0.18-0.08-0.25-0.14c-0.07-0.07-0.13-0.16-0.17-0.26    c-0.05-0.11-0.07-0.24-0.08-0.39l-0.02-0.27l-0.74,0.06l-0.04-0.51l2.2-0.17L44.08,23.56z M43,23.64    c0.01,0.13,0.05,0.23,0.12,0.28c0.07,0.05,0.16,0.08,0.27,0.07c0.05,0,0.1-0.02,0.14-0.03c0.04-0.02,0.07-0.04,0.1-0.08    c0.03-0.03,0.05-0.07,0.06-0.12c0.01-0.05,0.02-0.1,0.01-0.17l-0.02-0.27l-0.7,0.05L43,23.64z"></path>
		<path class="st0" d="M43.25,25.23c0.08,0.05,0.15,0.11,0.2,0.17c0.05,0.06,0.07,0.14,0.07,0.22c0,0.07-0.02,0.13-0.05,0.17    l-0.34-0.04c-0.02,0-0.04-0.01-0.04-0.03s-0.01-0.03-0.01-0.05c0-0.01,0-0.02,0-0.03c0-0.01,0-0.03,0-0.04c0-0.01,0-0.03,0-0.04    c0-0.01,0-0.03,0-0.04c0-0.07-0.02-0.12-0.05-0.17c-0.04-0.04-0.08-0.08-0.15-0.11l-0.95-0.01l0.01-0.47l1.57,0.03l0,0.28    c0,0.02,0,0.04-0.01,0.06c0,0.02-0.01,0.03-0.02,0.04s-0.02,0.02-0.03,0.02c-0.01,0.01-0.03,0.01-0.05,0.01L43.25,25.23z"></path>
		<path class="st0" d="M43.44,26.75c-0.01,0.12-0.04,0.22-0.09,0.32c-0.05,0.09-0.11,0.17-0.18,0.24c-0.08,0.06-0.17,0.11-0.27,0.14    s-0.22,0.04-0.34,0.03s-0.23-0.04-0.33-0.09c-0.1-0.05-0.18-0.11-0.24-0.19s-0.11-0.17-0.14-0.27c-0.03-0.1-0.04-0.21-0.03-0.33    c0.01-0.12,0.04-0.23,0.09-0.32s0.11-0.17,0.18-0.24s0.17-0.11,0.27-0.14s0.22-0.04,0.34-0.03c0.12,0.01,0.23,0.04,0.33,0.09    c0.1,0.05,0.17,0.11,0.24,0.19s0.11,0.17,0.14,0.27C43.44,26.52,43.45,26.63,43.44,26.75z M42.17,26.63    c-0.01,0.11,0.02,0.19,0.09,0.25c0.07,0.06,0.18,0.09,0.34,0.11c0.15,0.01,0.27,0,0.35-0.04c0.08-0.04,0.12-0.12,0.13-0.23    c0.01-0.11-0.02-0.19-0.09-0.25c-0.07-0.06-0.18-0.09-0.34-0.11c-0.15-0.01-0.27,0-0.35,0.04C42.23,26.44,42.18,26.52,42.17,26.63    z"></path>
		<path class="st0" d="M42.96,29.28l-0.17-0.03c-0.03-0.01-0.04-0.02-0.06-0.03c-0.01-0.02-0.02-0.04-0.02-0.08l0-0.12    c-0.02,0-0.05,0-0.07,0s-0.05,0-0.07-0.01c-0.08-0.01-0.14-0.04-0.2-0.09c-0.06-0.04-0.1-0.1-0.13-0.16s-0.05-0.14-0.06-0.22    c-0.01-0.08,0-0.17,0.01-0.25c0-0.02,0.01-0.05,0.02-0.07c0.01-0.02,0.01-0.04,0.02-0.07c-0.01-0.04-0.03-0.06-0.06-0.06    c-0.03,0-0.05,0.01-0.06,0.03s-0.03,0.06-0.04,0.11s-0.03,0.1-0.04,0.15S42,28.5,41.98,28.55c-0.02,0.06-0.04,0.12-0.06,0.17    s-0.05,0.1-0.09,0.14c-0.04,0.04-0.08,0.07-0.14,0.09c-0.05,0.02-0.12,0.02-0.19,0.01c-0.07-0.01-0.13-0.04-0.19-0.09    c-0.06-0.05-0.11-0.11-0.15-0.18c-0.04-0.08-0.07-0.16-0.08-0.26s-0.01-0.21,0.02-0.34c0.02-0.12,0.05-0.22,0.09-0.31    s0.08-0.15,0.13-0.2c0.05-0.05,0.1-0.09,0.15-0.1c0.05-0.02,0.11-0.02,0.16-0.01c0.07,0.01,0.12,0.04,0.16,0.09    c0.04,0.05,0.06,0.11,0.08,0.19c0.03-0.03,0.07-0.06,0.11-0.07s0.09-0.02,0.14-0.01c0.02,0,0.05,0.01,0.07,0.03    c0.02,0.01,0.05,0.03,0.07,0.05c0.02,0.02,0.04,0.05,0.06,0.08c0.02,0.03,0.03,0.06,0.04,0.1c0.06-0.07,0.13-0.12,0.21-0.16    s0.17-0.04,0.26-0.02c0.08,0.01,0.14,0.04,0.2,0.09c0.06,0.04,0.1,0.1,0.13,0.17c0.03,0.06,0.05,0.14,0.06,0.22    c0.01,0.08,0,0.17-0.01,0.26c-0.02,0.13-0.07,0.24-0.14,0.33L42.96,29.28z M41.5,28.52c0.04,0.01,0.07,0,0.09-0.03    c0.02-0.03,0.04-0.07,0.06-0.12c0.02-0.05,0.03-0.11,0.05-0.17c0.01-0.06,0.03-0.13,0.05-0.19c-0.01-0.03-0.03-0.06-0.05-0.08    c-0.02-0.02-0.05-0.04-0.08-0.04c-0.02,0-0.04,0-0.06,0c-0.02,0.01-0.04,0.02-0.06,0.04c-0.02,0.02-0.03,0.05-0.05,0.09    c-0.01,0.04-0.03,0.09-0.04,0.15c-0.01,0.07-0.02,0.12-0.02,0.17c0,0.04,0,0.08,0.01,0.11c0.01,0.03,0.02,0.05,0.04,0.06    S41.48,28.52,41.5,28.52z M42.48,28.34c-0.01,0.08-0.01,0.14,0.03,0.18c0.03,0.04,0.08,0.07,0.14,0.08c0.06,0.01,0.11,0,0.16-0.02    c0.04-0.03,0.07-0.08,0.09-0.16c0.01-0.08,0.01-0.13-0.02-0.18s-0.08-0.07-0.14-0.08c-0.03-0.01-0.06-0.01-0.08,0    s-0.05,0.01-0.07,0.03c-0.02,0.01-0.04,0.03-0.06,0.06C42.5,28.27,42.49,28.31,42.48,28.34z"></path>
		<path class="st0" d="M42.58,29.91c0.07,0.07,0.12,0.14,0.15,0.21c0.03,0.07,0.03,0.15,0.01,0.23c-0.02,0.07-0.05,0.12-0.09,0.15    l-0.33-0.12c-0.02-0.01-0.03-0.02-0.04-0.04c0-0.01,0-0.03,0-0.05c0-0.01,0.01-0.02,0.01-0.03c0-0.01,0.01-0.03,0.01-0.04    c0.01-0.01,0.01-0.03,0.02-0.04c0-0.01,0.01-0.03,0.01-0.04c0.02-0.07,0.02-0.12-0.01-0.17c-0.02-0.05-0.06-0.1-0.12-0.14    l-0.92-0.26l0.13-0.45l1.51,0.42l-0.07,0.27c-0.01,0.02-0.01,0.04-0.02,0.05c-0.01,0.01-0.02,0.02-0.03,0.03    c-0.01,0.01-0.02,0.01-0.04,0.01c-0.02,0-0.03,0-0.05,0L42.58,29.91z"></path>
		<path class="st0" d="M42.41,30.61c0.05,0.12,0.07,0.24,0.07,0.36c0,0.12-0.02,0.25-0.07,0.37c-0.03,0.09-0.08,0.16-0.13,0.23    c-0.05,0.06-0.12,0.11-0.19,0.14c-0.07,0.03-0.14,0.05-0.23,0.05c-0.08,0-0.16-0.01-0.25-0.04l-0.92-0.33l0.07-0.2    c0.02-0.04,0.03-0.07,0.05-0.09c0.02-0.02,0.05-0.03,0.09-0.03l0.09,0c-0.02-0.05-0.03-0.09-0.04-0.14    c-0.01-0.04-0.02-0.09-0.02-0.13c0-0.04,0-0.09,0-0.13c0.01-0.04,0.02-0.09,0.04-0.14c0.02-0.07,0.06-0.12,0.09-0.17    c0.04-0.05,0.08-0.09,0.13-0.11c0.05-0.03,0.1-0.04,0.16-0.04c0.06,0,0.12,0.01,0.19,0.03c0.05,0.02,0.1,0.05,0.15,0.1    c0.04,0.05,0.08,0.11,0.1,0.19c0.02,0.08,0.03,0.18,0.02,0.31c-0.01,0.12-0.04,0.27-0.1,0.44l0.06,0.02    c0.09,0.03,0.16,0.04,0.21,0.01c0.05-0.02,0.09-0.07,0.11-0.13c0.02-0.05,0.03-0.1,0.03-0.13c0-0.04,0-0.07-0.01-0.1    c0-0.03-0.01-0.06-0.01-0.09c0-0.03,0-0.06,0.02-0.09c0.01-0.03,0.03-0.05,0.05-0.07c0.02-0.02,0.05-0.03,0.07-0.03L42.41,30.61z     M41.45,31.16c0.03-0.09,0.05-0.17,0.06-0.23c0.01-0.06,0.01-0.11,0.01-0.15c0-0.04-0.02-0.07-0.03-0.09s-0.04-0.04-0.06-0.04    c-0.05-0.02-0.09-0.02-0.12,0c-0.03,0.02-0.05,0.06-0.07,0.11c-0.02,0.06-0.03,0.11-0.02,0.16c0,0.05,0.02,0.1,0.05,0.16    L41.45,31.16z"></path>
		<path class="st0" d="M40.63,31.6l1.4,0.71l-0.13,0.26c-0.03,0.05-0.07,0.07-0.12,0.07l-0.09-0.02c0.01,0.04,0.02,0.07,0.03,0.11    c0.01,0.04,0.01,0.07,0.01,0.11c0,0.04,0,0.07-0.01,0.11c-0.01,0.04-0.02,0.08-0.04,0.12c-0.04,0.08-0.1,0.14-0.17,0.18    c-0.07,0.03-0.15,0.05-0.24,0.04c0.03,0.04,0.05,0.09,0.07,0.14c0.01,0.05,0.02,0.1,0.02,0.15s-0.01,0.1-0.02,0.15    s-0.03,0.09-0.05,0.14c-0.04,0.08-0.09,0.15-0.14,0.2c-0.05,0.05-0.12,0.08-0.18,0.1c-0.07,0.02-0.14,0.02-0.22,0.01    s-0.16-0.04-0.24-0.08l-0.89-0.45l0.21-0.42l0.89,0.45c0.15,0.07,0.25,0.05,0.31-0.08c0.03-0.06,0.03-0.11,0.01-0.17    c-0.02-0.06-0.06-0.1-0.13-0.14l-0.89-0.45l0.21-0.42l0.89,0.45c0.08,0.04,0.14,0.05,0.19,0.04c0.05-0.02,0.09-0.05,0.12-0.12    c0.02-0.04,0.03-0.08,0.03-0.12c0-0.04-0.01-0.09-0.02-0.13l-1.01-0.51L40.63,31.6z"></path>
	</g>
</g>
</svg>
