<?xml version="1.0" encoding="UTF-8"?>
<!-- Generator: Adobe Illustrator 26.0.1, SVG Export Plug-In . SVG Version: 6.00 Build 0)  -->
<svg xmlns="http://www.w3.org/2000/svg" xmlns:xlink="http://www.w3.org/1999/xlink" version="1.1" id="Layer_1" x="0px" y="0px" viewBox="0 0 100 100" style="enable-background:new 0 0 100 100;" xml:space="preserve">
<style type="text/css">
	.st0{opacity:0.5;fill:#FFFFFF;}
	.st1{fill:#9A0212;}
	.st2{fill:#020202;}
	.st3{fill:none;}
	.st4{fill:#656565;}
	.st5{fill:#141414;}
</style>
<rect class="st0" width="100" height="100"></rect>
<g>
	<g>
		<path class="st1" d="M38.82,74.95l-13.79,0c-0.02-1.38-0.01-2.77-0.01-4.15L25,69.93c0.03-0.07,0.08-0.17,0.1-0.3    c0.36-2.75,1.79-4.94,4.25-6.51c0.17-0.11,0.48-0.31,0.54-0.66c0.05-0.33-0.14-0.58-0.32-0.79c-1.97-2.33-1.76-5.79,0.47-7.88    c1.09-1.02,2.49-1.58,3.95-1.58c1.49,0,2.92,0.58,4.03,1.64c2.15,2.05,2.32,5.59,0.39,7.88c-0.17,0.2-0.17,0.48-0.14,0.68    c0.03,0.18,0.11,0.5,0.36,0.66c1.64,1.05,2.83,2.42,3.63,4.18c0.72,1.59,0.72,3.27,0.72,5.05c0,0.42,0,0.84,0.01,1.26    c0.02,0.75-0.21,1.16-0.72,1.39H38.82z M26.99,70.38c-0.06,1.18-0.09,1.78,0.31,2.2c0.4,0.41,0.98,0.41,2.15,0.41l7.05,0    c1.18,0,2.36,0,3.54-0.01c0.28,0,0.84-0.18,0.93-0.62c0.61-2.87-0.91-6.17-3.54-7.68c-1.05-0.6-2.2-0.91-3.4-0.91    C30.27,63.76,27.17,66.67,26.99,70.38z M33.93,54.18L33.93,54.18c-1.95,0-3.63,1.65-3.75,3.68c-0.06,0.95,0.28,1.88,0.94,2.62    c0.69,0.77,1.69,1.25,2.73,1.31l0.19,0c1.98,0,3.62-1.6,3.73-3.64c0.06-0.98-0.28-1.93-0.95-2.68c-0.7-0.78-1.67-1.24-2.73-1.29    L33.93,54.18z"></path>
		<g>
			<path class="st1" d="M58.8,60.6c-3.89,0-7.77-0.01-11.66-0.04c-0.4,0-0.99-0.33-1.1-0.55c-0.11-0.21-0.01-0.87,0.23-1.22     c0.78-1.14,1.63-2.26,2.45-3.35c0.55-0.73,1.04-1.38,1.52-2.04c0.24-0.32,0.39-0.78,0.39-1.19c0.01-1.86,0.01-16.52,0.01-18.37     V31.1c0-3.56,2.5-6.05,6.06-6.05l12.08,0c3.29,0,5.41,1.71,6.12,4.95c0.02,0.08,0.05,0.16,0.08,0.24l-0.01,25.31     c-0.42,2.18-1.48,3.63-3.25,4.42c-0.86,0.38-1.83,0.6-2.72,0.61C65.62,60.59,62.21,60.6,58.8,60.6z M56.76,27.01     c-2.55,0-4.14,1.58-4.14,4.12c0,0.82,0,1.65,0,2.47c0.01,2.05,0.01,16.95-0.04,19.02c-0.01,0.51-0.23,1.14-0.57,1.68     c-0.46,0.73-1,1.43-1.53,2.1c-0.26,0.34-0.51,0.66-0.75,0.98c-0.08,0.11-0.14,0.23-0.19,0.34l-0.39,0.76l0.86,0.1     c0.12,0.02,0.24,0.03,0.36,0.03l18.54,0c2.5,0,4.11-1.61,4.11-4.1c0-3.53,0-19.86,0-23.39c0-2.54-1.59-4.12-4.14-4.12H56.76z"></path>
			<path d="M56.32,34.38c-0.42,0-0.76-0.12-0.98-0.34c-0.16-0.16-0.24-0.39-0.24-0.64c0.01-0.62,0.45-0.97,1.2-0.97     c1.57,0,3.15-0.01,4.72-0.01l4.42,0c0.41,0,0.76,0.12,0.97,0.33c0.16,0.17,0.25,0.4,0.24,0.66c-0.01,0.61-0.45,0.96-1.2,0.96     l-1.82,0L56.32,34.38z"></path>
			<path d="M58.55,40.79c-0.86,0-1.73-0.02-2.59-0.04c-0.22-0.01-0.43-0.1-0.59-0.27c-0.18-0.19-0.27-0.45-0.26-0.71     c0.02-0.54,0.43-0.93,0.99-0.94c0.31-0.01,0.62-0.01,0.92-0.01l1.5,0.01l1.45-0.01c0.3,0,0.61,0,0.91,0.02     c0.62,0.03,0.92,0.32,0.95,0.91c0.02,0.32-0.06,0.58-0.21,0.75c-0.14,0.15-0.34,0.23-0.59,0.24     C60.21,40.77,59.38,40.79,58.55,40.79z"></path>
			<path d="M56.32,47.19c-0.42,0-0.76-0.12-0.98-0.34c-0.16-0.16-0.24-0.39-0.24-0.64c0.01-0.62,0.45-0.97,1.2-0.97     c1.57,0,3.15-0.01,4.72-0.01l4.42,0c0.41,0,0.76,0.12,0.97,0.33c0.16,0.17,0.25,0.4,0.24,0.66c-0.01,0.61-0.45,0.96-1.2,0.96     l-1.82,0L56.32,47.19z"></path>
			<path d="M58.55,53.6c-0.86,0-1.73-0.02-2.59-0.04c-0.22-0.01-0.43-0.1-0.59-0.27c-0.18-0.19-0.27-0.45-0.26-0.71     c0.02-0.54,0.43-0.93,0.99-0.94c0.31-0.01,0.62-0.01,0.92-0.01l1.5,0.01l1.45-0.01c0.3,0,0.61,0,0.91,0.02     c0.62,0.03,0.92,0.32,0.95,0.91c0.02,0.32-0.06,0.58-0.21,0.75c-0.14,0.15-0.34,0.23-0.59,0.24     C60.21,53.58,59.38,53.6,58.55,53.6z"></path>
		</g>
	</g>
	<g>
		<path d="M45.01,45.3c-0.49-0.08-0.98-0.31-1.48-0.5c-0.29-0.1-0.49-0.1-0.75,0.11c-0.74,0.61-1.58,1.08-2.48,1.42    c-0.24,0.09-0.36,0.21-0.39,0.48c-0.06,0.45-0.15,0.89-0.25,1.34c-0.13,0.57-0.49,0.86-1.07,0.86c-1.3,0.01-2.6,0.01-3.89,0    c-0.61,0-0.95-0.29-1.09-0.9c-0.12-0.54-0.07-1.19-0.37-1.58c-0.28-0.38-0.93-0.48-1.4-0.72c-0.49-0.25-0.96-0.55-1.38-0.91    c-0.22-0.19-0.4-0.21-0.66-0.1c-0.4,0.17-0.82,0.31-1.24,0.44c-0.55,0.17-1,0.01-1.3-0.48c-0.67-1.13-1.32-2.27-1.97-3.41    c-0.29-0.51-0.19-0.94,0.24-1.36c0.02-0.02,0.05-0.04,0.07-0.07c0.38-0.37,0.99-0.6,1.14-1.08c0.15-0.46-0.06-1.02-0.08-1.54    c-0.03-0.55-0.01-1.1,0.1-1.65c0.05-0.27,0-0.45-0.22-0.63c-0.36-0.28-0.7-0.58-1.03-0.89c-0.41-0.39-0.5-0.83-0.22-1.32    c0.65-1.16,1.31-2.31,1.99-3.45c0.28-0.47,0.74-0.62,1.26-0.45c0.43,0.14,0.86,0.28,1.28,0.45c0.25,0.1,0.41,0.06,0.61-0.11    c0.76-0.62,1.6-1.1,2.52-1.45c0.24-0.09,0.36-0.21,0.39-0.48c0.06-0.45,0.15-0.89,0.25-1.34c0.13-0.57,0.48-0.86,1.07-0.87    c1.3-0.01,2.6-0.01,3.89,0c0.61,0.01,0.96,0.3,1.09,0.9c0.12,0.54,0.07,1.19,0.37,1.58c0.28,0.38,0.93,0.48,1.4,0.72    c0.49,0.25,0.96,0.56,1.37,0.91c0.22,0.19,0.4,0.21,0.66,0.1c0.4-0.17,0.82-0.31,1.24-0.44c0.55-0.17,1-0.02,1.3,0.48    c0.66,1.12,1.31,2.24,1.94,3.37c0.32,0.56,0.23,0.99-0.25,1.44c-0.01,0.01-0.02,0.02-0.04,0.03c-0.39,0.37-0.99,0.6-1.14,1.08    c-0.15,0.46,0.06,1.02,0.08,1.53c0.03,0.55,0.01,1.1-0.1,1.65c-0.05,0.27-0.01,0.45,0.22,0.63c0.35,0.26,0.68,0.55,1,0.85    c0.44,0.41,0.54,0.84,0.25,1.36c-0.65,1.16-1.32,2.31-1.99,3.46C45.79,45.13,45.46,45.29,45.01,45.3z M36.65,46.87    c1.1,0,1.1,0,1.27-1.06c0.01-0.03,0.01-0.06,0.01-0.1c0.07-0.64,0.42-1.02,1.04-1.19c1.06-0.29,2.03-0.81,2.81-1.58    c0.6-0.58,1.17-0.69,1.93-0.37c0.87,0.36,0.88,0.32,1.37-0.5c0.61-1.04,0.63-1.06-0.31-1.81c-0.52-0.41-0.65-0.89-0.5-1.5    c0.26-1.07,0.3-2.17,0.03-3.23c-0.2-0.81,0.02-1.36,0.66-1.85c0.74-0.56,0.71-0.6,0.26-1.4c-0.62-1.07-0.62-1.08-1.8-0.65    c-0.55,0.2-0.99,0.12-1.42-0.28c-0.85-0.8-1.82-1.42-2.95-1.73c-0.71-0.2-1.05-0.61-1.14-1.32c-0.14-1.05-0.16-1.05-1.22-1.05    c-1.13,0-1.15,0-1.32,1.11c-0.1,0.67-0.43,1.06-1.1,1.25c-1.06,0.3-2.02,0.83-2.81,1.6c-0.56,0.55-1.12,0.65-1.85,0.35    c-0.91-0.38-0.93-0.35-1.41,0.49c-0.61,1.04-0.63,1.06,0.31,1.81c0.51,0.41,0.65,0.88,0.5,1.5c-0.26,1.07-0.29,2.17-0.03,3.23    c0.2,0.81,0,1.36-0.66,1.85c-0.74,0.56-0.72,0.6-0.26,1.4c0.62,1.08,0.62,1.09,1.8,0.65c0.55-0.2,0.99-0.13,1.42,0.28    c0.86,0.81,1.85,1.43,3,1.75c0.67,0.19,0.99,0.59,1.09,1.26C35.53,46.87,35.55,46.87,36.65,46.87z"></path>
		<path d="M32.62,37.07c0-2.25,1.8-4.05,4.04-4.04c2.22,0.01,4,1.8,4,4.04c0,2.25-1.8,4.05-4.04,4.04    C34.4,41.1,32.62,39.31,32.62,37.07z M38.52,37.05c-0.01-1.04-0.85-1.88-1.89-1.88c-1.03,0-1.87,0.85-1.87,1.89    c0,1.07,0.85,1.92,1.91,1.9C37.71,38.95,38.53,38.1,38.52,37.05z"></path>
	</g>
</g>
</svg>
