<?xml version="1.0" encoding="UTF-8"?>
<!-- Generator: Adobe Illustrator 26.0.1, SVG Export Plug-In . SVG Version: 6.00 Build 0)  -->
<svg xmlns="http://www.w3.org/2000/svg" xmlns:xlink="http://www.w3.org/1999/xlink" version="1.1" id="Layer_1" x="0px" y="0px" viewBox="0 0 100 100" style="enable-background:new 0 0 100 100;" xml:space="preserve">
<style type="text/css">
	.st0{opacity:0.5;fill:#FFFFFF;}
	.st1{fill:#9A0212;}
	.st2{fill:#020202;}
	.st3{fill:none;}
	.st4{fill:#656565;}
	.st5{fill:#141414;}
</style>
<rect class="st0" width="100" height="100"></rect>
<g>
	<path class="st1" d="M47.76,24.99c0.29,0,0.59,0,0.88,0c0.23,0.19,0.5,0.1,0.74,0.09c0.63-0.03,1.28,0.13,1.9-0.09   c0.33,0,0.65,0,0.98,0c0.02,0.11,0.11,0.09,0.19,0.1c1.73,0.13,3.41,0.46,5.06,0.99c4.15,1.32,7.74,3.53,10.55,6.88   c2.59,3.08,4.05,6.63,4.27,10.67c0.01,0.25,0.05,0.44,0.31,0.59c1.53,0.92,2.32,2.3,2.33,4.08c0.03,3.47,0.03,6.94,0,10.4   c-0.01,1.83-0.89,3.19-2.47,4.1c-0.94,0.54-1.97,0.68-3.07,0.54c0,0.22,0,0.4,0,0.58c0,3.22,0,6.45,0,9.67   c0,1.07-0.37,1.43-1.44,1.43c-11.98,0-23.97,0-35.95,0c-1.06,0-1.4-0.34-1.4-1.4c0-3.29,0-6.58,0.01-9.87   c0-0.34-0.06-0.42-0.42-0.39c-2.35,0.23-4.47-1.3-5.07-3.6c-0.03-0.13,0.02-0.31-0.16-0.38c0-0.1,0-0.2,0-0.29   c0.17-0.1,0.09-0.26,0.09-0.4c0-3.45,0-6.9,0-10.35c0-0.13,0.08-0.3-0.09-0.4c0-0.13,0-0.26,0-0.39c0.18-0.09,0.14-0.28,0.17-0.42   c0.32-1.24,1.02-2.21,2.11-2.87c0.3-0.18,0.39-0.37,0.4-0.69c0.16-2.98,0.99-5.77,2.59-8.28c3.68-5.78,9.09-8.89,15.73-10.03   C46.6,25.17,47.2,25.19,47.76,24.99z M42.97,64.07c-2.3,0-4.61,0-6.97,0c0.22,0.59,0.49,1.06,0.79,1.52   c3.76,5.65,9.05,7.97,15.72,7.08c7.22-0.97,12.79-7.25,12.94-14.54c0.07-3.47,0-6.94,0.01-10.4c0-0.31-0.09-0.37-0.38-0.37   c-1.73,0.01-3.45-0.01-5.18,0.02c-0.64,0.01-1.07-0.21-1.42-0.75c-0.67-1.05-1.38-2.07-2.1-3.15c-0.74,1.08-1.46,2.1-2.13,3.15   c-0.35,0.54-0.79,0.75-1.42,0.75c-5.89-0.01-11.79,0-17.68-0.02c-0.48,0-0.62,0.09-0.62,0.59c0.02,3.24,0.01,6.48,0,9.72   c0,1.31,0.17,2.59,0.49,3.86c0.09,0.34,0.22,0.42,0.56,0.42c2.46-0.01,4.92,0,7.38,0C42.97,62.65,42.97,63.36,42.97,64.07z    M65.15,45.2c-1.24-6.87-7.2-12.26-15.19-12.24c-8.04,0.02-13.89,5.52-15.08,12.22c0.06,0.01,0.13,0.02,0.19,0.02   c5.75,0,11.49,0,17.24,0.01c0.25,0,0.37-0.11,0.5-0.29c0.85-1.27,1.71-2.53,2.57-3.79c0.61-0.89,1.43-0.9,2.03-0.01   c0.84,1.25,1.68,2.51,2.52,3.77c0.1,0.16,0.18,0.33,0.43,0.33C61.96,45.2,63.55,45.2,65.15,45.2z M32.74,44.56   c2-8.48,8.51-13.09,15.73-13.68c4.38-0.36,8.43,0.66,12.03,3.23c3.61,2.58,5.74,6.15,6.76,10.43c0.32-0.18,0.57-0.36,0.85-0.49   c0.29-0.14,0.61-0.22,0.91-0.34c0.36-0.16,0.95,0.06,1.09-0.33c0.13-0.37-0.04-0.86-0.11-1.29c-0.88-5.05-3.57-8.9-7.91-11.52   c-6.1-3.69-12.65-4.38-19.43-2.27c-5.12,1.6-9,4.77-11.36,9.66c-0.8,1.65-1.25,3.41-1.41,5.24c-0.01,0.15-0.12,0.36,0.2,0.37   C31.05,43.62,31.92,43.95,32.74,44.56z M67.63,53.42c0,1.68,0,3.35,0,5.03c0,1,0.32,1.85,1.22,2.4c1.5,0.9,3.96,0.19,3.98-2.28   c0.02-3.4,0.02-6.8,0-10.21c-0.01-1.12-0.48-1.99-1.55-2.44c-1.83-0.77-3.63,0.47-3.65,2.52C67.62,50.1,67.63,51.76,67.63,53.42z    M27.18,53.42c0,1.66,0,3.32,0,4.98c0,0.36,0.02,0.71,0.13,1.06c0.39,1.19,1.58,1.93,2.82,1.75c1.33-0.19,2.24-1.23,2.25-2.64   c0.01-3.4,0.01-6.8,0-10.21c0-0.39-0.06-0.77-0.23-1.14c-0.49-1.09-1.68-1.71-2.85-1.48c-1.28,0.25-2.11,1.24-2.13,2.59   C27.17,50.03,27.18,51.73,27.18,53.42z M67.03,62.21c-1.36,4.65-4.13,8.16-8.39,10.65c2.87,0,5.6,0,8.33,0.01   c0.28,0,0.31-0.11,0.31-0.35c-0.01-3.29,0-6.58,0-9.87C67.29,62.47,67.28,62.29,67.03,62.21z M32.98,62.2   c-0.25,0.14-0.18,0.34-0.18,0.5c0,3.24,0,6.48-0.01,9.72c0,0.37,0.09,0.45,0.45,0.45c2.56-0.02,5.11-0.01,7.67-0.01   c0.11,0,0.25,0.07,0.35-0.07C37.1,70.35,34.34,66.82,32.98,62.2z"></path>
	<path class="st4" d="M25,47.95c0.17,0.1,0.09,0.26,0.09,0.4c0,3.45,0,6.9,0,10.35c0,0.13,0.07,0.3-0.09,0.4   C25,55.37,25,51.66,25,47.95z"></path>
	<path class="st5" d="M51.28,24.99c-0.62,0.22-1.27,0.06-1.9,0.09c-0.24,0.01-0.51,0.1-0.74-0.09   C49.52,24.99,50.4,24.99,51.28,24.99z"></path>
	<path d="M42.97,61.94c0.01-0.31,0.01-0.62,0.02-0.93c0.03-1.29,0.96-2.28,2.25-2.29c3.19-0.02,6.38-0.02,9.57,0   c1.29,0.01,2.22,1,2.24,2.3c0.01,1.33,0.02,2.67,0,4c-0.02,1.32-0.98,2.27-2.3,2.27c-3.16,0.01-6.31,0.01-9.47,0   c-1.31,0-2.26-0.97-2.28-2.29c-0.01-0.31-0.01-0.62-0.02-0.93C42.97,63.36,42.97,62.65,42.97,61.94z M49.96,65.15   c1.5,0,2.99-0.01,4.49,0.01c0.33,0,0.45-0.08,0.45-0.43c-0.02-1.14-0.02-2.28,0-3.41c0.01-0.34-0.1-0.45-0.44-0.45   c-2.96,0.01-5.92,0.01-8.88,0c-0.34,0-0.45,0.1-0.45,0.45c0.02,1.14,0.02,2.28,0,3.41c-0.01,0.35,0.11,0.44,0.44,0.44   C47.03,65.14,48.5,65.15,49.96,65.15z"></path>
</g>
</svg>
