<?xml version="1.0" encoding="UTF-8"?>
<!-- Generator: Adobe Illustrator 26.0.1, SVG Export Plug-In . SVG Version: 6.00 Build 0)  -->
<svg xmlns="http://www.w3.org/2000/svg" xmlns:xlink="http://www.w3.org/1999/xlink" version="1.1" id="Layer_1" x="0px" y="0px" viewBox="0 0 100 100" style="enable-background:new 0 0 100 100;" xml:space="preserve">
<style type="text/css">
	.st0{opacity:0.5;fill:#FFFFFF;}
	.st1{fill:#9A0212;}
	.st2{fill:#020202;}
	.st3{fill:none;}
	.st4{fill:#656565;}
	.st5{fill:#141414;}
</style>
<rect class="st0" width="100" height="100"></rect>
<g>
	<path class="st1" d="M30.08,74.99c-2.23-0.42-3.71-1.52-4.5-3.37c-0.33-0.78-0.53-1.7-0.54-2.6c-0.05-2.85-0.04-5.75-0.03-8.55   l0.01-2.29c0.01-3.45,2.5-5.95,5.92-5.96c2.92,0,5.85-0.01,8.77-0.01c4.41,0,8.82,0.01,13.23,0.04c0.35,0,0.94,0.31,1.06,0.55   c0.11,0.21,0.02,0.85-0.21,1.18c-0.8,1.16-1.68,2.33-2.47,3.37c-0.54,0.72-1.03,1.37-1.51,2.02c-0.25,0.35-0.41,0.82-0.42,1.23   c-0.02,2.06-0.02,4.13-0.02,6.19l0,1.98c0,3.34-1.74,5.46-5.03,6.16l-0.14,0.05H30.08z M31.13,54.18c-2.56,0-4.15,1.58-4.15,4.13   c0,3.53,0,7.07,0,10.6c0,2.53,1.58,4.11,4.12,4.11h12.19c2.54,0,4.13-1.59,4.13-4.15l0-2.46c0-2.24-0.01-4.37,0.02-6.49   c0.01-0.37,0.16-0.83,0.4-1.18c0.55-0.81,1.17-1.62,1.71-2.33c0.26-0.34,0.51-0.67,0.76-1.01c0.07-0.09,0.12-0.19,0.18-0.28   l0.6-0.94c0,0-1.24,0-1.4,0c-2.24,0-14,0-14,0l0,0L31.13,54.18z"></path>
	<path class="st1" d="M58.78,47.8c-3.89,0-7.78-0.01-11.67-0.04c-0.4,0-0.99-0.33-1.11-0.55c-0.11-0.21-0.01-0.87,0.23-1.22   c0.78-1.14,1.63-2.27,2.45-3.36c0.55-0.73,1.04-1.38,1.52-2.04c0.24-0.32,0.39-0.78,0.39-1.19c0.01-1.86,0.01-3.72,0.01-5.58v-2.75   c0-3.57,2.5-6.06,6.07-6.06l12.1,0c3.3,0,5.42,1.71,6.13,4.95c0.02,0.08,0.05,0.16,0.08,0.24l-0.01,12.52   c-0.42,2.19-1.48,3.64-3.26,4.42c-0.86,0.38-1.83,0.6-2.72,0.61C65.6,47.79,62.19,47.8,58.78,47.8z M56.73,26.98   c-2.56,0-4.15,1.58-4.15,4.13c0,0.82,0,1.65,0,2.47c0.01,2.06,0.01,4.15-0.04,6.22c-0.01,0.51-0.23,1.14-0.57,1.68   c-0.46,0.73-1,1.43-1.53,2.11c-0.26,0.34-0.51,0.66-0.75,0.98c-0.08,0.11-0.14,0.23-0.19,0.34l-0.39,0.76l0.87,0.1   c0.12,0.02,0.24,0.03,0.36,0.03l18.57,0c2.5,0,4.12-1.61,4.12-4.11c0-3.53,0-7.07,0-10.6c0-2.55-1.59-4.13-4.15-4.13H56.73z"></path>
	<path class="st1" d="M57.72,74.99c-0.51-0.22-0.74-0.64-0.72-1.39c0.01-0.42,0.01-0.84,0.01-1.26c0-1.78-0.01-3.46,0.72-5.05   c0.8-1.76,1.99-3.13,3.64-4.19c0.25-0.16,0.34-0.48,0.36-0.66c0.03-0.2,0.03-0.48-0.14-0.68c-1.93-2.3-1.76-5.83,0.39-7.89   c1.11-1.06,2.54-1.64,4.03-1.64c1.46,0,2.86,0.56,3.95,1.58c2.24,2.09,2.45,5.56,0.47,7.89c-0.18,0.21-0.37,0.47-0.32,0.79   c0.05,0.36,0.37,0.56,0.54,0.67c2.46,1.57,3.89,3.76,4.25,6.52c0.02,0.13,0.06,0.23,0.1,0.3l-0.01,0.86c0,1.39,0,2.77-0.01,4.16   l-13.81,0H57.72z M65.95,63.78c-1.2,0-2.35,0.31-3.4,0.91c-2.63,1.51-4.15,4.82-3.54,7.69c0.09,0.44,0.65,0.62,0.93,0.62   c1.18,0.01,2.36,0.01,3.55,0.01l7.06,0c1.17,0,1.76,0,2.15-0.41c0.4-0.42,0.37-1.01,0.31-2.2C72.82,66.69,69.72,63.78,65.95,63.78z    M65.89,54.19c-1.06,0.05-2.03,0.51-2.73,1.29c-0.67,0.74-1.01,1.7-0.95,2.68c0.12,2.04,1.76,3.64,3.74,3.64l0.19,0   c1.05-0.05,2.04-0.53,2.74-1.31c0.66-0.74,0.99-1.67,0.94-2.62c-0.12-2.03-1.8-3.69-3.75-3.69h0L65.89,54.19z"></path>
	<path class="st1" d="M26.3,47.79c-0.49,0-0.82-0.1-1.02-0.3c-0.19-0.19-0.27-0.51-0.26-0.97c0.01-0.4,0.01-0.8,0.01-1.2   c0.01-1.15,0.01-2.33,0.18-3.44c0.38-2.43,1.75-4.42,4.09-5.92c0.23-0.15,0.52-0.33,0.57-0.69c0.05-0.33-0.14-0.6-0.32-0.8   c-1.98-2.31-1.77-5.77,0.48-7.88c1.08-1.02,2.49-1.58,3.96-1.58c1.5,0,2.93,0.58,4.03,1.64c2.18,2.1,2.36,5.57,0.4,7.89   c-0.2,0.23-0.18,0.57-0.16,0.75c0.04,0.27,0.15,0.46,0.32,0.58c2.93,1.9,4.37,4.48,4.4,7.88c0.01,0.93,0.01,1.85,0,2.78   c0,0.92-0.36,1.27-1.26,1.27l-3.3,0L26.3,47.79z M33.96,36.55c-1.3,0-2.58,0.4-3.81,1.2c-2.36,1.54-3.39,3.86-3.16,7.11   c0.03,0.4,0.51,0.94,0.96,0.95c1.17,0.02,2.33,0.02,3.5,0.02l7.46,0c0.96,0,1.44,0,1.79-0.36c0.35-0.36,0.34-0.84,0.31-1.79   c-0.07-2.87-1.33-4.97-3.73-6.25C36.2,36.84,35.08,36.55,33.96,36.55z M33.99,26.98c-2.05,0-3.76,1.68-3.81,3.75   c-0.02,0.99,0.35,1.93,1.04,2.66c0.72,0.75,1.68,1.18,2.71,1.2c2.15,0,3.85-1.66,3.87-3.77c0.02-2.09-1.67-3.81-3.77-3.84H33.99z"></path>
	<path d="M32.63,61.38c-0.42,0-0.77-0.12-0.98-0.34c-0.16-0.16-0.24-0.39-0.24-0.65c0.01-0.62,0.45-0.97,1.2-0.98   c1.58,0,3.15-0.01,4.73-0.01l4.42,0c0.41,0,0.76,0.12,0.97,0.34c0.16,0.17,0.25,0.4,0.24,0.66c-0.01,0.61-0.45,0.96-1.2,0.97   l-1.83,0L32.63,61.38z"></path>
	<path d="M34.86,67.8c-0.87,0-1.73-0.02-2.6-0.04c-0.22-0.01-0.43-0.1-0.59-0.27c-0.18-0.19-0.27-0.45-0.26-0.71   c0.02-0.54,0.43-0.93,0.99-0.94c0.31-0.01,0.62-0.01,0.92-0.01l1.5,0.01l1.45-0.01c0.3,0,0.61,0,0.91,0.02   c0.62,0.03,0.93,0.32,0.96,0.92c0.02,0.32-0.06,0.58-0.21,0.75c-0.14,0.15-0.34,0.23-0.59,0.24C36.52,67.78,35.69,67.8,34.86,67.8z   "></path>
	<path d="M62.88,38.16c-0.6,0-0.98-0.31-1.04-0.83c-0.03-0.29-0.1-0.96,1.2-1.14c1.06-0.14,1.72-0.76,1.92-1.79   c0.19-0.98-0.19-1.8-1.06-2.31c-0.38-0.22-0.77-0.33-1.15-0.33c-0.54,0-1.04,0.22-1.44,0.64c-0.43,0.45-0.63,1.1-0.72,1.56   c-0.13,0.66-0.47,1-1,1c-0.05,0-0.1,0-0.16-0.01c-0.53-0.06-0.85-0.55-0.79-1.18c0.22-2.3,1.74-3.78,4.06-3.96   c0.09-0.01,0.17-0.01,0.26-0.01c1.75,0,3.38,1.37,3.9,3.26c0.3,1.11,0.07,2.31-0.62,3.29c-0.76,1.06-1.94,1.71-3.24,1.8   L62.88,38.16z"></path>
	<path d="M62.8,42.98c-0.53,0-0.97-0.45-0.97-0.99c0-0.54,0.43-0.97,0.97-0.97c0.26,0,0.51,0.1,0.69,0.29   c0.18,0.18,0.28,0.43,0.28,0.69C63.77,42.54,63.34,42.98,62.8,42.98L62.8,42.98z"></path>
</g>
</svg>
