<?xml version="1.0" encoding="UTF-8"?>
<svg xmlns="http://www.w3.org/2000/svg" width="60" height="60" viewBox="0 0 60 60" fill="none">
  <path d="M28.38 26.5794C28.38 31.1394 21.42 38.4594 19.08 40.9794C18.18 41.9394 16.68 41.9394 15.78 41.0394C15.78 41.0394 15.78 41.0394 15.72 40.9794C14.88 40.1394 14.88 38.7594 15.66 37.8594C16.68 36.8394 17.58 35.6994 18.42 34.6194C14.82 33.7794 12 30.4794 12 26.5794C12 22.0794 15.66 18.3594 20.22 18.3594C24.78 18.3594 28.38 22.0194 28.38 26.5794ZM39.78 18.3594C35.28 18.3594 31.56 22.0194 31.56 26.5794C31.56 30.5394 34.38 33.8394 38.1 34.6194C37.2 35.7594 36.3 36.8394 35.34 37.8594C34.5 38.7594 34.56 40.0794 35.4 40.9794C35.4 40.9794 35.4 40.9794 35.46 41.0394C36.36 41.9994 37.86 41.9394 38.76 40.9794C41.1 38.5194 48.06 31.1394 48.06 26.5794C48 22.0194 44.34 18.3594 39.78 18.3594Z" fill="#383838"></path>
</svg>
