<?xml version="1.0" encoding="UTF-8"?>
<!-- Generator: Adobe Illustrator 26.0.1, SVG Export Plug-In . SVG Version: 6.00 Build 0)  -->
<svg xmlns="http://www.w3.org/2000/svg" xmlns:xlink="http://www.w3.org/1999/xlink" version="1.1" id="Layer_1" x="0px" y="0px" viewBox="0 0 100 100" style="enable-background:new 0 0 100 100;" xml:space="preserve">
<style type="text/css">
	.st0{opacity:0.5;fill:#FFFFFF;}
	.st1{fill:#9A0212;}
	.st2{fill:none;}
	.st3{fill:#030303;}
</style>
<rect class="st0" width="100" height="100"></rect>
<g>
	<path class="st1" d="M25,61.72c0.39-0.58,0.94-0.71,1.61-0.69c1.44,0.06,2.89,0.05,4.34,0.09c0.29,0.01,0.47-0.08,0.64-0.32   c0.86-1.24,1.74-2.46,2.6-3.7c0.3-0.43,0.63-0.81,1.22-0.73c0.63,0.08,0.85,0.56,1.02,1.1c0.35,1.16,0.73,2.32,1.09,3.47   c0.08,0.87,0.49,1.44,1.41,1.54c0.05,0,0.09,0.01,0.14,0.01c1.22,0.39,2.44,0.79,3.66,1.16c0.48,0.15,0.82,0.41,0.9,0.91   c0.09,0.51-0.17,0.86-0.58,1.15c-1.29,0.91-2.57,1.83-3.87,2.72c-0.23,0.16-0.31,0.32-0.31,0.6c0.04,1.56,0.05,3.12,0.08,4.68   c0.01,0.51-0.13,0.94-0.61,1.18c-0.47,0.23-0.87,0.08-1.26-0.21c-1.23-0.93-2.48-1.84-3.71-2.78c-0.27-0.2-0.49-0.23-0.8-0.12   c-1.42,0.5-2.85,0.97-4.28,1.47c-0.49,0.17-0.96,0.23-1.36-0.17c-0.42-0.42-0.35-0.9-0.18-1.4c0.5-1.46,0.99-2.92,1.49-4.37   c0.07-0.2,0.09-0.36-0.05-0.54c-1.07-1.42-2.14-2.84-3.2-4.26C25,62.24,25,61.98,25,61.72z M36.73,71.72   c0-1.16,0.02-2.23-0.01-3.31c-0.02-0.62,0.21-1.04,0.72-1.38c0.81-0.54,1.6-1.12,2.39-1.68c0.1-0.07,0.25-0.1,0.22-0.27   c-1.07-0.33-2.13-0.68-3.21-1c-0.48-0.14-0.77-0.43-0.92-0.91c-0.32-1.08-0.67-2.15-1.03-3.3c-0.13,0.15-0.22,0.26-0.3,0.37   c-0.55,0.77-1.11,1.52-1.62,2.31c-0.35,0.53-0.8,0.75-1.43,0.73c-1.07-0.03-2.13-0.01-3.24-0.01c0.09,0.14,0.17,0.27,0.26,0.39   c0.52,0.7,1.02,1.43,1.59,2.1c0.49,0.58,0.55,1.14,0.28,1.84c-0.37,0.94-0.66,1.92-1.02,2.98c1.03-0.35,1.98-0.61,2.88-0.99   c0.79-0.33,1.41-0.22,2.05,0.32C35.1,70.56,35.92,71.11,36.73,71.72z"></path>
	<path class="st1" d="M25,38.96c0.31-0.61,0.81-0.8,1.47-0.77c1.07,0.05,2.14,0.04,3.21,0.07c0.29,0.01,0.47-0.09,0.63-0.33   c0.65-0.95,1.33-1.88,1.99-2.82c0.29-0.41,0.65-0.63,1.15-0.55c0.49,0.08,0.74,0.41,0.89,0.86c0.26,0.83,0.53,1.66,0.8,2.49   c0.09,0.32,0.18,0.64,0.27,0.96c0.04,0.14,0.1,0.25,0.27,0.3c0.34,0.08,0.67,0.19,1.01,0.28c0.8,0.26,1.6,0.53,2.4,0.77   c0.49,0.15,0.86,0.39,0.94,0.93c0.08,0.53-0.2,0.89-0.62,1.18c-0.92,0.64-1.82,1.3-2.75,1.93c-0.26,0.18-0.35,0.37-0.34,0.68   c0.04,1.11,0.04,2.21,0.06,3.32c0.01,0.53-0.11,0.97-0.62,1.22c-0.49,0.24-0.9,0.06-1.3-0.25c-0.89-0.68-1.8-1.33-2.69-2.02   c-0.24-0.18-0.43-0.2-0.7-0.1c-1.05,0.38-2.12,0.71-3.17,1.09c-0.48,0.17-0.92,0.19-1.31-0.18c-0.41-0.4-0.37-0.86-0.2-1.35   c0.36-1.04,0.7-2.09,1.07-3.13c0.1-0.29,0.09-0.5-0.1-0.75c-0.8-1.04-1.58-2.1-2.36-3.15C25,39.42,25,39.19,25,38.96z M29.05,45.55   c0.74-0.25,1.38-0.46,2.01-0.7c0.54-0.21,1-0.13,1.45,0.23c0.53,0.42,1.08,0.81,1.67,1.25c0-0.75,0.02-1.43-0.01-2.11   c-0.03-0.58,0.2-0.99,0.68-1.3c0.57-0.37,1.11-0.78,1.72-1.21c-0.72-0.22-1.36-0.44-2.02-0.62c-0.58-0.15-0.91-0.5-1.06-1.08   c-0.17-0.65-0.39-1.28-0.61-1.99c-0.45,0.64-0.87,1.2-1.25,1.78c-0.3,0.45-0.7,0.64-1.24,0.62c-0.69-0.02-1.37-0.01-2.13-0.01   c0.46,0.62,0.87,1.18,1.29,1.73c0.32,0.41,0.39,0.83,0.21,1.32C29.53,44.12,29.31,44.79,29.05,45.55z"></path>
	<path class="st1" d="M68.95,25c0.47,0.22,0.71,0.6,0.85,1.09c0.27,0.95,0.59,1.89,0.87,2.84c0.07,0.23,0.18,0.34,0.41,0.41   c1.01,0.3,2.01,0.63,3.02,0.94c0.48,0.14,0.81,0.42,0.89,0.92c0.07,0.49-0.16,0.84-0.55,1.11c-0.85,0.6-1.69,1.21-2.55,1.79   c-0.22,0.15-0.32,0.31-0.31,0.59c0.03,0.99,0.01,1.99,0.04,2.98c0.01,0.54-0.07,1.02-0.6,1.28c-0.51,0.25-0.93,0.05-1.34-0.27   c-0.77-0.6-1.57-1.16-2.34-1.76c-0.24-0.19-0.45-0.24-0.75-0.12c-0.96,0.35-1.93,0.66-2.9,0.99c-0.47,0.16-0.9,0.15-1.26-0.22   c-0.37-0.37-0.37-0.8-0.2-1.27c0.34-0.98,0.66-1.97,1.01-2.95c0.09-0.25,0.05-0.42-0.1-0.62c-0.63-0.83-1.24-1.67-1.87-2.5   c-0.3-0.39-0.43-0.81-0.19-1.27c0.24-0.46,0.64-0.6,1.14-0.58c1.04,0.02,2.08,0.01,3.12,0.04c0.26,0.01,0.41-0.07,0.56-0.28   c0.55-0.81,1.13-1.59,1.68-2.39c0.21-0.31,0.46-0.58,0.8-0.75C68.56,25,68.75,25,68.95,25z M64.19,30.58   c0.38,0.51,0.7,0.98,1.06,1.41c0.35,0.43,0.44,0.87,0.23,1.4c-0.21,0.53-0.37,1.09-0.58,1.7c0.62-0.21,1.16-0.37,1.68-0.57   c0.52-0.21,0.97-0.14,1.41,0.21c0.45,0.36,0.92,0.69,1.43,1.06c0-0.67,0.02-1.25-0.01-1.84c-0.02-0.53,0.18-0.9,0.61-1.19   c0.48-0.32,0.94-0.67,1.49-1.05c-0.56-0.18-1.03-0.36-1.51-0.47c-0.69-0.16-1.1-0.54-1.26-1.25c-0.11-0.49-0.3-0.97-0.48-1.53   c-0.4,0.57-0.75,1.06-1.09,1.55c-0.26,0.38-0.61,0.56-1.07,0.55C65.5,30.57,64.9,30.58,64.19,30.58z"></path>
	<path d="M36.69,39.46c-0.34-0.1-0.67-0.2-1.01-0.28c-0.17-0.04-0.23-0.15-0.27-0.3c-0.09-0.32-0.18-0.64-0.27-0.96   c0.36-0.35,0.72-0.7,1.08-1.06c3.76-3.75,7.51-7.51,11.26-11.26c0.23-0.23,0.46-0.45,0.76-0.59c0.2,0,0.39,0,0.59,0   c0.97,0.62,1.04,1.25,0.22,2.07c-3.99,3.99-7.97,7.97-11.96,11.95C36.95,39.17,36.82,39.32,36.69,39.46z"></path>
	<path class="st1" d="M62.09,64.86c0.8,0.26,1.6,0.52,2.4,0.77c0.48,0.15,0.86,0.38,0.95,0.92c0.08,0.53-0.18,0.89-0.6,1.18   c-0.92,0.64-1.82,1.3-2.75,1.93c-0.26,0.17-0.36,0.35-0.35,0.67c0.04,1.12,0.04,2.24,0.07,3.36c0.01,0.51-0.13,0.94-0.61,1.18   c-0.46,0.24-0.87,0.09-1.27-0.2c-0.92-0.7-1.85-1.37-2.77-2.08c-0.21-0.16-0.37-0.18-0.62-0.1c-1.08,0.38-2.18,0.74-3.27,1.11   c-0.48,0.17-0.93,0.17-1.3-0.22c-0.36-0.37-0.36-0.8-0.19-1.27c0.38-1.09,0.74-2.18,1.12-3.26c0.08-0.24,0.06-0.41-0.1-0.62   c-0.7-0.91-1.38-1.85-2.08-2.77c-0.3-0.39-0.45-0.8-0.21-1.26c0.24-0.48,0.67-0.63,1.18-0.61c1.12,0.02,2.24,0.03,3.36,0.07   c0.31,0.01,0.5-0.08,0.68-0.34c0.63-0.93,1.29-1.83,1.93-2.75c0.29-0.42,0.64-0.7,1.17-0.62c0.54,0.08,0.78,0.46,0.93,0.94   c0.25,0.8,0.51,1.6,0.77,2.4c0.08,0.29,0.17,0.58,0.24,0.88c0.06,0.24,0.18,0.39,0.43,0.44C61.5,64.69,61.79,64.78,62.09,64.86z    M61.98,67.11c-0.69-0.22-1.3-0.44-1.93-0.6c-0.64-0.16-1-0.52-1.16-1.16c-0.16-0.63-0.38-1.24-0.6-1.93   c-0.46,0.65-0.87,1.21-1.26,1.79c-0.29,0.43-0.67,0.63-1.19,0.61c-0.7-0.02-1.4-0.01-2.17-0.01c0.45,0.61,0.84,1.17,1.27,1.7   c0.35,0.44,0.41,0.89,0.22,1.41c-0.24,0.64-0.45,1.3-0.69,2.02c0.73-0.25,1.38-0.44,2.01-0.69c0.55-0.22,1-0.13,1.45,0.23   c0.53,0.42,1.08,0.81,1.66,1.24c0-0.79,0.01-1.5,0-2.21c-0.01-0.48,0.17-0.84,0.57-1.11C60.74,68,61.31,67.58,61.98,67.11z"></path>
	<path d="M39.06,62.49c-0.05,0-0.09-0.01-0.14-0.01c-0.92-0.1-1.33-0.66-1.41-1.54c0.13-0.12,0.27-0.24,0.39-0.36   c4.67-4.67,9.34-9.34,14.01-14.01c0.26-0.26,0.51-0.5,0.91-0.51c0.45-0.01,0.8,0.15,1,0.56c0.2,0.39,0.17,0.79-0.09,1.15   c-0.12,0.16-0.26,0.29-0.4,0.43c-4.63,4.64-9.27,9.27-13.9,13.9C39.3,62.22,39.18,62.35,39.06,62.49z"></path>
	<path d="M62.09,64.86c-0.29-0.08-0.58-0.17-0.88-0.23c-0.25-0.06-0.38-0.2-0.43-0.44c-0.07-0.29-0.16-0.58-0.24-0.88   c0.14-0.13,0.29-0.26,0.43-0.4c4-4,8.01-8,12.01-12.01c0.36-0.36,0.75-0.63,1.29-0.44c0.71,0.26,0.95,1.07,0.49,1.67   c-0.11,0.14-0.24,0.26-0.37,0.39c-3.96,3.96-7.91,7.91-11.87,11.87C62.37,64.55,62.23,64.7,62.09,64.86z"></path>
	<path d="M59.9,41.19c0.01,0.25-0.09,0.52-0.31,0.74c-0.64,0.64-1.28,1.3-1.93,1.93c-0.5,0.48-1.12,0.48-1.56,0.03   c-0.43-0.44-0.42-1.05,0.04-1.53c0.64-0.67,1.3-1.32,1.96-1.96c0.33-0.32,0.75-0.4,1.17-0.21C59.68,40.35,59.89,40.68,59.9,41.19z"></path>
	<path class="st1" d="M28.49,54.86c0-0.59,0.46-1.05,1.04-1.06c0.62,0,1.1,0.46,1.09,1.07c0,0.57-0.48,1.06-1.05,1.07   C28.98,55.96,28.49,55.46,28.49,54.86z"></path>
	<path class="st1" d="M47.35,36.97c0.01-0.6,0.46-1.04,1.06-1.04c0.61,0,1.09,0.48,1.07,1.09c-0.02,0.58-0.5,1.05-1.07,1.05   C47.81,38.07,47.34,37.58,47.35,36.97z"></path>
	<path class="st1" d="M63.29,46.85c0.59,0,1.07,0.45,1.08,1.03c0.01,0.6-0.48,1.11-1.05,1.11c-0.59,0-1.09-0.5-1.09-1.09   C62.23,47.33,62.71,46.85,63.29,46.85z"></path>
</g>
</svg>
