<svg width="40" height="40" viewBox="0 0 40 40" fill="none" xmlns="http://www.w3.org/2000/svg">
<path d="M16.65 37.9668C16.1381 37.9583 15.6355 37.8285 15.1835 37.588C14.7316 37.3475 14.3431 37.0033 14.05 36.5835L12.05 33.9168C12.05 33.9335 11.9667 33.8835 11.9333 33.8835H11.3167C5.61666 33.8835 2.08333 32.3335 2.08333 24.6502V17.9835C2.08333 10.9668 6.36666 9.13349 9.96666 8.81683C10.4149 8.76758 10.8657 8.74532 11.3167 8.75016H21.9833C28.0167 8.75016 31.2167 11.9502 31.2167 17.9835V24.6502C31.2231 25.1182 31.1953 25.5862 31.1333 26.0502C30.8333 29.6002 29 33.8835 21.9833 33.8835H21.3167L19.25 36.5835C18.9569 37.0033 18.5684 37.3475 18.1164 37.588C17.6645 37.8285 17.1619 37.9583 16.65 37.9668ZM11.3167 11.2502C10.9333 11.2502 10.5667 11.2668 10.2167 11.3002C6.35 11.6335 4.58333 13.7502 4.58333 17.9835V24.6502C4.58333 30.3668 6.35 31.3835 11.3167 31.3835H11.9833C12.3803 31.3961 12.7701 31.4933 13.1265 31.6686C13.4829 31.8439 13.7977 32.0934 14.05 32.4002L16.05 35.0835C16.1046 35.1962 16.1898 35.2913 16.2959 35.3578C16.4021 35.4243 16.5248 35.4596 16.65 35.4596C16.7752 35.4596 16.8979 35.4243 17.0041 35.3578C17.1102 35.2913 17.1954 35.1962 17.25 35.0835L19.25 32.4168C19.4901 32.0954 19.802 31.8346 20.1608 31.6552C20.5197 31.4757 20.9155 31.3827 21.3167 31.3835H21.9833C26.2167 31.3835 28.3333 29.6002 28.65 25.8002C28.6966 25.4186 28.7189 25.0345 28.7167 24.6502V17.9835C28.7167 13.3335 26.6333 11.2502 21.9833 11.2502H11.3167Z" fill="#75020E"/>
<path d="M16.65 23.6502C16.3204 23.6502 15.9981 23.5525 15.724 23.3693C15.45 23.1862 15.2363 22.9259 15.1102 22.6214C14.984 22.3168 14.951 21.9817 15.0153 21.6584C15.0797 21.3351 15.2384 21.0381 15.4715 20.8051C15.7046 20.572 16.0015 20.4132 16.3248 20.3489C16.6481 20.2846 16.9833 20.3176 17.2878 20.4438C17.5923 20.5699 17.8526 20.7835 18.0358 21.0576C18.2189 21.3317 18.3167 21.6539 18.3167 21.9836C18.3167 22.4256 18.1411 22.8495 17.8285 23.1621C17.5159 23.4746 17.092 23.6502 16.65 23.6502Z" fill="#75020E"/>
<path d="M21.9833 23.6502C21.6537 23.6502 21.3314 23.5525 21.0573 23.3693C20.7833 23.1862 20.5696 22.9259 20.4435 22.6214C20.3173 22.3168 20.2843 21.9817 20.3486 21.6584C20.413 21.3351 20.5717 21.0381 20.8048 20.8051C21.0379 20.572 21.3348 20.4132 21.6581 20.3489C21.9814 20.2846 22.3165 20.3176 22.6211 20.4438C22.9256 20.5699 23.1859 20.7835 23.3691 21.0576C23.5522 21.3317 23.65 21.6539 23.65 21.9836C23.65 22.4256 23.4744 22.8495 23.1618 23.1621C22.8492 23.4746 22.4253 23.6502 21.9833 23.6502Z" fill="#75020E"/>
<path d="M11.3334 23.6502C11.0037 23.6502 10.6815 23.5525 10.4074 23.3693C10.1333 23.1862 9.9197 22.9259 9.79356 22.6214C9.66741 22.3168 9.6344 21.9817 9.69871 21.6584C9.76302 21.3351 9.92176 21.0381 10.1548 20.8051C10.3879 20.572 10.6849 20.4132 11.0082 20.3489C11.3315 20.2846 11.6666 20.3176 11.9712 20.4438C12.2757 20.5699 12.536 20.7835 12.7191 21.0576C12.9023 21.3317 13 21.6539 13 21.9836C13 22.4256 12.8244 22.8495 12.5119 23.1621C12.1993 23.4746 11.7754 23.6502 11.3334 23.6502Z" fill="#75020E"/>
<path d="M29.9 27.1502C29.7318 27.1509 29.5652 27.1173 29.4104 27.0514C29.2556 26.9855 29.116 26.8886 29 26.7668C28.8703 26.6342 28.7728 26.4735 28.715 26.2973C28.6572 26.121 28.6407 25.9338 28.6666 25.7502C28.7148 25.3855 28.737 25.0179 28.7333 24.6502V17.9835C28.7333 13.3335 26.65 11.2502 22 11.2502H11.3283C10.945 11.2502 10.5783 11.2668 10.2283 11.3002C10.0448 11.3221 9.85869 11.3037 9.68306 11.2461C9.50742 11.1885 9.34652 11.0932 9.21164 10.9668C9.07878 10.8381 8.97563 10.6819 8.90941 10.5092C8.8432 10.3365 8.81552 10.1514 8.82831 9.96683C9.13331 6.36683 10.9833 2.0835 17.995 2.0835H28.6616C34.695 2.0835 37.895 5.2835 37.895 11.3168V17.9835C37.895 25.0002 33.6116 26.8335 30.0116 27.1502H29.9ZM11.5333 8.75016H21.9833C28.0166 8.75016 31.2166 11.9502 31.2166 17.9835V24.4335C34.05 23.7335 35.3833 21.6502 35.3833 17.9835V11.3168C35.3833 6.66683 33.3 4.5835 28.65 4.5835H17.9833C14.3166 4.5835 12.25 5.91683 11.5333 8.75016Z" fill="#75020E"/>
</svg>
