<svg width="511" height="124" viewBox="0 0 511 124" fill="none" xmlns="http://www.w3.org/2000/svg">
<g style="mix-blend-mode:difference" opacity="0.2">
<path d="M203.053 68.5455L196.37 60.917L202.968 53.3996L209.651 61.0281L203.053 68.5455ZM195.626 0H182.931L116.746 75.4375L123.417 83.0522L189.382 7.89253L222.834 46.0073L216.248 53.5108L202.834 38.226L183.04 60.8058L203.102 83.6636L216.346 68.6428L221.224 74.2009C206.647 90.7826 192.077 107.374 177.516 123.974H190.931C205.46 107.411 219.992 90.8521 234.529 74.2981L222.932 61.1393L236.103 46.1324L195.626 0Z" fill="#1E1A1B"/>
<path d="M299.704 0H286.326L234.41 59.1662L241.093 66.7808L299.704 0Z" fill="#1E1A1B"/>
<path d="M274.788 0H261.605L262.41 0.917089L255.812 8.43444L249.129 0.819822L249.836 0H236.458L235.836 0.70866L255.91 23.5664L275.691 1.02825L274.788 0Z" fill="#1E1A1B"/>
<path d="M96.9544 97.9903L74.1367 123.974H87.5517L103.637 105.605L96.9544 98.0042V97.9903ZM169.785 60.7231L130.211 105.813L110.138 82.9417L103.54 90.459L132.955 123.974H146.151L136.894 113.428L169.883 75.9107L183.298 91.1955L154.407 123.974H167.822L196.591 91.1816C187.648 80.9917 178.704 70.8343 169.761 60.7092" fill="#1E1A1B"/>
<path d="M106.504 108.049L99.9062 115.553L106.602 123.181L113.187 115.664L106.504 108.049Z" fill="#1E1A1B"/>
<path d="M222.02 0H208.824L242.715 38.6011L249.301 31.0977L222.02 0Z" fill="#1E1A1B"/>
<path d="M64.9276 0H51.5127C51.3419 0.194534 51.159 0.389068 50.9883 0.597498L57.7323 8.19822L64.9276 0ZM145.234 0H129.722L137.454 8.82351L145.234 0ZM168.345 0H154.991L89.5502 74.5066L96.2333 82.1212L168.308 0" fill="#1E1A1B"/>
<path d="M84.5874 53.8304L71.1724 38.5455L104.161 1.02825L117.576 16.3131L84.6484 53.8998L84.5874 53.8304ZM116.515 0H91.6851L64.5137 30.9587L44.4401 8.08706L37.9156 15.6044L77.9897 61.3338L71.392 68.8512L57.977 53.5664L51.4159 61.1393L76.3555 89.5274L58.2819 110.12L13.2808 58.8466L37.9156 30.7503L31.2447 23.1357L0 58.7354L57.3185 123.974H59.5014L89.6241 89.6246L78.0872 76.4241L130.869 16.2714L116.515 0Z" fill="#1E1A1B"/>
<path d="M40.8204 33.1963L34.2227 40.7136L40.9057 48.3283L47.5035 40.8248L40.8204 33.1963Z" fill="#1E1A1B"/>
<path d="M431.086 0H417.707L366.035 58.8744L372.73 66.5029L431.086 0Z" fill="#1E1A1B"/>
<path d="M268.557 113.105L259.033 123.971H278.094L268.557 113.105ZM254.996 67.6116L205.531 123.971H218.946L255.13 82.7435L288.521 120.886L285.789 123.999H299.204L301.838 120.997L254.996 67.6116Z" fill="#1E1A1B"/>
<path d="M380.315 0H354.449L327.814 30.3612L314.399 15.0764L327.704 0H314.289L301.118 15.0069C303.362 17.5498 327.838 45.4932 327.948 45.4932L367.473 0.416859L380.888 15.7017L347.961 53.219L341.278 45.6183L334.692 53.1356L352.912 73.9091L309.009 123.932H322.424L366.327 73.9091L354.766 60.7502L394.352 15.6461L380.315 0Z" fill="#1E1A1B"/>
<path d="M321.496 83.287L314.813 75.6585L321.41 68.0856L328.093 75.7141L321.496 83.2315V83.287ZM321.313 52.9536L301.52 75.5474L321.593 98.419L341.374 75.867L321.313 53.0092" fill="#1E1A1B"/>
<path d="M268.164 52.5796L261.578 60.0969L308.396 113.455L314.994 105.938L268.164 52.5796Z" fill="#1E1A1B"/>
<path d="M294.555 22.5237L287.957 30.0271L294.652 37.6557L301.238 30.1383L294.555 22.5237Z" fill="#1E1A1B"/>
<path d="M406.672 0H393.488L400.732 8.2538L407.33 0.73645L406.672 0Z" fill="#1E1A1B"/>
<path d="M281.359 37.5449L274.773 45.0623L281.457 52.6908L288.054 45.1734L281.359 37.5449Z" fill="#1E1A1B"/>
<path d="M479.393 22.6636L459.551 45.2017L466.246 52.8025C470.636 47.7816 475.031 42.7747 479.429 37.7817L486.112 45.3963L472.929 60.4449L479.612 68.0873L499.405 45.5352L479.393 22.6636Z" fill="#1E1A1B"/>
<path d="M504.282 51.062L440.293 123.971H453.671L510.965 58.6766L504.282 51.062Z" fill="#1E1A1B"/>
<path d="M406.902 120.47L403.78 123.972H409.877L406.804 120.47H406.902ZM412.902 37.2233L366.84 89.8587C369.072 92.4015 393.56 120.345 393.597 120.345L433.171 75.2547L446.586 90.5396L417.195 123.972H430.61L459.879 90.6229C450.935 80.4331 441.992 70.2756 433.049 60.1506L393.499 105.199L380.084 89.9143L419.67 44.8102L412.987 37.1816" fill="#1E1A1B"/>
<path d="M465.965 7.41919L459.367 14.9365L466.05 22.5512L472.648 15.0338L465.965 7.41919Z" fill="#1E1A1B"/>
<path d="M360.242 97.3662L353.656 104.884L360.352 112.512L366.937 104.995L360.242 97.3662Z" fill="#1E1A1B"/>
<path d="M426.195 22.2332L419.598 29.7505L466.416 83.1084L473.014 75.5911L426.195 22.2332Z" fill="#1E1A1B"/>
<path d="M459.083 0H445.704L432.777 14.729L439.473 22.3436L459.083 0Z" fill="#1E1A1B"/>
<path d="M347.059 112.398L340.461 119.915L344.034 123.973H350.278L353.754 120.026L347.059 112.398Z" fill="#1E1A1B"/>
</g>
</svg>
