<?xml version="1.0" encoding="UTF-8"?>
<svg xmlns="http://www.w3.org/2000/svg" xmlns:xlink="http://www.w3.org/1999/xlink" width="139" height="39" viewBox="0 0 139 39">
  <defs>
    <clipPath id="clip-path">
      <rect id="Rectangle_11" data-name="Rectangle 11" width="139" height="39" transform="translate(328 329)" fill="#fff" stroke="#707070" stroke-width="1"></rect>
    </clipPath>
  </defs>
  <g id="Mask_Group_1" data-name="Mask Group 1" transform="translate(-328 -329)" clip-path="url(#clip-path)">
    <g id="National-Library-Archives_Logo_1-2" transform="translate(296.74 247.74)">
      <path id="Path_1" data-name="Path 1" d="M168.04,97.7a3.145,3.145,0,0,0-2.41-.96,1.508,1.508,0,0,0-1.2.77,8.046,8.046,0,0,0-1.06,2.95,1.943,1.943,0,0,0,.31,1.51,1.818,1.818,0,0,0,1.32.58,3.694,3.694,0,0,0,2.88-1.12,5.231,5.231,0,0,1-2.18,2.96,4.226,4.226,0,0,1-3.88-.48l-.06-.04-.31.46.9.56c.35.22.68.43,1.06.66a2.584,2.584,0,0,0,1.35.39,2.527,2.527,0,0,0,1.65-.61,6.852,6.852,0,0,0,2.2-4.08,4.008,4.008,0,0,0-.57-3.54Zm-.38,2.94a3.875,3.875,0,0,1-1.83.52c-1.01,0-1.59-.49-1.59-1.35a4.791,4.791,0,0,1,.67-1.87.612.612,0,0,1,.55-.33.66.66,0,0,1,.27.06c.87.42,2.17,1.55,2.23,2.37a.612.612,0,0,1-.3.59Z" fill="#1f140f"></path>
      <path id="Path_2" data-name="Path 2" d="M33.24,84.55l4.17,6.39h1.51V82.26H37.41v6.09l-4.09-6.09H31.74v8.68h1.5Z" fill="#1f140f"></path>
      <path id="Path_3" data-name="Path 3" d="M43.07,90.86a1.87,1.87,0,0,0,.79-.53.918.918,0,0,0,.61.54,2.9,2.9,0,0,0,1.22.06V89.8a.7.7,0,0,1-.44-.06.446.446,0,0,1-.13-.36V86.65a2.081,2.081,0,0,0-.63-1.63,2.6,2.6,0,0,0-1.81-.56,2.82,2.82,0,0,0-1.69.51,2.5,2.5,0,0,0-.96,1.37l1.37.31a1.12,1.12,0,0,1,1.22-.93,1.184,1.184,0,0,1,.82.25.951.951,0,0,1,.27.73v.11l-1.75.36a3.263,3.263,0,0,0-1.61.72,1.666,1.666,0,0,0-.52,1.28,1.741,1.741,0,0,0,.6,1.35,2.268,2.268,0,0,0,1.54.53,2.9,2.9,0,0,0,1.09-.19Zm-1.8-1.75a.712.712,0,0,1,.24-.56,1.983,1.983,0,0,1,.83-.34l1.37-.29v.77a1.039,1.039,0,0,1-.44.86,1.745,1.745,0,0,1-1.09.33,1,1,0,0,1-.67-.21.726.726,0,0,1-.25-.57Z" fill="#1f140f"></path>
      <path id="Path_4" data-name="Path 4" d="M46.81,89.34a1.663,1.663,0,0,0,.43,1.28,2.109,2.109,0,0,0,1.43.39,4.609,4.609,0,0,0,.52-.02q.27-.03.48-.06V89.71a2.481,2.481,0,0,1-.33.03h-.27a1.1,1.1,0,0,1-.68-.15.621.621,0,0,1-.17-.48V85.82h1.36V84.59H48.22V82.25H46.79v2.34h-.87v1.23h.87v3.52Z" fill="#1f140f"></path>
      <rect id="Rectangle_1" data-name="Rectangle 1" width="1.45" height="6.35" transform="translate(50.61 84.59)" fill="#1f140f"></rect>
      <rect id="Rectangle_2" data-name="Rectangle 2" width="1.5" height="1.49" transform="translate(50.58 82.26)" fill="#1f140f"></rect>
      <path id="Path_5" data-name="Path 5" d="M53.84,90.11a2.879,2.879,0,0,0,1,.72,3.25,3.25,0,0,0,2.5,0,2.969,2.969,0,0,0,1.61-1.75,4.129,4.129,0,0,0,0-2.6,2.969,2.969,0,0,0-1.61-1.75,3.068,3.068,0,0,0-1.25-.25,3.035,3.035,0,0,0-1.25.25,2.974,2.974,0,0,0-1,.72,2.8,2.8,0,0,0-.6,1.03,4.129,4.129,0,0,0,0,2.6A3.006,3.006,0,0,0,53.84,90.11Zm1.08-3.86a1.5,1.5,0,0,1,2.34,0,2.9,2.9,0,0,1,0,3.04,1.5,1.5,0,0,1-2.34,0,2.9,2.9,0,0,1,0-3.04Z" fill="#1f140f"></path>
      <path id="Path_6" data-name="Path 6" d="M61.58,87.22a1.365,1.365,0,0,1,.38-1,1.26,1.26,0,0,1,.94-.39,1.009,1.009,0,0,1,.83.35,1.547,1.547,0,0,1,.28,1v3.76h1.45V86.75a2.357,2.357,0,0,0-.57-1.66,1.984,1.984,0,0,0-1.55-.62,2.223,2.223,0,0,0-.97.21,2.441,2.441,0,0,0-.78.59v-.68H60.14v6.35h1.45V87.21Z" fill="#1f140f"></path>
      <path id="Path_7" data-name="Path 7" d="M68.56,87.18a3.263,3.263,0,0,0-1.61.72,1.666,1.666,0,0,0-.52,1.28,1.718,1.718,0,0,0,.61,1.35,2.268,2.268,0,0,0,1.54.53,2.9,2.9,0,0,0,1.09-.19,1.87,1.87,0,0,0,.79-.53.918.918,0,0,0,.61.54,2.971,2.971,0,0,0,1.2.06V89.82a.633.633,0,0,1-.42-.06.446.446,0,0,1-.13-.36V86.67a2.081,2.081,0,0,0-.63-1.63,2.65,2.65,0,0,0-1.81-.56,2.82,2.82,0,0,0-1.69.51,2.5,2.5,0,0,0-.96,1.37l1.37.31a1.12,1.12,0,0,1,1.22-.93,1.167,1.167,0,0,1,.82.25.951.951,0,0,1,.27.73v.11l-1.75.36Zm1.75,1.52a1.039,1.039,0,0,1-.44.86,1.745,1.745,0,0,1-1.09.33,1,1,0,0,1-.67-.21.726.726,0,0,1-.25-.57.7.7,0,0,1,.24-.56,1.983,1.983,0,0,1,.83-.34l1.37-.29v.77Z" fill="#1f140f"></path>
      <rect id="Rectangle_3" data-name="Rectangle 3" width="1.45" height="8.69" transform="translate(73.27 82.25)" fill="#1f140f"></rect>
      <path id="Path_8" data-name="Path 8" d="M31.74,94.95v8.69h5.59V102.3H33.28V94.95Z" fill="#1f140f"></path>
      <rect id="Rectangle_4" data-name="Rectangle 4" width="1.5" height="1.49" transform="translate(38.34 94.96)" fill="#1f140f"></rect>
      <rect id="Rectangle_5" data-name="Rectangle 5" width="1.45" height="6.35" transform="translate(38.37 97.29)" fill="#1f140f"></rect>
      <path id="Path_9" data-name="Path 9" d="M40.84,94.95v8.69h1.45v-.67a2.08,2.08,0,0,0,.79.59,2.5,2.5,0,0,0,1.03.21,2.72,2.72,0,0,0,1.18-.26,2.46,2.46,0,0,0,.91-.76,3.223,3.223,0,0,0,.52-1.03,4.43,4.43,0,0,0,0-2.5,3.122,3.122,0,0,0-.52-1.03,2.559,2.559,0,0,0-.91-.76,2.721,2.721,0,0,0-1.18-.26,2.463,2.463,0,0,0-1.03.21,2.189,2.189,0,0,0-.79.59V94.96H40.84Zm1.84,3.99a1.449,1.449,0,0,1,1.14-.5,1.424,1.424,0,0,1,1.19.54,2.8,2.8,0,0,1,0,2.98,1.41,1.41,0,0,1-1.19.54,1.449,1.449,0,0,1-1.14-.5,1.966,1.966,0,0,1-.44-1.34v-.38a2.007,2.007,0,0,1,.43-1.35Z" fill="#1f140f"></path>
      <path id="Path_10" data-name="Path 10" d="M50.94,98.72h.27a1.134,1.134,0,0,1,.25.03V97.3a1.125,1.125,0,0,1-.2-.02h-.19a2.063,2.063,0,0,0-1.06.27,1.656,1.656,0,0,0-.68.71v-.94H47.88v6.35h1.45v-3.34a1.583,1.583,0,0,1,.45-1.17,1.616,1.616,0,0,1,1.17-.44Z" fill="#1f140f"></path>
      <path id="Path_11" data-name="Path 11" d="M54.26,99.91a3.263,3.263,0,0,0-1.61.72,1.666,1.666,0,0,0-.52,1.28,1.741,1.741,0,0,0,.6,1.35,2.268,2.268,0,0,0,1.54.53,2.9,2.9,0,0,0,1.09-.19,1.87,1.87,0,0,0,.79-.53.918.918,0,0,0,.61.54,2.837,2.837,0,0,0,1.21.06v-1.12a.621.621,0,0,1-.42-.06.446.446,0,0,1-.13-.36V99.4a2.081,2.081,0,0,0-.63-1.63,2.6,2.6,0,0,0-1.81-.56,2.82,2.82,0,0,0-1.69.51,2.5,2.5,0,0,0-.96,1.37l1.37.31a1.12,1.12,0,0,1,1.22-.93,1.167,1.167,0,0,1,.82.25.951.951,0,0,1,.27.73v.11l-1.75.36Zm1.75,1.52a1.027,1.027,0,0,1-.44.86,1.745,1.745,0,0,1-1.09.33,1,1,0,0,1-.67-.21.774.774,0,0,1-.01-1.13,1.983,1.983,0,0,1,.83-.34l1.37-.29v.77Z" fill="#1f140f"></path>
      <path id="Path_12" data-name="Path 12" d="M58.81,97.29v6.35h1.45V100.3a1.528,1.528,0,0,1,1.62-1.61h.27a1.134,1.134,0,0,1,.25.03V97.27a1.125,1.125,0,0,1-.2-.02,1.206,1.206,0,0,0-.19,0,2.063,2.063,0,0,0-1.06.27,1.656,1.656,0,0,0-.68.71v-.94H58.82Z" fill="#1f140f"></path>
      <path id="Path_13" data-name="Path 13" d="M67.68,97.29l-1.52,4.45L64.6,97.29H63.08l2.31,6.12-.24.59a1.118,1.118,0,0,1-.34.5,1.011,1.011,0,0,1-.58.14h-.21a1.909,1.909,0,0,1-.28-.03v1.22a2.628,2.628,0,0,0,.33.03h.27a2.365,2.365,0,0,0,1.38-.37,2.624,2.624,0,0,0,.86-1.26l2.61-6.94h-1.5Z" fill="#1f140f"></path>
      <path id="Path_14" data-name="Path 14" d="M43.86,107.66l-3.29,8.69h1.54l.74-1.98H46.6l.75,1.98h1.56l-3.29-8.69H43.87Zm-.51,5.35,1.35-3.63,1.38,3.63Z" fill="#1f140f"></path>
      <path id="Path_15" data-name="Path 15" d="M52.88,109.96a2.063,2.063,0,0,0-1.06.27,1.656,1.656,0,0,0-.68.71V110H49.69v6.35h1.45v-3.34a1.583,1.583,0,0,1,.45-1.17,1.616,1.616,0,0,1,1.17-.44h.27a1.134,1.134,0,0,1,.25.03v-1.45a1.125,1.125,0,0,1-.2-.02,1.206,1.206,0,0,0-.19,0Z" fill="#1f140f"></path>
      <path id="Path_16" data-name="Path 16" d="M57.64,114.94a1.358,1.358,0,0,1-.91.31,1.5,1.5,0,0,1-1.22-.55,2.284,2.284,0,0,1-.45-1.49,2.313,2.313,0,0,1,.45-1.5,1.5,1.5,0,0,1,1.22-.56,1.384,1.384,0,0,1,.91.32,1.681,1.681,0,0,1,.52.89l1.22-.67a2.537,2.537,0,0,0-.99-1.31,2.893,2.893,0,0,0-1.66-.48,3.115,3.115,0,0,0-1.26.25,2.891,2.891,0,0,0-1.01.71,3.266,3.266,0,0,0-.63,1.05,3.9,3.9,0,0,0-.22,1.3,3.659,3.659,0,0,0,.22,1.3,3.266,3.266,0,0,0,.63,1.05,2.891,2.891,0,0,0,1.01.71,3.115,3.115,0,0,0,1.26.25,2.905,2.905,0,0,0,1.69-.5,2.519,2.519,0,0,0,.99-1.34l-1.25-.63a1.673,1.673,0,0,1-.52.9Z" fill="#1f140f"></path>
      <path id="Path_17" data-name="Path 17" d="M63.41,109.88a2.223,2.223,0,0,0-.97.21,2.441,2.441,0,0,0-.78.59v-3.01H60.21v8.69h1.45v-3.73a1.365,1.365,0,0,1,.38-1,1.26,1.26,0,0,1,.94-.39,1.009,1.009,0,0,1,.83.35,1.547,1.547,0,0,1,.28,1v3.76h1.46v-4.19a2.362,2.362,0,0,0-.58-1.66,1.984,1.984,0,0,0-1.55-.62Z" fill="#1f140f"></path>
      <rect id="Rectangle_6" data-name="Rectangle 6" width="1.45" height="6.35" transform="translate(66.62 110)" fill="#1f140f"></rect>
      <rect id="Rectangle_7" data-name="Rectangle 7" width="1.5" height="1.49" transform="translate(66.59 107.66)" fill="#1f140f"></rect>
      <path id="Path_18" data-name="Path 18" d="M72,114.61,70.45,110H68.93l2.32,6.35h1.46L75.04,110h-1.5Z" fill="#1f140f"></path>
      <path id="Path_19" data-name="Path 19" d="M78.72,109.91a2.928,2.928,0,0,0-1.22.25,2.862,2.862,0,0,0-.99.74,3.2,3.2,0,0,0-.6,1.05,3.786,3.786,0,0,0-.21,1.26,3.9,3.9,0,0,0,.21,1.3,3.052,3.052,0,0,0,.61,1.05,2.946,2.946,0,0,0,1,.71,3.115,3.115,0,0,0,1.26.25,2.987,2.987,0,0,0,1.66-.47,2.757,2.757,0,0,0,1.06-1.31l-1.25-.47a1.4,1.4,0,0,1-.54.74,1.6,1.6,0,0,1-.94.27,1.568,1.568,0,0,1-1.16-.47,2.122,2.122,0,0,1-.54-1.28h4.45v-.48a3.3,3.3,0,0,0-.76-2.27,2.588,2.588,0,0,0-2.06-.86Zm-1.56,2.53a1.767,1.767,0,0,1,.56-.97,1.471,1.471,0,0,1,.99-.34,1.271,1.271,0,0,1,1.37,1.31H77.17Z" fill="#1f140f"></path>
      <path id="Path_20" data-name="Path 20" d="M86.67,113a2.916,2.916,0,0,0-.53-.22,9.877,9.877,0,0,0-1.09-.27l-.54-.12q-.135-.03-.24-.06a.976.976,0,0,1-.37-.22.423.423,0,0,1-.11-.31.573.573,0,0,1,.27-.5,1.267,1.267,0,0,1,.71-.19,1.964,1.964,0,0,1,1.67.9l.98-.88a2.418,2.418,0,0,0-1.05-.87,3.507,3.507,0,0,0-1.51-.33,2.747,2.747,0,0,0-1.78.56,1.79,1.79,0,0,0-.7,1.45,1.652,1.652,0,0,0,.17.77,1.5,1.5,0,0,0,.51.56,2.255,2.255,0,0,0,.54.25q.315.1.93.24c.26.06.47.1.62.13s.26.06.31.07a.933.933,0,0,1,.47.24.508.508,0,0,1,.13.37.662.662,0,0,1-.32.58,1.541,1.541,0,0,1-.86.21,2.12,2.12,0,0,1-1.05-.28,2.169,2.169,0,0,1-.79-.74l-1.09.87a2.752,2.752,0,0,0,1.2.98,4.077,4.077,0,0,0,1.72.36,2.944,2.944,0,0,0,1.87-.59,1.829,1.829,0,0,0,.74-1.51,1.671,1.671,0,0,0-.2-.83,1.556,1.556,0,0,0-.61-.58Z" fill="#1f140f"></path>
      <path id="Path_21" data-name="Path 21" d="M37.69,112.88s.09,0,.1.22a.44.44,0,0,0,.49.48.522.522,0,0,0,.58-.58.607.607,0,0,0-.23-.49.884.884,0,0,0-.57-.18,1.453,1.453,0,0,0-1.01.43,6.394,6.394,0,0,0-.98,1.3c-.15-.44-.27-.79-.35-.99a13.051,13.051,0,0,1-.42-1.27.89.89,0,0,0,.1-.05c.86-.41,1.39-.67,1.62-.82a1.479,1.479,0,0,0,.74-1.26,1.288,1.288,0,0,0-.5-1.03,1.932,1.932,0,0,0-1.23-.4,2.227,2.227,0,0,0-1.61.61,2.044,2.044,0,0,0-.64,1.53,6.643,6.643,0,0,0,.25,1.42c-.66.29-1.11.5-1.39.66a2.384,2.384,0,0,0-1.38,2.11,1.843,1.843,0,0,0,.6,1.46,2.4,2.4,0,0,0,1.63.53,2.541,2.541,0,0,0,1.99-.92,2.154,2.154,0,0,0,.63.69,1.818,1.818,0,0,0,.96.23,1.838,1.838,0,0,0,1.31-.54c.36-.34.41-.48.41-.57a.163.163,0,0,0-.17-.17c-.12,0-.2.11-.26.21a.914.914,0,0,1-.8.47.881.881,0,0,1-.67-.31,3.626,3.626,0,0,1-.61-1.08,7.25,7.25,0,0,1,.69-1.05c.45-.58.65-.64.72-.64Zm-3.91,3.13a1.166,1.166,0,0,1-.95-.44,1.769,1.769,0,0,1-.38-1.17,2.086,2.086,0,0,1,.54-1.45,4.455,4.455,0,0,1,1.06-.72l.07-.04a21.459,21.459,0,0,0,1.1,3,1.575,1.575,0,0,1-1.45.81Zm1.37-4.67a4.813,4.813,0,0,1-.25-1.37,1.505,1.505,0,0,1,.28-.98.878.878,0,0,1,.73-.35c.53,0,.78.3.78.96a1.406,1.406,0,0,1-.35.96,3.605,3.605,0,0,1-1.11.74.793.793,0,0,0-.09.04Z" fill="#1f140f"></path>
      <path id="Path_22" data-name="Path 22" d="M129.13,83.45l-.81-.8-.8.8.8.81Z" fill="#1f140f"></path>
      <path id="Path_23" data-name="Path 23" d="M123.17,90.95h1.98a10.4,10.4,0,0,0,3.11-.49,10.276,10.276,0,0,0,3.36.49h4.08a2.555,2.555,0,0,0,2-.81,1.99,1.99,0,0,0,1.83.81h3.89a2.783,2.783,0,0,0,1.95-.62,2.255,2.255,0,0,0,1.64.62,2.783,2.783,0,0,0,1.95-.62,2.255,2.255,0,0,0,1.64.62c1.59,0,2.49-1.01,2.49-2.89a12.313,12.313,0,0,0-.49-3.4l-1.47.44a10.9,10.9,0,0,1,.41,2.96c0,.99-.28,1.47-.94,1.47a.874.874,0,0,1-.99-.96V85.58h-1.55v2.99c0,.76-.22.96-1.05.96a.874.874,0,0,1-.99-.96V85.58h-1.55v2.99c0,.76-.22.96-1.05.96h-3.89c-.79,0-1.28-.36-1.28-1.08V84.6H136.7v3.85c0,.77-.3,1.08-1.01,1.08h-4.08a15,15,0,0,1-1.58-.08,2.6,2.6,0,1,0-4.31-1.94,2.675,2.675,0,0,0,.81,1.94c-.5.05-1.06.08-1.65.08h-1.72c-2.26,0-3.01-.45-3.01-1.56a5.981,5.981,0,0,1,.18-1.24l-1.46-.36a5.415,5.415,0,0,0-.27,1.6c0,2.03,1.52,2.98,4.56,2.98Zm5.16-4.65a1.106,1.106,0,0,1,1.03,1.2,1.612,1.612,0,0,1-1.09,1.52,1.59,1.59,0,0,1-.99-1.52A1.109,1.109,0,0,1,128.33,86.3Z" fill="#1f140f"></path>
      <path id="Path_24" data-name="Path 24" d="M137.03,91.42l-.75.75.74.76.6-.6.58.6.75-.76-.74-.75-.59.59Z" fill="#1f140f"></path>
      <path id="Path_25" data-name="Path 25" d="M148.86,83.9l.58.6.75-.76-.75-.75-.58.59-.59-.59-.75.75.75.76Z" fill="#1f140f"></path>
      <path id="Path_26" data-name="Path 26" d="M149.6,82.5l-.75-.77-.75.77.76.74Z" fill="#1f140f"></path>
      <path id="Path_27" data-name="Path 27" d="M153.06,93.52c2.3,0,3.37-1.23,3.37-3.56V84.6h-1.55v5.36c0,1.58-.44,2.14-1.82,2.14v1.42Z" fill="#1f140f"></path>
      <path id="Path_28" data-name="Path 28" d="M164.87,82.75h-1.55v6.77h-1.43l-.83-5.16-1.52.2.78,4.96h-2.88v1.42h7.43Z" fill="#1f140f"></path>
      <path id="Path_29" data-name="Path 29" d="M159.11,83.81l2.17-.41v-.76l-.54.1c-.58.12-.97-.04-.97-.36a.374.374,0,0,1,.37-.39.706.706,0,0,1,.57.31l.5-.41a1.239,1.239,0,0,0-1.1-.63,1.056,1.056,0,0,0-1.1,1.08,1,1,0,0,0,.27.67l-.37.06.19.74Z" fill="#1f140f"></path>
      <rect id="Rectangle_8" data-name="Rectangle 8" width="1.55" height="8.18" transform="translate(166.92 82.75)" fill="#1f140f"></rect>
      <path id="Path_30" data-name="Path 30" d="M115.62,95l.58.59.75-.75-.75-.74-.58.58-.59-.58-.75.74.75.75Z" fill="#1f140f"></path>
      <path id="Path_31" data-name="Path 31" d="M124.55,104.93l-.81-.82-.8.82.8.79Z" fill="#1f140f"></path>
      <path id="Path_32" data-name="Path 32" d="M129.38,94.64l-.75.75.75.75.6-.6.58.6.75-.75-.75-.75-.58.58Z" fill="#1f140f"></path>
      <path id="Path_33" data-name="Path 33" d="M123.8,102.82a1.961,1.961,0,0,0,1.82.81h2.55a2.277,2.277,0,0,0,1.87-.81,2.582,2.582,0,0,0,2.13.81h4.4a2.532,2.532,0,0,0,2.05-.83,2.509,2.509,0,0,0,1.87.83h2.16a2.01,2.01,0,0,0,1.85-1.05,3.514,3.514,0,0,0,2.61,1.14,2.689,2.689,0,0,0,2-.87,2.183,2.183,0,0,0,1.87.77h4.53V95.44h-1.55v6.76h-2.98c-.36,0-.65-.05-.98-.89l-.49-1.24c-.57-1.43-1.38-2.2-2.6-2.2-1.12,0-1.99.78-2.8,2.31l-.32.61c-.71,1.33-.9,1.42-1.2,1.42h-2.1c-.37,0-.54-.12-1.54-1.19l-2.75-2.95,3.1-1.99-.98-1.11-3.41,2.75v1.17l2.78,2.95a1.5,1.5,0,0,1-1.12.36h-4.4c-.79,0-1.44-.36-1.44-1.09V97.78h-1.55v3.33c0,.77-.3,1.09-1.01,1.09h-2.55c-.79,0-1.27-.36-1.27-1.09V97.78H122.8v3.33c0,.77-.3,1.09-1.01,1.09h-2.43c-.84,0-1.19-.43-1.19-.99V96.62h-1.55v.87c-2.44.61-4.02,1.5-4.02,3.13,0,1.41,1.14,2.11,2.7,2.11a5.138,5.138,0,0,0,1.49-.23c.32.79,1.16,1.14,2.57,1.14h2.43a2.555,2.555,0,0,0,2-.81Zm21.68-1.96c.61-1.15.93-1.34,1.38-1.34s.83.12,1.2,1.08l.35.88a1.406,1.406,0,0,1-1.3.83,2.175,2.175,0,0,1-1.87-.99l.25-.45Zm-28.86.16a2.9,2.9,0,0,1-1.32.3c-.74,0-1.15-.31-1.15-.76,0-.75.94-1.42,2.47-1.85Z" fill="#1f140f"></path>
      <rect id="Rectangle_9" data-name="Rectangle 9" width="1.55" height="8.21" transform="translate(157.52 95.46)" fill="#1f140f"></rect>
      <path id="Path_34" data-name="Path 34" d="M123.15,108.32l.6-.59.58.59.75-.75-.75-.74-.58.58-.6-.58-.74.74Z" fill="#1f140f"></path>
      <path id="Path_35" data-name="Path 35" d="M133.04,117.7l-.59-.59-.75.76.74.75.6-.59.58.59.75-.75-.74-.76Z" fill="#1f140f"></path>
      <path id="Path_36" data-name="Path 36" d="M139.65,109l.8-.81-.8-.79-.81.79Z" fill="#1f140f"></path>
      <path id="Path_37" data-name="Path 37" d="M150.25,110.65a4.176,4.176,0,0,0-2.88,1.07v-3.56h-1.55v5.44a11.882,11.882,0,0,0-.75,1.33h-3.38c-.79,0-1.27-.36-1.27-1.09V110.5h-1.55v3.34c0,.78-.3,1.09-1.01,1.09h-2.78c-.79,0-1.27-.36-1.27-1.09V110.5h-1.55v3.34c0,.78-.3,1.09-1.01,1.09h-2.99c-.84,0-1.19-.43-1.19-.99v-4.77h-1.55v.76c-2.44.61-4.02,1.78-4.02,3.41,0,1.41,1.14,2.11,2.7,2.11a5.138,5.138,0,0,0,1.49-.23c.32.79,1.16,1.14,2.57,1.14h2.99a2.555,2.555,0,0,0,2-.81,1.961,1.961,0,0,0,1.82.81h2.78a2.555,2.555,0,0,0,2-.81,1.961,1.961,0,0,0,1.82.81h7.76c2.49,0,3.81-.92,3.81-2.69a2.839,2.839,0,0,0-3.01-3.01Zm-24.72,3.08a2.9,2.9,0,0,1-1.32.3c-.74,0-1.15-.31-1.15-.76,0-.75.94-1.42,2.47-1.85Zm23.92,1.2h-2.66c1.11-1.99,2.3-2.97,3.46-2.97.89,0,1.46.66,1.46,1.71,0,.89-.57,1.27-2.26,1.27Z" fill="#1f140f"></path>
      <path id="Path_38" data-name="Path 38" d="M163.35,114.93h-2.62v-.08c0-2.73-.99-4.43-2.88-4.43a3.036,3.036,0,0,0-2.8,3.09c0,1.83,1.48,2.84,3.7,2.84h.14a2.051,2.051,0,0,1-1.98,1.2,3.836,3.836,0,0,1-1.46-.31l-.54,1.3a5.183,5.183,0,0,0,2,.43,3.523,3.523,0,0,0,3.6-2.62h4.38v-8.2h-1.55v6.78Zm-4.17,0h-.43c-1.39,0-2.15-.39-2.15-1.41,0-.79.58-1.86,1.25-1.86.85,0,1.33,1.3,1.33,3.2v.08Z" fill="#1f140f"></path>
      <rect id="Rectangle_10" data-name="Rectangle 10" width="1.55" height="8.2" transform="translate(166.92 108.15)" fill="#1f140f"></rect>
      <path id="Path_39" data-name="Path 39" d="M84.56,90.44h24.41a3.84,3.84,0,0,0,0-7.68H84.56a3.84,3.84,0,0,0,0,7.68Z" fill="#1f140f"></path>
      <path id="Path_40" data-name="Path 40" d="M77.54,103.15h25.74a3.84,3.84,0,0,0,0-7.68H77.54a3.84,3.84,0,0,0,0,7.68Z" fill="#1f140f"></path>
      <path id="Path_41" data-name="Path 41" d="M112.14,108.16H96.76a3.84,3.84,0,0,0,0,7.68h15.38a3.84,3.84,0,1,0,0-7.68Z" fill="#1f140f"></path>
    </g>
  </g>
</svg>
