<svg width="625" height="625" viewBox="0 0 625 625" fill="none" xmlns="http://www.w3.org/2000/svg">
<path d="M326.974 58.053L351.628 33.3986L376.388 58.1582L351.733 82.8126L343.48 74.5593L359.933 58.1059L351.68 49.8526L335.227 66.306L326.974 58.053Z" fill="#D1D3D4"/>
<path d="M382.431 64.1001L292.013 154.518L300.266 162.771L390.684 72.3535L382.431 64.1001Z" fill="#D1D3D4"/>
<path d="M162.649 238.893L170.903 230.639L179.156 238.892L170.902 247.146L162.649 238.893ZM195.609 238.946L212.011 222.544L154.185 164.718L63.7675 255.136L71.9682 263.337L154.29 181.015L195.557 222.281L187.356 230.482L170.849 213.976L146.195 238.63L170.955 263.39L187.408 246.937L193.401 252.929L111.184 335.146L119.437 343.4L209.855 252.982L195.609 238.946Z" fill="#D1D3D4"/>
<path d="M269.517 148.522L310.626 107.413L294.119 90.9066L244.809 140.217C244.809 140.217 214.582 109.99 211.849 107.256L269.674 49.4305L277.875 57.6312L228.514 106.993L245.02 123.499L294.329 74.1905C305.368 85.2299 316.355 96.2169 327.342 107.204L277.981 156.565L292.227 170.811L218.157 244.881L209.904 236.628L275.667 170.864L253.168 148.365L261.369 140.164L269.517 148.522Z" fill="#D1D3D4"/>
<path d="M236.664 181.378L244.865 173.176L236.611 164.923L228.41 173.124L236.664 181.378ZM211.903 173.125L236.61 148.417L261.37 173.177L236.663 197.884L211.903 173.125Z" fill="#D1D3D4"/>
<path d="M88.6258 296.401L129.735 255.292L146.241 271.799L105.132 312.908L88.6258 296.401ZM16.554 318.953L47.2545 288.253L39.0538 280.052L0.0996094 319.006L72.0662 390.973L111.02 352.018L96.8268 337.825L162.642 272.01C151.655 261.023 140.668 250.036 129.629 238.997L80.3198 288.306L55.6125 263.598L47.4114 271.8L96.8788 321.267L88.6251 329.52L72.1185 313.014L63.9187 321.214L94.6713 351.966L72.1717 374.466L16.554 318.953Z" fill="#D1D3D4"/>
<path d="M50.9471 290.77L42.7461 298.971L50.9994 307.224L59.2004 299.023L50.9471 290.77Z" fill="#D1D3D4"/>
<path d="M335.176 16.9477L326.975 25.1487L335.228 33.402L343.429 25.201L335.176 16.9477Z" fill="#D1D3D4"/>
<path d="M170.745 148.359L162.545 156.559L220.265 214.279L228.465 206.08L170.745 148.359Z" fill="#D1D3D4"/>
<path d="M203.594 115.511L195.395 123.71L203.648 131.964L211.848 123.764L203.594 115.511Z" fill="#D1D3D4"/>
<path d="M285.762 33.3424L277.561 41.5435L335.281 99.2638L343.482 91.0628L285.762 33.3424Z" fill="#D1D3D4"/>
<path d="M318.721 0.382562L294.014 25.0896L302.267 33.3429L326.974 8.63589L318.721 0.382562Z" fill="#D1D3D4"/>
<path d="M187.143 131.959L178.942 140.16L187.196 148.413L195.397 140.212L187.143 131.959Z" fill="#D1D3D4"/>
<path d="M404.756 135.835L429.41 111.18L454.17 135.94L429.516 160.594L421.262 152.341L437.716 135.888L429.462 127.634L413.009 144.088L404.756 135.835Z" fill="#D1D3D4"/>
<path d="M460.213 141.882L369.795 232.3L378.048 240.553L468.466 150.135L460.213 141.882Z" fill="#D1D3D4"/>
<path d="M240.431 316.674L248.685 308.421L256.938 316.674L248.684 324.928L240.431 316.674ZM273.391 316.728L289.793 300.326L231.968 242.5L141.55 332.918L149.75 341.119L232.073 258.797L273.339 300.063L265.138 308.264L248.631 291.757L223.977 316.412L248.737 341.172L265.19 324.718L271.183 330.711L188.966 412.928L197.219 421.181L287.637 330.763L273.391 316.728Z" fill="#D1D3D4"/>
<path d="M347.299 226.304L388.408 185.195L371.902 168.688L322.592 217.998C322.592 217.998 292.364 187.771 289.631 185.038L347.456 127.212L355.657 135.413L306.296 184.774L322.802 201.281L372.111 151.972C383.151 163.012 394.138 173.999 405.125 184.985L355.763 234.347L370.009 248.593L295.939 322.663L287.686 314.409L353.449 248.646L330.95 226.147L339.151 217.946L347.299 226.304Z" fill="#D1D3D4"/>
<path d="M314.446 259.159L322.647 250.958L314.394 242.705L306.193 250.906L314.446 259.159ZM289.686 250.906L314.393 226.199L339.153 250.959L314.446 275.666L289.686 250.906Z" fill="#D1D3D4"/>
<path d="M166.408 374.183L207.517 333.074L224.024 349.581L182.915 390.69L166.408 374.183ZM94.3362 396.735L125.037 366.034L116.836 357.834L77.8818 396.788L149.848 468.754L188.803 429.8L174.609 415.607L240.424 349.792C229.437 338.805 218.45 327.818 207.411 316.779L158.102 366.088L133.395 341.38L125.194 349.581L174.661 399.049L166.407 407.302L149.901 390.796L141.701 398.995L172.454 429.748L149.954 452.247L94.3362 396.735Z" fill="#D1D3D4"/>
<path d="M128.729 368.551L120.528 376.752L128.782 385.006L136.983 376.805L128.729 368.551Z" fill="#D1D3D4"/>
<path d="M412.958 94.7294L404.757 102.93L413.01 111.184L421.211 102.983L412.958 94.7294Z" fill="#D1D3D4"/>
<path d="M248.527 226.141L240.327 234.341L298.047 292.061L306.247 283.861L248.527 226.141Z" fill="#D1D3D4"/>
<path d="M281.377 193.292L273.177 201.492L281.43 209.746L289.63 201.546L281.377 193.292Z" fill="#D1D3D4"/>
<path d="M363.544 111.124L355.343 119.325L413.063 177.046L421.264 168.844L363.544 111.124Z" fill="#D1D3D4"/>
<path d="M396.503 78.1643L371.796 102.871L380.049 111.125L404.756 86.4176L396.503 78.1643Z" fill="#D1D3D4"/>
<path d="M264.926 209.741L256.725 217.942L264.978 226.195L273.179 217.994L264.926 209.741Z" fill="#D1D3D4"/>
<path d="M482.537 213.616L507.192 188.962L531.951 213.722L507.297 238.376L499.043 230.123L515.497 213.669L507.244 205.416L490.79 221.869L482.537 213.616Z" fill="#D1D3D4"/>
<path d="M537.994 219.664L447.576 310.082L455.829 318.335L546.247 227.917L537.994 219.664Z" fill="#D1D3D4"/>
<path d="M318.212 394.456L326.466 386.203L334.719 394.456L326.466 402.71L318.212 394.456ZM351.172 394.509L367.574 378.107L309.749 320.282L219.331 410.7L227.532 418.9L309.854 336.578L351.12 377.845L342.919 386.046L326.412 369.539L301.758 394.193L326.518 418.953L342.971 402.5L348.964 408.493L266.747 490.71L275.001 498.963L365.419 408.545L351.172 394.509Z" fill="#D1D3D4"/>
<path d="M425.081 304.086L466.19 262.977L449.683 246.47L400.373 295.78C400.373 295.78 370.146 265.553 367.412 262.82L425.238 204.994L433.438 213.195L384.077 262.556L400.584 279.063L449.892 229.754C460.932 240.793 471.919 251.78 482.906 262.767L433.544 312.129L447.79 326.375L373.72 400.444L365.467 392.191L431.231 326.428L408.731 303.928L416.932 295.727L425.081 304.086Z" fill="#D1D3D4"/>
<path d="M392.227 336.941L400.428 328.74L392.175 320.487L383.974 328.688L392.227 336.941ZM367.467 328.688L392.174 303.981L416.934 328.741L392.227 353.448L367.467 328.688Z" fill="#D1D3D4"/>
<path d="M244.189 451.965L285.298 410.856L301.805 427.362L260.696 468.472L244.189 451.965ZM172.117 474.517L202.818 443.816L194.617 435.615L155.663 474.57L227.63 546.536L266.584 507.582L252.39 493.388L318.205 427.574C307.218 416.587 296.232 405.6 285.192 394.561L235.883 443.869L211.176 419.162L202.975 427.363L252.442 476.83L244.189 485.084L227.682 468.577L219.482 476.777L250.235 507.53L227.735 530.029L172.117 474.517Z" fill="#D1D3D4"/>
<path d="M206.511 446.333L198.31 454.534L206.563 462.788L214.764 454.586L206.511 446.333Z" fill="#D1D3D4"/>
<path d="M490.739 172.511L482.538 180.712L490.791 188.965L498.992 180.764L490.739 172.511Z" fill="#D1D3D4"/>
<path d="M326.308 303.923L318.108 312.123L375.829 369.843L384.028 361.643L326.308 303.923Z" fill="#D1D3D4"/>
<path d="M359.158 271.074L350.958 279.274L359.211 287.527L367.411 279.328L359.158 271.074Z" fill="#D1D3D4"/>
<path d="M441.325 188.906L433.124 197.107L490.844 254.827L499.045 246.626L441.325 188.906Z" fill="#D1D3D4"/>
<path d="M474.284 155.946L449.577 180.653L457.83 188.906L482.538 164.199L474.284 155.946Z" fill="#D1D3D4"/>
<path d="M342.707 287.523L334.506 295.724L342.759 303.977L350.96 295.776L342.707 287.523Z" fill="#D1D3D4"/>
<path d="M560.602 291.115L585.256 266.461L610.016 291.22L585.361 315.875L577.108 307.621L593.561 291.168L585.308 282.915L568.855 299.368L560.602 291.115Z" fill="#D1D3D4"/>
<path d="M616.059 297.162L525.641 387.58L533.894 395.834L624.312 305.416L616.059 297.162Z" fill="#D1D3D4"/>
<path d="M396.277 471.955L404.53 463.701L412.784 471.955L404.53 480.208L396.277 471.955ZM429.237 472.008L445.639 455.606L387.813 397.781L297.395 488.198L305.596 496.399L387.918 414.077L429.185 455.343L420.984 463.544L404.477 447.038L379.822 471.692L404.582 496.452L421.036 479.999L427.029 485.992L344.812 568.208L353.065 576.462L443.483 486.044L429.237 472.008Z" fill="#D1D3D4"/>
<path d="M503.145 381.585L544.254 340.476L527.747 323.969L478.437 373.279C478.437 373.279 448.21 343.052 445.477 340.318L503.302 282.493L511.503 290.693L462.141 340.055L478.648 356.562L527.957 307.253C538.996 318.292 549.983 329.279 560.97 340.266L511.609 389.627L525.855 403.873L451.785 477.943L443.532 469.69L509.295 403.926L486.796 381.427L494.997 373.226L503.145 381.585Z" fill="#D1D3D4"/>
<path d="M470.292 414.44L478.493 406.239L470.239 397.985L462.038 406.186L470.292 414.44ZM445.531 406.187L470.238 381.48L494.998 406.24L470.291 430.947L445.531 406.187Z" fill="#D1D3D4"/>
<path d="M322.254 529.464L363.363 488.354L379.869 504.861L338.76 545.97L322.254 529.464ZM250.182 552.015L280.882 521.315L272.682 513.114L233.728 552.068L305.694 624.035L344.648 585.081L330.455 570.887L396.27 505.072C385.283 494.085 374.296 483.099 363.257 472.059L313.948 521.368L289.24 496.661L281.039 504.862L330.507 554.329L322.253 562.583L305.746 546.076L297.547 554.276L328.299 585.028L305.8 607.528L250.182 552.015Z" fill="#D1D3D4"/>
<path d="M284.575 523.832L276.374 532.033L284.627 540.286L292.828 532.085L284.575 523.832Z" fill="#D1D3D4"/>
<path d="M568.804 250.01L560.603 258.211L568.856 266.464L577.057 258.263L568.804 250.01Z" fill="#D1D3D4"/>
<path d="M404.373 381.421L396.173 389.621L453.893 447.341L462.093 439.142L404.373 381.421Z" fill="#D1D3D4"/>
<path d="M437.222 348.573L429.022 356.773L437.276 365.026L445.476 356.826L437.222 348.573Z" fill="#D1D3D4"/>
<path d="M519.39 266.405L511.188 274.606L568.909 332.326L577.11 324.125L519.39 266.405Z" fill="#D1D3D4"/>
<path d="M552.349 233.445L527.642 258.152L535.895 266.405L560.602 241.698L552.349 233.445Z" fill="#D1D3D4"/>
<path d="M420.771 365.021L412.57 373.222L420.824 381.476L429.025 373.275L420.771 365.021Z" fill="#D1D3D4"/>
</svg>
