<svg xmlns="http://www.w3.org/2000/svg" xmlns:xlink="http://www.w3.org/1999/xlink" width="38.752" height="38.752" viewBox="0 0 38.752 38.752">
  <defs>
    <clipPath id="clip-path">
      <path id="path255" d="M0-682.665H38.752v38.752H0Z" transform="translate(0 682.665)" fill="#8c8d8f"/>
    </clipPath>
  </defs>
  <g id="g249" transform="translate(0)">
    <g id="g251" transform="translate(0 0)">
      <g id="g253" clip-path="url(#clip-path)">
        <g id="g259" transform="translate(0 0)">
          <path id="path261" d="M-321.957-623.913a19.4,19.4,0,0,1-19.376-19.376,19.4,19.4,0,0,1,19.376-19.376,19.4,19.4,0,0,1,19.376,19.376A19.4,19.4,0,0,1-321.957-623.913Zm0-36.481a17.125,17.125,0,0,0-17.105,17.105,17.125,17.125,0,0,0,17.105,17.105,17.125,17.125,0,0,0,17.105-17.105A17.125,17.125,0,0,0-321.957-660.394Z" transform="translate(341.333 662.665)" fill="#8c8d8f"/>
        </g>
        <g id="g263" transform="translate(11.423 21.741)">
          <path id="path265" d="M-245.586-88.34a1.135,1.135,0,0,0-.976.554,6.843,6.843,0,0,1-5.852,3.325,6.846,6.846,0,0,1-5.843-3.311,1.135,1.135,0,0,0-1.557-.39,1.135,1.135,0,0,0-.39,1.557,9.127,9.127,0,0,0,7.791,4.415,9.124,9.124,0,0,0,7.8-4.434,1.135,1.135,0,0,0-.394-1.556A1.13,1.13,0,0,0-245.586-88.34Z" transform="translate(260.366 88.34)" fill="#8c8d8f"/>
        </g>
        <circle id="Ellipse_10" data-name="Ellipse 10" cx="1.609" cy="1.609" r="1.609" transform="translate(11.779 13.114)" fill="#8c8d8f"/>
        <circle id="Ellipse_11" data-name="Ellipse 11" cx="1.609" cy="1.609" r="1.609" transform="translate(23.044 13.114)" fill="#8c8d8f"/>
      </g>
    </g>
  </g>
</svg>
