<?xml version="1.0" encoding="UTF-8"?>
<!-- Generator: Adobe Illustrator 26.0.1, SVG Export Plug-In . SVG Version: 6.00 Build 0)  -->
<svg xmlns="http://www.w3.org/2000/svg" xmlns:xlink="http://www.w3.org/1999/xlink" version="1.1" id="Layer_1" x="0px" y="0px" viewBox="0 0 100 100" style="enable-background:new 0 0 100 100;" xml:space="preserve">
<style type="text/css">
	.st0{opacity:0.5;fill:#FFFFFF;}
	.st1{fill:#9A0212;}
</style>
<rect class="st0" width="100" height="100"></rect>
<g>
	<path d="M59.2,39.65c0,0.01,0,0.01,0,0.02l-1.81,1.21c0.01-0.02,0.02-0.04,0.03-0.07c0.01-0.01,0.01-0.03,0.02-0.04   c0.03-0.13,0.05-0.32,0.06-0.52c0.01-0.13,0.01-0.26,0.01-0.38c0-0.19-0.01-0.33-0.01-0.37c0-0.1,0-0.19-0.01-0.27   c-0.01-0.01,0-0.02,0-0.02c-0.08-0.57-0.4-0.81-1.07-0.82c-0.75-0.02-1.5-0.01-2.25-0.01h-2.19c-0.32,0-0.56,0.05-0.73,0.13   c-0.01,0.01-0.01,0.01-0.01,0.01c-0.06,0.04-0.11,0.07-0.16,0.12c-0.04,0.04-0.08,0.09-0.11,0.15c-0.04,0.06-0.06,0.13-0.08,0.2   c-0.02,0.07-0.03,0.14-0.04,0.22c-0.01,0.08-0.02,0.17-0.02,0.27v0.16c-0.01,0.21-0.03,0.53-0.01,0.79c0,0.12,0.01,0.22,0.03,0.3   c0.01,0.04,0.02,0.08,0.04,0.1l-1.77-1.15c0-0.01,0-0.01,0-0.02c0.01-0.15,0.02-0.29,0.04-0.42c0.03-0.37,0.11-0.71,0.23-1.01   c0.36-0.9,1.13-1.44,2.25-1.48c1.74-0.07,3.49-0.05,5.22,0.02c1.04,0.03,1.85,0.74,2.16,1.7c0.04,0.14,0.08,0.28,0.1,0.43   C59.17,39.14,59.18,39.39,59.2,39.65z"></path>
	<path d="M39.19,50.42c0,0.01,0,0.01,0,0.02l-0.04,0.03l-1.72,1.14l-0.05,0.04c0.01-0.02,0.02-0.04,0.03-0.07   c0.01-0.01,0.01-0.03,0.02-0.04c0.03-0.13,0.05-0.31,0.06-0.5v-0.13c0.01-0.09,0.01-0.18,0.01-0.27c0-0.14-0.01-0.25-0.01-0.32   c0-0.1,0-0.19-0.01-0.28V50c-0.01-0.01,0-0.02,0-0.02c-0.08-0.57-0.4-0.81-1.07-0.82c-0.75-0.02-1.5-0.01-2.25-0.01h-2.19   c-0.32,0-0.56,0.05-0.73,0.13c-0.01,0.01-0.01,0.01-0.01,0.01c-0.06,0.04-0.11,0.07-0.16,0.12c-0.04,0.04-0.08,0.09-0.11,0.15   c-0.04,0.06-0.06,0.13-0.08,0.2c-0.02,0.07-0.03,0.14-0.04,0.22c-0.01,0.08-0.02,0.17-0.02,0.27v0.16   c-0.01,0.21-0.03,0.53-0.01,0.79c0,0.04,0,0.08,0.01,0.12v0.07c0,0.05,0.01,0.09,0.03,0.13c0.01,0.03,0.02,0.07,0.03,0.08   l-0.02-0.02l-1.75-1.13v-0.02c0.01-0.15,0.02-0.29,0.04-0.42c0.01-0.15,0.03-0.3,0.07-0.43c0.03-0.16,0.07-0.31,0.12-0.45   c0.01-0.02,0.01-0.03,0.02-0.05c0-0.03,0.01-0.05,0.02-0.08c0.36-0.9,1.13-1.44,2.25-1.48c1.74-0.07,3.49-0.05,5.22,0.02   c0.58,0.02,1.08,0.24,1.47,0.62c0.05,0.04,0.1,0.1,0.15,0.15c0.05,0.06,0.1,0.11,0.14,0.17c0.04,0.06,0.09,0.12,0.13,0.18   c0.23,0.38,0.38,0.82,0.4,1.29C39.17,50.1,39.18,50.26,39.19,50.42z"></path>
	<path d="M50.03,71.22c0,0.01,0,0.01,0,0.02l-1.78,1.19l-0.03,0.02c0.01-0.02,0.02-0.04,0.03-0.07c0.01-0.01,0.01-0.03,0.02-0.04   c0.03-0.13,0.05-0.32,0.06-0.52v-0.09c-0.01-0.01-0.01-0.02,0-0.03c0.01-0.09,0.01-0.18,0.01-0.26c0-0.16-0.01-0.29-0.01-0.35   v-0.13c0-0.06,0-0.11-0.01-0.16c-0.01-0.01,0-0.02,0-0.02c-0.08-0.57-0.4-0.81-1.07-0.82c-0.75-0.02-1.5-0.01-2.25-0.01h-2.19   c-0.32,0-0.56,0.05-0.73,0.13c-0.01,0.01-0.01,0.01-0.01,0.01c-0.06,0.04-0.11,0.07-0.16,0.12c-0.04,0.04-0.08,0.09-0.11,0.15   c-0.04,0.06-0.06,0.13-0.08,0.2c0,0.01-0.01,0.02,0,0.03c-0.02,0.06-0.03,0.12-0.04,0.19v0.05c-0.01,0.09-0.02,0.18-0.02,0.29v0.09   c-0.01,0.21-0.03,0.53-0.01,0.79c0,0.03,0,0.06,0.01,0.09v0.03c0,0.07,0.01,0.13,0.02,0.18c0.01,0.04,0.02,0.08,0.04,0.1   l-0.04-0.02v-0.01l-1.73-1.12c0-0.01,0-0.01,0-0.02c0.01-0.15,0.02-0.29,0.04-0.42c0-0.04,0.01-0.08,0.02-0.12   c0.01-0.11,0.03-0.21,0.05-0.31c0.02-0.09,0.04-0.18,0.06-0.26c0.02-0.11,0.06-0.22,0.1-0.32c0.36-0.9,1.13-1.44,2.25-1.48   c1.74-0.07,3.49-0.05,5.22,0.02c0.89,0.03,1.62,0.55,1.99,1.31c0.07,0.12,0.13,0.26,0.17,0.39c0.04,0.14,0.08,0.28,0.1,0.43   c0.02,0.12,0.03,0.24,0.04,0.37c0,0.04,0.01,0.07,0.01,0.11C50.02,71.04,50.02,71.13,50.03,71.22z"></path>
	<path d="M70.04,61.3C70.04,61.3,70.04,61.3,70.04,61.3l-1.81,1.22c0.03-0.03,0.05-0.07,0.05-0.11c0.02-0.1,0.04-0.23,0.05-0.37   c0.01-0.09,0.01-0.18,0.01-0.3c0.01-0.08,0.01-0.16,0.01-0.23c0-0.14-0.01-0.25-0.01-0.32v-0.05c0-0.1,0-0.19-0.01-0.27   c-0.01-0.01,0-0.02,0-0.02c-0.01-0.08-0.03-0.15-0.05-0.22c-0.02-0.07-0.05-0.13-0.08-0.19c-0.02-0.04-0.04-0.08-0.08-0.11   c-0.03-0.04-0.06-0.07-0.1-0.1c-0.18-0.13-0.42-0.19-0.76-0.2c-0.75-0.02-1.5-0.01-2.25-0.01h-2.19c-0.32,0-0.56,0.05-0.73,0.13   c-0.01,0.01-0.01,0.01-0.01,0.01c-0.06,0.04-0.11,0.07-0.16,0.12c-0.04,0.04-0.08,0.09-0.11,0.15c-0.04,0.06-0.07,0.13-0.08,0.2   c-0.02,0.06-0.03,0.15-0.04,0.22c-0.01,0.08-0.02,0.17-0.02,0.27v0.16c0,0.04-0.01,0.07-0.01,0.12c0,0.16-0.01,0.35-0.01,0.53   c0,0.05,0,0.1,0.01,0.14c0,0.07,0.01,0.12,0.02,0.18c0.01,0.06,0.01,0.13,0.03,0.18c0,0.02,0.01,0.03,0.02,0.04l-1.77-1.15   c0-0.01,0-0.01,0-0.02c0-0.01,0-0.01,0-0.02c0.01-0.14,0.02-0.28,0.04-0.4c0.02-0.18,0.04-0.36,0.08-0.53   c0.04-0.17,0.09-0.33,0.15-0.48c0.04-0.1,0.09-0.2,0.14-0.29c-0.01-0.01-0.01-0.02,0.02-0.04c0.06-0.1,0.12-0.19,0.19-0.28   c0.42-0.53,1.06-0.84,1.9-0.87c1.74-0.07,3.49-0.05,5.22,0.02c1.04,0.03,1.85,0.74,2.16,1.7c0.04,0.14,0.08,0.28,0.1,0.43   c0.02,0.12,0.03,0.24,0.04,0.37C70.02,61.03,70.03,61.16,70.04,61.3z"></path>
	<path class="st1" d="M73.87,35.88c-1.18-1-2.74-1.12-4.07-0.25c-0.25,0.16-0.42,0.15-0.66,0.03c-1.85-0.9-3.72-1.79-5.56-2.71   c-0.18-0.08-0.36-0.31-0.41-0.51c-0.82-3.47-2.88-5.89-6.29-6.95c-3.43-1.07-6.53-0.26-9.14,2.22c-1.64,1.56-2.5,3.53-2.72,5.78   c-0.02,0.17-0.1,0.38-0.23,0.49c-1.56,1.35-3.13,2.69-4.61,3.96c-1-0.52-1.93-1.06-2.9-1.49c-0.59-0.25-1.25-0.35-1.89-0.47   c-0.28-0.06-0.42-0.14-0.41-0.46c0.02-1.19,0.01-2.38,0-3.56c0-0.28,0.09-0.39,0.35-0.48c1.52-0.57,2.39-2.12,2.09-3.71   c-0.28-1.55-1.66-2.71-3.24-2.72c-1.59-0.02-3,1.15-3.3,2.72c-0.3,1.56,0.59,3.12,2.1,3.72c0.13,0.06,0.32,0.22,0.32,0.33   c0.02,1.35,0.01,2.7,0.01,4.06c-0.47,0.09-0.9,0.16-1.32,0.27c-3.74,0.95-6.35,3.86-6.91,7.65c-0.01,0.09-0.06,0.18-0.09,0.27v1.85   c0.2,0.79,0.34,1.59,0.61,2.35c1.27,3.51,4.85,5.96,8.6,5.93c4.12-0.03,7.76-2.86,8.81-6.84c0.06-0.22,0.11-0.44,0.19-0.72   c0.43,0.33,0.83,0.64,1.24,0.96c0.72,0.55,1.43,1.12,2.16,1.67c0.24,0.18,0.31,0.34,0.22,0.65c-0.54,1.84,0.52,3.66,2.38,4.15   c1.74,0.46,3.56-0.63,4.03-2.43c0.46-1.76-0.66-3.61-2.48-4.03c-0.83-0.19-1.66-0.1-2.4,0.37c-0.32,0.2-0.52,0.15-0.8-0.07   c-1.3-1.04-2.62-2.04-3.92-3.07c-0.15-0.12-0.31-0.32-0.33-0.5c-0.38-2.46-0.54-2.88-2.04-5.14c1.26-1.09,2.54-2.18,3.87-3.32   c0.73,3.14,2.47,5.4,5.33,6.68c2.89,1.29,5.72,1.02,8.52-0.56c1.22,1.63,2.46,3.28,3.69,4.89c-0.75,0.34-1.51,0.6-2.19,0.99   c-3.73,2.15-5.41,6.28-4.29,10.44c0.1,0.35,0.06,0.54-0.24,0.76c-1,0.71-1.96,1.45-2.88,2.14c-0.7-0.77-1.3-1.62-2.06-2.27   c-2.75-2.34-5.88-2.94-9.25-1.67c-3.31,1.25-5.23,3.73-5.82,7.21c-0.06,0.35-0.14,0.51-0.54,0.5c-1.15-0.03-2.31,0-3.47-0.02   c-0.16-0.01-0.41-0.13-0.47-0.27c-0.62-1.45-1.87-2.3-3.29-2.22c-1.52,0.09-2.67,1.05-3.1,2.6c-0.03,0.08-0.06,0.15-0.09,0.23v0.97   c0.27,1.05,0.77,1.92,1.76,2.45c1.74,0.93,3.95,0.14,4.65-1.7c0.11-0.3,0.24-0.39,0.55-0.39c1.17,0.02,2.34,0.02,3.51,0   c0.31,0,0.42,0.1,0.47,0.4c0.64,4.16,3.67,7.2,7.79,7.83c0.07,0.01,0.14,0.06,0.22,0.09h2.15c0.57-0.15,1.17-0.25,1.72-0.45   c3.11-1.09,5.12-3.21,6.03-6.36c0.03-0.08,0.06-0.15,0.1-0.29c1.82,0.88,3.62,1.74,5.42,2.62c-0.39,1.28-0.18,2.4,0.68,3.39   c0.52,0.61,1.23,0.88,1.97,1.1h0.98c1-0.27,1.86-0.74,2.39-1.69c0.75-1.35,0.52-3-0.57-4.03c-1.14-1.08-2.84-1.25-4.13-0.38   c-0.28,0.19-0.47,0.17-0.74,0.04c-1.8-0.88-3.6-1.75-5.39-2.6c-0.27-0.13-0.37-0.27-0.4-0.58c-0.09-0.87-0.26-1.73-0.38-2.59   c-0.02-0.16,0.05-0.39,0.16-0.47c1-0.78,2.02-1.54,3.07-2.32c0.25,0.35,0.47,0.7,0.73,1.02c2.41,2.94,5.49,4.19,9.21,3.37   c3.84-0.85,6.25-3.34,7.04-7.17c1.16-5.65-3.2-10.86-8.97-10.88c-0.31-0.01-0.49-0.1-0.68-0.34C63,44.58,61.67,42.8,60.32,41   c1.79-1.71,2.82-3.77,3-6.31c1.77,0.85,3.49,1.68,5.22,2.52c-0.4,1.41-0.17,2.63,0.9,3.61c1.83,1.66,4.67,0.86,5.41-1.51   c0.05-0.14,0.1-0.27,0.15-0.41v-1.07C74.76,37.11,74.48,36.4,73.87,35.88z M50.04,49.19c0.91,0.02,1.63,0.76,1.62,1.67   c0,0.9-0.74,1.64-1.65,1.64c-0.92,0.01-1.68-0.75-1.67-1.67C48.34,49.91,49.11,49.17,50.04,49.19z M32.51,28.41   c-0.01-0.93,0.74-1.69,1.66-1.69c0.91,0,1.68,0.78,1.66,1.69c-0.01,0.9-0.75,1.62-1.66,1.62C33.25,30.02,32.52,29.32,32.51,28.41z    M41.34,42.86c0.9,2.99-0.25,6.15-2.19,7.64v-0.03l-1.72,1.14c-0.07,0.2-0.26,0.27-0.71,0.42c-1.87,0.64-3.72,0.6-5.54-0.16   c-0.18-0.08-0.28-0.16-0.31-0.29l-1.75-1.13v-0.02c-1.57-1.08-2.96-4.11-2.29-6.99c0.77-3.35,3.65-5.78,7.05-5.89   C37.3,37.43,40.36,39.62,41.34,42.86z M28.32,67.47c-0.92-0.01-1.68-0.77-1.65-1.69c0.02-0.9,0.78-1.63,1.67-1.63   c0.93,0.01,1.66,0.76,1.65,1.7C29.96,66.76,29.23,67.47,28.32,67.47z M50.06,71.28c-0.02-0.11-0.03-0.22-0.05-0.33   c0.01,0.09,0.01,0.18,0.02,0.27c0,0.01,0,0.01,0,0.02l-1.78,1.19c-0.11,0.17-0.32,0.28-0.58,0.37c-1.88,0.66-3.75,0.64-5.59-0.1   c-0.2-0.08-0.33-0.17-0.39-0.32v-0.01l-1.73-1.12c0-0.01,0-0.01,0-0.02c-1.38-0.88-2.86-3.77-2.36-6.69   c0.53-3.15,3.29-5.8,6.47-6.14c3.55-0.37,6.71,1.55,7.95,4.84C53.15,66.19,52.16,69.54,50.06,71.28z M62.54,69.99   c0.9,0.02,1.63,0.76,1.62,1.67c-0.01,0.9-0.76,1.65-1.65,1.65c-0.92,0.01-1.68-0.76-1.68-1.68C60.85,70.71,61.61,69.98,62.54,69.99   z M64.67,48.36c3.43-0.11,6.46,2,7.48,5.21c0.97,3.05-0.22,6.23-2.12,7.72c0,0,0,0,0,0.01l-1.81,1.21   c-0.1,0.14-0.31,0.22-0.71,0.35c-1.84,0.61-3.66,0.57-5.46-0.17c-0.16-0.06-0.26-0.13-0.32-0.23l-1.77-1.15c0-0.01,0-0.01,0-0.02   c0-0.01,0-0.01,0-0.02c-1.61-1.15-3.01-4.2-2.25-7.22C58.53,50.84,61.41,48.47,64.67,48.36z M59.2,39.65c0,0.01,0,0.01,0,0.02   l-1.81,1.21l-0.05,0.04c-0.14,0.15-0.39,0.23-0.87,0.38c-1.76,0.53-3.51,0.48-5.22-0.22c-0.15-0.07-0.26-0.14-0.32-0.23l-0.01-0.01   l-0.02-0.01l-1.77-1.15c0-0.01,0-0.01,0-0.02c-1.85-1.46-3.09-4.6-2.13-7.69c0.97-3.12,3.96-5.28,7.22-5.25   c3.33,0.03,6.26,2.28,7.16,5.45C62.22,35.14,61.04,38.25,59.2,39.65z M71.67,40.02c-0.93,0-1.67-0.75-1.66-1.68   c0.01-0.91,0.75-1.63,1.66-1.63c0.92,0,1.68,0.76,1.66,1.67C73.32,39.28,72.57,40.02,71.67,40.02z"></path>
	<path d="M41.68,63.29c0-1.82,1.48-3.31,3.31-3.32c1.82-0.01,3.37,1.53,3.34,3.35c-0.02,1.81-1.55,3.32-3.35,3.3   C43.16,66.6,41.68,65.11,41.68,63.29z M45.07,61.64c-0.91-0.04-1.68,0.65-1.72,1.55c-0.04,0.94,0.64,1.7,1.58,1.75   c0.91,0.05,1.71-0.69,1.74-1.61C46.7,62.45,45.98,61.68,45.07,61.64z"></path>
	<path d="M34.18,45.81c-1.83,0.01-3.32-1.46-3.34-3.29c-0.02-1.83,1.5-3.36,3.33-3.35c1.81,0.01,3.32,1.52,3.32,3.32   C37.5,44.31,36.01,45.8,34.18,45.81z M34.14,44.15c0.93,0.01,1.69-0.74,1.69-1.65c0-0.89-0.75-1.65-1.64-1.66   c-0.89-0.01-1.66,0.72-1.68,1.62C32.49,43.39,33.21,44.14,34.14,44.15z"></path>
	<path d="M61.68,53.32c0-1.82,1.49-3.32,3.31-3.33c1.83-0.01,3.38,1.54,3.35,3.34c-0.03,1.83-1.52,3.3-3.34,3.3   C63.17,56.62,61.68,55.14,61.68,53.32z M64.98,54.96c0.93,0.01,1.69-0.74,1.69-1.65c0-0.89-0.75-1.65-1.64-1.66   c-0.92-0.01-1.68,0.74-1.68,1.66C63.35,54.23,64.07,54.95,64.98,54.96z"></path>
	<path d="M54.18,34.99c-1.83,0.01-3.32-1.45-3.34-3.28c-0.02-1.83,1.5-3.37,3.33-3.36c1.81,0.01,3.32,1.52,3.33,3.32   C57.51,33.48,56.01,34.98,54.18,34.99z M54.16,33.33c0.91,0,1.65-0.72,1.67-1.62c0.02-0.9-0.75-1.69-1.66-1.69   c-0.92,0-1.67,0.76-1.66,1.69C52.52,32.61,53.25,33.33,54.16,33.33z"></path>
	<path d="M57.38,40.88C57.38,40.88,57.38,40.88,57.38,40.88l-0.04,0.04C57.35,40.92,57.37,40.91,57.38,40.88z"></path>
</g>
</svg>
