<?xml version="1.0" encoding="UTF-8"?>
<!-- Generator: Adobe Illustrator 26.0.1, SVG Export Plug-In . SVG Version: 6.00 Build 0)  -->
<svg xmlns="http://www.w3.org/2000/svg" xmlns:xlink="http://www.w3.org/1999/xlink" version="1.1" id="Layer_1" x="0px" y="0px" viewBox="0 0 100 100" style="enable-background:new 0 0 100 100;" xml:space="preserve">
<style type="text/css">
	.st0{opacity:0.5;fill:#FFFFFF;}
	.st1{fill:#9A0212;}
	.st2{fill:none;}
	.st3{fill:#010101;}
</style>
<rect y="0" class="st0" width="100" height="100"></rect>
<g>
	<path class="st1" d="M74.74,43.39c0,9.02,0,18.03,0,27.05c-0.25,0.63-0.72,0.83-1.39,0.82c-3.56-0.02-7.13,0-10.69-0.02   c-0.34,0-0.45,0.08-0.43,0.43c0.03,0.63,0.02,1.27,0.01,1.9c-0.01,0.72-0.44,1.16-1.16,1.16c-7.55,0-15.1,0-22.65,0   c-0.74,0-1.16-0.44-1.17-1.2c-0.01-0.59-0.03-1.17,0.01-1.76c0.03-0.42-0.08-0.54-0.52-0.54c-3.56,0.02-7.13,0.01-10.69,0.01   c-0.93,0-1.3-0.38-1.3-1.31c0-8.67,0-17.35,0-26.02c0-0.92,0.39-1.31,1.3-1.31c1.61,0,3.22-0.01,4.83,0.01   c0.34,0,0.43-0.08,0.43-0.42c-0.02-1.87-0.01-3.74-0.01-5.61c0-0.93,0.38-1.31,1.3-1.31c1.38,0,2.77-0.02,4.15,0.01   c0.45,0.01,0.52-0.13,0.52-0.54c-0.02-2.85,0-5.7-0.02-8.54c-0.01-0.66,0.17-1.16,0.79-1.46c7.81,0,15.62,0,23.44,0   c0.61,0.3,0.79,0.79,0.79,1.46c-0.02,2.85,0,5.69-0.02,8.54c0,0.4,0.06,0.56,0.52,0.54c1.38-0.04,2.77-0.02,4.15-0.01   c0.92,0,1.3,0.39,1.3,1.31c0,1.89,0.01,3.77-0.01,5.66c0,0.3,0.07,0.38,0.37,0.38c1.58-0.02,3.16,0.01,4.74-0.02   C73.96,42.59,74.45,42.77,74.74,43.39z M49.75,44.76c-7.45,0-14.9,0-22.36-0.01c-0.39,0-0.53,0.06-0.51,0.49   c0.04,1.17,0.01,2.34,0.01,3.51c0,6.62,0,13.24-0.01,19.87c0,0.41,0.1,0.51,0.5,0.5c1.17-0.03,2.34-0.03,3.51,0   c0.41,0.01,0.5-0.09,0.5-0.5c-0.02-4.23-0.01-8.46-0.01-12.69c0-1.04,0.36-1.4,1.41-1.4c11.29,0,22.59,0,33.88,0   c1.07,0,1.42,0.35,1.42,1.44c0,4.21,0.01,8.43-0.01,12.64c0,0.38,0.06,0.53,0.49,0.51c1.19-0.03,2.38-0.03,3.56,0   c0.4,0.01,0.46-0.13,0.46-0.49c-0.01-7.79-0.01-15.59,0-23.38c0-0.4-0.09-0.5-0.5-0.5C64.65,44.76,57.2,44.76,49.75,44.76z    M49.74,42.61c3.3,0,6.6-0.01,9.91,0.01c0.37,0,0.45-0.09,0.45-0.45c-0.01-4.94-0.01-9.89,0-14.83c0-0.36-0.08-0.45-0.45-0.45   c-6.6,0.01-13.21,0.01-19.81,0c-0.37,0-0.45,0.09-0.45,0.45c0.01,4.94,0.01,9.89,0,14.83c0,0.36,0.08,0.45,0.45,0.45   C43.14,42.6,46.44,42.61,49.74,42.61z M49.74,56.67c-3.3,0-6.6,0.01-9.91-0.01c-0.37,0-0.45,0.1-0.45,0.46   c0.01,5.01,0.01,10.02,0,15.03c0,0.37,0.09,0.45,0.45,0.45c6.6-0.01,13.21-0.01,19.81,0c0.37,0,0.45-0.1,0.45-0.46   c-0.01-5.01-0.01-10.02,0-15.03c0-0.37-0.09-0.45-0.45-0.45C56.34,56.68,53.04,56.67,49.74,56.67z M37.25,62.92   c0-1.95-0.01-3.9,0.01-5.86c0-0.31-0.07-0.41-0.4-0.4c-0.99,0.02-1.98,0.02-2.98,0c-0.28,0-0.35,0.08-0.35,0.35   c0.01,3.9,0.01,7.81,0,11.71c0,0.3,0.07,0.39,0.38,0.38c0.98-0.02,1.95-0.02,2.93,0c0.35,0.01,0.42-0.1,0.42-0.43   C37.24,66.76,37.25,64.84,37.25,62.92z M65.95,62.87c0-1.94-0.01-3.87,0.01-5.81c0-0.32-0.09-0.41-0.4-0.4   c-0.98,0.02-1.95,0.02-2.93,0c-0.27,0-0.4,0.02-0.4,0.35c0.01,3.9,0.01,7.81,0,11.71c0,0.29,0.06,0.39,0.37,0.38   c0.98-0.02,1.95-0.02,2.93,0c0.35,0.01,0.43-0.1,0.42-0.43C65.94,66.74,65.95,64.81,65.95,62.87z M33.44,40.02   c0,0.75,0.01,1.49-0.01,2.24c-0.01,0.28,0.07,0.36,0.35,0.35c1.04-0.02,2.08-0.02,3.12,0c0.27,0,0.36-0.06,0.35-0.34   c-0.01-1.51-0.01-3.02,0-4.53c0-0.25-0.06-0.33-0.32-0.33c-1.06,0.01-2.11,0.02-3.17,0c-0.31-0.01-0.33,0.12-0.33,0.37   C33.45,38.53,33.44,39.28,33.44,40.02z M62.24,39.99c0,0.76,0.01,1.53,0,2.29c0,0.22,0.02,0.35,0.3,0.34   c1.07-0.02,2.14-0.01,3.22,0c0.24,0,0.3-0.08,0.3-0.3c-0.01-1.53-0.01-3.05,0-4.58c0-0.27-0.09-0.32-0.33-0.32   c-1.06,0.01-2.11,0.01-3.17,0c-0.27,0-0.32,0.09-0.32,0.33C62.25,38.49,62.24,39.24,62.24,39.99z"></path>
	<path class="st3" d="M32.57,48.57c0.28,0,0.55-0.01,0.83,0c0.59,0.03,1.01,0.47,1.02,1.04c0.01,0.59-0.4,1.07-1.01,1.1   c-0.57,0.03-1.14,0.03-1.71,0c-0.58-0.03-1-0.5-1-1.06c0-0.58,0.44-1.04,1.04-1.07C32.02,48.56,32.3,48.57,32.57,48.57z"></path>
	<path class="st1" d="M38.89,50.71c-0.26,0-0.52,0.01-0.78,0c-0.61-0.04-1.05-0.49-1.05-1.07c0-0.58,0.44-1.05,1.05-1.07   c0.55-0.02,1.11-0.02,1.66,0c0.59,0.02,1.01,0.47,1.02,1.04c0.01,0.59-0.41,1.05-1.01,1.1C39.47,50.73,39.18,50.71,38.89,50.71z"></path>
	<path d="M49.74,62.63c-1.75,0-3.51,0-5.26,0c-0.78,0-1.29-0.44-1.27-1.1c0.02-0.64,0.5-1.05,1.27-1.05c3.51,0,7.02,0,10.53,0   c0.78,0,1.29,0.44,1.27,1.1c-0.02,0.64-0.5,1.05-1.27,1.05C53.25,62.63,51.5,62.63,49.74,62.63z"></path>
	<path d="M49.71,68.58c-1.74,0-3.48,0-5.22,0c-0.79,0-1.29-0.43-1.29-1.08c0-0.65,0.5-1.07,1.3-1.07c3.49,0,6.99,0,10.48,0   c0.79,0,1.29,0.42,1.29,1.08c-0.01,0.66-0.5,1.07-1.3,1.07C53.22,68.59,51.47,68.58,49.71,68.58z"></path>
</g>
</svg>
