<?xml version="1.0" encoding="UTF-8"?>
<!-- Generator: Adobe Illustrator 26.0.1, SVG Export Plug-In . SVG Version: 6.00 Build 0)  -->
<svg xmlns="http://www.w3.org/2000/svg" xmlns:xlink="http://www.w3.org/1999/xlink" version="1.1" id="Layer_1" x="0px" y="0px" viewBox="0 0 100 100" style="enable-background:new 0 0 100 100;" xml:space="preserve">
<style type="text/css">
	.st0{opacity:0.5;fill:#FFFFFF;}
	.st1{fill:#9A0212;}
	.st2{fill:none;}
	.st3{fill:#010101;}
</style>
<rect class="st0" width="100" height="100"></rect>
<g>
	<path class="st1" d="M24.75,72.01c0-14.51,0-29.03,0-43.54c0.15-0.04,0.11-0.19,0.14-0.28c0.59-1.86,2.05-2.94,4.01-2.94   c13.89,0,27.79,0,41.68,0c0.41,0,0.81,0.04,1.21,0.15c1.8,0.5,2.94,2.06,2.94,4.05c0,12.49,0,24.99,0,37.48   c0,1.45,0.03,2.9-0.01,4.34c-0.05,1.72-0.91,2.94-2.47,3.65c-0.3,0.13-0.62,0.21-0.93,0.31c-14.45,0-28.9,0-43.35,0   c-0.03-0.13-0.15-0.1-0.24-0.13c-1.46-0.44-2.42-1.39-2.86-2.86C24.86,72.16,24.88,72.04,24.75,72.01z M72.6,50.29   c0-6.93,0-13.86,0-20.79c0-1.37-0.74-2.1-2.11-2.1c-13.81,0-27.63,0-41.44,0c-1.41,0-2.14,0.72-2.14,2.12c0,13.81,0,27.63,0,41.44   c0,1.4,0.73,2.12,2.13,2.12c13.8,0,27.6,0,41.4,0c1.44,0,2.16-0.72,2.16-2.15C72.6,64.06,72.6,57.17,72.6,50.29z"></path>
	<path class="st1" d="M49.7,61.24c-3.21-0.03-6.22-0.97-9.06-2.49c-3.66-1.95-6.77-4.59-9.48-7.71c-0.47-0.54-0.49-1.03-0.05-1.53   c3.29-3.78,7.09-6.87,11.74-8.82c5.15-2.16,10.2-1.83,15.16,0.61c4.01,1.97,7.38,4.77,10.31,8.13c0.47,0.54,0.51,1.04,0.08,1.53   c-3.52,4.04-7.61,7.31-12.69,9.19C53.8,60.86,51.8,61.23,49.7,61.24z M40.27,44.48L40.27,44.48c-0.05,0.01-0.1,0-0.14,0.03   c-2.46,1.56-4.65,3.42-6.64,5.54c-0.22,0.23-0.06,0.33,0.07,0.47c1.21,1.3,2.51,2.5,3.91,3.59c0.9,0.69,1.78,1.41,2.8,1.92l0,0   c0,0.08,0.07,0.09,0.12,0.12c1.15,0.79,2.4,1.37,3.7,1.87c1.2,0.46,2.43,0.86,3.73,0.94c1.29,0.22,2.58,0.22,3.87,0   c0.46,0.03,0.9-0.1,1.33-0.2c2.18-0.52,4.21-1.37,6.09-2.6c0.04-0.04,0.08-0.08,0.12-0.12l0,0c0.09-0.04,0.18-0.06,0.26-0.11   c2.4-1.53,4.54-3.36,6.49-5.42c0.21-0.22,0.13-0.33-0.04-0.5c-1.41-1.49-2.92-2.87-4.57-4.09c-0.69-0.51-1.35-1.05-2.14-1.41l0,0   c-0.04-0.04-0.08-0.08-0.12-0.13c-0.94-0.65-1.97-1.16-3.02-1.59c-1.41-0.59-2.85-1.09-4.4-1.21c-1.29-0.21-2.58-0.21-3.87,0   c-0.46-0.03-0.9,0.1-1.33,0.21c-2.18,0.52-4.21,1.37-6.09,2.6C40.34,44.38,40.27,44.39,40.27,44.48z"></path>
	<path d="M51.68,58.93c0.54-0.2,1.11-0.35,1.63-0.6c3.05-1.45,4.85-3.84,5.22-7.22c0.5-4.43-2.51-8.46-6.69-9.47   c-0.06-0.01-0.11-0.06-0.16-0.09c1.54,0.11,2.99,0.62,4.4,1.21c1.05,0.44,2.08,0.94,3.02,1.59c0.02,0.07,0.01,0.15,0.12,0.13   c0,0,0,0,0,0c-0.11,0.19,0.07,0.3,0.13,0.43c1.86,3.56,1.86,7.12,0,10.68c-0.07,0.13-0.24,0.24-0.13,0.43c0,0,0,0,0,0   c-0.11-0.03-0.11,0.05-0.12,0.12c-1.88,1.23-3.91,2.08-6.09,2.6C52.58,58.83,52.14,58.97,51.68,58.93z"></path>
	<path d="M47.81,41.55c-0.82,0.3-1.65,0.54-2.42,0.99c-3.18,1.84-4.97,5.33-4.4,8.92c0.61,3.81,2.87,6.25,6.56,7.37   c0.09,0.03,0.2,0.01,0.26,0.11c-1.3-0.08-2.52-0.48-3.73-0.94c-1.29-0.49-2.55-1.08-3.7-1.87c-0.01-0.07-0.01-0.15-0.12-0.12   c0,0,0,0,0,0c0.11-0.19-0.06-0.3-0.13-0.43c-1.86-3.56-1.86-7.12,0-10.69c0.07-0.13,0.24-0.24,0.13-0.43l0,0   c0.11,0.03,0.11-0.05,0.12-0.12c1.87-1.23,3.91-2.08,6.09-2.6C46.92,41.65,47.35,41.52,47.81,41.55z"></path>
	<path d="M54.8,50.31c-0.1,2.8-2.4,5.05-5.1,4.98c-2.8-0.07-5.11-2.42-5.01-5.12c0.11-2.97,2.46-5.04,5.15-4.97   C52.8,45.28,54.79,47.64,54.8,50.31z M52.65,50.3c0.06-1.54-1.24-2.89-2.83-2.96c-1.53-0.07-2.89,1.22-2.98,2.82   c-0.08,1.55,1.25,2.94,2.86,2.99C51.24,53.19,52.59,51.89,52.65,50.3z"></path>
</g>
</svg>
