<?xml version="1.0" encoding="UTF-8"?>
<!-- Generator: Adobe Illustrator 26.0.1, SVG Export Plug-In . SVG Version: 6.00 Build 0)  -->
<svg xmlns="http://www.w3.org/2000/svg" xmlns:xlink="http://www.w3.org/1999/xlink" version="1.1" id="Layer_1" x="0px" y="0px" viewBox="0 0 100 100" style="enable-background:new 0 0 100 100;" xml:space="preserve">
<style type="text/css">
	.st0{opacity:0.5;fill:#FFFFFF;}
	.st1{fill:#9A0212;}
	.st2{fill:none;}
	.st3{fill:#010101;}
</style>
<rect y="0" class="st0" width="100" height="100"></rect>
<g>
	<g>
		<path class="st1" d="M73.3,50.19c-2.29,0.03-4.58,0.01-6.87,0.01c-0.71,0.06-1.43,0.07-2.14,0h-6.86C56.35,50.2,56,50.54,56,51.62    v18.74c0,1.08,0.34,1.42,1.42,1.42c5.28,0,10.55-0.01,15.82,0.01c0.67,0.01,1.19-0.13,1.55-0.71V50.92    C74.47,50.34,73.96,50.18,73.3,50.19z M72.66,69.3c0.01,0.28-0.07,0.34-0.35,0.34c-4.61-0.01-9.22-0.01-13.83,0    c-0.28,0-0.34-0.09-0.34-0.34v-0.01c0.01-1.18,0.02-15.38,0-16.55c-0.01-0.32,0.09-0.4,0.4-0.4c4.58,0.01,9.15,0.01,13.72-0.01    c0.32,0,0.4,0.08,0.4,0.4C72.65,53.92,72.65,68.29,72.66,69.3z"></path>
		<path class="st1" d="M42.32,27.92H26.3c-1.05,0-1.38,0.34-1.38,1.41v18.74c0,1.09,0.34,1.43,1.41,1.43    c2.26,0.01,4.52,0.01,6.77,0.01c0.71-0.07,1.42-0.07,2.14,0c2.37,0,4.74,0,7.11-0.01c1.01,0,1.37-0.37,1.37-1.38v-18.8    C43.71,28.27,43.37,27.92,42.32,27.92z M41.58,47.01c0.01,0.34-0.13,0.36-0.4,0.36c-2.3-0.01-4.6-0.01-6.91-0.01    c-2.27,0-4.54-0.01-6.81,0.01c-0.31,0-0.41-0.06-0.41-0.39c0.01-0.2,0.01-0.4,0.01-0.6c0.02-1,0.01-2,0-3v-2.75    c-0.01-0.03-0.01-0.08-0.01-0.13c0.01-0.19,0.01-0.4,0.01-0.59c0.02-0.99,0.01-1.97,0-2.96v-2.89c-0.01-0.05-0.01-0.1-0.01-0.16    c0.01-0.19,0.01-0.38,0.01-0.58c0.02-0.96,0.01-1.92,0-2.88c-0.01-0.3,0.07-0.38,0.37-0.38c4.59,0.01,9.19,0.01,13.78,0    c0.31,0,0.38,0.09,0.38,0.38V47.01z"></path>
		<path d="M35.41,49.49c-0.03,1.38-0.01,13.51-0.01,14.88c0,0.12-0.07,0.28,0.08,0.34c0.12,0.05,0.2-0.08,0.29-0.15    c0.17-0.12,0.33-0.26,0.52-0.36c0.47-0.26,1.04-0.14,1.35,0.28c0.33,0.43,0.34,1.02-0.08,1.37c-0.88,0.74-1.8,1.44-2.73,2.11    c-0.38,0.28-0.81,0.2-1.18-0.08c-0.83-0.63-1.66-1.25-2.47-1.9c-0.51-0.41-0.57-1.04-0.2-1.51c0.37-0.48,0.97-0.53,1.52-0.17    c0.21,0.14,0.42,0.49,0.62,0.37c0.22-0.12,0.08-0.5,0.08-0.77c0.03-1.3-0.01-13.13,0.04-14.43H35.41z"></path>
		<path d="M64.32,50.19c0.03-1.38,0.01-13.51,0.01-14.88c0-0.12,0.07-0.28-0.08-0.34c-0.12-0.05-0.2,0.08-0.29,0.15    c-0.17,0.12-0.33,0.26-0.52,0.36c-0.47,0.26-1.04,0.14-1.35-0.28c-0.33-0.43-0.34-1.02,0.08-1.37c0.88-0.74,1.8-1.44,2.73-2.11    c0.38-0.28,0.81-0.2,1.18,0.08c0.83,0.63,1.66,1.25,2.47,1.9c0.51,0.41,0.57,1.04,0.2,1.51c-0.37,0.48-0.97,0.53-1.52,0.17    c-0.21-0.14-0.42-0.49-0.62-0.37c-0.22,0.12-0.08,0.5-0.08,0.77c-0.03,1.3,0.01,13.13-0.04,14.43H64.32z"></path>
	</g>
	<path class="st1" d="M69.9,58.82h-8.69c-0.59,0-1.07-0.48-1.07-1.07v-0.01c0-0.59,0.48-1.07,1.07-1.07h8.69   c0.59,0,1.07,0.48,1.07,1.07v0.01C70.97,58.34,70.49,58.82,69.9,58.82z"></path>
	<path d="M69.9,30.06h-8.69c-0.59,0-1.07-0.48-1.07-1.07v-0.01c0-0.59,0.48-1.07,1.07-1.07h8.69c0.59,0,1.07,0.48,1.07,1.07v0.01   C70.97,29.58,70.49,30.06,69.9,30.06z"></path>
	<path class="st1" d="M66.14,65.32h-4.94c-0.59,0-1.07-0.48-1.07-1.07v-0.01c0-0.59,0.48-1.07,1.07-1.07h4.94   c0.59,0,1.07,0.48,1.07,1.07v0.01C67.21,64.84,66.73,65.32,66.14,65.32z"></path>
	<path class="st2" d="M24.86,24.86v50h50v-50H24.86z M58.14,69.3v-0.01c0.01-1.18,0.02-15.38,0-16.55c-0.01-0.32,0.09-0.4,0.4-0.4   c4.58,0.01,9.15,0.01,13.72-0.01c0.32,0,0.4,0.08,0.4,0.4c-0.01,1.18-0.01,15.56,0,16.57c0.01,0.28-0.07,0.34-0.35,0.34   c-4.61-0.01-9.22-0.01-13.83,0C58.2,69.64,58.14,69.56,58.14,69.3z"></path>
	<path class="st1" d="M27.05,43.37c0.01,1,0.02,2,0,3V43.37z"></path>
	<path class="st1" d="M27.05,36.94c0.01,0.99,0.02,1.98,0,2.96V36.94z"></path>
	<path class="st1" d="M27.05,30.43c0.01,0.96,0.02,1.92,0,2.88V30.43z"></path>
	<path class="st1" d="M38.66,36.67h-8.69c-0.59,0-1.07-0.48-1.07-1.07V35.6c0-0.59,0.48-1.07,1.07-1.07h8.69   c0.59,0,1.07,0.48,1.07,1.07v0.01C39.73,36.19,39.25,36.67,38.66,36.67z"></path>
	<path class="st1" d="M34.91,43.17h-4.94c-0.59,0-1.07-0.48-1.07-1.07v-0.01c0-0.59,0.48-1.07,1.07-1.07h4.94   c0.59,0,1.07,0.48,1.07,1.07v0.01C35.98,42.69,35.5,43.17,34.91,43.17z"></path>
</g>
</svg>
