<?xml version="1.0" encoding="UTF-8"?>
<!-- Generator: Adobe Illustrator 28.0.0, SVG Export Plug-In . SVG Version: 6.00 Build 0)  -->
<svg xmlns="http://www.w3.org/2000/svg" xmlns:xlink="http://www.w3.org/1999/xlink" version="1.1" id="Layer_1" x="0px" y="0px" viewBox="0 0 2576.75 1534" style="enable-background:new 0 0 2576.75 1534;" xml:space="preserve">
<style type="text/css">
	.st0{fill:#AA9B6E;}
</style>
<g id="Layer_2_00000036244059109834825380000011124623617888999048_">
</g>
<g id="_x2018_ëîé_x5F_1">
	<g>
		<path class="st0" d="M328.38,375.9c1.85-8.33,4.62-22.2,6.48-30.52c-10.18-2.77-20.35-5.55-29.6-8.33    c-2.77,10.18-4.62,21.27-6.47,31.45L328.38,375.9z M179.45,446.2l-3.7-23.12c-10.18,2.77-20.35,6.48-30.52,10.17    c0,5.55,1.85,10.17,2.77,15.73c0.93,5.55,2.77,11.1,4.62,16.65c10.18-4.62,20.35-7.4,29.6-11.1    C182.23,451.75,181.3,448.98,179.45,446.2 M257.15,440.65c-1.85-8.33-2.78-22.2-3.7-30.52c-10.17,0-20.35,1.85-30.52,1.85    c0.93,11.1,2.77,21.27,4.62,31.45C227.55,443.43,257.15,440.65,257.15,440.65z M199.8,620.1c-5.55-5.55-16.65-14.8-22.2-20.35    c-7.4,6.48-14.8,13.88-22.2,22.2c7.4,7.4,15.72,14.8,24.05,21.28C179.45,643.23,199.8,620.1,199.8,620.1z M416.25,338.9    c4.62-9.25,10.18-17.57,16.65-25.9c-8.33-5.55-16.65-12.02-24.98-17.57c-5.55,9.25-11.1,17.57-16.65,26.82L416.25,338.9z     M512.45,334.27c7.4-6.48,15.73-12.95,24.05-18.5c-5.55-9.25-11.1-16.65-17.57-24.98c-8.32,5.55-16.65,12.95-24.98,20.35    C493.95,311.15,512.45,334.27,512.45,334.27z M164.65,774.58c-1.85,11.1-4.62,20.35-5.55,30.53c10.17,3.7,21.27,6.47,32.38,9.25    c1.85-10.17,2.77-20.35,5.55-30.53C185,781.05,174.83,778.28,164.65,774.58 M724.28,773.65c1.85,10.17,3.7,21.28,4.62,31.45    c-10.18,1.85-20.35,1.85-30.53,1.85c0-8.33-1.85-23.12-3.7-30.53C694.68,776.43,724.28,773.65,724.28,773.65z M456.95,906.85    c-8.32,7.4-16.65,13.88-24.97,20.35c-6.48-8.33-12.03-16.65-17.57-25.9c7.4-5.55,15.72-11.1,22.2-17.58    C436.6,883.72,456.95,906.85,456.95,906.85z M271.03,794c-8.33,0-22.2,0-30.53-1.85c-1.85,10.17-1.85,20.35-2.77,30.53    c10.18,0.92,21.27,0.92,31.45,0C269.18,822.68,271.03,794,271.03,794z M356.13,881.88c-10.18,3.7-20.35,6.47-30.52,10.17    c-1.85-6.47-3.7-13.88-5.55-20.35l-1.85-9.25c8.33-1.85,20.35-5.55,26.83-8.33C345.03,854.13,356.13,881.88,356.13,881.88z     M124.88,584.95c7.4-7.4,15.73-13.88,24.05-20.35c-5.55-9.25-12.02-18.5-17.57-26.83c-8.32,6.48-16.65,12.95-24.98,20.35    C111.93,566.45,117.48,575.7,124.88,584.95 M678.03,347.23c10.18,0,22.2-1.85,32.38-1.85c-1.85-10.18-2.78-21.27-5.55-31.45    c-11.1,0-22.2,0.92-33.3,1.85C674.33,325.95,677.1,336.13,678.03,347.23 M787.18,441.58c1.85-10.17,4.62-21.27,5.55-31.45    c-10.18-3.7-21.27-6.48-31.45-10.17c-1.85,10.17-2.78,21.27-5.55,30.52C766.83,434.18,776.08,437.88,787.18,441.58 M743.7,475.8    c10.18,3.7,19.43,7.4,29.6,12.02c-3.7,10.17-8.32,18.5-12.95,27.75c-7.4-3.7-20.35-9.25-27.75-12.02    C732.6,503.55,743.7,475.8,743.7,475.8z M773.3,575.7c8.33,6.47,15.73,13.88,23.12,21.27c-6.47,7.4-13.88,14.8-22.2,22.2    c-5.55-5.55-15.72-14.8-23.12-21.27L773.3,575.7z M212.75,524.83c-3.7-6.48-10.18-20.35-13.88-25.9    c-9.25,3.7-19.43,7.4-27.75,12.95c4.62,10.17,10.18,18.5,14.8,27.75C185.93,539.63,212.75,524.83,212.75,524.83z M604.03,363.88    c8.32-2.77,21.27-6.48,29.6-9.25c0-1.85,0-4.62-1.85-6.48c-1.85-7.4-3.7-15.73-6.48-23.12c-10.17,2.77-20.35,5.55-30.52,10.18    L604.03,363.88z M152.63,679.3c-9.25-6.48-17.57-12.95-25.9-20.35c-5.55,9.25-11.1,18.5-16.65,26.83    c9.25,6.48,17.57,13.88,26.82,20.35C141.53,696.88,147.08,687.63,152.63,679.3 M770.53,770.88c1.85,8.33,3.7,15.72,5.55,24.05    c10.17-2.78,20.35-6.47,30.52-10.17c-0.93-5.55-1.85-12.03-3.7-17.58s-1.85-10.17-3.7-14.8c-10.18,4.62-20.35,7.4-29.6,11.1    C769.6,766.25,769.6,768.1,770.53,770.88 M559.63,895.75c-5.55,9.25-10.18,18.5-16.65,26.83c-8.32-5.55-16.65-11.1-24.98-17.58    c5.55-8.33,11.1-16.65,15.73-24.97L559.63,895.75z M209.05,741.28c-10.18-3.7-20.35-7.4-29.6-12.03    c3.7-10.17,8.32-18.5,12.95-27.75c9.25,4.62,18.5,8.33,27.75,11.1C220.15,712.6,209.05,741.28,209.05,741.28z M190.55,899.45    c-1.85-11.1-2.77-22.2-2.77-33.3c-9.25-0.92-17.58-2.78-25.9-4.62l-7.4-2.78c0,11.1,0,23.12,1.85,34.22l24.98,5.55    C184.08,898.53,187.78,898.53,190.55,899.45 M760.35,316.7c1.85,11.1,1.85,22.2,2.78,33.3c8.32,1.85,17.57,2.77,25.9,5.55    l8.32,2.77c0-11.1,0-23.12-1.85-34.23l-24.98-5.55C767.75,318.55,764.05,317.62,760.35,316.7 M202.58,954.03    c-12.02,0-24.05-1.85-36.07-3.7c2.77,11.1,5.55,23.12,10.18,34.22c12.95,1.85,24.98,1.85,37.93,2.78    C209.05,975.3,205.35,964.2,202.58,954.03 M413.48,210.32l5.55-5.55c-10.18-5.55-20.35-10.17-30.53-14.8    c-5.55,5.55-11.1,12.03-15.72,18.5c-1.85,2.78-4.62,5.55-6.48,8.32c10.18,4.62,20.35,9.25,30.52,14.8    C401.45,224.2,407.93,216.8,413.48,210.32 M680.8,422.15c8.32,0,21.28,0,30.53,1.85c1.85-10.18,1.85-20.35,1.85-30.52    c-10.18-0.93-21.28-0.93-31.45,0C681.73,393.48,680.8,422.15,680.8,422.15z M293.23,949.4c-8.33,1.85-17.58,2.78-25.9,3.7h-8.32    c3.7,10.17,8.32,21.28,12.95,30.53c8.33,0,16.65-1.85,25.9-3.7l10.18-1.85C302.48,967.9,296.93,958.65,293.23,949.4 M529.1,226.05    c7.4-4.62,15.72-9.25,23.12-12.95c1.85,0,4.62-1.85,6.47-2.78l-22.2-24.98c-7.4,3.7-14.8,7.4-22.2,12.02    c-2.77,1.85-5.55,3.7-9.25,5.55C514.3,209.4,521.7,217.73,529.1,226.05 M656.75,266.75c8.33-1.85,17.58-2.77,25.9-3.7h7.4    c-3.7-11.1-8.32-22.2-12.95-31.45c-8.32,0-16.65,1.85-24.97,3.7l-10.18,1.85C648.43,247.33,653.05,256.58,656.75,266.75     M420.88,991.03c-7.4,4.62-14.8,8.33-22.2,12.03c-1.85,1.85-5.55,1.85-7.4,3.7c6.47,8.33,14.8,16.65,22.2,24.97    c7.4-3.7,14.8-7.4,22.2-12.03c2.77-1.85,5.55-2.78,8.32-5.55C435.68,1006.75,428.28,999.35,420.88,991.03 M921.3,486.9    c-3.7,11.1-8.32,22.2-12.95,32.38c9.25,8.33,17.57,17.58,24.98,27.75c5.55-10.17,10.17-22.2,14.8-33.3l-25.9-25.9 M538.35,1005.83    l-5.55,5.55c10.18,5.55,20.35,10.17,30.52,15.72c6.48-6.47,12.03-12.95,17.58-20.35c1.85-2.78,4.62-4.62,5.55-7.4    c-10.17-4.62-20.35-9.25-30.52-14.8C549.45,992.88,543.9,998.43,538.35,1005.83 M652.13,849.5c-1.85,10.17-3.7,20.35-6.47,30.53    c-10.18-1.85-19.43-4.62-29.6-8.33c1.85-8.33,5.55-21.28,6.48-29.6C622.53,842.1,652.13,849.5,652.13,849.5z M87.88,399.95    c-1.85-12.02-1.85-24.05-1.85-36.08c-11.1,4.62-22.2,10.18-32.38,15.73c0,12.95,1.85,24.98,3.7,37    C67.53,410.13,77.7,404.58,87.88,399.95 M39.78,545.17c-5.55-11.1-11.1-22.2-14.8-34.22c-8.33,8.33-16.65,17.58-24.98,25.9    c5.55,11.1,10.18,22.2,16.65,34.23C24.05,562.75,31.45,553.5,39.78,545.17 M182.23,279.7c2.77-12.02,6.47-23.12,10.18-35.15    c-12.03,0-24.05,1.85-35.15,3.7c-3.7,12.03-6.47,24.05-9.25,36.07C159.1,282.47,170.2,281.55,182.23,279.7 M31.45,730.18    c3.7-11.1,8.32-22.2,12.95-32.38c-8.32-8.33-16.65-16.65-24.97-25.9c-5.55,10.17-10.18,22.2-14.8,33.3    C13.88,713.53,22.2,722.78,31.45,730.18 M592,162.23c7.4,9.25,14.8,18.5,22.2,26.82l35.15-9.25    c-6.47-10.18-13.88-20.35-21.27-28.68C616.05,155.75,604.03,158.53,592,162.23 M738.15,228.83c4.62,11.1,8.32,22.2,11.1,33.3    c12.03,0,24.05,1.85,36.08,3.7c-2.78-11.1-5.55-23.12-10.18-35.15L738.15,228.83 M431.98,149.27    c10.18,5.55,20.35,12.03,30.52,18.5c10.18-6.48,20.35-14.8,30.53-20.35c-10.18-5.55-20.35-12.95-30.53-19.43    c-10.18,6.48-20.35,14.8-30.52,22.2 M852.85,341.68v35.15c11.1,4.62,22.2,10.18,32.38,16.65c1.85-12.02,1.85-24.05,1.85-36.07    C876.9,351.85,863.95,346.3,852.85,341.68 M312.65,199.23c6.47-10.18,13.88-20.35,21.27-29.6c-11.1-2.77-23.12-5.55-34.23-8.32    c-7.4,10.18-14.8,20.35-21.27,30.52C289.53,193.68,301.55,196.45,312.65,199.23 M863.95,818.05c1.85,12.03,1.85,24.05,1.85,36.08    c11.1-4.62,21.27-10.17,31.45-15.72c0-12.95-1.85-24.97-3.7-37.92C883.38,807.88,873.2,813.43,863.95,818.05 M768.68,938.3    c-2.78,12.03-6.48,23.12-11.1,35.15c12.03,0,24.05-1.85,36.08-3.7c3.7-12.03,6.47-24.05,9.25-36.08    C791.8,935.53,779.78,937.38,768.68,938.3 M912.98,672.83c5.55,11.1,10.18,22.2,14.8,34.23c9.25-8.33,17.57-16.65,24.97-25.9    c-5.55-11.1-10.18-23.12-16.65-34.22C928.7,655.25,920.38,664.5,912.98,672.83 M638.25,1018.78c-6.47,10.17-13.88,20.35-22.2,29.6    l35.15,9.25c7.4-10.18,14.8-20.35,21.27-30.53C660.45,1025.25,649.35,1021.55,638.25,1018.78 M358.9,1054.85l-22.2-27.75    c-11.1,2.78-23.12,5.55-35.15,8.32c6.48,10.18,13.88,20.35,21.28,29.6C334.85,1061.32,346.88,1058.55,358.9,1054.85     M517.08,1067.8c-10.18-5.55-20.35-12.03-29.6-18.5c-10.18,6.47-20.35,13.88-30.52,20.35c10.17,6.47,20.35,13.88,30.52,20.35    C497.65,1082.6,507.83,1075.2,517.08,1067.8 M99.9,875.4v-35.15c-11.1-4.62-22.2-10.17-32.38-15.72    c-1.85,11.1-2.77,23.12-2.77,35.15C76.78,865.23,88.8,870.78,99.9,875.4 M438.45,257.5c8.33,6.48,16.65,12.95,24.05,20.35    c7.4-7.4,15.73-14.8,24.05-22.2c-8.32-8.32-16.65-14.8-24.98-21.28L438.45,257.5 M241.43,266.75c-1.85,4.62-1.85,7.4-3.7,11.1    c11.1,0,22.2,1.85,33.3,2.77c2.77-8.32,5.55-16.65,10.17-25.9c0-1.85,1.85-4.62,2.78-6.47c-11.1-1.85-22.2-2.78-34.23-4.62    C246.98,251.95,244.2,259.35,241.43,266.75 M765.9,679.3c5.55,9.25,10.18,18.5,14.8,27.75c-9.25,4.62-18.5,9.25-27.75,12.95    c-3.7-7.4-10.18-18.5-14.8-25.9L765.9,679.3z M350.58,302.83c4.62-10.18,10.18-20.35,14.8-28.68    c-10.18-4.62-19.43-8.32-30.52-11.1c-5.55,9.25-10.18,19.42-14.8,29.6C331.15,294.5,341.33,298.2,350.58,302.83 M77.7,498    c1.85,3.7,2.78,6.48,3.7,10.17c9.25-6.48,18.5-12.95,26.83-18.5c-2.78-8.33-5.55-17.58-9.25-25.9c-0.93-1.85-1.85-4.62-1.85-6.48    c-10.18,5.55-19.43,12.02-28.68,18.5C72.15,483.2,74.93,490.6,77.7,498 M139.68,368.5v11.1c10.18-2.77,21.27-5.55,31.45-8.33    v-33.3c-11.1,1.85-22.2,4.62-33.3,7.4v23.12 M253.45,364.8c0.93-11.1,2.78-22.2,4.62-32.38h-31.45c-1.85,11.1-2.77,23.12-3.7,33.3    C233.1,363.88,243.28,363.88,253.45,364.8 M800.13,538.7c9.25,6.47,17.58,12.95,25.9,20.35c5.55-9.25,11.1-18.5,16.65-26.83    c-8.32-6.48-17.57-13.88-25.9-20.35L800.13,538.7 M827.88,633.98c-7.4,7.4-15.72,13.88-24.05,20.35    c5.55,9.25,12.02,18.5,17.57,27.75c8.32-6.48,16.65-12.95,24.97-20.35C840.83,651.55,835.28,642.3,827.88,633.98 M577.2,292.65    c10.18-4.62,19.43-8.32,30.53-12.02c-4.62-9.25-10.18-19.42-15.72-27.75c-10.18,3.7-20.35,9.25-30.53,14.8    C566.1,275.08,571.65,284.33,577.2,292.65 M851.93,436.95c-2.77-0.92-5.55-2.77-8.32-4.62c-1.85,10.17-5.55,22.2-8.32,31.45    l22.2,13.88c2.78,1.85,4.62,2.77,6.48,5.55c3.7-10.17,6.47-21.27,10.17-32.38C866.73,445.28,859.33,441.58,851.93,436.95     M874.13,719.08c-0.92-2.78-1.85-5.55-3.7-8.33c-9.25,6.47-18.5,12.95-26.82,18.5c2.77,7.4,5.55,15.72,8.32,24.05l1.85,9.25    c10.17-5.55,18.5-12.03,28.67-18.5C879.68,734.8,876.9,726.48,874.13,719.08 M709.48,948.48c0-2.78,1.85-5.55,2.77-9.25    c-11.1,0-22.2-1.85-33.3-2.78c-2.78,7.4-5.55,15.72-9.25,23.12c-1.85,2.78-1.85,5.55-3.7,8.33c11.1,1.85,22.2,2.78,33.3,4.62    C703.93,965.12,706.7,957.73,709.48,948.48 M600.33,916.1c-4.62,10.17-10.18,20.35-14.8,28.67c10.18,4.62,19.43,8.33,30.53,11.1    c5.55-10.17,10.18-20.35,14.8-29.6C619.75,923.5,610.5,919.8,600.33,916.1 M698.38,855.05c-0.93,11.1-2.78,22.2-4.62,32.38h31.45    c1.85-11.1,2.78-22.2,3.7-33.3L698.38,855.05 M812.15,848.58v-9.25c-10.18,2.78-21.28,5.55-32.38,8.33v35.15    c11.1-1.85,22.2-4.62,33.3-7.4L812.15,848.58 M888,575.7c-1.85-1.85-4.62-4.62-5.55-6.48c-5.55,9.25-12.03,18.5-18.5,26.83    c5.55,6.48,10.17,12.95,15.72,20.35c1.85,2.77,2.78,5.55,5.55,7.4c7.4-8.33,13.88-17.58,20.35-26.83    C899.1,588.65,892.63,582.18,888,575.7 M99.9,780.13c2.77,1.85,6.47,2.78,9.25,5.55c1.85-11.1,5.55-21.28,9.25-31.45    c-7.4-4.62-14.8-9.25-23.12-14.8c-1.85-0.92-3.7-2.78-5.55-4.62c-3.7,11.1-6.48,21.28-9.25,32.38    C86.03,771.8,93.43,775.5,99.9,780.13 M63.83,640.45c1.85,2.77,4.62,5.55,7.4,8.33c5.55-9.25,12.02-18.5,18.5-26.83    c-5.55-6.48-11.1-13.88-16.65-21.28c-1.85-1.85-2.77-3.7-3.7-5.55c-7.4,8.33-13.88,17.58-20.35,26.83    C53.65,628.43,59.2,634.9,63.83,640.45 M512.45,959.58c-8.32-6.47-16.65-12.95-24.05-20.35c-7.4,7.4-15.73,14.8-24.05,22.2    c7.4,7.4,15.73,14.8,24.05,21.28C496.73,975.3,505.05,966.98,512.45,959.58 M279.35,900.38c-2.78-10.17-4.62-20.35-5.55-30.53    c-10.18,0-21.27,1.85-32.38,1.85c1.85,10.17,2.77,21.28,5.55,31.45C257.15,903.15,268.25,902.23,279.35,900.38 M373.7,923.5    c-10.17,4.62-20.35,8.33-30.52,12.03c4.62,9.25,9.25,18.5,14.8,27.75c10.18-3.7,20.35-8.33,30.52-12.95    C382.95,942,377.4,932.75,373.7,923.5 M327.45,617.33h58.28c40.7-2.78,76.77,27.75,79.55,68.45v5.55c0,41.62-33.3,74.92-74,74.92    h-63.83V617.33z M385.73,737.58c23.12,1.85,42.55-15.72,44.4-38.85v-5.55c0.93-23.12-16.65-43.47-39.77-44.4h-30.53v89.72    L385.73,737.58z M535.58,615.48h29.6l60.12,148.93h-35.15l-39.77-104.53l-37.93,105.45h-36.08    C476.38,765.33,535.58,615.48,535.58,615.48z M387.58,451.75h28.68l60.12,148.93h-35.15l-39.78-104.53L362.6,600.68h-35.15    L387.58,451.75z M476.38,528.53c-0.93-42.55,33.3-76.77,74.93-77.7h1.85c21.27-0.92,42.55,6.48,59.2,20.35l-20.35,24.97    c-11.1-10.17-24.97-15.73-39.77-14.8c-24.98,0.92-43.48,21.27-42.55,46.25c-0.93,24.98,17.57,46.25,42.55,47.17h2.77    c11.1,0.92,21.28-1.85,30.53-7.4v-23.12h-33.3v-28.68h64.75v64.75c-17.58,14.8-39.78,23.12-63.83,23.12    c-40.7,2.77-75.85-27.75-78.62-68.45C476.38,533.15,476.38,530.38,476.38,528.53 M2220,617.33h14.8v15.72H2220V617.33z     M1313.5,650.63h-14.8v48.1c0,7.4-5.55,13.88-12.95,14.8h-33.3c-6.48-0.92-12.03-5.55-12.95-12.95    c-0.92-10.17-2.77-21.27-6.48-30.52c-5.55-12.95-18.5-21.28-33.3-21.28c-25.9,0-39.77,17.58-39.77,51.8h38.85v12.03    c0,12.03-3.7,23.12-12.02,31.45c-7.4,8.33-18.5,12.95-29.6,12.95s-22.2-4.62-29.6-12.95c-8.33-8.33-12.03-19.42-12.03-30.53v-25.9    h-14.8v25.9c0,15.73,5.55,30.53,15.73,41.63c10.17,11.1,24.98,17.58,39.77,17.58c14.8,0,29.6-6.47,39.77-17.58    c10.18-11.1,16.65-25.9,15.73-41.62v-25.9h-37c0-6.47,2.77-12.95,6.48-18.5c8.32-9.25,23.12-10.17,33.3-1.85    c2.78,1.85,4.62,4.62,5.55,7.4c3.7,8.33,5.55,17.58,5.55,25.9c0.92,6.47,3.7,12.95,8.32,17.58c4.62,3.7,10.18,6.47,15.73,6.47    h35.15c13.88,1.85,25.9-8.33,27.75-22.2v-4.62C1315.35,682.08,1315.35,666.35,1313.5,650.63L1313.5,650.63z M1286.68,740.35h14.8    v15.72h-14.8V740.35z M1139.6,786.6h14.8v15.72h-14.8V786.6z M1165.5,786.6h14.8v15.72h-14.8    C1165.5,802.33,1165.5,786.6,1165.5,786.6z M1918.45,740.35h15.73v15.72h-15.73V740.35z"></path>
		<path class="st0" d="M2559.48,646v-53.65h-14.8v107.3c0,7.4-5.55,13.88-12.95,14.8h-55.5c-4.62,0-8.32-1.85-11.1-5.55    c-4.62-3.7-6.48-9.25-6.48-14.8V592.35h-14.8v107.3c0,4.62-1.85,8.33-5.55,11.1c-2.77,1.85-6.48,2.78-10.17,2.78h-150.77    c-0.93-15.73-5.55-31.45-14.8-44.4s-24.98-21.27-41.62-20.35c-12.02,0.92-23.12,3.7-34.23,9.25l5.55,12.02    c8.32-5.55,18.5-8.33,28.67-8.33c11.1,0,20.35,4.62,26.83,13.88c8.32,10.17,12.95,24.05,12.95,37.92h-225.7    c-4.62,0-8.32-1.85-11.1-5.55c-4.62-3.7-6.48-9.25-6.48-14.8V592.35h-14.8v107.3c0,4.62-1.85,8.33-5.55,11.1    c-2.77,1.85-6.48,2.78-10.18,2.78h-23.12c-4.62,0-8.32-1.85-11.1-5.55c-4.62-4.62-6.48-11.1-6.48-17.58v-39.78h-14.8    c0.93,15.73,0.93,32.38,0,48.1c0,4.62-2.77,9.25-6.47,11.1c-2.78,1.85-6.48,2.78-10.18,2.78h-23.12c-3.7,0-7.4-0.92-10.17-2.78    c-3.7-1.85-6.48-6.47-7.4-10.17c0-39.77-15.72-61.05-46.25-63.83c-11.1-0.92-21.27,2.78-30.52,8.33l5.55,11.1    c7.4-3.7,16.65-5.55,24.98-5.55c7.4,0,14.8,3.7,20.35,9.25c6.48,8.33,10.18,17.58,12.02,27.75h-46.25    c-11.1,0-21.27,5.55-27.75,13.88c-7.4,8.33-11.1,19.42-11.1,30.53c0,11.1,4.62,21.28,12.03,29.6c7.4,8.33,18.5,12.95,30.52,12.95    h29.6v-14.8h-26.83c-7.4,0-14.8-2.78-20.35-8.33c-5.55-5.55-8.33-12.03-8.33-20.35c0-15.73,12.02-28.67,27.75-28.67h42.55    c0.92,7.4,3.7,13.88,9.25,18.5c5.55,5.55,12.95,8.33,21.27,8.33h26.82c11.1,0,21.28-6.47,25.9-16.65c0.92,3.7,2.77,6.47,5.55,9.25    c3.7,4.62,9.25,7.4,15.73,7.4h25.9c11.1,0,21.27-6.47,25.9-16.65c0.93,3.7,2.78,6.47,5.55,9.25c3.7,4.62,9.25,7.4,15.73,7.4h395.9    c11.1,0,21.27-6.47,25.9-16.65c0.92,3.7,2.77,6.47,5.55,9.25c3.7,4.62,9.25,7.4,15.73,7.4h52.73c13.88,1.85,25.9-8.33,27.75-22.2    v-4.63C2560.4,685.78,2559.48,668.2,2559.48,646L2559.48,646z"></path>
		<path class="st0" d="M1820.4,720.93h14.8v15.72h-14.8V720.93z M1943.43,740.35h14.8v15.72h-14.8V740.35z M1698.3,592.35    l1.85,133.2h14.8l-1.85-133.2H1698.3z M1671.48,646v-53.65h-15.73v107.3c0,7.4-5.55,13.88-12.95,14.8h-100.83    c-2.77,0-5.55-0.92-8.32-2.78c18.5-12.95,32.38-29.6,42.55-49.02c-4.62-5.55-11.1-10.17-17.57-12.95    c-12.95-6.48-26.83-10.17-41.62-10.17c-19.43-1.85-37.93,4.62-52.73,17.58v17.58c10.18,0.92,20.35,4.62,27.75,11.1    c8.33,6.48,15.73,13.88,22.2,21.28c-8.33,4.62-18.5,6.47-27.75,6.47h-97.12c-4.62,0-8.33-1.85-11.1-5.55    c-3.7-4.62-6.48-10.17-6.48-15.72v-41.62h-13.88v59.2c0,12.95-4.62,24.97-12.95,35.15c-8.33,9.25-20.35,14.8-33.3,14.8    c2.77,5.55,4.62,10.17,5.55,12.95c13.88-0.92,27.75-7.4,37.92-17.58c10.18-11.1,15.73-24.97,16.65-39.78    c3.7,7.4,11.1,12.95,20.35,12.95h95.27c12.03,0,24.98-3.7,35.15-10.17c5.55,5.55,12.95,9.25,20.35,9.25h99.9    c13.88,1.85,25.9-8.33,27.75-22.2v-4.62C1670.55,681.15,1671.48,663.58,1671.48,646L1671.48,646z M1476.3,661.73    c5.55-2.78,11.1-5.55,17.57-7.4c8.33-1.85,15.73-2.77,24.05-2.77c10.17,0,20.35,1.85,30.52,5.55l10.18,6.47    c-9.25,14.8-20.35,26.83-35.15,36.08C1512.38,682.08,1495.73,668.2,1476.3,661.73z M1151.63,863.38h6.48l25.9,56.42h-6.48    l-7.4-14.8h-31.45l-7.4,14.8h-6.47C1124.8,919.8,1151.63,863.38,1151.63,863.38z M1167.35,899.45l-12.95-28.67l-12.95,28.67    H1167.35z M1194.18,863.38h24.05c5.55,0,12.03,1.85,16.65,5.55c2.77,2.78,4.62,6.47,4.62,11.1c0,8.33-6.48,15.72-15.73,16.65    l16.65,23.12h-7.4l-16.65-22.2h-15.73v22.2h-6.48v-56.42H1194.18z M1218.23,892.05c7.4,0.92,13.88-3.7,14.8-10.17v-0.92    c-0.93-6.47-6.48-11.1-12.95-11.1h-19.42v23.12h17.57C1218.23,892.98,1218.23,892.05,1218.23,892.05z M1274.65,863.38h6.48    l25.9,56.42h-7.4l-7.4-14.8h-31.45l-7.4,14.8h-6.48L1274.65,863.38z M1289.45,899.45l-12.95-28.67l-12.95,28.67H1289.45    L1289.45,899.45z M1316.28,863.38h24.05c5.55,0,10.18,0.92,14.8,4.62c2.77,2.78,3.7,5.55,3.7,9.25c0,5.55-3.7,11.1-9.25,12.95    c6.48,0.92,12.03,7.4,12.03,13.88c-0.93,9.25-9.25,16.65-19.43,15.72h-24.98v-56.42H1316.28z M1352.35,878.18    c0-5.55-5.55-10.17-11.1-9.25h-18.5v20.35h16.65c5.55,1.85,10.17-1.85,12.02-6.47C1352.35,880.95,1352.35,880.03,1352.35,878.18    L1352.35,878.18z M1340.33,894.83h-17.58v19.42h18.5c6.48,1.85,12.95-1.85,13.88-8.33V905    C1355.13,898.53,1350.5,894.83,1340.33,894.83L1340.33,894.83z M1376.4,863.38h6.48v56.42h-6.48V863.38z M1419.88,863.38h6.48    l25.9,56.42h-7.4l-7.4-14.8h-30.53l-7.4,14.8h-6.48L1419.88,863.38L1419.88,863.38z M1435.6,899.45l-12.95-28.67l-13.88,28.67    H1435.6z M1462.43,863.38h6.48l36.08,45.33v-45.33h6.47v56.42h-5.55l-36.08-46.25v46.25h-6.47v-56.42H1462.43z M1558.63,892.05    c0-15.72,12.02-28.67,27.75-29.6c7.4,0,14.8,2.78,20.35,7.4l-3.7,4.62c-4.62-4.62-11.1-6.47-16.65-6.47    c-12.02,0-22.2,11.1-22.2,23.12c-0.92,12.03,8.33,22.2,20.35,23.12h1.85c5.55,0,12.02-1.85,16.65-5.55v-12.95h-15.73v-5.55h23.13    v22.2c-6.48,5.55-13.88,8.33-22.2,8.33c-15.73,0-28.68-12.03-29.6-27.75L1558.63,892.05L1558.63,892.05z M1623.38,896.68V864.3    h6.48v32.38c-1.85,9.25,3.7,17.58,12.95,19.42h3.7c9.25,0,16.65-6.47,16.65-15.72V864.3h6.48v32.38    c1.85,12.03-7.4,23.12-19.43,24.97h-3.7C1633.55,921.65,1622.45,910.55,1623.38,896.68    C1623.38,898.53,1623.38,896.68,1623.38,896.68L1623.38,896.68z M1685.35,863.38h6.47v50.88h31.45v6.47h-37.93L1685.35,863.38    L1685.35,863.38z M1735.3,863.38h39.77v6.47h-33.3v20.35h30.52v5.55h-30.52v24.97h-6.48    C1735.3,920.72,1735.3,863.38,1735.3,863.38z M1823.18,863.38h20.35c15.73-0.92,28.68,11.1,30.52,26.83v1.85    c0,15.72-12.95,27.75-27.75,27.75h-22.2C1823.18,919.8,1823.18,863.38,1823.18,863.38z M1829.65,869.85v44.4h12.95    c12.03,0.92,22.2-9.25,23.12-21.28v-1.85c0-12.03-9.25-22.2-21.27-22.2L1829.65,869.85L1829.65,869.85z M1887,863.38h6.47v56.42    H1887V863.38z M1907.35,892.05c0-15.72,12.03-28.67,26.83-29.6c7.4,0,14.8,2.78,20.35,7.4l-3.7,4.62    c-4.62-4.62-11.1-6.47-16.65-6.47c-11.1,1.85-19.43,12.03-19.43,23.12c-0.92,12.03,8.33,22.2,20.35,23.12h1.85    c5.55,0,12.02-1.85,16.65-5.55v-12.95h-17.57v-5.55h23.12v22.2c-6.48,5.55-13.88,8.33-22.2,8.33c-15.73,0-28.67-12.03-29.6-27.75    C1907.35,892.98,1907.35,892.05,1907.35,892.05z M1974.88,863.38h6.47v56.42h-6.47V863.38z M2011.88,869.85h-18.5v-6.47h44.4v6.47    h-18.5v50.88h-6.48L2011.88,869.85z M2063.68,863.38h6.48l24.98,56.42h-7.4l-6.48-14.8h-30.52l-7.4,14.8h-6.48L2063.68,863.38    L2063.68,863.38z M2078.48,899.45l-12.95-28.67l-12.95,28.67H2078.48L2078.48,899.45z M2105.3,863.38h6.48v50.88h31.45v6.47    h-37.93V863.38L2105.3,863.38z M2211.68,863.38h6.48l25.9,56.42h-7.4l-7.4-14.8h-30.52l-7.4,14.8h-5.55L2211.68,863.38    L2211.68,863.38z M2226.48,899.45l-12.95-28.67l-12.95,28.67H2226.48L2226.48,899.45z M2253.3,863.38h24.05    c5.55,0,12.02,1.85,16.65,5.55c2.77,2.78,4.62,6.47,4.62,11.1c0,8.33-6.48,15.72-15.73,16.65l17.58,23.12h-7.4l-16.65-22.2h-16.65    v22.2h-5.55v-56.42H2253.3z M2277.35,892.05c7.4,0.92,13.88-3.7,14.8-10.17v-0.92c-0.92-6.47-6.47-11.1-12.95-11.1h-19.43v23.12    h17.58C2277.35,892.98,2277.35,892.05,2277.35,892.05z M2310.65,892.05c0-15.72,12.95-29.6,28.68-29.6    c8.32,0,15.73,3.7,21.27,9.25l-4.62,4.62c-4.62-4.62-11.1-7.4-17.57-7.4c-12.03,0-22.2,10.17-22.2,22.2    c-0.92,12.03,8.33,22.2,20.35,23.12c7.4,0,13.88-2.78,18.5-8.33l3.7,3.7c-5.55,6.47-13.88,10.17-22.2,10.17    c-14.8,0-27.75-12.03-27.75-26.83C2308.8,892.98,2310.65,892.98,2310.65,892.05L2310.65,892.05z M2373.55,863.38h6.48v24.97h32.38    v-24.97h6.48v56.42h-7.4v-25.9h-32.38v25.9h-5.55L2373.55,863.38L2373.55,863.38z M2434.6,863.38h6.48v56.42h-6.48V863.38z     M2453.1,863.38h7.4l20.35,49.03l20.35-49.03h7.4l-24.05,56.42H2479L2453.1,863.38z M2517.85,863.38h40.7v6.47h-33.3v20.35h30.52    v5.55h-30.52v20.35h35.15v6.47h-40.7L2517.85,863.38L2517.85,863.38z M1555.85,337.98h14.8v15.73h-14.8V337.98z M1171.98,537.78    h14.8v15.72h-14.8V537.78z M1609.5,401.8c2.78-15.73-9.25-31.45-24.97-33.3h-9.25c-8.33,0-15.73,2.77-22.2,8.32    c-8.32,7.4-12.02,18.5-12.02,29.6c0,9.25,2.77,18.5,8.32,25.9s13.88,12.02,23.12,11.1h22.2v9.25c0.92,4.62-1.85,8.33-5.55,9.25    H1435.6v-5.55c0-10.17-2.78-19.42-9.25-26.83c-6.48-8.33-15.73-12.02-25.9-12.02c-18.5-0.93-34.22,14.8-35.15,33.3v12.95h-106.37    c-6.48-0.92-12.02-5.55-12.95-12.95c-0.93-10.17-2.78-21.27-6.48-30.52c-5.55-12.95-18.5-21.27-33.3-21.27    c-25.9,0-39.77,17.57-39.77,51.8h38.85v12.02c0,12.02-3.7,23.12-12.02,31.45c-7.4,8.33-18.5,12.95-29.6,12.95    s-22.2-4.62-29.6-12.95c-8.32-8.33-12.02-19.42-12.02-30.52v-25.9h-14.8v25.9c0,15.73,5.55,30.52,15.72,41.62    c10.18,11.1,24.98,17.58,39.78,17.58s29.6-6.48,39.77-17.58s16.65-25.9,15.72-41.62v-25.9h-37.92c0-6.48,2.77-12.95,6.48-18.5    c8.32-9.25,23.12-10.18,33.3-1.85c2.78,1.85,4.62,4.62,5.55,7.4c3.7,8.33,5.55,17.58,5.55,26.83c0.93,6.48,3.7,12.95,8.33,17.58    c4.62,3.7,10.17,6.48,15.73,6.48h113.77c5.55,12.02,17.58,19.42,30.53,18.5c12.95,0.92,25.9-6.48,30.52-18.5h159.1    c9.25,0.92,17.57-5.55,18.5-14.8v-3.7C1607.65,457.3,1609.5,401.8,1609.5,401.8z M1577.13,432.33    c-12.02-0.92-20.35-11.1-20.35-23.12v-1.85c0.92-7.4,2.77-14.8,7.4-20.35c3.7-4.62,9.25-6.48,14.8-6.48    c8.33,0,15.73,6.48,15.73,14.8v37.93h-17.57L1577.13,432.33L1577.13,432.33z M1416.18,477.65c-2.77,4.62-8.33,6.48-13.88,6.48    s-11.1-2.77-14.8-6.48c-4.62-5.55-7.4-12.95-6.48-20.35c-0.92-7.4,1.85-14.8,5.55-21.27c3.7-4.62,8.32-7.4,14.8-6.48    c5.55,0,11.1,2.77,14.8,6.48c4.62,5.55,7.4,13.88,6.48,21.27C1422.65,464.7,1419.88,471.18,1416.18,477.65L1416.18,477.65z     M1147,537.78h14.8v15.73H1147V537.78z M1581.75,337.98h14.8v15.73h-14.8V337.98z M2318.05,368.5h14.8v15.73h-14.8V368.5z     M2305.1,346.3h14.8v15.73h-14.8V346.3z M1947.13,354.62h14.8v15.73h-14.8V354.62z M2292.15,368.5h15.73v15.73h-15.73V368.5z     M2373.55,400.88h-13.88v50.88c0,7.4-5.55,13.88-13.88,14.8h-1.85c-6.48,0.92-12.95-0.92-18.5-5.55c-4.62-4.62-7.4-11.1-7.4-17.58    v-36.08h-14.8v45.33c0,7.4-5.55,13.88-12.95,14.8h-1.85c-11.1,1.85-22.2-5.55-24.05-17.58v-42.55h-12.03v56.43h-123.93    c-4.62,0-8.33-1.85-11.1-5.55c-4.62-4.62-6.48-11.1-6.48-17.58v-39.78h-14.8c0.92,15.73,0.92,32.38,0,48.1    c0,4.62-2.77,9.25-6.48,11.1c-2.77,1.85-6.48,2.77-10.17,2.77h-112.85c12.95-9.25,21.27-24.05,22.2-39.77    c0-10.18-3.7-20.35-10.17-26.83c-14.8-12.02-35.15-12.02-49.95,0c-7.4,7.4-11.1,16.65-10.17,26.83c0,7.4,1.85,13.88,5.55,20.35    c3.7,8.33,10.18,14.8,17.58,20.35c-6.48,0.92-12.02,0.92-18.5,0h-32.38c-7.4,0-15.73-2.77-21.27-8.33    c-10.18-10.17-15.73-24.98-14.8-39.77v-12.02h-12.02v12.02c0,14.8,4.62,29.6,12.02,42.55c7.4,12.95,21.27,20.35,36.08,20.35h31.45    c11.1,0,21.27-2.77,31.45-6.48c10.18,4.62,20.35,6.48,30.53,6.48h99.9c11.1,0,21.27-6.48,25.9-16.65c0.93,3.7,2.78,6.48,5.55,9.25    c3.7,4.62,9.25,7.4,15.73,7.4h135.97v-9.25c1.85,3.7,5.55,6.48,9.25,9.25c5.55,2.77,11.1,3.7,16.65,2.77    c11.1,1.85,22.2-5.55,25.9-16.65c2.77,5.55,6.48,10.17,11.1,13.88c5.55,2.77,11.1,3.7,16.65,3.7c14.8,0.92,26.82-11.1,27.75-25.9    v-1.85C2374.48,450.83,2373.55,433.25,2373.55,400.88L2373.55,400.88z M1954.53,455.45c-4.62-0.92-9.25-4.62-12.03-9.25    c-5.55-6.48-9.25-14.8-9.25-24.05c0-6.48,1.85-12.02,5.55-17.57c3.7-5.55,9.25-8.33,15.73-7.4c6.47,0,12.02,2.77,15.72,7.4    c3.7,4.62,5.55,11.1,5.55,17.57c0,9.25-3.7,17.58-10.18,24.05C1963.78,450.83,1959.15,454.53,1954.53,455.45z M2482.7,323.17h-7.4    c-4.62,0.93-8.33-2.77-9.25-6.48v-1.85c0-6.48,1.85-10.17,6.48-10.17c2.77,0,4.62,1.85,5.55,3.7l2.77-4.62    c-1.85-2.77-5.55-4.62-9.25-4.62c-7.4,0-13.88,6.48-13.88,13.88c0,3.7,1.85,7.4,3.7,10.18h-10.18l-3.7,6.48h33.3L2482.7,323.17    L2482.7,323.17z M2502.13,342.6v90.65c0.93,11.1-5.55,20.35-14.8,24.98c-8.33,3.7-16.65,5.55-25.9,5.55h-7.4v13.88h10.17    c13.88,0.92,27.75-3.7,38.85-11.1c9.25-6.48,14.8-17.58,14.8-29.6l-1.85-93.43L2502.13,342.6L2502.13,342.6z"></path>
		<path class="st0" d="M2464.2,452.68c4.62,0.92,10.17,0,14.8-2.77l-1.85-108.23h-14.8C2463.28,397.18,2464.2,434.18,2464.2,452.68z     M1739.93,342.6h-14.8v107.3c0,7.4-5.55,13.88-12.95,14.8h-28.68c-4.62,0-8.32-1.85-11.1-5.55c-3.7-4.62-6.48-10.17-6.48-15.73    V401.8h-13.88V461c0,12.95-4.62,24.98-12.95,35.15c-8.32,9.25-20.35,14.8-33.3,14.8c2.77,5.55,4.62,10.17,5.55,12.95    c13.88-0.92,27.75-7.4,37.93-17.58c10.17-11.1,15.73-24.98,16.65-39.77c3.7,7.4,11.1,12.95,20.35,12.95h27.75    c13.88,1.85,25.9-8.33,27.75-22.2v-58.27C1740.85,370.35,1739.93,351.85,1739.93,342.6L1739.93,342.6z M2558.55,342.6h-14.8    l1.85,134.12h14.8L2558.55,342.6L2558.55,342.6z M1767.68,342.6l1.85,134.12h14.8l-1.85-134.13    C1782.48,342.6,1767.68,342.6,1767.68,342.6z M2085.88,491.53h15.73v15.73h-15.73V491.53z M2417.03,400.88V461    c0,12.95-4.62,25.9-12.95,35.15c-8.32,9.25-20.35,14.8-33.3,14.8c2.77,5.55,4.62,10.17,5.55,12.95    c15.73-0.92,29.6-8.33,39.77-20.35c10.18-12.95,15.73-28.67,14.8-44.4v-56.43h-13.88    C2417.03,402.73,2417.03,400.88,2417.03,400.88z M2111.78,491.53h14.8v15.73h-14.8V491.53z"></path>
	</g>
	<g>
		<path class="st0" d="M156.02,1358.62h-16.25v0.66c0,10.13-2.58,18.01-7.73,23.65c-5.15,5.63-12.48,8.45-21.99,8.45h-35.4    c-6.34,0-12.26-1.17-17.77-3.5c-5.5-2.33-9.93-5.73-13.28-10.17c-3.35-4.45-5.02-9.62-5.02-15.52c0-5.28,1.14-14.71,3.43-28.27    l11.76,1.85c-1.76,12.15-2.64,20.17-2.64,24.04c0,3.96,1.01,7.48,3.04,10.57c2.02,3.08,4.78,5.48,8.26,7.2s7.33,2.58,11.56,2.58    h35.27c5.9,0,10.35-1.76,13.34-5.28s4.49-8.41,4.49-14.66v-1.58h-2.38c-3.26,0-6.34-0.31-9.25-0.92c-2.91-0.62-5.68-1.8-8.32-3.57    l5.28-9.51c1.76,1.23,3.57,2,5.42,2.31c1.85,0.31,4.49,0.46,7.93,0.46h30.25L156.02,1358.62L156.02,1358.62z M75.05,1400.89h11.23    v12.68H75.05V1400.89z M92.75,1400.89h11.1v12.68h-11.1V1400.89z"></path>
		<path class="st0" d="M187.46,1292.57v66.05h-32.23v-11.23h19.68v-54.82L187.46,1292.57L187.46,1292.57z M175.31,1369.19h12.02    v12.95h-12.02V1369.19z"></path>
		<path class="st0" d="M252.72,1358.62h-18.23v0.79c0,10.39-1.81,18.34-5.42,23.84c-3.61,5.5-9.07,8.26-16.38,8.26    c-2.03,0-4.23-0.13-6.6-0.4l-3.17-0.26v-11.1c2.91,0.26,5.28,0.4,7.13,0.4c3.96,0,6.96-1.58,8.98-4.75s3.04-7.62,3.04-13.34    v-69.35h12.42v54.69h18.23V1358.62z"></path>
		<path class="st0" d="M335.8,1347.39v11.23h-14.93c-4.32,0-8.74-0.53-13.28-1.58c-4.54-1.06-8.78-2.51-12.75-4.36    c-3.79,1.85-7.93,3.3-12.42,4.36s-8.85,1.58-13.08,1.58H252.7v-11.23h16.25c4.49,0,9.11-0.84,13.87-2.51    c-6.43-5.11-11.56-10.81-15.39-17.11c-3.83-6.3-5.83-12.04-6.01-17.24l-0.4-10.04c5.28-2.91,10.81-5.2,16.58-6.87    s11.47-2.51,17.11-2.51c5.63,0,11.38,0.84,17.24,2.51s11.47,3.96,16.84,6.87l-0.53,10.04c-0.18,5.2-2.18,10.94-6.01,17.24    s-9,12-15.52,17.11c4.84,1.67,9.51,2.51,14,2.51H335.8z M279.33,1324.54c3.74,5.72,8.92,10.66,15.52,14.79    c6.69-4.23,11.93-9.18,15.72-14.86c3.79-5.68,5.68-11.56,5.68-17.63c-8.1-2.91-15.24-4.36-21.4-4.36    c-6.08,0-13.12,1.45-21.14,4.36C273.72,1312.91,275.59,1318.82,279.33,1324.54z"></path>
		<path class="st0" d="M364.6,1264.57v94.05h-28.8v-11.23h16.25v-82.82L364.6,1264.57L364.6,1264.57z"></path>
		<path class="st0" d="M387.58,1264.57h12.55v94.05h-12.55V1264.57z"></path>
		<path class="st0" d="M522.45,1347.39v11.23h-27.08c-2.38-1.14-5.35-2.18-8.92-3.1s-7.07-1.39-10.5-1.39    c-11.27,0-16.91,5.55-16.91,16.64c0,5.9,1.67,10.46,5.02,13.67c3.35,3.21,8.41,4.82,15.19,4.82c2.64,0,6.19-0.24,10.63-0.73    c4.45-0.49,9.09-1.17,13.94-2.05l1.45,9.78c-4.49,1.06-9.33,2-14.53,2.84s-9.86,1.25-14,1.25c-9.86,0-17.39-2.64-22.59-7.93    c-5.2-5.28-7.79-12.77-7.79-22.46c0-8.9,2.29-15.61,6.87-20.14c4.58-4.54,11.4-6.8,20.48-6.8c4.4,0,8.54,0.46,12.42,1.39    c3.87,0.92,6.96,2,9.25,3.24v-32.76c0-8.45-4.27-12.68-12.81-12.68c-3.96,0-13.12,0.71-27.48,2.11l-0.4-8.85    c4.84-1.14,10.21-2.13,16.12-2.97c5.9-0.84,10.79-1.25,14.66-1.25c6.96,0,12.42,1.7,16.38,5.08c3.96,3.39,5.94,9.14,5.94,17.24    v33.82L522.45,1347.39L522.45,1347.39z M478.2,1367.6h11.1v12.55h-11.1V1367.6z"></path>
		<path class="st0" d="M574.36,1347.39v11.23h-51.91v-11.23h19.68v-54.82h12.55v54.82H574.36z M533.81,1369.19h11.23v12.68h-11.23    V1369.19z M551.51,1369.19h11.1v12.68h-11.1V1369.19z"></path>
		<path class="st0" d="M619.01,1347.39v11.23h-44.65v-11.23h16.25v-82.82h12.55v82.82H619.01z"></path>
		<path class="st0" d="M698.13,1347.39v11.23h-79.12v-11.23h52.05v-32.5c0-8.45-4.32-12.68-12.95-12.68    c-3.88,0-12.99,0.71-27.34,2.11l-0.4-8.85c4.75-1.14,10.11-2.13,16.05-2.97s10.85-1.25,14.73-1.25c6.96,0,12.42,1.7,16.38,5.08    c3.96,3.39,5.94,9.14,5.94,17.24v33.82L698.13,1347.39L698.13,1347.39z M652.69,1267.34h12.02v12.95h-12.02V1267.34z"></path>
		<path class="st0" d="M726.93,1264.57v94.05h-28.8v-11.23h16.25v-82.82L726.93,1264.57L726.93,1264.57z"></path>
		<path class="st0" d="M749.91,1264.57h12.55v94.05h-12.55V1264.57z"></path>
		<path class="st0" d="M893.76,1358.62H879.1v4.23c0,5.81-1.52,10.88-4.56,15.19c-3.04,4.31-7.18,7.62-12.42,9.91    s-11.08,3.43-17.5,3.43c-6.78,0-12.9-1.25-18.36-3.76c-5.46-2.51-9.75-5.97-12.88-10.37s-4.69-9.33-4.69-14.79    c0-6.08,1.72-19.42,5.15-40.03l11.89,0.66c-1.32,8.37-2.44,16.23-3.37,23.58c-0.92,7.35-1.39,12.26-1.39,14.73    c0,3.52,1.01,6.71,3.04,9.58c2.03,2.86,4.82,5.11,8.39,6.74c3.57,1.63,7.51,2.44,11.82,2.44c6.34,0,11.65-1.7,15.92-5.08    c4.27-3.39,6.41-7.95,6.41-13.67v-68.82h12.55v54.82h14.66L893.76,1358.62L893.76,1358.62z M838.94,1279.63h12.02v12.95h-12.02    V1279.63z"></path>
		<path class="st0" d="M964.17,1347.39v11.23h-70.41v-11.23h22.85c-2.03-2.64-3.76-6.12-5.22-10.44c-1.45-4.31-2.18-9.07-2.18-14.27    c0-6.52,1.23-12.15,3.7-16.91c2.46-4.76,5.9-8.39,10.3-10.9c4.4-2.51,9.42-3.76,15.06-3.76c3.35,0,7.04,0.46,11.1,1.39    c4.05,0.92,7.66,2.22,10.83,3.9l-0.53,11.36c-1.76-1.06-4.71-2.2-8.85-3.43c-4.14-1.23-7.88-1.85-11.23-1.85    c-5.37,0-9.69,1.81-12.95,5.42s-4.89,8.76-4.89,15.46c0,5.2,0.92,9.89,2.77,14.07c1.85,4.18,4.14,7.51,6.87,9.97L964.17,1347.39    L964.17,1347.39z"></path>
		<path class="st0" d="M1079.75,1347.39v11.23h-44.78c-8.1,0-14.49-1.06-19.15-3.17c-4.67-2.11-8.06-5.59-10.17-10.44    c-2.11-4.84-3.17-11.54-3.17-20.08c0-8.37,1.01-14.99,3.04-19.88c2.02-4.89,5.33-8.41,9.91-10.57c4.58-2.16,10.88-3.24,18.89-3.24    c3.87,0,9.2,0.18,15.98,0.53c6.78,0.35,11.71,0.71,14.79,1.06v54.55L1079.75,1347.39L1079.75,1347.39z M1017.07,1338.28    c1.36,3.26,3.59,5.59,6.67,7c3.08,1.41,7.31,2.11,12.68,2.11h16.25v-43.99c-7.05-0.53-12.64-0.79-16.78-0.79    c-5.2,0-9.31,0.73-12.35,2.18c-3.04,1.45-5.22,3.79-6.54,7c-1.32,3.22-1.98,7.55-1.98,13.01    C1015.02,1330.53,1015.7,1335.02,1017.07,1338.28z M1022.95,1267.47h11.23v12.81h-11.23V1267.47z M1040.65,1267.47h11.1v12.81    h-11.1V1267.47z"></path>
		<path class="st0" d="M1131.66,1347.39v11.23h-51.91v-11.23h19.68v-54.82h12.55v54.82H1131.66z M1091.11,1369.19h11.23v12.68    h-11.23V1369.19z M1108.81,1369.19h11.1v12.68h-11.1V1369.19z"></path>
		<path class="st0" d="M1176.31,1347.39v11.23h-44.65v-11.23h16.25v-82.82h12.55v82.82H1176.31z"></path>
		<path class="st0" d="M1268.05,1301.49c4.62,6.83,6.93,14.82,6.93,23.97v33.16h-98.67v-11.23h18.76v-54.82h12.42v21.14    c3.96-4.93,7.55-8.94,10.77-12.02c3.21-3.08,6.98-5.59,11.29-7.53c4.31-1.94,9.29-2.91,14.93-2.91    C1255.56,1291.25,1263.42,1294.66,1268.05,1301.49z M1207.48,1329.56v17.83h55.08v-19.81c0-7.13-1.72-13.1-5.15-17.9    c-3.43-4.8-8.41-7.2-14.93-7.2C1230.42,1302.48,1218.75,1311.51,1207.48,1329.56z"></path>
		<path class="st0" d="M1353.84,1264.57v94.05h-64.73v-11.23h16.78v-64.99h12.55v64.99h22.98v-82.82L1353.84,1264.57    L1353.84,1264.57z M1324.91,1270.25l-27.61,5.42l-1.32-4.75l6.34-1.72c-1.58-1.23-2.77-2.71-3.57-4.42    c-0.79-1.72-1.19-3.5-1.19-5.35c0-3.35,1.19-6.25,3.57-8.72c2.38-2.46,5.46-3.7,9.25-3.7c3.35,0,6.61,1.06,9.78,3.17l-1.45,5.94    c-0.53-0.44-1.32-0.88-2.38-1.32s-2.2-0.66-3.43-0.66c-2.2,0-4.01,0.73-5.42,2.18c-1.41,1.45-2.11,3.19-2.11,5.22    c0,2.47,1.06,4.49,3.17,6.08l14.79-3.96L1324.91,1270.25z"></path>
		<path class="st0" d="M1375.5,1264.57h12.55v94.05h-12.55V1264.57z"></path>
		<path class="st0" d="M1550.66,1358.62h-15.32v4.89c0,5.55-1.23,10.52-3.7,14.93c-2.47,4.4-6.12,7.86-10.96,10.37    s-10.66,3.76-17.44,3.76h-37.12c-6.78,0-12.57-1.25-17.37-3.76c-4.8-2.51-8.41-5.97-10.83-10.37s-3.63-9.42-3.63-15.06    c0-7.31,1.67-20.17,5.02-38.57l11.76,1.85l-0.92,5.81c-0.88,5.81-1.7,11.38-2.44,16.71c-0.75,5.33-1.12,9.36-1.12,12.09    c0,6.16,1.61,11.05,4.82,14.66s8.21,5.42,14.99,5.42h36.46c6.78,0,11.8-1.81,15.06-5.42c3.26-3.61,4.89-8.45,4.89-14.53v-2.77    h-18.23c-6.34,0-11.29-0.84-14.86-2.51s-6.17-4.71-7.79-9.11c-1.63-4.4-2.44-10.83-2.44-19.29c0-8.8,0.95-15.72,2.84-20.74    c1.89-5.02,5.11-8.67,9.64-10.96c4.53-2.29,10.81-3.43,18.82-3.43c2.91,0,6.32,0.11,10.24,0.33c3.92,0.22,7.11,0.46,9.58,0.73    l4.76,0.53v53.23h15.32v11.21H1550.66z M1493.59,1339.93c1.06,2.86,2.73,4.82,5.02,5.88s5.5,1.58,9.64,1.58h14.53v-43.06    c-4.67-0.44-8.37-0.66-11.1-0.66c-5.02,0-8.96,0.77-11.82,2.31s-4.89,4.01-6.08,7.4s-1.78,8.04-1.78,13.94    C1492.01,1332.86,1492.54,1337.07,1493.59,1339.93z M1498.09,1267.47h11.23v12.81h-11.23V1267.47z M1515.79,1267.47h11.1v12.81    h-11.1V1267.47z"></path>
		<path class="st0" d="M1582.89,1292.57v66.05h-32.23v-11.23h19.68v-54.82L1582.89,1292.57L1582.89,1292.57z M1590.68,1273.55    l-27.61,5.42l-1.32-4.76l6.34-1.72c-1.58-1.23-2.77-2.71-3.57-4.42c-0.79-1.72-1.19-3.5-1.19-5.35c0-3.35,1.19-6.25,3.57-8.72    c2.38-2.46,5.46-3.7,9.25-3.7c3.35,0,6.61,1.06,9.78,3.17l-1.45,5.94c-0.53-0.44-1.32-0.88-2.38-1.32s-2.2-0.66-3.43-0.66    c-2.2,0-4.01,0.73-5.42,2.18c-1.41,1.45-2.11,3.19-2.11,5.22c0,2.47,1.06,4.49,3.17,6.08l14.79-3.96L1590.68,1273.55z"></path>
		<path class="st0" d="M1629.65,1347.39v11.23h-25.1v-94.05h12.55v82.82L1629.65,1347.39L1629.65,1347.39z"></path>
		<path class="st0" d="M1661.88,1292.57v66.05h-32.23v-11.23h19.68v-54.82L1661.88,1292.57L1661.88,1292.57z M1641.14,1267.74h11.23    v12.55h-11.23V1267.74z M1650.12,1250.96h10.83v12.02h-10.83V1250.96z M1658.84,1267.74h11.1v12.55h-11.1V1267.74z"></path>
		<path class="st0" d="M1749.33,1358.62h-16.51c-0.62,10.39-2.75,18.45-6.41,24.17c-3.66,5.72-9.67,8.59-18.03,8.59    c-3.7,0-10.66-0.71-20.87-2.11v-11.23c8.63,1.41,15.28,2.11,19.95,2.11c2.99,0,5.42-0.53,7.27-1.58c1.85-1.06,3.26-3.15,4.23-6.27    c0.97-3.13,1.45-7.68,1.45-13.67h-18.1c-10.22,0-16.93-3.12-20.14-9.38c-3.22-6.25-4.82-14-4.82-23.25    c0.09-8.72,1.03-15.67,2.84-20.87c1.8-5.19,4.8-9,8.98-11.43c4.18-2.42,9.88-3.63,17.11-3.63c4.05,0,8.7,0.29,13.94,0.86    c5.24,0.57,9.53,1.21,12.88,1.92v54.55h16.25v11.22H1749.33z M1693.06,1341.25c2.11,4.09,6.56,6.14,13.34,6.14h14.13v-45.18    c-4.32-0.62-8.15-0.92-11.49-0.92c-7.13,0-12.09,1.87-14.86,5.61s-4.21,9.97-4.29,18.69    C1689.89,1331.94,1690.94,1337.15,1693.06,1341.25z"></path>
		<path class="st0" d="M1793.98,1347.39v11.23h-44.65v-11.23h16.25v-82.82h12.55v82.82H1793.98z"></path>
		<path class="st0" d="M1822.77,1264.57v94.05h-28.8v-11.23h16.25v-82.82L1822.77,1264.57L1822.77,1264.57z"></path>
		<path class="st0" d="M1986.04,1358.62h-16.25v0.66c0,10.13-2.58,18.01-7.73,23.65c-5.15,5.63-12.48,8.45-21.99,8.45h-35.4    c-6.34,0-12.26-1.17-17.77-3.5c-5.5-2.33-9.93-5.73-13.28-10.17c-3.35-4.45-5.02-9.62-5.02-15.52c0-5.28,1.14-14.71,3.43-28.27    l11.76,1.85c-1.76,12.15-2.64,20.17-2.64,24.04c0,3.96,1.01,7.48,3.04,10.57c2.02,3.08,4.78,5.48,8.26,7.2s7.33,2.58,11.56,2.58    h35.27c5.9,0,10.35-1.76,13.34-5.28c2.99-3.52,4.49-8.41,4.49-14.66v-1.58h-2.38c-3.26,0-6.34-0.31-9.25-0.92    c-2.91-0.62-5.68-1.8-8.32-3.57l5.28-9.51c1.76,1.23,3.57,2,5.42,2.31s4.49,0.46,7.93,0.46h30.25V1358.62z M1905.06,1400.89h11.23    v12.68h-11.23V1400.89z M1922.76,1400.89h11.1v12.68h-11.1V1400.89z"></path>
		<path class="st0" d="M2098.71,1347.39v11.23h-37.51c-5.46,0-10.35-1.76-14.66-5.28c-3.26,3.52-7.53,5.28-12.81,5.28h-48.48v-11.23    h21v-48.21h12.55v48.21h10.83c3.87,0,6.71-1.63,8.52-4.89c1.8-3.26,2.71-7.35,2.71-12.29v-31.04h12.55v30.91    c0,5.02-0.57,9.51-1.72,13.47c1.23,0.97,2.73,1.85,4.49,2.64c1.76,0.79,3.52,1.19,5.28,1.19h12.68v-25.49    c0-6.16-0.71-15.81-2.11-28.93l10.57-0.4c1.06,5.2,2,10.63,2.84,16.31s1.25,10.02,1.25,13.01v25.49h12.02V1347.39z"></path>
		<path class="st0" d="M2150.63,1347.39v11.23h-51.91v-11.23h19.68v-54.82h12.55v54.82H2150.63z M2110.07,1369.19h11.23v12.68    h-11.23V1369.19z M2127.77,1369.19h11.1v12.68h-11.1V1369.19z"></path>
		<path class="st0" d="M2182.86,1292.57v66.05h-32.23v-11.23h19.68v-54.82L2182.86,1292.57L2182.86,1292.57z M2190.65,1273.55    l-27.61,5.42l-1.32-4.76l6.34-1.72c-1.58-1.23-2.77-2.71-3.57-4.42c-0.79-1.72-1.19-3.5-1.19-5.35c0-3.35,1.19-6.25,3.57-8.72    c2.38-2.46,5.46-3.7,9.25-3.7c3.35,0,6.61,1.06,9.78,3.17l-1.45,5.94c-0.53-0.44-1.32-0.88-2.38-1.32s-2.2-0.66-3.43-0.66    c-2.2,0-4.01,0.73-5.42,2.18c-1.41,1.45-2.11,3.19-2.11,5.22c0,2.47,1.06,4.49,3.17,6.08l14.79-3.96L2190.65,1273.55z"></path>
		<path class="st0" d="M2201.48,1391.11l-3.17-0.26v-11.1c2.91,0.26,5.28,0.4,7.13,0.4c3.96,0,6.96-1.58,8.98-4.75    s3.04-7.62,3.04-13.34v-69.35h12.42v66.71c0,10.39-1.81,18.34-5.42,23.84s-9.07,8.26-16.38,8.26    C2206.06,1391.51,2203.86,1391.38,2201.48,1391.11z"></path>
		<path class="st0" d="M2276.38,1391.11l-3.17-0.26v-11.1c2.91,0.26,5.28,0.4,7.13,0.4c3.96,0,6.96-1.58,8.98-4.75    s3.04-7.62,3.04-13.34v-69.35h12.42v66.71c0,10.39-1.81,18.34-5.42,23.84s-9.07,8.26-16.38,8.26    C2280.95,1391.51,2278.75,1391.38,2276.38,1391.11z"></path>
		<path class="st0" d="M2387.2,1347.39v11.23h-68.16v-11.23h42.8v-12.15c0-12.5-2.42-21.33-7.27-26.49    c-4.84-5.15-10.52-7.73-17.04-7.73h-11.49l-0.92-9.38c1.32-0.44,3.48-0.88,6.47-1.32s5.81-0.66,8.45-0.66    c6.34,0,12.09,1.52,17.24,4.56s9.27,7.91,12.35,14.6s4.62,15.28,4.62,25.76v12.81L2387.2,1347.39L2387.2,1347.39z"></path>
		<path class="st0" d="M2497.9,1347.39v11.23h-110.7v-11.23h18.76v-54.82h12.42v21.14c3.96-4.93,7.55-8.94,10.77-12.02    c3.21-3.08,6.98-5.59,11.29-7.53c4.31-1.94,9.29-2.91,14.93-2.91c11.1,0,18.96,3.41,23.58,10.24s6.93,14.82,6.93,23.97v21.93    H2497.9z M2418.38,1329.56v17.83h55.08v-19.81c0-7.13-1.72-13.1-5.15-17.9c-3.43-4.8-8.41-7.2-14.93-7.2    C2441.32,1302.48,2429.65,1311.51,2418.38,1329.56z"></path>
		<path class="st0" d="M2569.29,1299.31c4.97,5.37,7.46,14.13,7.46,26.29v33.02h-78.86v-11.23h21.4    c-1.23-7.22-1.85-14.31-1.85-21.27c0-5.55,0.4-11.16,1.19-16.84c0.79-5.68,1.67-10.41,2.64-14.2c2.38-0.97,5.66-1.85,9.84-2.64    c4.18-0.79,8.7-1.19,13.54-1.19C2556.11,1291.25,2564.32,1293.94,2569.29,1299.31z M2530.46,1337.95c0.4,3.92,0.81,7.07,1.25,9.44    h32.5v-22.06c0-8.1-1.7-13.94-5.08-17.5c-3.39-3.57-8.79-5.35-16.18-5.35c-3.79,0-7.49,0.4-11.1,1.19    c-1.32,8.1-1.98,15.59-1.98,22.46C2529.86,1330.09,2530.06,1334.03,2530.46,1337.95z"></path>
	</g>
</g>
</svg>
