<?xml version="1.0" encoding="UTF-8"?>
<!-- Generator: Adobe Illustrator 28.0.0, SVG Export Plug-In . SVG Version: 6.00 Build 0)  -->
<svg xmlns="http://www.w3.org/2000/svg" xmlns:xlink="http://www.w3.org/1999/xlink" version="1.1" id="GAC_x5F_Lockup" x="0px" y="0px" viewBox="0 0 400.45 259.34" style="enable-background:new 0 0 400.45 259.34;" xml:space="preserve">
<style type="text/css">
	.st0{fill-rule:evenodd;clip-rule:evenodd;fill:#EA4335;}
	.st1{fill-rule:evenodd;clip-rule:evenodd;fill:#FBBC04;}
	.st2{fill-rule:evenodd;clip-rule:evenodd;fill:#4285F4;}
	.st3{fill-rule:evenodd;clip-rule:evenodd;fill:#34A853;}
	.st4{fill:#202124;}
	.st5{fill:none;}
	.st6{display:none;fill:#202124;}
	.st7{fill-rule:evenodd;clip-rule:evenodd;fill:#202124;}
</style>
<g id="GAC_x5F_logo">
	<g id="Bottom_x5F_Left">
		<path class="st0" d="M199.9,156.35c-22.68,0-41.07-18.39-41.07-41.07c0-22.68,18.39-41.07,41.07-41.07V50.74    c-35.64,0-64.54,28.89-64.54,64.54s28.89,64.54,64.54,64.54V156.35z"></path>
	</g>
	<path id="Bottom_x5F_Right" class="st1" d="M276.17,109.41h-12.01h-21.72h-1.89c0.27,1.92,0.42,3.87,0.42,5.87   c0,22.68-18.39,41.07-41.07,41.07v23.47c29.54,0,54.42-19.85,62.09-46.93h14.18V109.41z"></path>
	<polygon id="Stem_00000160179691678952314140000012039143577127515576_" class="st2" points="199.9,97.68 282.04,179.81    248.3,179.81 166.17,97.68  "></polygon>
	<g id="Top">
		<path class="st3" d="M199.9,3.81c-25.92,0-46.93,21.01-46.93,46.93h23.47c0-12.96,10.51-23.47,23.47-23.47    c12.96,0,23.47,10.51,23.47,23.47s-10.51,23.47-23.47,23.47v23.47c25.92,0,46.93-21.01,46.93-46.93    C246.84,24.82,225.82,3.81,199.9,3.81z"></path>
	</g>
</g>
<g id="GAC_x5F_logo_00000020377036668390106150000005162064838895121290_">
	<g id="XMLID_21_">
		<path class="st4" d="M1.58,230.08c0-9.49,7.98-17.22,17.47-17.22c5.25,0,8.99,2.06,11.8,4.75l-3.32,3.32    c-2.02-1.89-4.75-3.36-8.48-3.36c-6.93,0-12.35,5.59-12.35,12.52c0,6.93,5.42,12.52,12.35,12.52c4.49,0,7.06-1.81,8.69-3.44    c1.34-1.34,2.23-3.28,2.56-5.92H19.05v-4.7h15.83c0.17,0.84,0.25,1.85,0.25,2.94c0,3.53-0.97,7.9-4.07,11    c-3.02,3.15-6.89,4.83-12.01,4.83C9.56,247.3,1.58,239.58,1.58,230.08z"></path>
		<path class="st4" d="M47.93,225.13c-6.13,0-11.13,4.66-11.13,11.09c0,6.38,5,11.09,11.13,11.09c6.13,0,11.13-4.7,11.13-11.09    C59.06,229.79,54.06,225.13,47.93,225.13z M47.93,242.94c-3.36,0-6.26-2.77-6.26-6.72c0-3.99,2.9-6.72,6.26-6.72    c3.36,0,6.26,2.73,6.26,6.72C54.19,240.16,51.29,242.94,47.93,242.94z"></path>
		<path class="st4" d="M72.21,225.13c-6.13,0-11.13,4.66-11.13,11.09c0,6.38,5,11.09,11.13,11.09c6.13,0,11.13-4.7,11.13-11.09    C83.34,229.79,78.34,225.13,72.21,225.13z M72.21,242.94c-3.36,0-6.26-2.77-6.26-6.72c0-3.99,2.9-6.72,6.26-6.72    c3.36,0,6.26,2.73,6.26,6.72C78.47,240.16,75.57,242.94,72.21,242.94z"></path>
		<path class="st4" d="M102.01,225.8v1.81h-0.17c-1.09-1.3-3.19-2.48-5.84-2.48c-5.54,0-10.63,4.87-10.63,11.13    c0,6.22,5.08,11.05,10.63,11.05c2.65,0,4.75-1.18,5.84-2.52h0.17v1.6c0,4.24-2.27,6.51-5.92,6.51c-2.98,0-4.83-2.14-5.59-3.95    l-4.24,1.76c1.22,2.94,4.45,6.55,9.83,6.55c5.71,0,10.54-3.36,10.54-11.55V225.8H102.01z M96.42,242.94    c-3.36,0-6.17-2.81-6.17-6.68c0-3.91,2.81-6.76,6.17-6.76c3.32,0,5.92,2.86,5.92,6.76C102.35,240.12,99.74,242.94,96.42,242.94z"></path>
		<rect x="109.99" y="214.04" class="st4" width="4.87" height="32.59"></rect>
		<path class="st4" d="M128.22,242.94c-2.48,0-4.24-1.13-5.38-3.36l14.83-6.13l-0.5-1.26c-0.92-2.48-3.74-7.06-9.49-7.06    c-5.71,0-10.46,4.49-10.46,11.09c0,6.22,4.7,11.09,11,11.09c5.08,0,8.02-3.11,9.24-4.91l-3.78-2.52    C132.42,241.72,130.7,242.94,128.22,242.94z M127.84,229.41c1.93,0,3.57,0.97,4.12,2.35l-9.91,4.12    C121.92,231.6,125.36,229.41,127.84,229.41z"></path>
		<rect x="1.34" y="212.84" class="st5" width="136.49" height="44.62"></rect>
	</g>
	<g>
		<path class="st4" d="M145.88,246.63l11.34-30.07h4.37l11.34,30.07h-4.28l-2.9-8.15H153.1l-2.94,8.15H145.88z M154.4,234.87h10    l-4.91-13.56h-0.17L154.4,234.87z"></path>
		<path class="st4" d="M178.85,226.05v3.36h0.17c0.45-1.2,1.28-2.15,2.5-2.83c1.22-0.69,2.55-1.03,4.01-1.03    c0.42,0,0.88,0.03,1.39,0.08v3.78c-0.53-0.06-1.05-0.08-1.55-0.08c-1.85,0-3.37,0.54-4.56,1.62c-1.19,1.08-1.78,2.56-1.78,4.43    v11.25h-3.86v-20.58H178.85z M200.01,246.97c-2.16,0-3.8-0.57-4.93-1.72c-1.13-1.15-1.7-2.77-1.7-4.87v-10.79h-3.61v-3.53h3.61    v-6.3h3.86v6.3h5.04v3.53h-5.04v10.5c0,2.24,0.92,3.36,2.77,3.36c0.7,0,1.29-0.11,1.76-0.34l1.34,3.32    C202.28,246.78,201.24,246.97,200.01,246.97z"></path>
		<path class="st4" d="M213.2,247.3c-2.3,0-4.19-0.56-5.69-1.68c-1.5-1.12-2.6-2.52-3.3-4.2l3.44-1.43    c1.09,2.58,2.95,3.86,5.59,3.86c1.2,0,2.19-0.27,2.96-0.8c0.77-0.53,1.15-1.23,1.15-2.1c0-1.34-0.94-2.25-2.81-2.73l-4.16-1.01    c-1.32-0.34-2.56-0.97-3.74-1.91c-1.18-0.94-1.76-2.2-1.76-3.8c0-1.82,0.8-3.3,2.41-4.43c1.61-1.13,3.52-1.7,5.73-1.7    c1.82,0,3.44,0.41,4.87,1.24c1.43,0.83,2.45,2.01,3.07,3.55l-3.36,1.39c-0.76-1.82-2.32-2.73-4.7-2.73c-1.15,0-2.11,0.24-2.9,0.71    c-0.78,0.48-1.18,1.12-1.18,1.93c0,1.18,0.91,1.97,2.73,2.39l4.07,0.97c1.93,0.45,3.36,1.22,4.28,2.31    c0.92,1.09,1.39,2.32,1.39,3.7c0,1.85-0.76,3.39-2.27,4.62C217.52,246.69,215.58,247.3,213.2,247.3z"></path>
		<path class="st6" d="M255.53,235.88l-3.49,5.59l2.81,3.65l-2.9,2.18l-2.06-2.73c-1.96,1.82-4.28,2.73-6.97,2.73    c-3.05,0-5.64-1.02-7.77-3.07c-2.13-2.04-3.19-4.56-3.19-7.56c0-1.74,0.46-3.4,1.39-5c0.92-1.6,2.2-2.88,3.82-3.86    c-1.46-1.93-2.18-3.6-2.18-5c0-1.93,0.71-3.57,2.14-4.91c1.43-1.34,3.14-2.02,5.12-2.02c1.68,0,3.1,0.48,4.26,1.45    c1.16,0.97,1.98,2.18,2.46,3.63l-3.32,1.76c-0.78-2.1-1.92-3.15-3.4-3.15c-0.95,0-1.75,0.29-2.39,0.86    c-0.64,0.57-0.97,1.36-0.97,2.37c0,0.95,0.32,1.85,0.97,2.69l9.95,13.02l2.69-4.49L255.53,235.88z M242.93,243.78    c1.96,0,3.57-0.67,4.83-2.02l-8.48-11.13c-1.15,0.64-2.07,1.51-2.75,2.6c-0.69,1.09-1.03,2.24-1.03,3.44    c0,2.04,0.72,3.74,2.16,5.08C239.1,243.1,240.86,243.78,242.93,243.78z"></path>
		<path class="st4" d="M281.74,247.3c-4.42,0-8.13-1.5-11.13-4.49c-3-3-4.49-6.73-4.49-11.21c0-4.48,1.5-8.22,4.49-11.21    c3-3,6.71-4.49,11.13-4.49c4.54,0,8.22,1.64,11.05,4.91l-2.69,2.6c-2.04-2.55-4.83-3.82-8.36-3.82c-3.28,0-6.04,1.11-8.29,3.32    c-2.25,2.21-3.38,5.11-3.38,8.69c0,3.58,1.13,6.48,3.38,8.69c2.25,2.21,5.02,3.32,8.29,3.32c3.61,0,6.69-1.46,9.24-4.37l2.69,2.69    c-1.37,1.65-3.09,2.96-5.17,3.93C286.43,246.82,284.17,247.3,281.74,247.3z"></path>
		<path class="st4" d="M314.96,246.63h-3.7v-2.86h-0.17c-0.59,0.98-1.48,1.81-2.69,2.5c-1.2,0.69-2.48,1.03-3.82,1.03    c-2.58,0-4.53-0.78-5.86-2.35c-1.33-1.57-1.99-3.67-1.99-6.3v-12.6h3.86v11.97c0,3.84,1.69,5.75,5.08,5.75    c1.6,0,2.9-0.64,3.91-1.93c1.01-1.29,1.51-2.77,1.51-4.45v-11.34h3.86V246.63z"></path>
		<path class="st4" d="M323.52,246.63h-3.86v-30.07h3.86V246.63z"></path>
		<path class="st4" d="M337.34,246.97c-2.16,0-3.8-0.57-4.93-1.72c-1.13-1.15-1.7-2.77-1.7-4.87v-10.79h-3.61v-3.53h3.61v-6.3h3.86    v6.3h5.04v3.53h-5.04v10.5c0,2.24,0.92,3.36,2.77,3.36c0.7,0,1.29-0.11,1.76-0.34l1.34,3.32    C339.61,246.78,338.57,246.97,337.34,246.97z"></path>
		<path class="st4" d="M360.94,246.63h-3.7v-2.86h-0.17c-0.59,0.98-1.48,1.81-2.69,2.5c-1.2,0.69-2.48,1.03-3.82,1.03    c-2.58,0-4.53-0.78-5.86-2.35c-1.33-1.57-1.99-3.67-1.99-6.3v-12.6h3.86v11.97c0,3.84,1.69,5.75,5.08,5.75    c1.6,0,2.9-0.64,3.91-1.93c1.01-1.29,1.51-2.77,1.51-4.45v-11.34h3.86V246.63z"></path>
		<path class="st4" d="M369.09,246.63h-3.86v-20.58h3.7v3.36h0.17c0.39-1.12,1.2-2.04,2.41-2.77c1.22-0.73,2.4-1.09,3.55-1.09    c1.15,0,2.11,0.17,2.9,0.5l-1.47,3.61c-0.5-0.2-1.19-0.29-2.06-0.29c-1.4,0-2.64,0.55-3.72,1.66c-1.08,1.11-1.62,2.56-1.62,4.35    V246.63z"></path>
		<path class="st4" d="M388.53,247.3c-3.11,0-5.63-1.04-7.58-3.11c-1.95-2.07-2.92-4.69-2.92-7.85c0-3,0.94-5.57,2.83-7.73    c1.89-2.16,4.3-3.23,7.24-3.23c3.05,0,5.49,0.99,7.33,2.98c1.83,1.99,2.75,4.65,2.75,7.98l-0.04,0.71H381.9    c0.11,2.07,0.8,3.71,2.08,4.91c1.27,1.2,2.76,1.81,4.47,1.81c2.77,0,4.65-1.18,5.63-3.53l3.44,1.43c-0.67,1.6-1.78,2.93-3.32,4.01    C392.66,246.76,390.77,247.3,388.53,247.3z M394.07,233.86c-0.08-1.18-0.62-2.3-1.62-3.36c-0.99-1.06-2.47-1.6-4.43-1.6    c-1.43,0-2.67,0.45-3.72,1.34c-1.05,0.9-1.77,2.1-2.16,3.61H394.07z"></path>
	</g>
	<g id="Bottom_x5F_Left_00000165193189361148739330000006596688500270352047_">
		<path class="st7" d="M242.82,243.2c-3.97,0-7.19-3.22-7.19-7.19c0-3.97,3.22-7.19,7.19-7.19v-4.11c-6.24,0-11.29,5.06-11.29,11.29    s5.06,11.29,11.29,11.29V243.2z"></path>
	</g>
	<path id="Bottom_x5F_Right_00000137127286314260152160000014836041160446898350_" class="st7" d="M256.17,234.99h-2.1h-3.8h-0.33   c0.05,0.34,0.07,0.68,0.07,1.03c0,3.97-3.22,7.19-7.19,7.19v4.11c5.17,0,9.52-3.47,10.86-8.21h2.48V234.99z"></path>
	<polygon id="Stem_00000060019912814408147730000008407900252883140760_" class="st7" points="242.82,232.93 257.19,247.3    251.29,247.3 236.92,232.93  "></polygon>
	<g id="Top_00000068651914525911549010000013755467044177141651_">
		<path class="st7" d="M242.82,216.51c-4.54,0-8.21,3.68-8.21,8.21h4.11c0-2.27,1.84-4.11,4.11-4.11c2.27,0,4.11,1.84,4.11,4.11    s-1.84,4.11-4.11,4.11v4.11c4.54,0,8.21-3.68,8.21-8.21C251.03,220.18,247.36,216.51,242.82,216.51z"></path>
	</g>
</g>
</svg>
